<svg width="254" height="172" xmlns="http://www.w3.org/2000/svg" xmlns:xlink="http://www.w3.org/1999/xlink" xml:space="preserve" overflow="hidden"><defs><clipPath id="clip0"><rect x="201" y="481" width="254" height="172"/></clipPath></defs><g clip-path="url(#clip0)" transform="translate(-201 -481)"><path d="M488 584.011 488 683 562.99 683 562.99 584.011Z" fill="#FFB127" fill-rule="evenodd" fill-opacity="1"/><path d="M496.5 602.5 511.489 602.5" stroke="#1226DB" stroke-width="1.19997" stroke-linecap="butt" stroke-linejoin="miter" stroke-miterlimit="1" stroke-opacity="1" fill="none" fill-rule="evenodd"/><path d="M496.5 617.5 551.5 617.5" stroke="#1226DB" stroke-width="1.19997" stroke-linecap="butt" stroke-linejoin="miter" stroke-miterlimit="1" stroke-opacity="1" fill="none" fill-rule="evenodd"/><path d="M496.5 631.5 551.5 631.5" stroke="#1226DB" stroke-width="1.19997" stroke-linecap="butt" stroke-linejoin="miter" stroke-miterlimit="1" stroke-opacity="1" fill="none" fill-rule="evenodd"/><path d="M496.5 646.5 551.5 646.5" stroke="#1226DB" stroke-width="1.19997" stroke-linecap="butt" stroke-linejoin="miter" stroke-miterlimit="1" stroke-opacity="1" fill="none" fill-rule="evenodd"/><path d="M496.5 661.5 551.5 661.5" stroke="#1226DB" stroke-width="1.19997" stroke-linecap="butt" stroke-linejoin="miter" stroke-miterlimit="1" stroke-opacity="1" fill="none" fill-rule="evenodd"/><path d="M253.822 564.011C241.115 564.011 236 582.928 236.129 600.728 236.258 619.583 248.953 646.989 248.953 646.989 248.953 646.989 259.591 615.386 263.858 603.523 268.137 591.544 270.989 567.079 256.47 564.274 255.559 564.095 254.669 564.011 253.822 564.011Z" fill="#FFB127" fill-rule="evenodd" fill-opacity="1"/><path d="M219.586 643C218.688 643 217.768 643.159 216.828 643.478 198.01 649.888 215.815 692.608 246 698 246 698 236.649 643 219.586 643Z" fill="#FFB127" fill-rule="evenodd" fill-opacity="1"/><path d="M278.6 625.01C274.057 625.01 268.22 628.827 263.15 638.805 254 656.584 255.651 677 255.651 677 262.645 665.405 290.99 648.638 285.91 630.87 284.9 627.336 282.145 625.01 278.6 625.01Z" fill="#FFB127" fill-rule="evenodd" fill-opacity="1"/><path d="M288.697 665.011C280.445 665.011 271.046 672.888 266.675 687.791 262.899 700.523 261.01 713.635 261.01 727 267.562 720.513 274.624 714.52 282.062 709.18 296.939 698.617 302.989 675.068 298.451 669.718 295.781 666.548 292.349 665.011 288.697 665.011Z" fill="#FFB127" fill-rule="evenodd" fill-opacity="1"/><path d="M221.174 705C212.886 705 211.011 713.643 214.08 722.434 217.779 733.172 231.295 743 252.176 743 253.423 743 254.69 742.968 255.99 742.894 255.99 742.894 245.104 714.246 229.65 707.222 226.307 705.677 223.489 705 221.174 705Z" fill="#FFB127" fill-rule="evenodd" fill-opacity="1"/><path d="M254.804 566.511C254.804 566.511 235.5 658.854 266.489 767.5" stroke="#995417" stroke-width="1.4165" stroke-linecap="butt" stroke-linejoin="miter" stroke-miterlimit="1" stroke-opacity="1" fill="none" fill-rule="evenodd"/><path d="M287.5 674.5C286.993 675.013 265.001 710.187 259.5 735.49" stroke="#995417" stroke-width="1.4165" stroke-linecap="butt" stroke-linejoin="miter" stroke-miterlimit="1" stroke-opacity="1" fill="none" fill-rule="evenodd"/><path d="M220.5 713.511C220.5 713.511 228.076 728.798 261.5 746.5" stroke="#995417" stroke-width="1.4165" stroke-linecap="butt" stroke-linejoin="miter" stroke-miterlimit="1" stroke-opacity="1" fill="none" fill-rule="evenodd"/><path d="M216.511 650.511C219.036 667.546 226.643 685.746 253.489 701.5" stroke="#995417" stroke-width="1.4165" stroke-linecap="butt" stroke-linejoin="miter" stroke-miterlimit="1" stroke-opacity="1" fill="none" fill-rule="evenodd"/><path d="M280.5 629.5C280.5 629.5 263.6 648.516 252.5 691.49" stroke="#995417" stroke-width="1.4165" stroke-linecap="butt" stroke-linejoin="miter" stroke-miterlimit="1" stroke-opacity="1" fill="none" fill-rule="evenodd"/><path d="M906.559 698C897.161 698 896 713.388 897.161 721.392 898.323 729.27 901.157 750 901.157 750 901.157 750 912.227 734.613 914.677 722.917 916.99 711.095 915.828 698 906.559 698Z" fill="#FFB127" fill-rule="evenodd" fill-opacity="1"/><path d="M918.636 751C908.4 751 897.01 781.989 897.01 781.989 897.104 781.989 897.208 781.989 897.301 781.989 916.266 781.989 931.99 757.981 921.244 751.732 920.392 751.234 919.519 751 918.636 751Z" fill="#FFB127" fill-rule="evenodd" fill-opacity="1"/><path d="M884.625 733C882.784 733 881.166 734.097 880.246 735.916 875.01 746.273 890.474 760.036 893.414 768 893.414 768 897 755.49 893.414 743.493 891.267 735.957 887.639 733 884.625 733Z" fill="#FFB127" fill-rule="evenodd" fill-opacity="1"/><path d="M907.481 699.511C907.481 699.511 908.49 758.901 876.5 822.5" stroke="#995417" stroke-width="1.4165" stroke-linecap="butt" stroke-linejoin="miter" stroke-miterlimit="1" stroke-opacity="1" fill="none" fill-rule="evenodd"/><path d="M922.489 756.511C918.811 766.715 911.706 777.046 892.5 783.5" stroke="#995417" stroke-width="1.4165" stroke-linecap="butt" stroke-linejoin="miter" stroke-miterlimit="1" stroke-opacity="1" fill="none" fill-rule="evenodd"/><path d="M884.511 735.511C884.511 735.511 892.699 749.289 894.5 777.49" stroke="#995417" stroke-width="1.4165" stroke-linecap="butt" stroke-linejoin="miter" stroke-miterlimit="1" stroke-opacity="1" fill="none" fill-rule="evenodd"/><path d="M826.97 607C826.864 607 826.759 607.011 826.653 607.011 814.505 607.38 807.189 634.035 800.75 634.035 800.475 634.035 800.211 633.982 799.936 633.887 797.906 633.16 795.337 632.749 792.694 632.749 786.52 632.749 779.965 635.015 778.981 640.896 777.575 649.307 753.174 645.102 752.402 651.721 752 655.167 758.513 656 767.5 656 775.799 656 786.192 655.294 795.21 655.294L872.908 655.294C876.016 655.294 879.008 655.378 881.694 655.378 888.09 655.378 892.774 654.872 893.228 651.468 893.99 646.503 886.451 645.481 883.385 641.276 880.319 637.07 881.345 622.42 868.309 622.42 856.425 622.42 852.672 631.168 848.263 631.168 847.872 631.168 847.491 631.105 847.09 630.957 842.152 629.06 839.351 607 826.97 607Z" fill="#8FCEF9" fill-rule="evenodd" fill-opacity="1"/><path d="M759.004 674C757.99 674 756.964 674.387 756.33 675.141 755.559 675.78 755.178 676.785 755.178 677.675L755.178 687.034C751.215 687.673 747.389 688.803 743.806 690.457 740.487 691.975 737.549 693.996 734.865 696.529 732.571 698.801 730.521 701.586 729.115 704.622 727.71 707.794 726.949 711.081 726.949 714.494 726.949 718.043 727.456 721.707 728.735 725.12 729.76 728.031 731.546 730.69 733.84 732.846 736.397 735.118 739.335 737.023 742.527 738.28 746.491 739.934 750.581 741.326 754.798 742.206 759.903 743.472 764.373 744.613 768.337 745.367 771.655 746.006 774.974 746.885 778.176 748.026 780.47 748.665 782.509 749.796 784.179 751.314 785.448 752.58 786.219 754.35 786.092 756.255 786.219 758.15 785.585 759.919 784.306 761.437 783.027 762.955 781.368 764.096 779.571 764.986 777.405 765.991 775.101 766.755 772.68 767.007 769.996 767.52 767.311 767.645 764.5 767.645 764.12 767.656 763.739 767.666 763.359 767.666 760.78 767.666 758.138 767.31 755.686 766.755 753.519 766.253 751.595 765.489 749.682 764.473 748.277 763.719 746.998 762.704 745.856 761.311 744.958 760.306 744.187 759.04 743.552 757.773 743.045 756.757 742.274 756.004 741.386 755.365 740.361 754.737 739.082 754.486 737.803 754.486L727.963 754.486C726.949 754.486 725.923 754.863 725.152 755.616 724.391 756.255 724.01 757.26 724.137 758.275 724.391 761.563 725.289 764.86 726.949 767.771 728.735 770.681 730.901 773.204 733.586 775.235 736.524 777.507 739.716 779.412 743.172 780.805 746.998 782.323 750.961 783.453 755.051 783.966L755.051 793.326C755.051 794.215 755.432 795.231 756.203 795.859 756.838 796.613 757.863 797 758.877 797L770.25 797C771.148 797 772.162 796.613 772.807 795.859 773.568 795.231 773.959 794.215 773.959 793.326L773.959 783.966C778.43 783.453 782.9 782.323 786.991 780.543 790.563 779.025 793.882 777.004 796.82 774.471 799.377 772.074 801.417 769.289 802.823 766.127 804.229 762.955 805 759.542 805 756.129 805 752.706 804.482 749.293 803.341 746.131 802.189 743.221 800.403 740.562 797.972 738.416 795.16 736.008 791.969 733.977 788.386 732.721 783.788 730.815 779.064 729.423 774.213 728.544 769.097 727.402 764.754 726.513 761.181 725.633 758.116 724.995 755.178 724.115 752.24 722.974 750.327 722.21 748.657 721.079 747.262 719.561 746.237 718.043 745.592 716.263 745.719 714.494 745.719 712.725 746.11 711.207 747.125 709.815 748.15 708.297 749.429 707.155 750.961 706.266 752.747 705.26 754.671 704.496 756.711 704.119 759.004 703.617 761.308 703.355 763.612 703.355 769.224 703.355 773.441 704.245 776.379 705.889 778.937 707.281 781.114 709.312 782.774 711.835 783.281 712.725 784.052 713.615 784.94 714.243 785.828 714.798 786.917 715.154 788.026 715.154 788.185 715.154 788.354 715.143 788.523 715.133L798.225 715.133C799.251 715.133 800.276 714.745 801.037 714.117 801.808 713.479 802.189 712.474 802.062 711.458 801.808 708.925 801.037 706.527 800.012 704.371 798.606 701.712 796.82 699.314 794.653 697.158 792.095 694.76 789.157 692.729 785.965 691.086 782.129 689.191 778.039 687.924 773.959 687.285L774.086 677.675C774.086 676.785 773.695 675.78 772.934 675.141 772.3 674.387 771.275 674 770.25 674Z" fill="#FFEB8A" fill-rule="evenodd" fill-opacity="1"/><path d="M856.652 715C819.595 715 803.832 804.404 790.709 820.164 787.386 824.168 783.674 825.439 779.751 825.439 772.801 825.439 765.187 821.425 757.921 821.425 753 821.425 748.236 823.264 743.935 829.442 730.38 848.912 733.304 910.052 721.547 910.052 720.958 910.052 720.327 909.894 719.654 909.579 717.068 908.308 714.565 907.74 712.157 907.74 692.861 907.74 680 943.989 680 943.989L901.922 943.989C901.922 943.989 914.12 942.214 907.254 929.637 900.398 917.07 896.707 916.944 905.098 890.015 913.616 862.97 928.99 813.188 916.792 810.645 916.381 810.551 915.971 810.509 915.551 810.509 903.699 810.509 890.849 846.253 875.991 847.724 875.907 847.735 875.823 847.745 875.738 847.745 861.006 847.745 894.845 716.156 857.431 715.021 857.178 715.01 856.915 715 856.652 715Z" fill="#1226DB" fill-rule="evenodd" fill-opacity="1"/><path d="M857.49 715.5C857.49 715.5 832.713 863.511 797.5 944.49" stroke="#525730" stroke-width="1.19997" stroke-linecap="butt" stroke-linejoin="miter" stroke-miterlimit="1" stroke-opacity="1" fill="none" fill-rule="evenodd"/><path d="M917.5 811.511C917.5 811.511 881.89 902.703 839.51 944.49" stroke="#525730" stroke-width="1.19997" stroke-linecap="butt" stroke-linejoin="miter" stroke-miterlimit="1" stroke-opacity="1" fill="none" fill-rule="evenodd"/><path d="M751.5 823.5C751.5 823.5 774.489 884.251 773.706 944.49" stroke="#525730" stroke-width="1.19997" stroke-linecap="butt" stroke-linejoin="miter" stroke-miterlimit="1" stroke-opacity="1" fill="none" fill-rule="evenodd"/><path d="M695.5 918.51C699.13 927.828 704.21 936.663 710.49 944.49" stroke="#525730" stroke-width="1.19997" stroke-linecap="butt" stroke-linejoin="miter" stroke-miterlimit="1" stroke-opacity="1" fill="none" fill-rule="evenodd"/><path d="M740.5 837.5C746.961 842.14 753.662 846.518 760.5 850.5" stroke="#525730" stroke-width="1.19997" stroke-linecap="butt" stroke-linejoin="miter" stroke-miterlimit="1" stroke-opacity="1" fill="none" fill-rule="evenodd"/><path d="M734.5 863.511C744.498 878.681 756.615 892.181 770.49 903.5" stroke="#525730" stroke-width="1.19997" stroke-linecap="butt" stroke-linejoin="miter" stroke-miterlimit="1" stroke-opacity="1" fill="none" fill-rule="evenodd"/><path d="M795.292 812.5C795.292 812.5 792.5 877.148 808.49 915.5" stroke="#525730" stroke-width="1.19997" stroke-linecap="butt" stroke-linejoin="miter" stroke-miterlimit="1" stroke-opacity="1" fill="none" fill-rule="evenodd"/><path d="M818.825 753.511C818.825 753.511 816.5 823.15 828.489 850.5" stroke="#525730" stroke-width="1.19997" stroke-linecap="butt" stroke-linejoin="miter" stroke-miterlimit="1" stroke-opacity="1" fill="none" fill-rule="evenodd"/><path d="M873.5 816.5C873.5 816.5 850.022 864.223 818.5 886.49" stroke="#525730" stroke-width="1.19997" stroke-linecap="butt" stroke-linejoin="miter" stroke-miterlimit="1" stroke-opacity="1" fill="none" fill-rule="evenodd"/><path d="M876.489 762.511C876.489 762.511 857.126 781.633 841.5 795.489" stroke="#525730" stroke-width="1.19997" stroke-linecap="butt" stroke-linejoin="miter" stroke-miterlimit="1" stroke-opacity="1" fill="none" fill-rule="evenodd"/><path d="M839.51 722.5 848.49 762.5" stroke="#525730" stroke-width="1.19997" stroke-linecap="butt" stroke-linejoin="miter" stroke-miterlimit="1" stroke-opacity="1" fill="none" fill-rule="evenodd"/><path d="M919.5 839.511C911.76 848.491 903.138 856.569 893.51 863.5" stroke="#525730" stroke-width="1.19997" stroke-linecap="butt" stroke-linejoin="miter" stroke-miterlimit="1" stroke-opacity="1" fill="none" fill-rule="evenodd"/><path d="M905.5 890.5C905.5 890.5 877.004 917.684 853.511 928.5" stroke="#525730" stroke-width="1.19997" stroke-linecap="butt" stroke-linejoin="miter" stroke-miterlimit="1" stroke-opacity="1" fill="none" fill-rule="evenodd"/><path d="M924.489 944.5 659.511 944.5" stroke="#000000" stroke-width="1.30823" stroke-linecap="butt" stroke-linejoin="miter" stroke-miterlimit="1" stroke-opacity="1" fill="none" fill-rule="evenodd"/><path d="M251.389 808.663C260.048 808.663 268.369 815.387 268.369 825.505 268.369 834.831 260.83 842.369 251.495 842.369 236.418 842.369 228.879 824.226 239.611 813.621 243.036 810.196 247.255 808.663 251.389 808.663ZM241.789 780.01 242.423 792.275C239.611 793.047 236.798 794.072 234.25 795.605L226.194 786.523 212.523 800.205 221.595 808.377C220.062 810.936 218.909 813.621 218.148 816.561L206 815.916 206 835.211 218.148 834.577C218.909 837.389 220.062 840.201 221.595 842.76L212.523 850.806 226.194 864.477 234.25 855.405C236.798 856.938 239.611 858.091 242.423 858.862L241.789 871 261.084 871 260.566 858.862C263.379 857.964 266.064 856.938 268.749 855.405L276.795 864.477 290.477 850.806 281.405 842.633C282.938 840.075 284.08 837.389 284.852 834.45L296.989 835.211 296.989 815.916 284.852 816.561C284.08 813.621 282.938 810.936 281.405 808.377L290.477 800.205 276.795 786.523 268.623 795.605C266.064 794.072 263.379 792.92 260.439 792.275L261.211 780.01Z" fill="#5664E1" fill-rule="evenodd" fill-opacity="1"/><path d="M400.931 678.366C410.838 678.366 420.332 685.997 420.332 697.568 420.332 708.081 411.76 716.571 400.995 716.571 383.84 716.571 375.257 696.048 387.421 684.005 391.363 680.117 396.195 678.366 400.931 678.366ZM389.985 646 390.748 659.814C387.421 660.695 384.348 661.963 381.403 663.609L372.057 653.473 356.428 668.933 366.801 678.178C365.138 681.091 363.856 684.131 362.955 687.433L349 686.667 349 708.458 362.955 707.829C363.856 710.995 365.138 714.16 366.801 716.948L356.428 726.193 372.057 741.653 381.403 731.391C384.348 733.037 387.421 734.431 390.748 735.186L389.985 749 412.142 749 411.368 735.186C414.568 734.431 417.779 733.037 420.725 731.391L430.07 741.653 445.699 726.193 435.326 716.948C436.989 714.16 438.272 710.995 439.162 707.829L453 708.458 453 686.542 439.162 687.307C438.272 684.131 436.989 680.966 435.188 678.052L445.562 668.807 429.943 653.347 420.725 663.609C417.779 661.963 414.568 660.695 411.368 659.814L412.142 646Z" fill="#5664E1" fill-rule="evenodd" fill-opacity="1"/><path d="M385.366 793C355.21 793 334.191 815.507 332.593 844.888 330.185 886.881 251.01 873.132 261.304 935.99L721.989 935.99C721.989 935.99 698.226 900.997 663.276 891.839 628.326 882.68 617.906 897.818 598.086 864.49 578.255 831.024 559.96 810.412 536.186 809.643 535.776 809.633 535.356 809.622 534.935 809.622 519.5 809.622 498.05 819.644 473.131 819.644 459.314 819.644 444.436 816.56 428.927 806.969 413.25 797.232 398.446 793 385.366 793Z" fill="#5664E1" fill-rule="evenodd" fill-opacity="1"/><path d="M683.115 851.011C666.521 851.011 652.533 893.116 639.252 901.272 638.344 901.819 637.585 902.072 636.92 902.072 629.43 902.072 635.718 869.701 621.824 869.701 621.286 869.701 620.717 869.753 620.126 869.848 602.783 872.774 607.499 906.997 597.804 916.91 595.103 919.646 592.73 920.656 590.536 920.656 584.839 920.656 580.292 913.869 574.216 912.585 573.931 912.532 573.657 912.501 573.372 912.501 565.334 912.501 557.01 935.99 557.01 935.99L702.747 935.99C702.747 935.99 703 855.473 685.404 851.284 684.634 851.095 683.874 851.011 683.115 851.011Z" fill="#FDE571" fill-rule="evenodd" fill-opacity="1"/><path d="M786 528.01 714.479 580.536 738.41 587.912 678.344 677.444 625.911 651.496 556.937 749.298 500.177 721.068 371.01 935.99 503.357 935.99 570.677 803.728 609.749 817.849 655.433 716.101 701.244 733.147 761.058 594.267 786 603.295 786 528.01Z" fill="#FFB127" fill-rule="evenodd" fill-opacity="1"/><path d="M267.727 746.01C267.086 746.01 266.435 746.053 265.783 746.158 233.145 751.379 255.243 875.818 241.52 876.576 241.225 876.597 240.931 876.597 240.647 876.597 228.637 876.597 228.931 862.133 217.582 862.133 216.846 862.133 216.069 862.196 215.228 862.322 201.011 864.491 220.062 936 220.062 936L390 935.484C387.552 849.995 376.991 827.647 365.106 827.647 354.157 827.647 342.104 846.616 334.244 852.659 333.456 853.269 332.647 853.553 331.848 853.553 316.275 853.553 297.539 746.01 267.727 746.01Z" fill="#1226DB" fill-rule="evenodd" fill-opacity="1"/><path d="M266.5 747.5C266.5 747.5 273.076 857.071 300.489 936.5" stroke="#525730" stroke-width="1.30823" stroke-linecap="butt" stroke-linejoin="miter" stroke-miterlimit="1" stroke-opacity="1" fill="none" fill-rule="evenodd"/><path d="M276.49 749.511C276.49 749.511 273.669 771.611 269.5 783.5" stroke="#525730" stroke-width="1.30823" stroke-linecap="butt" stroke-linejoin="miter" stroke-miterlimit="1" stroke-opacity="1" fill="none" fill-rule="evenodd"/><path d="M249.5 779.5C249.5 779.5 251.841 789.598 273.49 817.49" stroke="#525730" stroke-width="1.30823" stroke-linecap="butt" stroke-linejoin="miter" stroke-miterlimit="1" stroke-opacity="1" fill="none" fill-rule="evenodd"/><path d="M304.489 797.5C304.489 797.5 299.987 871.482 287.511 891.5" stroke="#525730" stroke-width="1.30823" stroke-linecap="butt" stroke-linejoin="miter" stroke-miterlimit="1" stroke-opacity="1" fill="none" fill-rule="evenodd"/><path d="M215.5 863.5C215.5 863.5 225.622 895.145 261.5 936.5" stroke="#525730" stroke-width="1.30823" stroke-linecap="butt" stroke-linejoin="miter" stroke-miterlimit="1" stroke-opacity="1" fill="none" fill-rule="evenodd"/><path d="M247.51 827.5C247.51 827.5 260.541 876.637 294.49 919.489" stroke="#525730" stroke-width="1.30823" stroke-linecap="butt" stroke-linejoin="miter" stroke-miterlimit="1" stroke-opacity="1" fill="none" fill-rule="evenodd"/><path d="M231.512 873.5C233.854 883.331 235.614 893.415 236.488 903.5" stroke="#525730" stroke-width="1.30823" stroke-linecap="butt" stroke-linejoin="miter" stroke-miterlimit="1" stroke-opacity="1" fill="none" fill-rule="evenodd"/><path d="M213.51 901.511C213.51 901.511 229.556 912.804 252.5 925.49" stroke="#525730" stroke-width="1.30823" stroke-linecap="butt" stroke-linejoin="miter" stroke-miterlimit="1" stroke-opacity="1" fill="none" fill-rule="evenodd"/><path d="M215.5 936.5 680.49 936.5" stroke="#292E4A" stroke-width="1.4165" stroke-linecap="butt" stroke-linejoin="miter" stroke-miterlimit="1" stroke-opacity="1" fill="none" fill-rule="evenodd"/><path d="M318.149 698.011C304.234 698.011 293.01 709.187 293.01 723.045L293.01 969.081C293.01 982.939 304.234 993.99 318.149 993.99L425.978 993.99C439.893 993.99 450.989 982.939 450.989 969.081L450.989 723.045C450.989 709.187 439.893 698.011 425.978 698.011Z" fill="#07105C" fill-rule="evenodd" fill-opacity="1"/><path d="M330.855 698.011C317.163 698.011 306 709.187 306 723.045L306 969.081C306 982.802 317.163 993.99 330.855 993.99L438.019 993.99C451.837 993.99 463 982.802 463 969.081L463 723.045C463 709.187 451.837 698.011 438.019 698.011Z" fill="#1226DB" fill-rule="evenodd" fill-opacity="1"/><path d="M330.492 705C320.796 705 313 712.777 313 722.474L313 969.389C313 979.086 320.796 986.989 330.492 986.989L438.381 986.989C448.078 986.989 456 979.086 456 969.389L456 722.474C455.873 712.777 448.078 705 438.381 705L413.358 705C411.953 705 410.802 705.897 410.421 707.174L409.27 710.867C408.626 712.903 406.714 714.307 404.548 714.307L364.452 714.307C362.286 714.307 360.237 712.903 359.603 710.867L358.452 707.174C358.072 705.897 356.921 705 355.642 705Z" fill="#07105C" fill-rule="evenodd" fill-opacity="1"/><path d="M373.296 706.013C372.653 706.013 372.011 706.636 372.011 707.429 372.011 708.208 372.653 708.987 373.296 708.987L395.833 708.987C396.475 708.987 396.989 708.208 396.989 707.429 396.989 706.636 396.475 706.013 395.833 706.013Z" fill="#292E4A" fill-rule="evenodd" fill-opacity="1"/><path d="M300 748.01 300 784" stroke="#FFFFFF" stroke-width="1.96686" stroke-linecap="round" stroke-linejoin="round" stroke-miterlimit="10" stroke-opacity="1" fill="none" fill-rule="evenodd"/><path d="M300 796.011 300 813" stroke="#FFFFFF" stroke-width="1.96686" stroke-linecap="round" stroke-linejoin="round" stroke-miterlimit="10" stroke-opacity="1" fill="none" fill-rule="evenodd"/><path d="M671.963 817.011 643 982.99 857.027 982.99 885.989 817.011Z" fill="#5664E1" fill-rule="evenodd" fill-opacity="1"/><path d="M677.519 824.01 651.011 976 851.481 976 878 824.01Z" fill="#23295C" fill-rule="evenodd" fill-opacity="1"/><path d="M501 983 501 995 858 995 858 983Z" fill="#1226DB" fill-rule="evenodd" fill-opacity="1"/><path d="M501 983 501 995 664.99 995 664.99 983Z" fill="#5664E1" fill-rule="evenodd" fill-opacity="1"/><path d="M858.5 983.5 501.5 983.5" stroke="#3747A3" stroke-width="1.30823" stroke-linecap="butt" stroke-linejoin="miter" stroke-miterlimit="1" stroke-opacity="1" fill="none" fill-rule="evenodd"/><path d="M811.62 940C807.793 940 803.903 940.704 803.903 940.704 803.903 940.704 806.182 947.013 805.419 950.103 804.666 953.194 802.261 955.773 802.136 960.409 802.01 964.917 802.387 973.027 803.778 973.293 803.809 973.293 803.84 973.293 803.861 973.293 805.252 973.293 804.311 967.218 805.545 966.718 805.576 966.707 805.618 966.696 805.649 966.696 807.029 966.696 811.233 975.989 811.233 975.989L824 975.989C824 975.989 819.577 947.78 818.939 942.888 818.636 940.597 815.154 940 811.62 940Z" fill="#F9B989" fill-rule="evenodd" fill-opacity="1"/><path d="M554.717 863C548.502 863 538.01 866.211 538.01 866.211L561.183 885C564.862 882.757 569.044 881.265 573.352 880.39 576.307 879.876 579.263 879.619 582.218 879.619 582.805 879.619 583.403 879.629 583.99 879.649L583.235 866.211C583.235 866.211 562.326 864.595 557.138 863.227 556.457 863.072 555.629 863 554.717 863Z" fill="#F9B989" fill-rule="evenodd" fill-opacity="1"/><path d="M679.015 731C676.925 731 675.066 731.255 673.577 731.787 664.011 735.264 672.944 745.673 672.944 745.673 672.69 751.064 671.286 764.301 672.046 770.468 672.849 775.912 675.52 780.005 680.62 780.005 681.18 780.005 681.771 779.952 682.384 779.856 682.489 779.835 682.595 779.835 682.701 779.835 688.952 779.835 694.379 805.938 694.379 805.938L708.169 808 717.99 792.828 708.676 776.379C708.676 776.379 715.445 758.007 711.865 747.47 708.951 738.453 690.462 731 679.015 731Z" fill="#F9B989" fill-rule="evenodd" fill-opacity="1"/><path d="M717.019 783.011 705.443 795.308 705.443 804.446 702.174 797.343 686.693 791.121 686.058 799.116 678.01 804.446 704.932 913 750.99 913 720.039 789.726 717.019 783.011Z" fill="#FFB127" fill-rule="evenodd" fill-opacity="1"/><path d="M699.811 913.011 682.01 975.989 777 975.989 771.908 913.011Z" fill="#07105C" fill-rule="evenodd" fill-opacity="1"/><path d="M686.049 799.01C677.604 799.264 671.458 809.594 664.793 817.497 658.138 825.537 630.598 857.034 626.116 859.461 621.633 861.888 580.01 864.304 580.01 864.304L580.01 881.524C580.01 881.524 618.592 883.012 631.022 883.012 632.675 883.012 633.862 882.991 634.434 882.928 639.181 882.294 670.684 854.997 670.684 854.997 670.684 854.997 687.458 900.401 687.723 909.201 687.978 918.001 679.776 956.135 686.049 956.768 688.147 956.937 692.619 957 697.642 957 707.698 957 719.99 956.768 719.99 956.768 719.99 956.768 718.199 923.741 714.999 911.881 711.671 899.895 690.669 811.767 686.049 799.01Z" fill="#1226DB" fill-rule="evenodd" fill-opacity="1"/><path d="M660.938 835C660.895 835 660.842 835 660.799 835.01 657.193 835.39 653.319 858.069 648.678 864.701 645.199 869.541 641.977 874.644 639.011 879.989 649.19 873.242 670.989 854.506 670.989 854.506 668.823 849.719 664.523 835 660.938 835Z" fill="#0E1DA8" fill-rule="evenodd" fill-opacity="1"/><path d="M721.931 790.01C721.277 790.01 720.633 790.021 720.011 790.063 720.011 790.063 736.584 891.035 739.01 906.873 741.299 922.701 751.247 954 751.247 954L784.784 954 777.009 908.519 768.084 866.078 786.957 891.287 802.887 944.115 821 944.115 813.858 904.462C811.558 889.893 806.843 875.7 799.954 862.65 788.096 840.481 769.614 807.285 762.092 801.457 757.324 797.819 736.457 790.01 721.931 790.01Z" fill="#1226DB" fill-rule="evenodd" fill-opacity="1"/><path d="M750.863 815C749.85 815 747.885 817.846 746.777 826.963 745.01 841.487 745.01 854.482 753.727 868.742 762.319 883.14 756.257 891.424 763.197 904.167 770.022 916.899 778.989 922 778.989 922L767.879 865.949C767.879 865.949 756.633 850.277 754.103 841.487 751.449 832.696 750.059 820.597 751.323 817.277 751.752 816.001 751.47 815 750.863 815Z" fill="#0E1DA8" fill-rule="evenodd" fill-opacity="1"/><path d="M670.253 725C666.303 725 663.116 726.305 661.125 730.565 656 741.673 672.646 745.838 672.646 745.838L673.154 740.159C676.394 740.796 679.688 741.13 683.002 741.13 684.919 741.13 686.846 741.015 688.773 740.785 689.525 740.671 690.224 740.618 690.859 740.618 696.641 740.618 698.038 744.909 698.494 747.979 698.886 751.257 697.34 755.297 698.24 756.31 698.377 756.498 698.515 756.581 698.642 756.581 699.203 756.581 699.637 754.953 700.156 753.407 700.633 752.332 702.041 750.881 703.577 750.881 704.551 750.881 705.578 751.476 706.436 753.157 708.606 757.573 703.1 760.475 703.227 764.892 703.227 769.433 708.606 775.989 708.606 775.989 715.14 765.267 720 747.979 716.029 739.522 712.196 730.94 700.929 729.427 688.773 728.038 681.943 727.255 675.441 725 670.253 725Z" fill="#000000" fill-rule="evenodd" fill-opacity="1"/><path d="M398.757 485.011C393.955 485.011 388.499 486.032 382.211 488.433 351.656 500.015 350.266 528.012 325.567 533.613 300.995 539.215 274.01 561.99 324.166 561.99L503.029 561.99C531.288 561.99 543 558.431 528.36 548.375 513.846 538.194 509.391 537.688 504.556 527.506 500.312 518.567 491.149 512.376 478.383 512.376 476.614 512.376 474.771 512.492 472.854 512.744 464.817 513.797 458.108 515.808 451.831 515.808 445.985 515.808 440.498 514.061 434.663 508.164 425.268 498.667 416.336 485.011 398.757 485.011Z" fill="#8FCEF9" fill-rule="evenodd" fill-opacity="1"/><path d="M518.29 756.01C500.781 756.01 490.733 768.074 486.807 779.59 484.76 786.574 479.018 791.917 472.011 793.694 476.982 794.336 481.826 796.24 485.91 799.163 491.778 803.738 501.087 817.727 514.617 817.979 515.082 817.99 515.557 817.99 516.042 817.99 529.499 817.99 546.596 814.319 549.182 793.694 551.99 772.47 541.91 757.977 522.143 756.2 520.823 756.063 519.536 756.01 518.29 756.01Z" fill="#5664E1" fill-rule="evenodd" fill-opacity="1"/><path d="M518.865 781.366C521.739 781.366 524.5 783.609 524.5 787 524.5 789.998 521.998 792.489 519 792.489 513.996 792.489 511.505 786.493 514.999 782.999 516.126 781.873 517.511 781.366 518.865 781.366ZM515.744 772 516.002 776.001C514.999 776.249 514.12 776.621 513.252 777.128L510.626 774.13 506.129 778.502 509.127 781.252C508.631 782.121 508.249 782.999 508.001 784.002L504 783.744 504 790.122 508.001 789.874C508.249 790.866 508.631 791.745 509.127 792.624L506.129 795.239 510.626 799.736 513.376 796.738C514.245 797.245 515.123 797.617 516.002 797.865L515.878 801.99 522.246 801.99 521.998 797.865C522.866 797.617 523.869 797.245 524.624 796.738L527.373 799.736 531.87 795.239 528.872 792.624C529.369 791.745 529.741 790.866 529.989 789.874L533.99 790.122 533.99 783.744 529.865 784.002C529.617 782.999 529.245 782.121 528.872 781.252L531.746 778.627 527.239 774.13 524.624 777.128C523.745 776.621 522.866 776.249 521.874 776.001L522.122 772Z" fill="#FDE571" fill-rule="evenodd" fill-opacity="1"/><path d="M577 566 577 630.99 626 630.99 626 566Z" fill="#FFEB8A" fill-rule="evenodd" fill-opacity="1"/><path d="M583.5 579.5 592.5 579.5" stroke="#FFA200" stroke-width="0.983432" stroke-linecap="butt" stroke-linejoin="miter" stroke-miterlimit="1" stroke-opacity="1" fill="none" fill-rule="evenodd"/><path d="M583.5 587.5 618.5 587.5" stroke="#FFA200" stroke-width="0.983432" stroke-linecap="butt" stroke-linejoin="miter" stroke-miterlimit="1" stroke-opacity="1" fill="none" fill-rule="evenodd"/><path d="M583.5 598.5 618.5 598.5" stroke="#FFA200" stroke-width="0.983432" stroke-linecap="butt" stroke-linejoin="miter" stroke-miterlimit="1" stroke-opacity="1" fill="none" fill-rule="evenodd"/><path d="M583.5 606.5 618.5 606.5" stroke="#FFA200" stroke-width="0.983432" stroke-linecap="butt" stroke-linejoin="miter" stroke-miterlimit="1" stroke-opacity="1" fill="none" fill-rule="evenodd"/><path d="M583.5 617.5 618.5 617.5" stroke="#FFA200" stroke-width="0.983432" stroke-linecap="butt" stroke-linejoin="miter" stroke-miterlimit="1" stroke-opacity="1" fill="none" fill-rule="evenodd"/><path d="M596.908 695.011C583.502 695.011 571.976 695.92 569.444 698.309 565.126 702.4 565 721.311 565 733.192 565 744.947 567.291 752.738 575.034 752.738L613.509 752.738C617.06 752.738 619.718 752.674 621.872 752.674 626.904 752.674 629.184 753.044 633.45 755.55 637.495 757.96 644.23 760 650.576 760 653.99 760 657.289 759.408 659.99 757.981 653.265 757.336 647.928 745.719 647.802 739.968 647.676 730 650.723 703.425 646.279 699.588 643.484 697.252 617.9 695.011 596.908 695.011Z" fill="#5664E1" fill-rule="evenodd" fill-opacity="1"/><path d="M607.86 706C607.485 706 607.234 706.124 606.983 706.248 606.858 706.507 606.722 706.755 606.722 707.127L606.722 710.002C605.469 710.126 604.331 710.498 603.193 711.005 602.18 711.501 601.177 712.121 600.415 712.876 599.663 713.631 599.026 714.5 598.65 715.379 598.149 716.371 597.888 717.498 598.013 718.501 597.888 719.628 598.149 720.745 598.525 721.872 598.775 722.751 599.402 723.495 600.039 724.25 600.791 724.871 601.804 725.501 602.691 725.874 603.955 726.37 605.208 726.877 606.472 727.125 608.111 727.497 609.5 727.869 610.764 728.128 611.776 728.252 612.789 728.624 613.792 728.872 614.429 729.12 615.055 729.503 615.693 729.875 616.068 730.372 616.194 730.878 616.194 731.499 616.194 731.995 616.068 732.626 615.693 732.998 615.306 733.494 614.805 733.877 614.178 734.125 613.541 734.497 612.789 734.621 612.027 734.745 611.275 734.87 610.388 734.994 609.5 734.994 608.623 734.994 607.735 734.87 606.858 734.621 606.221 734.497 605.594 734.249 604.957 734.001 604.456 733.742 604.08 733.37 603.819 732.998 603.569 732.626 603.318 732.243 603.067 731.871 602.942 731.623 602.691 731.375 602.441 731.126 602.054 731.002 601.678 730.878 601.302 730.878L598.274 730.878C597.888 730.878 597.637 731.002 597.386 731.251 597.136 731.375 597.011 731.747 597.136 731.995 597.136 733.122 597.386 734.125 597.888 734.994 598.525 735.873 599.151 736.617 600.039 737.372 600.916 737.992 601.804 738.623 602.942 738.995 604.08 739.492 605.344 739.874 606.597 739.998L606.597 742.873C606.597 743.493 607.109 744 607.735 744L611.275 744C611.526 744 611.902 743.876 612.027 743.741 612.278 743.493 612.403 743.245 612.403 742.873L612.403 739.998C613.792 739.874 615.181 739.492 616.444 738.995 617.583 738.499 618.596 737.868 619.473 737.124 620.235 736.369 620.862 735.5 621.373 734.497 621.749 733.494 622 732.502 622 731.375 622 730.372 621.875 729.245 621.499 728.252 621.112 727.373 620.611 726.494 619.859 725.874 618.971 725.129 617.959 724.498 616.956 724.126 615.431 723.495 614.053 723.123 612.528 722.751 610.889 722.503 609.5 722.12 608.497 721.872 607.485 721.748 606.597 721.5 605.72 721.128 605.083 720.879 604.581 720.497 604.206 720.001 603.819 719.628 603.694 718.998 603.694 718.501 603.694 718.005 603.819 717.498 604.08 717.002 604.456 716.63 604.832 716.247 605.344 715.999 605.845 715.627 606.472 715.379 607.109 715.254 607.735 715.13 608.497 714.996 609.249 714.996 610.513 714.996 611.902 715.254 613.165 715.875 613.917 716.247 614.554 716.878 615.055 717.622 615.306 718.005 615.567 718.253 615.818 718.377 615.995 718.563 616.256 718.677 616.57 718.677 616.685 718.677 616.82 718.656 616.956 718.625L619.984 718.625C620.235 718.625 620.486 718.625 620.736 718.377 620.987 718.129 621.112 717.87 621.112 717.498 620.987 716.754 620.736 715.999 620.486 715.379 619.984 714.5 619.473 713.755 618.846 713.124 618.084 712.38 617.207 711.749 616.194 711.253 614.93 710.622 613.792 710.25 612.403 710.126L612.528 707.127C612.528 706.755 612.403 706.507 612.152 706.248 611.902 706.124 611.651 706 611.401 706Z" fill="#FFB127" fill-rule="evenodd" fill-opacity="1"/><path d="M345.081 924.01C336.475 934.673 331.795 947.878 331.67 961.598 331.408 970.097 330.529 978.606 329.01 986.989L429.99 986.989 426.325 924.137 345.081 924.01Z" fill="#5664E1" fill-rule="evenodd" fill-opacity="1"/><path d="M413.383 924.01 396.01 987 429.99 987 426.318 924.01Z" fill="#1226DB" fill-rule="evenodd" fill-opacity="1"/><path d="M447.657 729C437.175 729 422.524 734.718 420.455 742.255 417.208 754.13 422.138 767.783 422.138 767.783L415.011 786.223 440.401 788C441.312 783.191 442.341 778.393 443.766 773.595 444.452 771.766 445.492 771.326 446.799 771.326 448.053 771.326 449.554 771.745 451.172 771.745 451.708 771.745 452.265 771.692 452.833 771.567 456.852 770.563 456.852 757.413 458.535 756.66 460.346 755.897 461 754.256 459.189 751.737 457.238 749.332 458.406 735.053 458.406 735.053 458.085 730.798 453.519 729 447.657 729Z" fill="#F59462" fill-rule="evenodd" fill-opacity="1"/><path d="M408.902 781.01C407.284 781.01 407.988 782.863 407.525 787.168 407.137 791.874 385.413 815.158 375.513 836.147 365.729 857.011 358.362 893.653 352.266 904.474 346.171 915.411 328 927.884 340.065 927.884 348.199 927.884 382.355 928 405.991 928 417.814 928 427 927.969 428.986 927.884 435.081 927.632 436.994 898.105 439.401 886.274 441.692 874.316 450.709 835.642 451.602 824.442 451.855 815.789 451.34 807.011 450.205 798.484L452.611 788.947C453 787.926 452.233 787.042 451.34 786.916L409.428 781.063C409.228 781.021 409.049 781.01 408.902 781.01Z" fill="#FDE571" fill-rule="evenodd" fill-opacity="1"/><path d="M401.84 820.01C400.353 820.01 400.011 822.73 401.382 828.378 403.773 837.639 406.662 846.018 415.33 851.603 423.238 856.548 425.005 886.377 437.684 893.99 438.194 890.819 438.568 888.026 439.067 885.737 440.958 876.099 447.235 848.432 449.875 832.694 450 832.568 409.551 827.874 405.903 823.307 404.188 821.123 402.785 820.01 401.84 820.01Z" fill="#FFB127" fill-rule="evenodd" fill-opacity="1"/><path d="M459.326 835.011 432 844.734C435.428 847.806 456.782 871.235 470.503 875.334 476.17 877.092 493.456 877.463 508.081 877.463 519.057 877.463 528.531 877.251 530.486 877.251 535.197 877.251 539.381 880.969 544.596 883.786 547.193 885.227 550.821 885.989 554.438 885.989 557.907 885.989 561.367 885.29 563.911 883.786 569 880.714 558.959 872.135 555.142 870.345 551.336 868.417 541.674 862.401 537.352 862.401 533.157 862.401 484.235 858.44 479.272 857.031 474.446 855.495 459.326 835.011 459.326 835.011Z" fill="#F59462" fill-rule="evenodd" fill-opacity="1"/><path d="M534.746 876C532.434 876 532.727 878.551 532.402 881.101 532.011 884.222 543.688 887.989 546.434 887.989 549.321 887.989 553 883.835 549.451 882.92 545.913 881.876 541.323 878.109 536.732 876.42 535.918 876.129 535.267 876 534.746 876Z" fill="#F9B989" fill-rule="evenodd" fill-opacity="1"/><path d="M553.474 862C547.056 862 532.279 864.617 532.279 864.617 529 866.2 533.286 868 540.112 868 543.541 868 547.624 867.545 551.706 866.366 556.882 864.741 559.989 862.869 555.328 862.114 554.846 862.042 554.214 862 553.474 862Z" fill="#F9B989" fill-rule="evenodd" fill-opacity="1"/><path d="M465.898 715.011C462.118 715.011 457.477 717.72 450.357 717.72 449.433 717.72 448.456 717.667 447.438 717.561 445.884 717.392 444.477 717.307 443.206 717.307 434.322 717.307 431.939 721.318 429.156 725.244 425.985 729.721 416.723 726.514 413.93 738.547 411.011 750.569 415.452 756.962 418.876 762.338 422.299 767.576 418.624 773.46 421.543 773.979 421.616 773.99 421.679 773.99 421.753 773.99 424.651 773.99 428.421 764.063 429.282 761.438 430.301 758.877 424.966 754.792 426.363 750.051 426.793 748.432 427.591 747.892 428.473 747.892 430.248 747.892 432.327 750.051 432.327 750.051 435.887 749.797 440.581 741.997 443.374 738.801 444.267 737.775 445.149 737.499 446.356 737.499 447.795 737.499 449.706 737.891 452.667 737.891 455.02 737.891 458.044 737.637 462.034 736.748 475.234 733.806 475.99 723.064 470.792 717.307 469.238 715.593 467.662 715.011 465.898 715.011Z" fill="#995417" fill-rule="evenodd" fill-opacity="1"/><path d="M420.436 795C419.739 795 419.031 795.053 418.345 795.17 410.436 796.572 396.011 811.212 402.516 819.945L428.556 850 462 837.028C462 837.028 446.297 813.273 440.943 806.846 436.149 800.981 427.955 795 420.436 795Z" fill="#FDE571" fill-rule="evenodd" fill-opacity="1"/><path d="M436.511 802.511C436.511 802.511 443.802 807.663 452.5 822.489" stroke="#FFB127" stroke-width="1.4165" stroke-linecap="butt" stroke-linejoin="miter" stroke-miterlimit="1" stroke-opacity="1" fill="none" fill-rule="evenodd"/><path d="M275.5 994.5 464.5 994.5" stroke="#292E4A" stroke-width="1.4165" stroke-linecap="butt" stroke-linejoin="miter" stroke-miterlimit="1" stroke-opacity="1" fill="none" fill-rule="evenodd"/><path d="M495.5 994.5 888.5 994.5" stroke="#292E4A" stroke-width="1.4165" stroke-linecap="butt" stroke-linejoin="miter" stroke-miterlimit="1" stroke-opacity="1" fill="none" fill-rule="evenodd"/></g></svg>