<svg width="1998" height="1672" xmlns="http://www.w3.org/2000/svg" xmlns:xlink="http://www.w3.org/1999/xlink" xml:space="preserve" overflow="hidden"><defs><clipPath id="clip0"><rect x="687" y="0" width="1998" height="1672"/></clipPath></defs><g clip-path="url(#clip0)" transform="translate(-687 0)"><path d="M1845.6 485.009C1810.68 485.009 1775.97 500.247 1744.36 516.74 1705.89 536.736 1666.39 559.403 1623.01 560.234 1622.29 560.252 1621.58 560.252 1620.86 560.252 1583.08 560.252 1547.26 543.732 1513.04 527.293 1478.55 510.764 1442.41 493.793 1404.19 493.793 1403.87 493.793 1403.57 493.793 1403.26 493.793 1364.6 493.973 1323.16 517.3 1315.57 555.152 1308.27 591.514 1332.6 632.326 1314.37 664.626 1304.19 682.672 1283.48 691.835 1269.33 707.109 1245.56 732.828 1245.01 776.791 1268.31 802.979 1285.89 822.785 1314.37 832.869 1326.21 856.566 1334.45 873.032 1332.78 892.657 1338.52 910.143 1345.63 931.52 1363.12 947.904 1384.94 953.736 1388.34 954.612 1391.68 955 1394.99 955 1412.59 955 1429.12 944.05 1446.64 937.812 1448.87 937.017 1450.91 936.674 1452.82 936.674 1465.3 936.674 1472.49 951.515 1498.8 952.156 1500.24 952.192 1501.67 952.21 1503.11 952.21 1567.77 952.21 1629.03 918.647 1692.38 918.647 1700.86 918.647 1709.35 919.243 1717.91 920.606 1750.84 925.787 1782.93 935.411 1815.86 940.502 1828.75 942.488 1841.93 943.734 1855.04 943.734 1875.4 943.734 1895.59 940.737 1914.27 932.91 1944.98 919.956 1970.78 891.727 1973.37 858.507 1978 800.298 1914.37 753.004 1919.27 694.796 1921.58 666.567 1939.98 642.32 1947.2 614.931 1962.27 557.643 1926.29 499.435 1868.4 487.311 1860.81 485.722 1853.2 485.009 1845.6 485.009Z" fill="#FFB127" fill-rule="evenodd" fill-opacity="1"/><path d="M1231.08 643C1216.01 724.642 1304.9 811.164 1357.02 811.991 1371 761.683 1313.45 651.665 1231.08 643Z" fill="#23295C" fill-rule="evenodd" fill-opacity="1"/><path d="M1234.19 650.009 1234.19 650.009C1220 723.462 1299.92 800.53 1347.1 801 1359.99 755.703 1308.63 657.328 1234.19 650.009Z" fill="#1226DB" fill-rule="evenodd" fill-opacity="1"/><path d="M1242.5 658.509 1388.5 853.5" stroke="#367FC1" stroke-width="1.38944" stroke-linecap="round" stroke-linejoin="miter" stroke-miterlimit="1" stroke-opacity="1" fill="none" fill-rule="evenodd"/><path d="M1265.6 788C1246.99 788 1229.05 793.194 1217.01 804.723 1238.81 822.97 1265.5 832.984 1290.72 842.148 1314.09 849.935 1336.14 856.991 1353.21 856.991 1354.62 856.991 1356 856.945 1357.34 856.845 1359 840.934 1341.24 812.39 1310.87 798.36 1297.4 791.688 1281.27 788 1265.6 788Z" fill="#1226DB" fill-rule="evenodd" fill-opacity="1"/><path d="M1266.4 792C1249.91 792 1233.97 796.411 1223.01 806.214 1241.84 823.102 1265.86 832.231 1288.78 839.891 1308.32 846.013 1327.07 850.991 1341.88 850.991 1344.5 850.991 1347 850.838 1349.35 850.505 1350 836.201 1333.49 812.39 1306.3 800.669 1294.35 795.088 1280.19 792 1266.4 792Z" fill="#5664E1" fill-rule="evenodd" fill-opacity="1"/><path d="M1231.5 805.5C1293.72 807.985 1347.9 838.064 1381.5 882.491" stroke="#FDE571" stroke-width="0.830053" stroke-linecap="round" stroke-linejoin="miter" stroke-miterlimit="1" stroke-opacity="1" fill="none" fill-rule="evenodd"/><path d="M1582.01 896 1582.01 938.991 1643.99 938.991 1643.99 896Z" fill="#8FCEF9" fill-rule="evenodd" fill-opacity="1"/><path d="M1582.01 896 1582.01 913.991 1643.99 913.991 1643.99 896Z" fill="#5664E1" fill-rule="evenodd" fill-opacity="1"/><path d="M1518.52 930C1513.79 930 1510 933.848 1510 938.528L1510 945 1715 945 1715 938.528C1715 933.848 1711.21 930 1706.48 930Z" fill="#5664E1" fill-rule="evenodd" fill-opacity="1"/><path d="M1707.22 930 1707.22 930C1708.23 931.508 1708.8 933.281 1708.8 935.064L1708.8 938.153C1708.8 940.027 1707.31 941.526 1705.46 941.526L1510 941.526 1510 945 1715 945 1715 938.528C1715 934.131 1711.58 930.375 1707.22 930Z" fill="#8FCEF9" fill-rule="evenodd" fill-opacity="1"/><path d="M1380.71 575.009C1366.47 575.009 1355 586.451 1355 600.665L1355 871.245C1355 885.549 1366.47 896.991 1380.71 896.991L1844.29 896.991C1858.52 896.991 1870 885.549 1870 871.245L1870 600.665C1870 586.451 1858.52 575.009 1844.29 575.009Z" fill="#8FCEF9" fill-rule="evenodd" fill-opacity="1"/><path d="M1385.49 586.009C1375.32 586.009 1367 594.234 1367 604.496L1367 867.504C1367 877.766 1375.32 886 1385.49 886L1839.51 886C1849.68 886 1857.99 877.766 1857.99 867.504L1857.99 604.496C1857.99 594.234 1849.68 586.009 1839.51 586.009Z" fill="#23295C" fill-rule="evenodd" fill-opacity="1"/><path d="M1392.21 594C1382.68 594 1375 601.684 1375 611.309L1375 856.691C1375 866.316 1382.68 874 1392.21 874L1815.78 874C1825.31 874 1832.99 866.316 1832.99 856.691L1832.99 611.309C1832.99 601.684 1825.31 594 1815.78 594Z" fill="#1226DB" fill-rule="evenodd" fill-opacity="1"/><path d="M1367.5 616.5 1858.49 616.5" stroke="#527BC6" stroke-width="0.739829" stroke-linecap="butt" stroke-linejoin="miter" stroke-miterlimit="1" stroke-opacity="1" fill="none" fill-rule="evenodd"/><path d="M1367.5 639.5 1858.49 639.5" stroke="#527BC6" stroke-width="0.739829" stroke-linecap="butt" stroke-linejoin="miter" stroke-miterlimit="1" stroke-opacity="1" fill="none" fill-rule="evenodd"/><path d="M1367.5 663.5 1858.49 663.5" stroke="#527BC6" stroke-width="0.739829" stroke-linecap="butt" stroke-linejoin="miter" stroke-miterlimit="1" stroke-opacity="1" fill="none" fill-rule="evenodd"/><path d="M1367.5 686.5 1858.49 686.5" stroke="#528E78" stroke-width="0.739829" stroke-linecap="butt" stroke-linejoin="miter" stroke-miterlimit="1" stroke-opacity="1" fill="none" fill-rule="evenodd"/><path d="M1367.5 709.5 1858.49 709.5" stroke="#528E78" stroke-width="0.739829" stroke-linecap="butt" stroke-linejoin="miter" stroke-miterlimit="1" stroke-opacity="1" fill="none" fill-rule="evenodd"/><path d="M1367.5 733.5 1858.49 733.5" stroke="#527BC6" stroke-width="0.739829" stroke-linecap="butt" stroke-linejoin="miter" stroke-miterlimit="1" stroke-opacity="1" fill="none" fill-rule="evenodd"/><path d="M1367.5 756.5 1858.49 756.5" stroke="#527BC6" stroke-width="0.739829" stroke-linecap="butt" stroke-linejoin="miter" stroke-miterlimit="1" stroke-opacity="1" fill="none" fill-rule="evenodd"/><path d="M1367.5 781.5 1858.49 781.5" stroke="#527BC6" stroke-width="0.739829" stroke-linecap="butt" stroke-linejoin="miter" stroke-miterlimit="1" stroke-opacity="1" fill="none" fill-rule="evenodd"/><path d="M1367.5 804.5 1858.49 804.5" stroke="#527BC6" stroke-width="0.739829" stroke-linecap="butt" stroke-linejoin="miter" stroke-miterlimit="1" stroke-opacity="1" fill="none" fill-rule="evenodd"/><path d="M1367.5 828.5 1858.49 828.5" stroke="#527BC6" stroke-width="0.739829" stroke-linecap="butt" stroke-linejoin="miter" stroke-miterlimit="1" stroke-opacity="1" fill="none" fill-rule="evenodd"/><path d="M1367.5 850.5 1858.49 850.5" stroke="#527BC6" stroke-width="0.739829" stroke-linecap="butt" stroke-linejoin="miter" stroke-miterlimit="1" stroke-opacity="1" fill="none" fill-rule="evenodd"/><path d="M1732.01 583 1732.01 665.964C1732.01 669.848 1735.14 673 1739.02 673L1870 673 1870 608.74C1870 594.479 1858.55 583 1844.34 583Z" fill="#5664E1" fill-rule="evenodd" fill-opacity="1"/><path d="M1390 695 1390 715 1397 715 1397 695Z" fill="#8FCEF9" fill-rule="evenodd" fill-opacity="1"/><path d="M1395.5 697.49 1395.5 690.5" stroke="#60EABC" stroke-width="0.279692" stroke-linecap="round" stroke-linejoin="miter" stroke-miterlimit="1" stroke-opacity="1" fill="none" fill-rule="evenodd"/><path d="M1395.5 713.5 1395.5 743.491" stroke="#60EABC" stroke-width="0.279692" stroke-linecap="round" stroke-linejoin="miter" stroke-miterlimit="1" stroke-opacity="1" fill="none" fill-rule="evenodd"/><path d="M1414 721 1414 756.991 1420.99 756.991 1420.99 721Z" fill="#8FCEF9" fill-rule="evenodd" fill-opacity="1"/><path d="M1419.5 723.49 1419.5 716.51" stroke="#60EABC" stroke-width="0.279692" stroke-linecap="round" stroke-linejoin="miter" stroke-miterlimit="1" stroke-opacity="1" fill="none" fill-rule="evenodd"/><path d="M1419.5 755.5 1419.5 772.491" stroke="#60EABC" stroke-width="0.279692" stroke-linecap="round" stroke-linejoin="miter" stroke-miterlimit="1" stroke-opacity="1" fill="none" fill-rule="evenodd"/><path d="M1439 764 1439 794 1445 794 1445 764Z" fill="#60EABC" fill-rule="evenodd" fill-opacity="1"/><path d="M1443.5 753.5 1443.5 765.491" stroke="#60EABC" stroke-width="0.279692" stroke-linecap="round" stroke-linejoin="miter" stroke-miterlimit="1" stroke-opacity="1" fill="none" fill-rule="evenodd"/><path d="M1443.5 792.51 1443.5 799.49" stroke="#60EABC" stroke-width="0.279692" stroke-linecap="round" stroke-linejoin="miter" stroke-miterlimit="1" stroke-opacity="1" fill="none" fill-rule="evenodd"/><path d="M1451.01 738.009 1451.01 781 1456.99 781 1456.99 738.009Z" fill="#60EABC" fill-rule="evenodd" fill-opacity="1"/><path d="M1455.5 740.5 1455.5 733.5" stroke="#60EABC" stroke-width="0.279692" stroke-linecap="round" stroke-linejoin="miter" stroke-miterlimit="1" stroke-opacity="1" fill="none" fill-rule="evenodd"/><path d="M1455.5 779.5 1455.5 786.49" stroke="#60EABC" stroke-width="0.279692" stroke-linecap="round" stroke-linejoin="miter" stroke-miterlimit="1" stroke-opacity="1" fill="none" fill-rule="evenodd"/><path d="M1463.01 756 1463.01 798.991 1468.99 798.991 1468.99 756Z" fill="#60EABC" fill-rule="evenodd" fill-opacity="1"/><path d="M1466.5 758.49 1466.5 751.5" stroke="#60EABC" stroke-width="0.279692" stroke-linecap="round" stroke-linejoin="miter" stroke-miterlimit="1" stroke-opacity="1" fill="none" fill-rule="evenodd"/><path d="M1466.5 797.5 1466.5 804.49" stroke="#60EABC" stroke-width="0.279692" stroke-linecap="round" stroke-linejoin="miter" stroke-miterlimit="1" stroke-opacity="1" fill="none" fill-rule="evenodd"/><path d="M1499.01 733 1499.01 775.991 1504.99 775.991 1504.99 733Z" fill="#60EABC" fill-rule="evenodd" fill-opacity="1"/><path d="M1503.5 735.49 1503.5 728.51" stroke="#60EABC" stroke-width="0.279692" stroke-linecap="round" stroke-linejoin="miter" stroke-miterlimit="1" stroke-opacity="1" fill="none" fill-rule="evenodd"/><path d="M1503.5 774.51 1503.5 781.5" stroke="#60EABC" stroke-width="0.279692" stroke-linecap="round" stroke-linejoin="miter" stroke-miterlimit="1" stroke-opacity="1" fill="none" fill-rule="evenodd"/><path d="M1511.01 732.009 1511.01 763 1516.99 763 1516.99 732.009Z" fill="#60EABC" fill-rule="evenodd" fill-opacity="1"/><path d="M1514.5 734.491 1514.5 715.509" stroke="#60EABC" stroke-width="0.279692" stroke-linecap="round" stroke-linejoin="miter" stroke-miterlimit="1" stroke-opacity="1" fill="none" fill-rule="evenodd"/><path d="M1514.5 761.508 1514.5 767.492" stroke="#60EABC" stroke-width="0.279692" stroke-linecap="round" stroke-linejoin="miter" stroke-miterlimit="1" stroke-opacity="1" fill="none" fill-rule="evenodd"/><path d="M1535.01 728.009 1535.01 764.991 1541 764.991 1541 728.009Z" fill="#8FCEF9" fill-rule="evenodd" fill-opacity="1"/><path d="M1539.5 730.5 1539.5 714.51" stroke="#60EABC" stroke-width="0.279692" stroke-linecap="round" stroke-linejoin="miter" stroke-miterlimit="1" stroke-opacity="1" fill="none" fill-rule="evenodd"/><path d="M1539.5 763.5 1539.5 770.5" stroke="#60EABC" stroke-width="0.279692" stroke-linecap="round" stroke-linejoin="miter" stroke-miterlimit="1" stroke-opacity="1" fill="none" fill-rule="evenodd"/><path d="M1547.01 718.009 1547.01 760.991 1553.99 760.991 1553.99 718.009Z" fill="#8FCEF9" fill-rule="evenodd" fill-opacity="1"/><path d="M1551.5 720.5 1551.5 713.5" stroke="#8FCEF9" stroke-width="0.279692" stroke-linecap="round" stroke-linejoin="miter" stroke-miterlimit="1" stroke-opacity="1" fill="none" fill-rule="evenodd"/><path d="M1551.5 759.5 1551.5 766.5" stroke="#60EABC" stroke-width="0.279692" stroke-linecap="round" stroke-linejoin="miter" stroke-miterlimit="1" stroke-opacity="1" fill="none" fill-rule="evenodd"/><path d="M1571 695 1571 728 1578 728 1578 695Z" fill="#8FCEF9" fill-rule="evenodd" fill-opacity="1"/><path d="M1574.5 697.49 1574.5 690.5" stroke="#60EABC" stroke-width="0.279692" stroke-linecap="round" stroke-linejoin="miter" stroke-miterlimit="1" stroke-opacity="1" fill="none" fill-rule="evenodd"/><path d="M1574.5 725.5 1574.5 743.491" stroke="#60EABC" stroke-width="0.279692" stroke-linecap="round" stroke-linejoin="miter" stroke-miterlimit="1" stroke-opacity="1" fill="none" fill-rule="evenodd"/><path d="M1595.01 694.009 1595.01 728.991 1601.99 728.991 1601.99 694.009Z" fill="#8FCEF9" fill-rule="evenodd" fill-opacity="1"/><path d="M1598.5 696.491 1598.5 681.509" stroke="#60EABC" stroke-width="0.279692" stroke-linecap="round" stroke-linejoin="miter" stroke-miterlimit="1" stroke-opacity="1" fill="none" fill-rule="evenodd"/><path d="M1598.5 727.5 1598.5 733.5" stroke="#60EABC" stroke-width="0.279692" stroke-linecap="round" stroke-linejoin="miter" stroke-miterlimit="1" stroke-opacity="1" fill="none" fill-rule="evenodd"/><path d="M1607 664.009 1607 703.991 1613.99 703.991 1613.99 664.009Z" fill="#8FCEF9" fill-rule="evenodd" fill-opacity="1"/><path d="M1610.5 666.5 1610.5 659.5" stroke="#60EABC" stroke-width="0.279692" stroke-linecap="round" stroke-linejoin="miter" stroke-miterlimit="1" stroke-opacity="1" fill="none" fill-rule="evenodd"/><path d="M1610.5 702.5 1610.5 712.5" stroke="#60EABC" stroke-width="0.279692" stroke-linecap="round" stroke-linejoin="miter" stroke-miterlimit="1" stroke-opacity="1" fill="none" fill-rule="evenodd"/><path d="M1619 673 1619 716 1626 716 1626 673Z" fill="#8FCEF9" fill-rule="evenodd" fill-opacity="1"/><path d="M1623.5 675.49 1623.5 668.51" stroke="#60EABC" stroke-width="0.279692" stroke-linecap="round" stroke-linejoin="miter" stroke-miterlimit="1" stroke-opacity="1" fill="none" fill-rule="evenodd"/><path d="M1623.5 714.51 1623.5 721.49" stroke="#60EABC" stroke-width="0.279692" stroke-linecap="round" stroke-linejoin="miter" stroke-miterlimit="1" stroke-opacity="1" fill="none" fill-rule="evenodd"/><path d="M1631.01 647.009 1631.01 689.991 1638 689.991 1638 647.009Z" fill="#8FCEF9" fill-rule="evenodd" fill-opacity="1"/><path d="M1636.5 649.49 1636.5 642.5" stroke="#60EABC" stroke-width="0.279692" stroke-linecap="round" stroke-linejoin="miter" stroke-miterlimit="1" stroke-opacity="1" fill="none" fill-rule="evenodd"/><path d="M1636.5 688.5 1636.5 695.49" stroke="#60EABC" stroke-width="0.279692" stroke-linecap="round" stroke-linejoin="miter" stroke-miterlimit="1" stroke-opacity="1" fill="none" fill-rule="evenodd"/><path d="M1655 644 1655 687 1661.99 687 1661.99 644Z" fill="#8FCEF9" fill-rule="evenodd" fill-opacity="1"/><path d="M1659.5 646.49 1659.5 639.5" stroke="#60EABC" stroke-width="0.279692" stroke-linecap="round" stroke-linejoin="miter" stroke-miterlimit="1" stroke-opacity="1" fill="none" fill-rule="evenodd"/><path d="M1659.5 685.5 1659.5 692.491" stroke="#60EABC" stroke-width="0.279692" stroke-linecap="round" stroke-linejoin="miter" stroke-miterlimit="1" stroke-opacity="1" fill="none" fill-rule="evenodd"/><path d="M1667 649.009 1667 691.991 1674 691.991 1674 649.009Z" fill="#8FCEF9" fill-rule="evenodd" fill-opacity="1"/><path d="M1672.5 650.5 1672.5 644.5" stroke="#60EABC" stroke-width="0.279692" stroke-linecap="round" stroke-linejoin="miter" stroke-miterlimit="1" stroke-opacity="1" fill="none" fill-rule="evenodd"/><path d="M1672.5 690.5 1672.5 696.5" stroke="#60EABC" stroke-width="0.279692" stroke-linecap="round" stroke-linejoin="miter" stroke-miterlimit="1" stroke-opacity="1" fill="none" fill-rule="evenodd"/><path d="M1679.01 637 1679.01 681 1686 681 1686 637Z" fill="#8FCEF9" fill-rule="evenodd" fill-opacity="1"/><path d="M1684.5 639.492 1684.5 633.508" stroke="#60EABC" stroke-width="0.279692" stroke-linecap="round" stroke-linejoin="miter" stroke-miterlimit="1" stroke-opacity="1" fill="none" fill-rule="evenodd"/><path d="M1684.5 679.508 1684.5 685.492" stroke="#60EABC" stroke-width="0.279692" stroke-linecap="round" stroke-linejoin="miter" stroke-miterlimit="1" stroke-opacity="1" fill="none" fill-rule="evenodd"/><path d="M1716 653.009 1716 696.991 1722 696.991 1722 653.009Z" fill="#8FCEF9" fill-rule="evenodd" fill-opacity="1"/><path d="M1720.5 655.5 1720.5 649.5" stroke="#60EABC" stroke-width="0.279692" stroke-linecap="round" stroke-linejoin="miter" stroke-miterlimit="1" stroke-opacity="1" fill="none" fill-rule="evenodd"/><path d="M1720.5 695.5 1720.5 701.5" stroke="#60EABC" stroke-width="0.279692" stroke-linecap="round" stroke-linejoin="miter" stroke-miterlimit="1" stroke-opacity="1" fill="none" fill-rule="evenodd"/><path d="M1728.01 676 1728.01 711.991 1734 711.991 1734 676Z" fill="#8FCEF9" fill-rule="evenodd" fill-opacity="1"/><path d="M1732.5 678.492 1732.5 672.5" stroke="#60EABC" stroke-width="0.279692" stroke-linecap="round" stroke-linejoin="miter" stroke-miterlimit="1" stroke-opacity="1" fill="none" fill-rule="evenodd"/><path d="M1732.5 710.5 1732.5 724.491" stroke="#60EABC" stroke-width="0.279692" stroke-linecap="round" stroke-linejoin="miter" stroke-miterlimit="1" stroke-opacity="1" fill="none" fill-rule="evenodd"/><path d="M1740 687 1740 730 1745.99 730 1745.99 687Z" fill="#8FCEF9" fill-rule="evenodd" fill-opacity="1"/><path d="M1744.5 689.49 1744.5 682.509" stroke="#60EABC" stroke-width="0.279692" stroke-linecap="round" stroke-linejoin="miter" stroke-miterlimit="1" stroke-opacity="1" fill="none" fill-rule="evenodd"/><path d="M1744.5 728.51 1744.5 735.49" stroke="#60EABC" stroke-width="0.279692" stroke-linecap="round" stroke-linejoin="miter" stroke-miterlimit="1" stroke-opacity="1" fill="none" fill-rule="evenodd"/><path d="M1752 690.009 1752 722.991 1757.99 722.991 1757.99 690.009Z" fill="#8FCEF9" fill-rule="evenodd" fill-opacity="1"/><path d="M1755.5 692.491 1755.5 675.5" stroke="#60EABC" stroke-width="0.279692" stroke-linecap="round" stroke-linejoin="miter" stroke-miterlimit="1" stroke-opacity="1" fill="none" fill-rule="evenodd"/><path d="M1755.5 721.5 1755.5 728.49" stroke="#60EABC" stroke-width="0.279692" stroke-linecap="round" stroke-linejoin="miter" stroke-miterlimit="1" stroke-opacity="1" fill="none" fill-rule="evenodd"/><path d="M1776.01 718.009 1776.01 760.991 1781.99 760.991 1781.99 718.009Z" fill="#8FCEF9" fill-rule="evenodd" fill-opacity="1"/><path d="M1780.5 720.5 1780.5 713.5" stroke="#60EABC" stroke-width="0.279692" stroke-linecap="round" stroke-linejoin="miter" stroke-miterlimit="1" stroke-opacity="1" fill="none" fill-rule="evenodd"/><path d="M1780.5 759.5 1780.5 766.5" stroke="#60EABC" stroke-width="0.279692" stroke-linecap="round" stroke-linejoin="miter" stroke-miterlimit="1" stroke-opacity="1" fill="none" fill-rule="evenodd"/><path d="M1788 706 1788 738 1793.99 738 1793.99 706Z" fill="#8FCEF9" fill-rule="evenodd" fill-opacity="1"/><path d="M1791.5 708.5 1791.5 701.51" stroke="#60EABC" stroke-width="0.279692" stroke-linecap="round" stroke-linejoin="miter" stroke-miterlimit="1" stroke-opacity="1" fill="none" fill-rule="evenodd"/><path d="M1791.5 737.509 1791.5 754.5" stroke="#60EABC" stroke-width="0.279692" stroke-linecap="round" stroke-linejoin="miter" stroke-miterlimit="1" stroke-opacity="1" fill="none" fill-rule="evenodd"/><path d="M1402.01 722 1402.01 748 1409 748 1409 722Z" fill="#FFB127" fill-rule="evenodd" fill-opacity="1"/><path d="M1407.5 724.5 1407.5 704.5" stroke="#FF8A8A" stroke-width="0.279692" stroke-linecap="round" stroke-linejoin="miter" stroke-miterlimit="1" stroke-opacity="1" fill="none" fill-rule="evenodd"/><path d="M1407.5 746.51 1407.5 753.49" stroke="#FF8A8A" stroke-width="0.279692" stroke-linecap="round" stroke-linejoin="miter" stroke-miterlimit="1" stroke-opacity="1" fill="none" fill-rule="evenodd"/><path d="M1427 748.009 1427 778 1432.99 778 1432.99 748.009Z" fill="#FFB127" fill-rule="evenodd" fill-opacity="1"/><path d="M1430.5 751.491 1430.5 730.509" stroke="#FFB127" stroke-width="0.279692" stroke-linecap="round" stroke-linejoin="miter" stroke-miterlimit="1" stroke-opacity="1" fill="none" fill-rule="evenodd"/><path d="M1430.5 776.508 1430.5 782.492" stroke="#FF8A8A" stroke-width="0.279692" stroke-linecap="round" stroke-linejoin="miter" stroke-miterlimit="1" stroke-opacity="1" fill="none" fill-rule="evenodd"/><path d="M1475 765 1475 793 1480.99 793 1480.99 765Z" fill="#FF8A8A" fill-rule="evenodd" fill-opacity="1"/><path d="M1478.5 767.5 1478.5 760.509" stroke="#FF8A8A" stroke-width="0.279692" stroke-linecap="round" stroke-linejoin="miter" stroke-miterlimit="1" stroke-opacity="1" fill="none" fill-rule="evenodd"/><path d="M1478.5 790.509 1478.5 813.5" stroke="#FF8A8A" stroke-width="0.279692" stroke-linecap="round" stroke-linejoin="miter" stroke-miterlimit="1" stroke-opacity="1" fill="none" fill-rule="evenodd"/><path d="M1487.01 753 1487.01 795.991 1493 795.991 1493 753Z" fill="#FF8A8A" fill-rule="evenodd" fill-opacity="1"/><path d="M1491.5 755.49 1491.5 748.51" stroke="#FF8A8A" stroke-width="0.279692" stroke-linecap="round" stroke-linejoin="miter" stroke-miterlimit="1" stroke-opacity="1" fill="none" fill-rule="evenodd"/><path d="M1491.5 794.5 1491.5 801.5" stroke="#FF8A8A" stroke-width="0.279692" stroke-linecap="round" stroke-linejoin="miter" stroke-miterlimit="1" stroke-opacity="1" fill="none" fill-rule="evenodd"/><path d="M1523 731.009 1523 752 1529 752 1529 731.009Z" fill="#FF8A8A" fill-rule="evenodd" fill-opacity="1"/><path d="M1526.5 733.5 1526.5 726.5" stroke="#FF8A8A" stroke-width="0.279692" stroke-linecap="round" stroke-linejoin="miter" stroke-miterlimit="1" stroke-opacity="1" fill="none" fill-rule="evenodd"/><path d="M1526.5 751.509 1526.5 779.5" stroke="#FF8A8A" stroke-width="0.279692" stroke-linecap="round" stroke-linejoin="miter" stroke-miterlimit="1" stroke-opacity="1" fill="none" fill-rule="evenodd"/><path d="M1559.01 707.009 1559.01 750 1565.99 750 1565.99 707.009Z" fill="#FFB127" fill-rule="evenodd" fill-opacity="1"/><path d="M1562.5 709.49 1562.5 702.5" stroke="#FF8A8A" stroke-width="0.279692" stroke-linecap="round" stroke-linejoin="miter" stroke-miterlimit="1" stroke-opacity="1" fill="none" fill-rule="evenodd"/><path d="M1562.5 748.5 1562.5 755.49" stroke="#FF8A8A" stroke-width="0.279692" stroke-linecap="round" stroke-linejoin="miter" stroke-miterlimit="1" stroke-opacity="1" fill="none" fill-rule="evenodd"/><path d="M1583.01 682.009 1583.01 714.991 1590 714.991 1590 682.009Z" fill="#FFB127" fill-rule="evenodd" fill-opacity="1"/><path d="M1587.5 684.5 1587.5 677.5" stroke="#FF8A8A" stroke-width="0.279692" stroke-linecap="round" stroke-linejoin="miter" stroke-miterlimit="1" stroke-opacity="1" fill="none" fill-rule="evenodd"/><path d="M1587.5 715.509 1587.5 730.5" stroke="#FF8A8A" stroke-width="0.279692" stroke-linecap="round" stroke-linejoin="miter" stroke-miterlimit="1" stroke-opacity="1" fill="none" fill-rule="evenodd"/><path d="M1643.01 673 1643.01 716 1649.99 716 1649.99 673Z" fill="#FFB127" fill-rule="evenodd" fill-opacity="1"/><path d="M1647.5 675.49 1647.5 668.51" stroke="#FF8A8A" stroke-width="0.279692" stroke-linecap="round" stroke-linejoin="miter" stroke-miterlimit="1" stroke-opacity="1" fill="none" fill-rule="evenodd"/><path d="M1647.5 714.51 1647.5 721.49" stroke="#FF8A8A" stroke-width="0.279692" stroke-linecap="round" stroke-linejoin="miter" stroke-miterlimit="1" stroke-opacity="1" fill="none" fill-rule="evenodd"/><path d="M1692.01 651 1692.01 694.991 1697.99 694.991 1697.99 651Z" fill="#FFB127" fill-rule="evenodd" fill-opacity="1"/><path d="M1695.5 653.5 1695.5 647.508" stroke="#FF8A8A" stroke-width="0.279692" stroke-linecap="round" stroke-linejoin="miter" stroke-miterlimit="1" stroke-opacity="1" fill="none" fill-rule="evenodd"/><path d="M1695.5 693.5 1695.5 699.5" stroke="#FF8A8A" stroke-width="0.279692" stroke-linecap="round" stroke-linejoin="miter" stroke-miterlimit="1" stroke-opacity="1" fill="none" fill-rule="evenodd"/><path d="M1704 679.009 1704 703.991 1710 703.991 1710 679.009Z" fill="#FFB127" fill-rule="evenodd" fill-opacity="1"/><path d="M1707.5 680.491 1707.5 656.5" stroke="#FF8A8A" stroke-width="0.279692" stroke-linecap="round" stroke-linejoin="miter" stroke-miterlimit="1" stroke-opacity="1" fill="none" fill-rule="evenodd"/><path d="M1707.5 702.5 1707.5 708.492" stroke="#FF8A8A" stroke-width="0.279692" stroke-linecap="round" stroke-linejoin="miter" stroke-miterlimit="1" stroke-opacity="1" fill="none" fill-rule="evenodd"/><path d="M1764 719 1764 752 1770 752 1770 719Z" fill="#FFB127" fill-rule="evenodd" fill-opacity="1"/><path d="M1768.5 720.491 1768.5 704.5" stroke="#FF8A8A" stroke-width="0.279692" stroke-linecap="round" stroke-linejoin="miter" stroke-miterlimit="1" stroke-opacity="1" fill="none" fill-rule="evenodd"/><path d="M1768.5 750.508 1768.5 756.492" stroke="#FF8A8A" stroke-width="0.279692" stroke-linecap="round" stroke-linejoin="miter" stroke-miterlimit="1" stroke-opacity="1" fill="none" fill-rule="evenodd"/><path d="M1800 744.009 1800 772 1805.99 772 1805.99 744.009Z" fill="#FFB127" fill-rule="evenodd" fill-opacity="1"/><path d="M1803.5 750.5 1803.5 724.5" stroke="#FF8A8A" stroke-width="0.279692" stroke-linecap="round" stroke-linejoin="miter" stroke-miterlimit="1" stroke-opacity="1" fill="none" fill-rule="evenodd"/><path d="M1803.5 770.5 1803.5 777.49" stroke="#FF8A8A" stroke-width="0.279692" stroke-linecap="round" stroke-linejoin="miter" stroke-miterlimit="1" stroke-opacity="1" fill="none" fill-rule="evenodd"/><path d="M1812 736 1812 779.991 1818 779.991 1818 736Z" fill="#FFB127" fill-rule="evenodd" fill-opacity="1"/><path d="M1816.5 737.5 1816.5 723.5" stroke="#FF8A8A" stroke-width="0.279692" stroke-linecap="round" stroke-linejoin="miter" stroke-miterlimit="1" stroke-opacity="1" fill="none" fill-rule="evenodd"/><path d="M1816.5 778.5 1816.5 785.49" stroke="#FF8A8A" stroke-width="0.279692" stroke-linecap="round" stroke-linejoin="miter" stroke-miterlimit="1" stroke-opacity="1" fill="none" fill-rule="evenodd"/><path d="M1824.01 707.009 1824.01 736 1829.99 736 1829.99 707.009Z" fill="#8FCEF9" fill-rule="evenodd" fill-opacity="1"/><path d="M1828.5 709.49 1828.5 702.5" stroke="#60EABC" stroke-width="0.279692" stroke-linecap="round" stroke-linejoin="miter" stroke-miterlimit="1" stroke-opacity="1" fill="none" fill-rule="evenodd"/><path d="M1828.5 734.509 1828.5 747.5" stroke="#60EABC" stroke-width="0.279692" stroke-linecap="round" stroke-linejoin="miter" stroke-miterlimit="1" stroke-opacity="1" fill="none" fill-rule="evenodd"/><path d="M1836.01 695 1836.01 725 1841.99 725 1841.99 695Z" fill="#8FCEF9" fill-rule="evenodd" fill-opacity="1"/><path d="M1839.5 697.49 1839.5 690.5" stroke="#60EABC" stroke-width="0.279692" stroke-linecap="round" stroke-linejoin="miter" stroke-miterlimit="1" stroke-opacity="1" fill="none" fill-rule="evenodd"/><path d="M1839.5 721.5 1839.5 743.491" stroke="#60EABC" stroke-width="0.279692" stroke-linecap="round" stroke-linejoin="miter" stroke-miterlimit="1" stroke-opacity="1" fill="none" fill-rule="evenodd"/><path d="M1375 817.009 1375 875.991 1380 875.991 1380 817.009Z" fill="#23295C" fill-rule="evenodd" fill-opacity="1"/><path d="M1384 838 1384 875.991 1390 875.991 1390 838Z" fill="#23295C" fill-rule="evenodd" fill-opacity="1"/><path d="M1394 841.009 1394 875.991 1399 875.991 1399 841.009Z" fill="#5C87C6" fill-rule="evenodd" fill-opacity="1"/><path d="M1403 842 1403 875.991 1408 875.991 1408 842Z" fill="#5C87C6" fill-rule="evenodd" fill-opacity="1"/><path d="M1412 846 1412 875.991 1417 875.991 1417 846Z" fill="#5C87C6" fill-rule="evenodd" fill-opacity="1"/><path d="M1421 850 1421 875.991 1426 875.991 1426 850Z" fill="#23295C" fill-rule="evenodd" fill-opacity="1"/><path d="M1430 854 1430 875.991 1436 875.991 1436 854Z" fill="#23295C" fill-rule="evenodd" fill-opacity="1"/><path d="M1439 856 1439 875.991 1445 875.991 1445 856Z" fill="#23295C" fill-rule="evenodd" fill-opacity="1"/><path d="M1449.01 851.009 1449.01 875.991 1454 875.991 1454 851.009Z" fill="#23295C" fill-rule="evenodd" fill-opacity="1"/><path d="M1458 851 1458 875.991 1463 875.991 1463 851Z" fill="#23295C" fill-rule="evenodd" fill-opacity="1"/><path d="M1467.01 855.009 1467.01 875.991 1472 875.991 1472 855.009Z" fill="#23295C" fill-rule="evenodd" fill-opacity="1"/><path d="M1476 860.009 1476 875.991 1482 875.991 1482 860.009Z" fill="#23295C" fill-rule="evenodd" fill-opacity="1"/><path d="M1485 863.01 1485 875.991 1491 875.991 1491 863.01Z" fill="#23295C" fill-rule="evenodd" fill-opacity="1"/><path d="M1495.01 869.009 1495.01 875.991 1500 875.991 1500 869.009Z" fill="#23295C" fill-rule="evenodd" fill-opacity="1"/><path d="M1504 864 1504 875.99 1509 875.99 1509 864Z" fill="#23295C" fill-rule="evenodd" fill-opacity="1"/><path d="M1513.01 858.009 1513.01 875.991 1518 875.991 1518 858.009Z" fill="#23295C" fill-rule="evenodd" fill-opacity="1"/><path d="M1522 866.01 1522 875.99 1527.99 875.99 1527.99 866.01Z" fill="#23295C" fill-rule="evenodd" fill-opacity="1"/><path d="M1532.01 841.009 1532.01 875.991 1537 875.991 1537 841.009Z" fill="#23295C" fill-rule="evenodd" fill-opacity="1"/><path d="M1541.01 823 1541.01 875.991 1545.99 875.991 1545.99 823Z" fill="#23295C" fill-rule="evenodd" fill-opacity="1"/><path d="M1550.01 843.009 1550.01 875.991 1555 875.991 1555 843.009Z" fill="#23295C" fill-rule="evenodd" fill-opacity="1"/><path d="M1559.01 838 1559.01 875.991 1564 875.991 1564 838Z" fill="#23295C" fill-rule="evenodd" fill-opacity="1"/><path d="M1568.01 835 1568.01 875.991 1573.99 875.991 1573.99 835Z" fill="#23295C" fill-rule="evenodd" fill-opacity="1"/><path d="M1577.01 832 1577.01 875.991 1582.99 875.991 1582.99 832Z" fill="#23295C" fill-rule="evenodd" fill-opacity="1"/><path d="M1587.01 829 1587.01 875.991 1591.99 875.991 1591.99 829Z" fill="#23295C" fill-rule="evenodd" fill-opacity="1"/><path d="M1596.01 820 1596.01 875.991 1601 875.991 1601 820Z" fill="#23295C" fill-rule="evenodd" fill-opacity="1"/><path d="M1605.01 817.009 1605.01 875.991 1609.99 875.991 1609.99 817.009Z" fill="#23295C" fill-rule="evenodd" fill-opacity="1"/><path d="M1614.01 812 1614.01 875.991 1619.99 875.991 1619.99 812Z" fill="#23295C" fill-rule="evenodd" fill-opacity="1"/><path d="M1624.01 809.009 1624.01 875.991 1628.99 875.991 1628.99 809.009Z" fill="#23295C" fill-rule="evenodd" fill-opacity="1"/><path d="M1633.01 811 1633.01 875.991 1637.99 875.991 1637.99 811Z" fill="#23295C" fill-rule="evenodd" fill-opacity="1"/><path d="M1642.01 808.009 1642.01 875.991 1646.99 875.991 1646.99 808.009Z" fill="#23295C" fill-rule="evenodd" fill-opacity="1"/><path d="M1651.01 804 1651.01 875.991 1655.99 875.991 1655.99 804Z" fill="#23295C" fill-rule="evenodd" fill-opacity="1"/><path d="M1660.01 800 1660.01 875.991 1665.99 875.991 1665.99 800Z" fill="#23295C" fill-rule="evenodd" fill-opacity="1"/><path d="M1669.01 797.009 1669.01 875.991 1674.99 875.991 1674.99 797.009Z" fill="#23295C" fill-rule="evenodd" fill-opacity="1"/><path d="M1679.01 788.009 1679.01 875.991 1683.99 875.991 1683.99 788.009Z" fill="#23295C" fill-rule="evenodd" fill-opacity="1"/><path d="M1688.01 808.009 1688.01 875.991 1692.99 875.991 1692.99 808.009Z" fill="#23295C" fill-rule="evenodd" fill-opacity="1"/><path d="M1697.01 799 1697.01 875.991 1701.99 875.991 1701.99 799Z" fill="#23295C" fill-rule="evenodd" fill-opacity="1"/><path d="M1706.01 808.009 1706.01 875.991 1711.99 875.991 1711.99 808.009Z" fill="#23295C" fill-rule="evenodd" fill-opacity="1"/><path d="M1715.01 827.009 1715.01 875.991 1720.99 875.991 1720.99 827.009Z" fill="#23295C" fill-rule="evenodd" fill-opacity="1"/><path d="M1725.01 835.009 1725.01 875.991 1729.99 875.991 1729.99 835.009Z" fill="#23295C" fill-rule="evenodd" fill-opacity="1"/><path d="M1734.01 836 1734.01 875.991 1738.99 875.991 1738.99 836Z" fill="#23295C" fill-rule="evenodd" fill-opacity="1"/><path d="M1743 829 1743 875.991 1747.99 875.991 1747.99 829Z" fill="#23295C" fill-rule="evenodd" fill-opacity="1"/><path d="M1752.01 817.009 1752.01 875.991 1757.99 875.991 1757.99 817.009Z" fill="#23295C" fill-rule="evenodd" fill-opacity="1"/><path d="M1762 811.009 1762 875.991 1766.99 875.991 1766.99 811.009Z" fill="#23295C" fill-rule="evenodd" fill-opacity="1"/><path d="M1771.01 822 1771.01 875.991 1775.99 875.991 1775.99 822Z" fill="#23295C" fill-rule="evenodd" fill-opacity="1"/><path d="M1780 823 1780 875.991 1784.99 875.991 1784.99 823Z" fill="#23295C" fill-rule="evenodd" fill-opacity="1"/><path d="M1789 827.009 1789 875.991 1793.99 875.991 1793.99 827.009Z" fill="#23295C" fill-rule="evenodd" fill-opacity="1"/><path d="M1798 817.009 1798 875.991 1803.99 875.991 1803.99 817.009Z" fill="#23295C" fill-rule="evenodd" fill-opacity="1"/><path d="M1808 828.009 1808 875.991 1812.99 875.991 1812.99 828.009Z" fill="#23295C" fill-rule="evenodd" fill-opacity="1"/><path d="M1817 836 1817 875.991 1822 875.991 1822 836Z" fill="#23295C" fill-rule="evenodd" fill-opacity="1"/><path d="M1826 817.009 1826 875.991 1830.99 875.991 1830.99 817.009Z" fill="#23295C" fill-rule="evenodd" fill-opacity="1"/><path d="M1769.9 834.009C1761.07 834.009 1754.01 841.095 1754.01 849.954 1754.01 858.814 1761.07 865.991 1769.9 865.991L1808.1 865.991C1816.84 865.991 1823.99 858.814 1823.99 849.954 1823.99 841.186 1816.84 834.009 1808.1 834.009Z" fill="#23295C" fill-rule="evenodd" fill-opacity="1"/><path d="M1766.74 830.009C1758.05 830.009 1751 837.166 1751 846 1751 854.835 1758.05 861.991 1766.74 861.991L1804.26 861.991C1812.95 861.991 1819.99 854.835 1819.99 846 1819.99 837.166 1812.95 830.009 1804.26 830.009Z" fill="#5664E1" fill-rule="evenodd" fill-opacity="1"/><path d="M1767.19 833.009C1759.96 833.009 1754.01 838.824 1754.1 846.004 1754.1 853.185 1759.96 859 1767.19 859L1803.91 859C1811.14 859 1817 853.185 1817 846.004 1817 838.824 1811.14 833.009 1803.91 833.009Z" fill="#8FCEF9" fill-rule="evenodd" fill-opacity="1"/><path d="M1687.76 834.009C1679.06 834.009 1672.01 841.095 1672.01 849.954 1672.01 858.814 1679.06 865.991 1687.76 865.991L1725.33 865.991C1734.03 865.991 1740.99 858.814 1740.99 849.954 1740.99 841.186 1734.03 834.009 1725.33 834.009Z" fill="#23295C" fill-rule="evenodd" fill-opacity="1"/><path d="M1682.96 830.009C1674.14 830.009 1667 837.166 1667 846 1667 854.835 1674.14 861.991 1682.96 861.991L1721.03 861.991C1729.85 861.991 1737 854.835 1737 846 1737 837.166 1729.85 830.009 1721.03 830.009Z" fill="#FFB127" fill-rule="evenodd" fill-opacity="1"/><path d="M1683.4 833.009C1676.05 833.009 1670 838.824 1670.1 846.004 1670.1 853.185 1676.05 859 1683.4 859L1720.69 859C1728.04 859 1733.99 853.185 1733.99 846.004 1733.99 838.824 1728.04 833.009 1720.69 833.009Z" fill="#FDE571" fill-rule="evenodd" fill-opacity="1"/><path d="M1691.76 843.009C1691.16 843.009 1690.56 843.098 1690.05 843.286 1689.62 843.555 1689.2 843.832 1688.94 844.199 1688.69 844.655 1688.52 845.12 1688.52 845.666 1688.52 846.221 1688.69 846.677 1688.94 847.044 1689.2 847.411 1689.54 847.589 1689.88 847.777 1690.22 847.956 1690.64 848.144 1691.24 848.323 1691.58 848.422 1691.84 848.511 1692.1 848.6 1692.26 848.69 1692.44 848.788 1692.61 848.878 1692.69 849.057 1692.78 849.155 1692.78 849.424 1692.78 849.611 1692.69 849.79 1692.52 849.889 1692.35 850.068 1692.1 850.068 1691.76 850.068 1691.33 850.068 1690.82 849.978 1690.3 849.701 1689.71 849.522 1689.28 849.155 1688.86 848.788L1688.01 850.524C1688.52 850.989 1689.11 851.356 1689.8 851.633 1690.39 851.812 1691.08 852 1691.76 852 1692.35 852 1692.95 851.902 1693.37 851.633 1693.89 851.445 1694.31 851.168 1694.57 850.712 1694.83 850.345 1694.99 849.79 1694.99 849.245 1694.99 848.69 1694.91 848.234 1694.57 847.867 1694.31 847.5 1694.05 847.223 1693.63 847.044 1693.29 846.856 1692.86 846.677 1692.26 846.489 1691.92 846.4 1691.58 846.31 1691.42 846.221 1691.24 846.122 1691.08 846.033 1690.98 845.943 1690.82 845.755 1690.74 845.666 1690.74 845.487 1690.74 845.21 1690.82 845.12 1690.98 845.022 1691.16 844.932 1691.33 844.843 1691.58 844.843 1691.92 844.843 1692.35 844.932 1692.78 845.12 1693.29 845.299 1693.8 845.487 1694.23 845.755L1694.99 843.921C1694.57 843.653 1694.05 843.465 1693.46 843.286 1692.95 843.098 1692.35 843.009 1691.76 843.009Z" fill="#FFFFFF" fill-rule="evenodd" fill-opacity="1"/><path d="M1697.01 843 1697.01 851 1704 851 1704 849.382 1699.22 849.382 1699.22 847.855 1703.35 847.855 1703.35 846.154 1699.22 846.154 1699.22 844.618 1703.81 844.618 1703.81 843Z" fill="#FFFFFF" fill-rule="evenodd" fill-opacity="1"/><path d="M1705 843 1705 851 1711 851 1711 849.216 1707.21 849.216 1707.21 843Z" fill="#FFFFFF" fill-rule="evenodd" fill-opacity="1"/><path d="M1712.01 843 1712.01 851 1718 851 1718 849.216 1714.22 849.216 1714.22 843Z" fill="#FFFFFF" fill-rule="evenodd" fill-opacity="1"/><path d="M1778.15 844.618C1778.54 844.618 1778.72 844.701 1778.92 844.792 1779.11 844.958 1779.2 845.133 1779.2 845.382 1779.2 845.639 1779.11 845.813 1778.92 845.979 1778.72 846.062 1778.54 846.154 1778.15 846.154L1776.32 846.154 1776.32 844.618ZM1778.15 847.681C1778.63 847.681 1778.92 847.764 1779.2 847.938 1779.4 848.104 1779.49 848.278 1779.49 848.535 1779.49 848.784 1779.4 849.042 1779.2 849.125 1778.92 849.299 1778.63 849.382 1778.15 849.382L1776.32 849.382 1776.32 847.681ZM1774.01 843 1774.01 851 1778.43 851C1779.2 851 1779.78 850.917 1780.36 850.743 1780.85 850.577 1781.23 850.32 1781.51 849.979 1781.8 849.639 1782 849.216 1782 848.784 1782 848.278 1781.8 847.855 1781.51 847.423 1781.13 847.083 1780.65 846.834 1780.08 846.743 1780.55 846.66 1780.94 846.402 1781.23 846.062 1781.51 845.813 1781.71 845.382 1781.71 845.041 1781.71 844.618 1781.51 844.195 1781.23 843.938 1781.03 843.597 1780.55 843.34 1780.08 843.257 1779.59 843.091 1779.01 843 1778.34 843Z" fill="#FFFFFF" fill-rule="evenodd" fill-opacity="1"/><path d="M1783.01 843 1783.01 848.153C1783.01 848.903 1783.1 849.652 1783.47 850.218 1783.84 850.776 1784.3 851.242 1784.87 851.525 1785.51 851.808 1786.16 852 1787 852 1787.84 852 1788.48 851.808 1789.04 851.525 1789.7 851.242 1790.16 850.776 1790.44 850.218 1790.81 849.652 1790.99 848.903 1790.99 848.153L1790.99 843 1788.67 843 1788.67 848.153C1788.67 848.72 1788.48 849.186 1788.21 849.56 1787.93 849.844 1787.47 850.026 1787 850.026 1786.53 850.026 1786.07 849.844 1785.79 849.56 1785.42 849.186 1785.24 848.72 1785.24 848.153L1785.24 843Z" fill="#FFFFFF" fill-rule="evenodd" fill-opacity="1"/><path d="M1791 843 1794.29 848.535 1794.29 851 1796.71 851 1796.71 848.444 1799.99 843 1797.67 843 1795.55 846.402 1793.32 843Z" fill="#FFFFFF" fill-rule="evenodd" fill-opacity="1"/><path d="M1697.11 816C1695.77 816 1695 817.533 1695.82 818.567L1701.51 826.337C1701.89 826.776 1702.44 827 1702.99 827 1703.54 827 1704.08 826.776 1704.4 826.337L1710.18 818.567C1711 817.533 1710.23 816 1708.81 816 1708.77 816 1708.73 816 1708.69 816L1697.22 816C1697.18 816 1697.15 816 1697.11 816Z" fill="#FFFFFF" fill-rule="evenodd" fill-opacity="1"/><path d="M1788 816.009C1787.46 816.009 1786.92 816.248 1786.55 816.728L1780.84 824.363C1780 825.511 1780.84 827 1782.24 827L1793.75 827C1795.15 827 1795.99 825.511 1795.15 824.363L1789.45 816.728C1789.08 816.248 1788.54 816.009 1788 816.009Z" fill="#FFFFFF" fill-rule="evenodd" fill-opacity="1"/><path d="M1494.87 726C1494.7 726 1494.53 726 1494.36 726 1462.54 726.368 1437 752.289 1437.28 784.092 1437.65 815.581 1463.37 840.991 1494.88 840.991 1495.1 840.991 1495.33 840.991 1495.55 840.991 1527.37 840.713 1553 814.702 1552.63 782.899 1552.35 751.356 1526.54 726 1494.87 726Z" fill="#5664E1" fill-rule="evenodd" fill-opacity="1"/><path d="M1495.04 729.066C1496.49 729.066 1497.96 729.12 1499.43 729.236 1521.39 731.077 1540.04 745.994 1546.77 766.891 1553.41 787.887 1546.86 810.805 1529.97 824.984 1519.74 833.588 1507.27 837.799 1494.85 837.799 1479.38 837.799 1463.99 831.262 1453.19 818.537 1438.98 801.69 1436.3 778.035 1446.46 758.512 1455.84 740.3 1474.71 729.066 1495.04 729.066ZM1494.84 713.009C1487.65 713.009 1480.4 714.096 1473.31 716.35 1446.09 725.007 1426.8 749.218 1424.4 777.568 1422 806.018 1437.04 833.085 1462.42 846.16 1472.64 851.423 1483.74 854 1494.77 854 1511.17 854 1527.42 848.315 1540.49 837.323 1570.3 812.188 1573.99 767.717 1548.8 737.983 1535.15 721.846 1515.28 713.009 1494.84 713.009Z" fill="#8FCEF9" fill-rule="evenodd" fill-opacity="1"/><path d="M1492.51 725.009C1484.94 725.009 1477.23 726.595 1469.85 729.955 1441.71 742.814 1430 776.526 1444.12 803.991 1435.26 782.225 1441.44 757.331 1459.43 742.169 1469.77 733.468 1482.19 729.346 1494.49 729.346 1514 729.346 1533.15 739.75 1543 758.801 1534.34 737.689 1513.96 725.009 1492.51 725.009Z" fill="#4995E8" fill-rule="evenodd" fill-opacity="1"/><path d="M1557.68 752 1557.68 752C1572.02 787.151 1556.11 827.292 1521.61 843.108 1512.04 847.484 1502.01 849.559 1492.13 849.559 1466.27 849.559 1441.46 835.331 1429.01 810.826 1440.23 838.444 1466.74 855 1494.61 855 1504.44 855 1514.45 852.934 1524.01 848.567 1560.73 831.731 1576 787.891 1557.68 752Z" fill="#4995E8" fill-rule="evenodd" fill-opacity="1"/><path d="M1438.91 814.009 1399.01 847.884 1415.19 866.991 1455 833.206 1438.91 814.009Z" fill="#8FCEF9" fill-rule="evenodd" fill-opacity="1"/><path d="M1447.68 835C1446.45 835 1445.2 835.422 1444.16 836.247L1412.01 863.322 1415.15 866.991 1451 836.156C1450.01 835.376 1448.85 835 1447.68 835Z" fill="#4995E8" fill-rule="evenodd" fill-opacity="1"/><path d="M1396.48 842.009C1395.94 842.009 1395.42 842.198 1395 842.569L1301.02 921.987C1300.09 922.818 1300 924.209 1300.74 925.229L1322.76 951.232C1323.21 951.738 1323.81 951.991 1324.43 951.991 1324.95 951.991 1325.47 951.801 1325.91 951.422L1419.88 872.003C1420.81 871.172 1420.99 869.782 1420.16 868.861L1398.23 842.849C1397.77 842.289 1397.12 842.009 1396.48 842.009Z" fill="#1226DB" fill-rule="evenodd" fill-opacity="1"/><path d="M1391.99 854 1354.01 887" stroke="#FFFFFF" stroke-width="1.75935" stroke-linecap="round" stroke-linejoin="miter" stroke-miterlimit="1" stroke-opacity="1" fill="none" fill-rule="evenodd"/><path d="M1396 886 1335.01 937" stroke="#FFB127" stroke-width="1.75935" stroke-linecap="round" stroke-linejoin="miter" stroke-miterlimit="1" stroke-opacity="1" fill="none" fill-rule="evenodd"/><path d="M1524.96 796.009C1519.6 796.009 1517.01 801.908 1520.75 805.343 1521.96 806.485 1523.47 807 1524.95 807 1528.03 807 1531 804.793 1531 801.461 1531 798.387 1528.32 796.009 1524.96 796.009Z" fill="#FFFFFF" fill-rule="evenodd" fill-opacity="1"/><path d="M1885.96 751.509C1873.01 751.509 1860.08 756.432 1850.22 766.27 1830.5 785.963 1830.5 817.947 1850.22 837.73 1860.08 847.577 1873.01 852.491 1885.96 852.491 1898.91 852.491 1911.87 847.577 1921.78 837.73 1941.5 817.947 1941.5 785.963 1921.78 766.27 1911.87 756.432 1898.91 751.509 1885.96 751.509Z" stroke="#1226DB" stroke-width="2.67963" stroke-linecap="butt" stroke-linejoin="miter" stroke-miterlimit="1" stroke-opacity="1" fill="#FFFFFF" fill-rule="evenodd" fill-opacity="1"/><path d="M1861.01 787 1861.01 828 1871 828 1871 787Z" fill="#8FCEF9" fill-rule="evenodd" fill-opacity="1"/><path d="M1880.01 780.009 1880.01 828 1890 828 1890 780.009Z" fill="#1226DB" fill-rule="evenodd" fill-opacity="1"/><path d="M1899 770 1899 828 1909 828 1909 770Z" fill="#23295C" fill-rule="evenodd" fill-opacity="1"/><path d="M1400.04 509.5C1384.85 509.5 1372.51 522.057 1372.51 537.5 1372.51 552.943 1384.85 565.5 1400.04 565.5 1415.24 565.5 1427.5 552.943 1427.5 537.5 1427.5 522.057 1415.24 509.5 1400.04 509.5Z" stroke="#42AFE5" stroke-width="1.47966" stroke-linecap="butt" stroke-linejoin="miter" stroke-miterlimit="1" stroke-opacity="1" fill="#FFFFFF" fill-rule="evenodd" fill-opacity="1"/><path d="M1390.01 523 1390.01 552.991 1396.99 552.991 1396.99 523Z" fill="#358AD8" fill-rule="evenodd" fill-opacity="1"/><path d="M1403 523 1403 552.991 1408.99 552.991 1408.99 523Z" fill="#66BAFF" fill-rule="evenodd" fill-opacity="1"/><path d="M1395.5 518.509 1395.5 556.491" stroke="#358AD8" stroke-width="1.01952" stroke-linecap="butt" stroke-linejoin="miter" stroke-miterlimit="1" stroke-opacity="1" fill="none" fill-rule="evenodd"/><path d="M1407.5 518.509 1407.5 556.491" stroke="#66BAFF" stroke-width="1.01952" stroke-linecap="butt" stroke-linejoin="miter" stroke-miterlimit="1" stroke-opacity="1" fill="none" fill-rule="evenodd"/><path d="M1929 674.5C1920.02 674.5 1911.04 677.906 1904.23 684.7 1890.5 698.395 1890.5 720.533 1904.23 734.229 1911.04 741.076 1920.02 744.5 1929 744.5 1937.98 744.5 1946.95 741.076 1953.77 734.229 1967.49 720.533 1967.49 698.395 1953.77 684.7 1946.95 677.906 1937.98 674.5 1929 674.5Z" stroke="#1226DB" stroke-width="2.67963" stroke-linecap="butt" stroke-linejoin="miter" stroke-miterlimit="1" stroke-opacity="1" fill="#FFFFFF" fill-rule="evenodd" fill-opacity="1"/><path d="M1926.37 684 1926.37 690.194C1921.01 691.036 1917.46 694.878 1917.46 699.947 1917.46 705.29 1921.18 708.108 1927.18 710.542 1931.63 712.326 1933.91 714.293 1933.91 717.769 1933.91 721.237 1931.09 723.68 1926.91 723.68 1923.83 723.68 1920.92 722.737 1918.37 721.045L1917.01 725.18C1919.64 726.864 1922.82 727.806 1926.01 727.806L1926.01 733.991 1929.64 733.899 1929.64 727.614C1935.73 726.58 1939 722.079 1939 717.202 1939 711.859 1935.91 708.666 1929.91 706.132 1924.73 703.881 1922.55 702.381 1922.55 699.197 1922.55 696.754 1924.28 693.945 1928.82 693.945 1931.46 693.945 1934 694.604 1936.27 696.004L1937.72 691.978C1935.37 690.569 1932.72 689.91 1930.09 689.91L1930.09 684Z" fill="#1226DB" fill-rule="evenodd" fill-opacity="1"/><path d="M1352.46 606.5C1332.74 606.5 1315.37 620.776 1312.11 640.91 1308.5 663.279 1323.6 684.345 1345.92 687.966 1348.15 688.328 1350.35 688.5 1352.54 688.5 1372.26 688.5 1389.62 674.224 1392.88 654.09 1396.49 631.721 1381.3 610.655 1359.08 607.034 1356.85 606.681 1354.64 606.5 1352.46 606.5Z" stroke="#8FCEF9" stroke-width="2.67963" stroke-linecap="butt" stroke-linejoin="miter" stroke-miterlimit="1" stroke-opacity="1" fill="#FFFFFF" fill-rule="evenodd" fill-opacity="1"/><path d="M1324 664 1332.81 649.881 1341.91 658.187 1352.76 641.674 1361.29 649.881 1374 633" stroke="#8FCEF9" stroke-width="1.56988" stroke-linecap="round" stroke-linejoin="miter" stroke-miterlimit="1" stroke-opacity="1" fill="none" fill-rule="evenodd"/><path d="M1333.5 647.509C1331.33 647.509 1329.51 649.325 1329.51 651.505 1329.51 653.772 1331.33 655.5 1333.5 655.5 1335.77 655.5 1337.5 653.772 1337.5 651.505 1337.5 649.325 1335.77 647.509 1333.5 647.509Z" stroke="#8FCEF9" stroke-width="3.4375" stroke-linecap="butt" stroke-linejoin="round" stroke-miterlimit="10" stroke-opacity="1" fill="#8FCEF9" fill-rule="evenodd" fill-opacity="1"/><path d="M1342.23 655.509C1338.45 655.509 1336.51 659.834 1339.22 662.357 1340.1 663.14 1341.16 663.491 1342.2 663.491 1344.4 663.491 1346.5 661.918 1346.5 659.474 1346.5 657.311 1344.56 655.509 1342.23 655.509Z" stroke="#8FCEF9" stroke-width="3.4375" stroke-linecap="butt" stroke-linejoin="round" stroke-miterlimit="10" stroke-opacity="1" fill="#8FCEF9" fill-rule="evenodd" fill-opacity="1"/><path d="M1353.5 638.509C1351.33 638.509 1349.51 640.325 1349.51 642.504 1349.51 644.684 1351.33 646.5 1353.5 646.5 1355.68 646.5 1357.5 644.684 1357.5 642.504 1357.5 640.325 1355.68 638.509 1353.5 638.509Z" stroke="#8FCEF9" stroke-width="3.4375" stroke-linecap="butt" stroke-linejoin="round" stroke-miterlimit="10" stroke-opacity="1" fill="#8FCEF9" fill-rule="evenodd" fill-opacity="1"/><path d="M1361.5 646.51C1359.32 646.51 1357.51 648.553 1357.51 651.005 1357.51 653.457 1359.32 655.5 1361.5 655.5 1363.77 655.5 1365.5 653.457 1365.5 651.005 1365.5 648.553 1363.77 646.51 1361.5 646.51Z" stroke="#8FCEF9" stroke-width="3.4375" stroke-linecap="butt" stroke-linejoin="round" stroke-miterlimit="10" stroke-opacity="1" fill="#8FCEF9" fill-rule="evenodd" fill-opacity="1"/><path d="M1378.5 629.5 1368.5 632.204 1376.67 639.491 1378.5 629.5Z" stroke="#8FCEF9" stroke-width="3.4375" stroke-linecap="butt" stroke-linejoin="round" stroke-miterlimit="10" stroke-opacity="1" fill="#8FCEF9" fill-rule="evenodd" fill-opacity="1"/><path d="M1738.19 522.009C1734.77 522.009 1732.01 524.787 1732.01 528.226L1732.01 651.784C1732.01 655.213 1734.77 657.991 1738.19 657.991L1938.81 657.991C1942.23 657.991 1945 655.213 1945 651.784L1945 528.226C1945 524.787 1942.23 522.009 1938.81 522.009Z" fill="#FDE571" fill-rule="evenodd" fill-opacity="1"/><path d="M1740.5 530.5 1937.5 530.5 1937.5 651.5 1740.5 651.5Z" stroke="#80CFE8" stroke-width="0.279692" stroke-linecap="butt" stroke-linejoin="miter" stroke-miterlimit="1" stroke-opacity="1" fill="none" fill-rule="evenodd"/><path d="M1740.5 530.5 1937.5 530.5" stroke="#80CFE8" stroke-width="0.279692" stroke-linecap="butt" stroke-linejoin="miter" stroke-miterlimit="1" stroke-opacity="1" fill="none" fill-rule="evenodd"/><path d="M1740.5 538.5 1937.5 538.5" stroke="#80CFE8" stroke-width="0.279692" stroke-linecap="butt" stroke-linejoin="miter" stroke-miterlimit="1" stroke-opacity="1" fill="none" fill-rule="evenodd"/><path d="M1740.5 544.5 1937.5 544.5" stroke="#80CFE8" stroke-width="0.279692" stroke-linecap="butt" stroke-linejoin="miter" stroke-miterlimit="1" stroke-opacity="1" fill="none" fill-rule="evenodd"/><path d="M1740.5 552.5 1937.5 552.5" stroke="#80CFE8" stroke-width="0.279692" stroke-linecap="butt" stroke-linejoin="miter" stroke-miterlimit="1" stroke-opacity="1" fill="none" fill-rule="evenodd"/><path d="M1740.5 559.5 1937.5 559.5" stroke="#80CFE8" stroke-width="0.279692" stroke-linecap="butt" stroke-linejoin="miter" stroke-miterlimit="1" stroke-opacity="1" fill="none" fill-rule="evenodd"/><path d="M1740.5 565.5 1937.5 565.5" stroke="#80CFE8" stroke-width="0.279692" stroke-linecap="butt" stroke-linejoin="miter" stroke-miterlimit="1" stroke-opacity="1" fill="none" fill-rule="evenodd"/><path d="M1740.5 573.5 1937.5 573.5" stroke="#80CFE8" stroke-width="0.279692" stroke-linecap="butt" stroke-linejoin="miter" stroke-miterlimit="1" stroke-opacity="1" fill="none" fill-rule="evenodd"/><path d="M1740.5 580.5 1937.5 580.5" stroke="#80CFE8" stroke-width="0.279692" stroke-linecap="butt" stroke-linejoin="miter" stroke-miterlimit="1" stroke-opacity="1" fill="none" fill-rule="evenodd"/><path d="M1740.5 587.5 1937.5 587.5" stroke="#80CFE8" stroke-width="0.279692" stroke-linecap="butt" stroke-linejoin="miter" stroke-miterlimit="1" stroke-opacity="1" fill="none" fill-rule="evenodd"/><path d="M1740.5 594.5 1937.5 594.5" stroke="#80CFE8" stroke-width="0.279692" stroke-linecap="butt" stroke-linejoin="miter" stroke-miterlimit="1" stroke-opacity="1" fill="none" fill-rule="evenodd"/><path d="M1740.5 602.5 1937.5 602.5" stroke="#80CFE8" stroke-width="0.279692" stroke-linecap="butt" stroke-linejoin="miter" stroke-miterlimit="1" stroke-opacity="1" fill="none" fill-rule="evenodd"/><path d="M1740.5 608.5 1937.5 608.5" stroke="#80CFE8" stroke-width="0.279692" stroke-linecap="butt" stroke-linejoin="miter" stroke-miterlimit="1" stroke-opacity="1" fill="none" fill-rule="evenodd"/><path d="M1740.5 616.5 1937.5 616.5" stroke="#80CFE8" stroke-width="0.279692" stroke-linecap="butt" stroke-linejoin="miter" stroke-miterlimit="1" stroke-opacity="1" fill="none" fill-rule="evenodd"/><path d="M1740.5 623.5 1937.5 623.5" stroke="#80CFE8" stroke-width="0.279692" stroke-linecap="butt" stroke-linejoin="miter" stroke-miterlimit="1" stroke-opacity="1" fill="none" fill-rule="evenodd"/><path d="M1740.5 629.5 1937.5 629.5" stroke="#80CFE8" stroke-width="0.279692" stroke-linecap="butt" stroke-linejoin="miter" stroke-miterlimit="1" stroke-opacity="1" fill="none" fill-rule="evenodd"/><path d="M1740.5 637.5 1937.5 637.5" stroke="#80CFE8" stroke-width="0.279692" stroke-linecap="butt" stroke-linejoin="miter" stroke-miterlimit="1" stroke-opacity="1" fill="none" fill-rule="evenodd"/><path d="M1740.5 644.5 1937.5 644.5" stroke="#80CFE8" stroke-width="0.279692" stroke-linecap="butt" stroke-linejoin="miter" stroke-miterlimit="1" stroke-opacity="1" fill="none" fill-rule="evenodd"/><path d="M1740.5 651.5 1937.5 651.5" stroke="#80CFE8" stroke-width="0.279692" stroke-linecap="butt" stroke-linejoin="miter" stroke-miterlimit="1" stroke-opacity="1" fill="none" fill-rule="evenodd"/><path d="M1747.01 547.009 1747.01 645.991 1754 645.991 1754 547.009Z" fill="#80CFE8" fill-rule="evenodd" fill-opacity="1"/><path d="M1759.01 547.009 1759.01 645.991 1765.99 645.991 1765.99 547.009Z" fill="#5664E1" fill-rule="evenodd" fill-opacity="1"/><path d="M1771.01 547.009 1771.01 645.991 1776.99 645.991 1776.99 547.009Z" fill="#5664E1" fill-rule="evenodd" fill-opacity="1"/><path d="M1783 547.009 1783 645.991 1789 645.991 1789 547.009Z" fill="#5664E1" fill-rule="evenodd" fill-opacity="1"/><path d="M1795 547.009 1795 645.991 1801 645.991 1801 547.009Z" fill="#5664E1" fill-rule="evenodd" fill-opacity="1"/><path d="M1807.01 547.009 1807.01 645.991 1812.99 645.991 1812.99 547.009Z" fill="#80CFE8" fill-rule="evenodd" fill-opacity="1"/><path d="M1819.01 547.009 1819.01 645.991 1824.99 645.991 1824.99 547.009Z" fill="#5664E1" fill-rule="evenodd" fill-opacity="1"/><path d="M1830 547.009 1830 645.991 1837 645.991 1837 547.009Z" fill="#5664E1" fill-rule="evenodd" fill-opacity="1"/><path d="M1842 547.009 1842 645.991 1849 645.991 1849 547.009Z" fill="#5664E1" fill-rule="evenodd" fill-opacity="1"/><path d="M1854.01 547.009 1854.01 645.991 1860 645.991 1860 547.009Z" fill="#5664E1" fill-rule="evenodd" fill-opacity="1"/><path d="M1866.01 547.009 1866.01 645.991 1871.99 645.991 1871.99 547.009Z" fill="#5664E1" fill-rule="evenodd" fill-opacity="1"/><path d="M1878 547.009 1878 645.991 1884 645.991 1884 547.009Z" fill="#5664E1" fill-rule="evenodd" fill-opacity="1"/><path d="M1890 547.009 1890 645.991 1896 645.991 1896 547.009Z" fill="#5664E1" fill-rule="evenodd" fill-opacity="1"/><path d="M1901.01 547.009 1901.01 645.991 1908 645.991 1908 547.009Z" fill="#5664E1" fill-rule="evenodd" fill-opacity="1"/><path d="M1913.01 547.009 1913.01 645.991 1919.99 645.991 1919.99 547.009Z" fill="#5664E1" fill-rule="evenodd" fill-opacity="1"/><path d="M1747.01 547.009 1747.01 645.991 1754 645.991 1754 547.009Z" fill="#23295C" fill-rule="evenodd" fill-opacity="1"/><path d="M1759.01 569 1759.01 645.991 1765.99 645.991 1765.99 569Z" fill="#23295C" fill-rule="evenodd" fill-opacity="1"/><path d="M1771.01 594.009 1771.01 645.991 1776.99 645.991 1776.99 594.009Z" fill="#23295C" fill-rule="evenodd" fill-opacity="1"/><path d="M1783 585 1783 645.991 1789 645.991 1789 585Z" fill="#23295C" fill-rule="evenodd" fill-opacity="1"/><path d="M1795 564.009 1795 645.991 1801 645.991 1801 564.009Z" fill="#23295C" fill-rule="evenodd" fill-opacity="1"/><path d="M1807.01 547.009 1807.01 645.991 1812.99 645.991 1812.99 547.009Z" fill="#23295C" fill-rule="evenodd" fill-opacity="1"/><path d="M1819.01 558.009 1819.01 645.991 1824.99 645.991 1824.99 558.009Z" fill="#23295C" fill-rule="evenodd" fill-opacity="1"/><path d="M1830 556 1830 645.991 1837 645.991 1837 556Z" fill="#23295C" fill-rule="evenodd" fill-opacity="1"/><path d="M1842 578.009 1842 645.991 1849 645.991 1849 578.009Z" fill="#23295C" fill-rule="evenodd" fill-opacity="1"/><path d="M1854.01 598 1854.01 645.991 1860 645.991 1860 598Z" fill="#23295C" fill-rule="evenodd" fill-opacity="1"/><path d="M1866.01 595 1866.01 645.991 1871.99 645.991 1871.99 595Z" fill="#23295C" fill-rule="evenodd" fill-opacity="1"/><path d="M1878 598 1878 645.991 1884 645.991 1884 598Z" fill="#23295C" fill-rule="evenodd" fill-opacity="1"/><path d="M1890 586 1890 645.991 1896 645.991 1896 586Z" fill="#23295C" fill-rule="evenodd" fill-opacity="1"/><path d="M1901.01 582 1901.01 645.991 1908 645.991 1908 582Z" fill="#23295C" fill-rule="evenodd" fill-opacity="1"/><path d="M1913.01 593 1913.01 645.991 1919.99 645.991 1919.99 593Z" fill="#23295C" fill-rule="evenodd" fill-opacity="1"/><path d="M1582 566.009 1582 616.694C1582 619.03 1583.85 620.991 1586.16 620.991L1721.83 620.991C1724.14 620.991 1725.99 619.03 1725.99 616.694L1725.99 566.009Z" fill="#7DBCE2" fill-rule="evenodd" fill-opacity="1"/><path d="M1454 575.009 1454 632.329C1454 634.347 1455.66 635.991 1457.78 635.991L1563.31 635.991C1565.34 635.991 1566.99 634.347 1566.99 632.329L1566.99 575.009Z" fill="#5664E1" fill-rule="evenodd" fill-opacity="1"/><path d="M1578.25 519C1575.85 519 1574 520.858 1574 523.188L1574 606.812C1574 609.133 1575.85 610.991 1578.25 610.991L1713.75 610.991C1716.05 610.991 1717.99 609.133 1717.99 606.812L1717.99 523.188C1717.99 520.858 1716.05 519 1713.75 519Z" fill="#A5E2F9" fill-rule="evenodd" fill-opacity="1"/><path d="M1585 545 1585 547 1604 547 1604 545Z" fill="#80CFE8" fill-rule="evenodd" fill-opacity="1"/><path d="M1609.01 545 1609.01 547 1628 547 1628 545Z" fill="#FFFFFF" fill-rule="evenodd" fill-opacity="1"/><path d="M1683.01 545 1683.01 547 1709.99 547 1709.99 545Z" fill="#FFFFFF" fill-rule="evenodd" fill-opacity="1"/><path d="M1634 545 1634 547 1643 547 1643 545Z" fill="#80CFE8" fill-rule="evenodd" fill-opacity="1"/><path d="M1646 545 1646 547 1659.99 547 1659.99 545Z" fill="#60EABC" fill-rule="evenodd" fill-opacity="1"/><path d="M1666.01 545 1666.01 547 1680 547 1680 545Z" fill="#FFB127" fill-rule="evenodd" fill-opacity="1"/><path d="M1585 552.012 1585 554.989 1604 554.989 1604 552.012Z" fill="#80CFE8" fill-rule="evenodd" fill-opacity="1"/><path d="M1609.01 552.012 1609.01 554.989 1628 554.989 1628 552.012Z" fill="#FFFFFF" fill-rule="evenodd" fill-opacity="1"/><path d="M1683.01 552.012 1683.01 554.989 1709.99 554.989 1709.99 552.012Z" fill="#FFFFFF" fill-rule="evenodd" fill-opacity="1"/><path d="M1634 552.012 1634 554.989 1643 554.989 1643 552.012Z" fill="#80CFE8" fill-rule="evenodd" fill-opacity="1"/><path d="M1646 552.012 1646 554.989 1659.99 554.989 1659.99 552.012Z" fill="#60EABC" fill-rule="evenodd" fill-opacity="1"/><path d="M1666.01 552.012 1666.01 554.989 1680 554.989 1680 552.012Z" fill="#FFB127" fill-rule="evenodd" fill-opacity="1"/><path d="M1585 559 1585 562 1604 562 1604 559Z" fill="#80CFE8" fill-rule="evenodd" fill-opacity="1"/><path d="M1609.01 559 1609.01 562 1628 562 1628 559Z" fill="#FFFFFF" fill-rule="evenodd" fill-opacity="1"/><path d="M1683.01 559 1683.01 562 1709.99 562 1709.99 559Z" fill="#FFFFFF" fill-rule="evenodd" fill-opacity="1"/><path d="M1634 559 1634 562 1643 562 1643 559Z" fill="#80CFE8" fill-rule="evenodd" fill-opacity="1"/><path d="M1646 559 1646 562 1659.99 562 1659.99 559Z" fill="#60EABC" fill-rule="evenodd" fill-opacity="1"/><path d="M1666.01 559 1666.01 562 1680 562 1680 559Z" fill="#FFB127" fill-rule="evenodd" fill-opacity="1"/><path d="M1585 567.007 1585 568.992 1604 568.992 1604 567.007Z" fill="#80CFE8" fill-rule="evenodd" fill-opacity="1"/><path d="M1609.01 567.007 1609.01 568.992 1628 568.992 1628 567.007Z" fill="#FFFFFF" fill-rule="evenodd" fill-opacity="1"/><path d="M1683.01 567.007 1683.01 568.992 1709.99 568.992 1709.99 567.007Z" fill="#FFFFFF" fill-rule="evenodd" fill-opacity="1"/><path d="M1634 567.007 1634 568.992 1643 568.992 1643 567.007Z" fill="#80CFE8" fill-rule="evenodd" fill-opacity="1"/><path d="M1646 567.007 1646 568.992 1659.99 568.992 1659.99 567.007Z" fill="#60EABC" fill-rule="evenodd" fill-opacity="1"/><path d="M1666.01 567.007 1666.01 568.992 1680 568.992 1680 567.007Z" fill="#FFB127" fill-rule="evenodd" fill-opacity="1"/><path d="M1585 574.008 1585 575.993 1604 575.993 1604 574.008Z" fill="#80CFE8" fill-rule="evenodd" fill-opacity="1"/><path d="M1609.01 574.008 1609.01 575.993 1628 575.993 1628 574.008Z" fill="#FFFFFF" fill-rule="evenodd" fill-opacity="1"/><path d="M1683.01 574.008 1683.01 575.993 1709.99 575.993 1709.99 574.008Z" fill="#FFFFFF" fill-rule="evenodd" fill-opacity="1"/><path d="M1634 574.008 1634 575.993 1643 575.993 1643 574.008Z" fill="#80CFE8" fill-rule="evenodd" fill-opacity="1"/><path d="M1646 574.008 1646 575.993 1659.99 575.993 1659.99 574.008Z" fill="#60EABC" fill-rule="evenodd" fill-opacity="1"/><path d="M1666.01 574.008 1666.01 575.993 1680 575.993 1680 574.008Z" fill="#FFB127" fill-rule="evenodd" fill-opacity="1"/><path d="M1585 581 1585 583 1604 583 1604 581Z" fill="#80CFE8" fill-rule="evenodd" fill-opacity="1"/><path d="M1609.01 581 1609.01 583 1628 583 1628 581Z" fill="#FFFFFF" fill-rule="evenodd" fill-opacity="1"/><path d="M1683.01 581 1683.01 583 1709.99 583 1709.99 581Z" fill="#FFFFFF" fill-rule="evenodd" fill-opacity="1"/><path d="M1634 581 1634 583 1643 583 1643 581Z" fill="#80CFE8" fill-rule="evenodd" fill-opacity="1"/><path d="M1646 581 1646 583 1659.99 583 1659.99 581Z" fill="#60EABC" fill-rule="evenodd" fill-opacity="1"/><path d="M1666.01 581 1666.01 583 1680 583 1680 581Z" fill="#FFB127" fill-rule="evenodd" fill-opacity="1"/><path d="M1585 588.008 1585 589.992 1604 589.992 1604 588.008Z" fill="#80CFE8" fill-rule="evenodd" fill-opacity="1"/><path d="M1609.01 588.008 1609.01 589.992 1628 589.992 1628 588.008Z" fill="#FFFFFF" fill-rule="evenodd" fill-opacity="1"/><path d="M1683.01 588.008 1683.01 589.992 1709.99 589.992 1709.99 588.008Z" fill="#FFFFFF" fill-rule="evenodd" fill-opacity="1"/><path d="M1634 588.008 1634 589.992 1643 589.992 1643 588.008Z" fill="#80CFE8" fill-rule="evenodd" fill-opacity="1"/><path d="M1646 588.008 1646 589.992 1659.99 589.992 1659.99 588.008Z" fill="#60EABC" fill-rule="evenodd" fill-opacity="1"/><path d="M1666.01 588.008 1666.01 589.992 1680 589.992 1680 588.008Z" fill="#FFB127" fill-rule="evenodd" fill-opacity="1"/><path d="M1585 595 1585 597 1604 597 1604 595Z" fill="#80CFE8" fill-rule="evenodd" fill-opacity="1"/><path d="M1609.01 595 1609.01 597 1628 597 1628 595Z" fill="#FFFFFF" fill-rule="evenodd" fill-opacity="1"/><path d="M1683.01 595 1683.01 597 1709.99 597 1709.99 595Z" fill="#FFFFFF" fill-rule="evenodd" fill-opacity="1"/><path d="M1634 595 1634 597 1643 597 1643 595Z" fill="#80CFE8" fill-rule="evenodd" fill-opacity="1"/><path d="M1646 595 1646 597 1659.99 597 1659.99 595Z" fill="#60EABC" fill-rule="evenodd" fill-opacity="1"/><path d="M1666.01 595 1666.01 597 1680 597 1680 595Z" fill="#FFB127" fill-rule="evenodd" fill-opacity="1"/><path d="M1585 602.012 1585 605 1604 605 1604 602.012Z" fill="#80CFE8" fill-rule="evenodd" fill-opacity="1"/><path d="M1609.01 602.012 1609.01 605 1628 605 1628 602.012Z" fill="#FFFFFF" fill-rule="evenodd" fill-opacity="1"/><path d="M1683.01 602.012 1683.01 605 1709.99 605 1709.99 602.012Z" fill="#FFFFFF" fill-rule="evenodd" fill-opacity="1"/><path d="M1634 602.012 1634 605 1643 605 1643 602.012Z" fill="#80CFE8" fill-rule="evenodd" fill-opacity="1"/><path d="M1646 602.012 1646 605 1659.99 605 1659.99 602.012Z" fill="#60EABC" fill-rule="evenodd" fill-opacity="1"/><path d="M1666.01 602.012 1666.01 605 1680 605 1680 602.012Z" fill="#FFB127" fill-rule="evenodd" fill-opacity="1"/><path d="M1585 530.01 1585 535.99 1710 535.99 1710 530.01Z" fill="#80CFE8" fill-rule="evenodd" fill-opacity="1"/><path d="M1455.02 564.009C1450.05 564.009 1446.01 568.03 1446.01 572.961L1446.01 620.039C1446.01 625.059 1450.05 628.991 1455.02 628.991L1548.99 628.991C1553.95 628.991 1557.99 625.059 1557.99 620.039L1557.99 572.961C1557.99 568.03 1553.95 564.009 1548.99 564.009Z" fill="#1226DB" fill-rule="evenodd" fill-opacity="1"/><path d="M1455.22 565C1451.15 565 1448.01 568.245 1448.01 572.232L1448.01 619.769C1448.01 623.746 1451.15 626.991 1455.22 626.991L1546.78 626.991C1550.76 626.991 1554 623.746 1554 619.769L1554 572.232C1554 568.245 1550.76 565 1546.78 565Z" fill="#8FCEF9" fill-rule="evenodd" fill-opacity="1"/><path d="M1460.61 582.009C1459.22 582.009 1458 583.179 1458 584.622L1458 591.387C1458 592.83 1459.22 594 1460.61 594L1472.29 594C1473.78 594 1474.99 592.83 1474.99 591.387L1474.99 584.622C1474.99 583.179 1473.78 582.009 1472.29 582.009Z" fill="#1226DB" fill-rule="evenodd" fill-opacity="1"/><path d="M1544.1 614C1542.97 614 1541.85 614.427 1541.01 615.181 1542.88 616.691 1542.88 619.3 1541.01 620.818 1541.85 621.573 1542.97 621.992 1544.1 621.992 1550 621.91 1550 614 1544.1 614Z" fill="#78C5FF" fill-rule="evenodd" fill-opacity="1"/><path d="M1538.06 614.008C1536.42 614.008 1534.8 614.914 1534.08 616.51 1533 619.127 1535.07 621.992 1538.03 621.992 1539.11 621.992 1540.19 621.572 1541 620.815 1540.19 620.049 1539.65 619.037 1539.65 617.942 1539.65 616.93 1540.19 615.835 1541 615.16 1540.16 614.37 1539.11 614.008 1538.06 614.008Z" fill="#1226DB" fill-rule="evenodd" fill-opacity="1"/><path d="M1540.86 617C1540.27 617 1539.68 617.42 1539.4 618.2 1539.01 619.595 1539.79 621 1540.9 621 1541.6 620.093 1541.99 618.893 1541.99 617.595 1541.68 617.195 1541.27 617 1540.86 617Z" fill="#49ADEA" fill-rule="evenodd" fill-opacity="1"/><path d="M1460.23 600.009C1460.23 600.192 1460.23 600.292 1460.15 600.475 1460.06 600.566 1459.97 600.667 1459.88 600.758 1459.71 600.758 1459.62 600.849 1459.45 600.849L1459.01 600.849 1459.01 601.415 1460.15 601.415 1460.15 605.434 1459.01 605.434 1459.01 606 1461.99 606 1461.99 605.434 1460.85 605.434 1460.85 600.009Z" fill="#E9FFF3" fill-rule="evenodd" fill-opacity="1"/><path d="M1464.81 600.009C1464.55 600.009 1464.27 600.009 1463.91 600.099 1463.73 600.189 1463.46 600.279 1463.19 600.378L1463.19 601.205C1463.46 601.016 1463.73 600.926 1464 600.836 1464.27 600.746 1464.55 600.648 1464.81 600.648 1465.09 600.648 1465.36 600.746 1465.64 600.926 1465.81 601.115 1465.9 601.385 1465.9 601.664 1465.9 602.033 1465.81 602.312 1465.64 602.591 1465.36 603.049 1465 603.418 1464.64 603.787 1464.36 603.967 1464.19 604.246 1463.91 604.435L1463 605.172 1463 606 1466.99 606 1466.99 605.352 1463.91 605.352 1464.73 604.615C1465 604.336 1465.36 603.967 1465.54 603.787 1465.73 603.598 1465.9 603.418 1466.09 603.229 1466.18 603.139 1466.36 602.959 1466.45 602.771 1466.54 602.591 1466.63 602.402 1466.63 602.222 1466.73 602.033 1466.73 601.754 1466.73 601.574 1466.73 601.115 1466.54 600.746 1466.27 600.468 1465.81 600.099 1465.36 600.009 1464.81 600.009Z" fill="#E9FFF3" fill-rule="evenodd" fill-opacity="1"/><path d="M1470.91 600.009C1470.62 600.009 1470.24 600.097 1469.95 600.097 1469.67 600.186 1469.48 600.274 1469.19 600.372L1469.19 601.186C1469.48 601 1469.77 600.911 1470.05 600.823 1470.31 600.761 1470.63 600.69 1470.93 600.69 1471.06 600.69 1471.18 600.708 1471.29 600.734 1471.47 600.734 1471.56 600.823 1471.67 600.911 1471.76 600.911 1471.85 601 1471.94 601.186 1472.05 601.274 1472.05 601.363 1472.05 601.549 1472.05 601.823 1471.94 602.088 1471.67 602.274 1471.38 602.363 1471 602.451 1470.71 602.451L1470.43 602.451 1470.43 603.088 1471.38 603.088C1471.47 603.177 1471.67 603.177 1471.76 603.274 1471.85 603.363 1471.94 603.451 1472.05 603.637 1472.14 603.814 1472.14 603.903 1472.14 604.088 1472.14 604.265 1472.14 604.451 1472.05 604.628 1472.05 604.814 1471.94 604.903 1471.76 604.991 1471.67 605.177 1471.47 605.266 1471.29 605.266 1471.19 605.354 1471 605.354 1470.81 605.354 1470.43 605.354 1470.15 605.266 1469.86 605.177 1469.57 605.089 1469.29 604.991 1469.1 604.814L1469.01 604.814 1469.01 605.628C1469.19 605.717 1469.48 605.814 1469.77 605.903 1470.15 605.991 1470.43 605.991 1470.81 605.991 1471.09 605.991 1471.38 605.991 1471.67 605.903 1471.94 605.814 1472.23 605.628 1472.43 605.54 1472.61 605.354 1472.7 605.089 1472.81 604.903 1472.9 604.726 1472.99 604.451 1472.99 604.177 1472.99 604 1472.9 603.726 1472.9 603.54 1472.81 603.363 1472.61 603.177 1472.52 603.088 1472.43 603 1472.23 603 1472.14 603 1472.05 602.911 1471.85 602.814 1471.67 602.814L1471.67 602.726C1472.05 602.726 1472.32 602.549 1472.52 602.274 1472.81 602.088 1472.9 601.823 1472.9 601.46 1472.99 601 1472.7 600.549 1472.32 600.372 1472.14 600.186 1471.94 600.186 1471.67 600.097 1471.47 600.009 1471.19 600.009 1470.91 600.009Z" fill="#E9FFF3" fill-rule="evenodd" fill-opacity="1"/><path d="M1476.16 600.94 1476.16 603.662 1473.62 603.662 1476.16 600.94ZM1476.16 600.009 1473.01 603.47 1473.01 604.31 1476.16 604.31 1476.16 606 1476.98 606 1476.98 604.31 1478 604.31 1478 603.753 1476.98 603.753 1476.98 600.009Z" fill="#E9FFF3" fill-rule="evenodd" fill-opacity="1"/><path d="M1482.29 600.009 1482.29 603.045C1482.48 603.045 1482.67 602.955 1482.86 602.955 1483.15 602.955 1483.33 602.865 1483.53 602.865 1483.81 602.865 1484 602.955 1484.29 602.955 1484.47 602.955 1484.56 603.045 1484.76 603.135 1484.85 603.233 1484.94 603.413 1485.05 603.503 1485.14 603.692 1485.14 603.871 1485.14 604.06 1485.14 604.24 1485.14 604.428 1485.05 604.608 1485.05 604.707 1484.94 604.886 1484.85 604.976 1484.67 605.075 1484.47 605.165 1484.29 605.254 1484.09 605.344 1483.91 605.344 1483.81 605.344 1483.43 605.344 1483.15 605.254 1482.86 605.165 1482.57 605.075 1482.39 604.976 1482.1 604.886L1482.01 604.886 1482.01 605.713C1482.29 605.811 1482.57 605.901 1482.86 605.901 1483.15 605.991 1483.43 605.991 1483.81 605.991 1484.09 605.991 1484.38 605.991 1484.76 605.901 1484.94 605.811 1485.23 605.623 1485.43 605.443 1485.61 605.254 1485.7 605.075 1485.81 604.796 1485.9 604.608 1485.99 604.338 1485.99 604.06 1485.99 603.692 1485.99 603.413 1485.81 603.135 1485.7 602.955 1485.52 602.677 1485.32 602.587 1485.14 602.398 1484.85 602.308 1484.67 602.308 1484.38 602.218 1484.09 602.218 1483.81 602.218L1483.05 602.218 1483.05 600.656 1485.99 600.656 1485.99 600.009Z" fill="#E9FFF3" fill-rule="evenodd" fill-opacity="1"/><path d="M1489.35 603.273C1489.52 603.273 1489.61 603.387 1489.78 603.49 1489.86 603.593 1490.04 603.809 1490.13 604.015 1490.13 604.231 1490.21 604.437 1490.21 604.653L1490.21 604.756C1490.21 605.178 1490.13 605.6 1489.86 605.919 1489.69 606.125 1489.35 606.341 1489.08 606.341 1488.92 606.228 1488.74 606.228 1488.65 606.228 1488.47 606.125 1488.31 606.022 1488.22 605.919 1488.04 605.703 1487.96 605.497 1487.87 605.281 1487.78 604.859 1487.78 604.54 1487.78 604.118L1487.78 603.912 1487.78 603.696C1487.96 603.593 1488.13 603.49 1488.39 603.387 1488.57 603.387 1488.74 603.273 1488.92 603.273ZM1489.78 600.01C1489.35 600.01 1488.92 600.113 1488.57 600.319 1488.22 600.432 1487.87 600.741 1487.69 601.06 1487.43 601.482 1487.26 601.904 1487.18 602.326 1487.08 602.851 1487 603.387 1487 603.912 1487 604.437 1487.08 604.962 1487.18 605.384 1487.26 605.806 1487.43 606.125 1487.69 606.444 1487.87 606.547 1488.04 606.763 1488.31 606.866 1488.47 606.969 1488.74 606.969 1489 606.969 1489.07 606.99 1489.14 606.99 1489.2 606.99 1489.65 606.99 1490.08 606.701 1490.39 606.341 1490.74 605.919 1491 605.281 1491 604.653 1491 604.334 1490.91 604.015 1490.82 603.696 1490.74 603.387 1490.56 603.171 1490.31 602.965 1490.13 602.851 1489.96 602.748 1489.78 602.646 1489.61 602.646 1489.35 602.543 1489.17 602.543 1488.92 602.543 1488.65 602.646 1488.47 602.748 1488.22 602.748 1488.04 602.851 1487.87 603.068 1487.87 602.429 1488.04 601.904 1488.39 601.379 1488.68 601.029 1489.03 600.823 1489.43 600.823 1489.52 600.823 1489.6 600.834 1489.69 600.854 1489.74 600.792 1489.81 600.772 1489.88 600.772 1489.96 600.772 1490.04 600.792 1490.13 600.854 1490.21 600.854 1490.31 600.854 1490.39 600.957L1490.39 600.113 1490.13 600.01Z" fill="#E9FFF3" fill-rule="evenodd" fill-opacity="1"/><path d="M1492 600.009 1492 600.667 1495.27 600.667 1492.46 606 1493.36 606 1496 600.94 1496 600.009Z" fill="#E9FFF3" fill-rule="evenodd" fill-opacity="1"/><path d="M1499 600.73C1499.26 600.73 1499.61 600.832 1499.78 601.045 1499.96 601.146 1500.13 601.461 1500.13 601.775 1500.13 601.978 1500.04 602.293 1499.96 602.496 1499.86 602.709 1499.69 602.911 1499.43 603.125 1499.26 603.023 1499.08 603.023 1498.92 602.911L1498.57 602.709C1498.39 602.607 1498.22 602.394 1498.04 602.293 1497.96 602.08 1497.96 601.877 1497.96 601.664 1497.96 601.461 1498.04 601.146 1498.22 601.045 1498.47 600.832 1498.74 600.73 1499 600.73ZM1498.57 603.541 1499.08 603.743C1499.26 603.855 1499.35 603.855 1499.52 603.956 1499.69 604.058 1499.86 604.271 1500.04 604.474 1500.21 604.687 1500.21 604.89 1500.21 605.103 1500.21 605.407 1500.13 605.823 1499.86 606.036 1499.61 606.239 1499.35 606.351 1499 606.351 1498.74 606.351 1498.39 606.239 1498.13 605.935 1497.87 605.722 1497.78 605.306 1497.78 604.991 1497.78 604.687 1497.87 604.372 1498.04 604.058 1498.13 603.855 1498.31 603.642 1498.57 603.541ZM1499 600C1498.57 600 1498.04 600.213 1497.69 600.527 1497.35 600.832 1497.18 601.359 1497.18 601.877 1497.18 602.08 1497.26 602.394 1497.43 602.709 1497.61 602.911 1497.78 603.125 1498.04 603.327 1497.78 603.439 1497.53 603.743 1497.35 604.058 1497.18 604.271 1497 604.687 1497.08 604.991 1497 605.62 1497.26 606.138 1497.61 606.452 1498 606.817 1498.5 607 1499.01 607 1499.52 607 1500.04 606.817 1500.47 606.452 1500.82 606.138 1501 605.519 1501 604.991 1501 604.575 1500.91 604.271 1500.74 603.956 1500.47 603.642 1500.21 603.439 1499.96 603.226 1500.21 603.125 1500.47 602.911 1500.65 602.607 1500.74 602.293 1500.82 602.08 1500.82 601.664 1500.82 601.248 1500.65 600.832 1500.39 600.527 1499.96 600.213 1499.52 600 1499 600Z" fill="#E9FFF3" fill-rule="evenodd" fill-opacity="1"/><path d="M1507.44 600.715C1507.6 600.811 1507.69 600.898 1507.78 600.985 1507.95 601.168 1508.04 601.343 1508.13 601.613 1508.21 601.884 1508.3 602.241 1508.3 602.503 1508.3 602.599 1508.3 602.686 1508.21 602.686 1508.21 602.773 1508.21 602.773 1508.21 602.86 1508.04 602.956 1507.87 603.044 1507.69 603.044 1507.52 603.131 1507.26 603.131 1507.09 603.131 1507 603.174 1506.94 603.201 1506.87 603.201 1506.8 603.201 1506.74 603.174 1506.65 603.131 1506.48 603.131 1506.4 603.131 1506.3 603.044 1506.13 602.956 1506.05 602.773 1505.96 602.599 1505.87 602.416 1505.87 602.241 1505.87 601.971 1505.79 601.7 1505.96 601.343 1506.13 601.073 1506.4 600.811 1506.65 600.715 1507 600.715ZM1507 600C1506.48 600 1505.96 600.183 1505.61 600.541 1505.26 600.985 1505.01 601.43 1505.09 601.971 1505.09 602.328 1505.09 602.599 1505.18 602.86 1505.36 603.131 1505.52 603.314 1505.7 603.488 1505.87 603.576 1506.05 603.671 1506.3 603.759 1506.42 603.759 1506.54 603.794 1506.68 603.794 1506.75 603.794 1506.83 603.785 1506.91 603.759 1506.96 603.785 1507.02 603.794 1507.08 603.794 1507.23 603.794 1507.39 603.732 1507.52 603.671 1507.78 603.671 1508.04 603.576 1508.21 603.401 1508.21 603.933 1508.04 604.387 1507.69 604.831 1507.41 605.128 1507 605.302 1506.62 605.302 1506.55 605.302 1506.47 605.294 1506.4 605.276 1506.3 605.32 1506.22 605.346 1506.14 605.346 1506.07 605.346 1506.01 605.32 1505.96 605.276 1505.87 605.276 1505.7 605.276 1505.61 605.189L1505.61 605.991 1506.3 605.991C1506.74 605.991 1507.09 605.904 1507.52 605.817 1507.87 605.634 1508.13 605.363 1508.38 605.102 1508.56 604.831 1508.74 604.474 1508.82 604.029 1508.99 603.576 1508.99 603.131 1508.99 602.686 1508.99 602.241 1508.99 601.788 1508.82 601.343 1508.74 601.073 1508.56 600.811 1508.3 600.541 1508.13 600.357 1507.95 600.27 1507.69 600.183 1507.52 600.096 1507.26 600 1507 600Z" fill="#E9FFF3" fill-rule="evenodd" fill-opacity="1"/><path d="M1512.29 600.009C1512.29 600.192 1512.2 600.292 1512.2 600.475 1512.12 600.566 1512.03 600.667 1511.95 600.758 1511.78 600.758 1511.61 600.849 1511.52 600.849L1511.01 600.849 1511.01 601.415 1512.12 601.415 1512.12 605.434 1511.01 605.434 1511.01 606 1514 606 1513.91 605.434 1512.88 605.434 1512.88 600.009Z" fill="#E9FFF3" fill-rule="evenodd" fill-opacity="1"/><path d="M1518 600.759C1518.17 600.759 1518.43 600.759 1518.61 600.872 1518.78 601.078 1518.86 601.18 1518.96 601.396 1519.04 601.714 1519.13 602.022 1519.13 602.34 1519.13 602.658 1519.21 603.079 1519.21 603.5 1519.21 603.921 1519.13 604.342 1519.13 604.66 1519.13 604.968 1519.04 605.286 1518.96 605.604 1518.86 605.809 1518.78 605.922 1518.61 606.128 1518.43 606.23 1518.17 606.23 1518 606.23 1517.82 606.23 1517.57 606.23 1517.39 606.025 1517.22 605.922 1517.13 605.707 1517.04 605.501 1516.96 605.286 1516.87 604.968 1516.87 604.66 1516.87 604.342 1516.87 603.921 1516.87 603.5L1516.87 602.34C1516.87 602.022 1516.96 601.714 1517.04 601.396 1517.22 600.975 1517.57 600.759 1518 600.759ZM1518 600C1517.46 600 1516.92 600.287 1516.53 600.872 1516.18 601.714 1516 602.556 1516.08 603.5 1516 604.444 1516.18 605.286 1516.53 606.128 1516.92 606.713 1517.46 607 1518 607 1518.54 607 1519.08 606.713 1519.47 606.128 1519.82 605.286 1520 604.444 1519.91 603.5 1520 602.556 1519.82 601.714 1519.47 600.872 1519.08 600.287 1518.54 600 1518 600Z" fill="#E9FFF3" fill-rule="evenodd" fill-opacity="1"/><path d="M1522.72 600.009C1522.72 600.192 1522.6 600.292 1522.6 600.475 1522.49 600.566 1522.38 600.667 1522.14 600.758 1522.03 600.758 1521.81 600.849 1521.69 600.849L1521.01 600.849 1521.01 601.415 1522.49 601.415 1522.49 605.434 1521.01 605.434 1521.01 606 1525 606 1525 605.434 1523.51 605.434 1523.51 600.009Z" fill="#E9FFF3" fill-rule="evenodd" fill-opacity="1"/><path d="M1530.72 600.009C1530.72 600.192 1530.6 600.292 1530.6 600.475 1530.49 600.566 1530.38 600.667 1530.14 600.758 1530.03 600.758 1529.81 600.849 1529.69 600.849L1529.01 600.849 1529.01 601.415 1530.49 601.415 1530.49 605.434 1529.01 605.434 1529.01 606 1533 606 1532.88 605.434 1531.4 605.434 1531.4 600.009Z" fill="#E9FFF3" fill-rule="evenodd" fill-opacity="1"/><path d="M1535.86 600.009C1535.49 600.009 1535.21 600.009 1534.93 600.099 1534.65 600.189 1534.38 600.279 1534.19 600.378L1534.19 601.205C1534.65 600.926 1535.21 600.746 1535.76 600.648 1536.05 600.648 1536.42 600.746 1536.61 600.926 1536.88 601.115 1536.98 601.385 1536.98 601.664 1536.98 602.033 1536.88 602.312 1536.7 602.591 1536.33 603.049 1535.95 603.418 1535.58 603.787 1535.39 603.967 1535.12 604.246 1534.84 604.435L1534.01 605.172 1534.01 606 1537.99 606 1537.99 605.352 1534.84 605.352 1535.67 604.615C1535.95 604.336 1536.42 603.967 1536.61 603.787 1536.79 603.598 1536.98 603.418 1537.07 603.229 1537.25 603.139 1537.35 602.959 1537.44 602.771 1537.53 602.591 1537.62 602.402 1537.72 602.222 1537.72 602.033 1537.81 601.754 1537.81 601.574 1537.81 601.115 1537.62 600.746 1537.25 600.468 1536.88 600.099 1536.33 600.009 1535.86 600.009Z" fill="#E9FFF3" fill-rule="evenodd" fill-opacity="1"/><path d="M1540.91 600.009C1540.53 600.009 1540.24 600.097 1539.95 600.097 1539.68 600.186 1539.39 600.274 1539.19 600.372L1539.19 601.186C1539.39 601 1539.68 600.911 1539.95 600.823 1540.3 600.761 1540.58 600.69 1540.89 600.69 1541.02 600.69 1541.15 600.708 1541.29 600.734 1541.38 600.734 1541.57 600.823 1541.67 600.911 1541.76 600.911 1541.85 601 1541.95 601.186 1541.95 601.274 1542.05 601.363 1542.05 601.549 1542.05 601.823 1541.85 602.088 1541.67 602.274 1541.29 602.363 1541 602.451 1540.62 602.451L1540.33 602.451 1540.33 603.088 1541.29 603.088C1541.47 603.177 1541.57 603.177 1541.76 603.274 1541.85 603.363 1541.95 603.451 1542.05 603.637 1542.05 603.814 1542.14 603.903 1542.14 604.088 1542.14 604.265 1542.14 604.451 1542.05 604.628 1541.95 604.814 1541.85 604.903 1541.76 604.991 1541.57 605.177 1541.47 605.266 1541.29 605.266 1541.09 605.354 1540.91 605.354 1540.71 605.354 1540.44 605.354 1540.15 605.266 1539.86 605.177 1539.57 605.089 1539.29 604.991 1539.01 604.814L1539.01 605.628C1539.29 605.717 1539.57 605.814 1539.86 605.903 1540.15 605.991 1540.44 605.991 1540.81 605.991 1541.09 605.991 1541.38 605.991 1541.76 605.903 1541.95 605.814 1542.23 605.628 1542.43 605.54 1542.61 605.354 1542.81 605.089 1542.9 604.903 1542.99 604.726 1542.99 604.451 1542.99 604.177 1542.99 604 1542.99 603.726 1542.9 603.54 1542.81 603.363 1542.71 603.177 1542.61 603.088 1542.43 603 1542.23 602.911 1542.14 602.911 1541.95 602.814 1541.85 602.814 1541.67 602.726 1541.95 602.637 1542.33 602.451 1542.52 602.274 1542.71 602 1542.9 601.726 1542.9 601.46 1542.9 601.186 1542.81 601 1542.71 600.823 1542.61 600.637 1542.43 600.46 1542.23 600.372 1542.05 600.274 1541.85 600.186 1541.67 600.097 1541.38 600.009 1541.09 600.009 1540.91 600.009Z" fill="#E9FFF3" fill-rule="evenodd" fill-opacity="1"/><path d="M1547.24 600.94 1547.24 603.662 1544.63 603.662 1547.24 600.94ZM1547.24 600.009 1544.01 603.47 1544.01 604.31 1547.24 604.31 1547.24 606 1548.07 606 1548.07 604.31 1549 604.31 1549 603.753 1548.07 603.753 1548.07 600.009Z" fill="#E9FFF3" fill-rule="evenodd" fill-opacity="1"/><path d="M1460.53 619C1459.72 619 1459 619.887 1459 620.881L1459 621.108C1459 622.211 1459.72 622.989 1460.53 622.989L1473.47 622.989C1474.27 622.989 1474.99 622.211 1474.99 621.108L1474.99 620.881C1474.99 619.887 1474.27 619 1473.47 619Z" fill="#1226DB" fill-rule="evenodd" fill-opacity="1"/><path d="M1460.71 571.008C1459.82 571.008 1459 571.673 1459 572.5 1459 573.335 1459.82 574 1460.71 574L1486.38 574C1487.27 574 1487.99 573.335 1487.99 572.5 1487.99 571.673 1487.27 571.008 1486.38 571.008Z" fill="#1226DB" fill-rule="evenodd" fill-opacity="1"/><path d="M1482.53 619C1481.73 619 1481.01 619.887 1481.01 620.881L1481.01 621.108C1481.01 622.211 1481.73 622.989 1482.53 622.989L1495.47 622.989C1496.27 622.989 1496.99 622.211 1496.99 621.108L1496.99 620.881C1496.99 619.887 1496.27 619 1495.47 619Z" fill="#1226DB" fill-rule="evenodd" fill-opacity="1"/><path d="M1945.01 774.009 1945.01 834 1953.99 834 1953.99 774.009Z" fill="#8FCEF9" fill-rule="evenodd" fill-opacity="1"/><path d="M1950.5 777.5 1950.5 767.51" stroke="#8FCEF9" stroke-width="0.369915" stroke-linecap="round" stroke-linejoin="miter" stroke-miterlimit="1" stroke-opacity="1" fill="none" fill-rule="evenodd"/><path d="M1950.5 832.509 1950.5 841.5" stroke="#8FCEF9" stroke-width="0.369915" stroke-linecap="round" stroke-linejoin="miter" stroke-miterlimit="1" stroke-opacity="1" fill="none" fill-rule="evenodd"/><path d="M1280.01 851 1280.01 884.991 1287 884.991 1287 851Z" fill="#8FCEF9" fill-rule="evenodd" fill-opacity="1"/><path d="M1285.5 854.49 1285.5 846.51" stroke="#48D3A1" stroke-width="0.279692" stroke-linecap="round" stroke-linejoin="miter" stroke-miterlimit="1" stroke-opacity="1" fill="none" fill-rule="evenodd"/><path d="M1285.5 880.5 1285.5 906.5" stroke="#48D3A1" stroke-width="0.279692" stroke-linecap="round" stroke-linejoin="miter" stroke-miterlimit="1" stroke-opacity="1" fill="none" fill-rule="evenodd"/><path d="M1294.01 575 1294.01 616.991 1302.99 616.991 1302.99 575Z" fill="#8FCEF9" fill-rule="evenodd" fill-opacity="1"/><path d="M1300.5 579.491 1300.5 550.509" stroke="#48D3A1" stroke-width="0.369915" stroke-linecap="round" stroke-linejoin="miter" stroke-miterlimit="1" stroke-opacity="1" fill="none" fill-rule="evenodd"/><path d="M1300.5 614.509 1300.5 623.491" stroke="#48D3A1" stroke-width="0.369915" stroke-linecap="round" stroke-linejoin="miter" stroke-miterlimit="1" stroke-opacity="1" fill="none" fill-rule="evenodd"/><path d="M1969 740 1969 776 1978.99 776 1978.99 740Z" fill="#FFB127" fill-rule="evenodd" fill-opacity="1"/><path d="M1975.5 742.491 1975.5 733.5" stroke="#FFB127" stroke-width="0.369915" stroke-linecap="round" stroke-linejoin="miter" stroke-miterlimit="1" stroke-opacity="1" fill="none" fill-rule="evenodd"/><path d="M1975.5 769.5 1975.5 806.491" stroke="#FFB127" stroke-width="0.369915" stroke-linecap="round" stroke-linejoin="miter" stroke-miterlimit="1" stroke-opacity="1" fill="none" fill-rule="evenodd"/><path d="M1959.01 582 1959.01 617.991 1967.99 617.991 1967.99 582Z" fill="#FFB127" fill-rule="evenodd" fill-opacity="1"/><path d="M1963.5 584.491 1963.5 575.509" stroke="#FFB127" stroke-width="0.369915" stroke-linecap="round" stroke-linejoin="miter" stroke-miterlimit="1" stroke-opacity="1" fill="none" fill-rule="evenodd"/><path d="M1963.5 611.5 1963.5 648.491" stroke="#FFB127" stroke-width="0.369915" stroke-linecap="round" stroke-linejoin="miter" stroke-miterlimit="1" stroke-opacity="1" fill="none" fill-rule="evenodd"/><path d="M1331 534 1331 567.991 1339 567.991 1339 534Z" fill="#8FCEF9" fill-rule="evenodd" fill-opacity="1"/><path d="M1336.5 537.5 1336.5 528.51" stroke="#FF8A8A" stroke-width="0.279692" stroke-linecap="round" stroke-linejoin="miter" stroke-miterlimit="1" stroke-opacity="1" fill="none" fill-rule="evenodd"/><path d="M1336.5 561.5 1336.5 595.491" stroke="#8FCEF9" stroke-width="0.279692" stroke-linecap="round" stroke-linejoin="miter" stroke-miterlimit="1" stroke-opacity="1" fill="none" fill-rule="evenodd"/></g></svg>