<svg width="591" height="578" xmlns="http://www.w3.org/2000/svg" xmlns:xlink="http://www.w3.org/1999/xlink" xml:space="preserve" overflow="hidden"><defs><clipPath id="clip0"><rect x="270" y="1081" width="591" height="578"/></clipPath></defs><g clip-path="url(#clip0)" transform="translate(-270 -1081)"><path d="M580.438 1185.01 426.97 1185.12C410.477 1185.12 399 1198.21 401.512 1214.36L461.266 1605.87C463.778 1622.02 479.177 1635 495.67 1635L649.03 1634.89C665.631 1634.89 676.991 1621.79 674.596 1605.65L614.843 1214.25C612.33 1198.1 596.931 1185.01 580.438 1185.01Z" fill="#23295C" fill-rule="evenodd" fill-opacity="1"/><path d="M430.178 1187C420.674 1187 414.009 1194.63 415.429 1203.89L476.969 1606.11C478.714 1615.7 487.025 1622.78 496.855 1623L660.821 1622.89C670.326 1622.89 676.991 1615.27 675.571 1606L614.031 1203.77C612.285 1194.19 603.974 1187.11 594.144 1187Z" fill="#FFFFFF" fill-rule="evenodd" fill-opacity="1"/><path d="M500.005 1200C498.892 1200 498 1200.97 498.221 1202.05 498.451 1203.13 499.444 1203.98 500.667 1203.98L529.005 1203.98C529.069 1203.99 529.124 1203.99 529.18 1203.99 530.209 1203.99 531 1203.07 530.789 1202.05 530.568 1200.86 529.566 1200 528.343 1200Z" fill="#000455" fill-rule="evenodd" fill-opacity="1"/><path d="M544.583 1200C543.693 1200 543.008 1201.03 543.189 1202.06 543.378 1203.14 544.236 1203.99 545.283 1203.99 546.236 1203.99 546.992 1203.03 546.803 1201.95 546.614 1200.87 545.756 1200.01 544.709 1200.01 544.669 1200.01 544.622 1200 544.583 1200Z" fill="#000455" fill-rule="evenodd" fill-opacity="1"/><path d="M427.523 1351C425.49 1351 424 1352.83 424.412 1354.97L426.743 1371.03C427.173 1373.23 429.075 1374.88 431.301 1374.99 431.354 1375 431.406 1375 431.459 1375 433.405 1375 435 1373.07 434.588 1370.92L432.256 1354.97C431.827 1352.66 429.925 1351.01 427.699 1351.01 427.637 1351 427.576 1351 427.523 1351Z" fill="#FFB127" fill-rule="evenodd" fill-opacity="1"/><path d="M410.816 1243C408.624 1243 407.009 1244.91 407.34 1247.02L415.103 1295.09C415.557 1297.36 417.615 1298.99 420.014 1298.99 420.071 1298.99 420.128 1298.99 420.184 1298.99 422.281 1298.99 424 1297.09 423.547 1295.09L415.906 1247.02C415.443 1244.74 413.394 1243.12 410.995 1243.01 410.929 1243 410.872 1243 410.816 1243Z" fill="#FFB127" fill-rule="evenodd" fill-opacity="1"/><path d="M408.666 1243C406.608 1243 405 1244.91 405.415 1247.02L412.678 1295.09C413.004 1297.36 414.922 1298.99 417.166 1298.99 417.219 1298.99 417.281 1298.99 417.334 1298.99 419.392 1298.99 421 1297.09 420.585 1295.09L413.323 1247.02C413.004 1244.74 411.078 1243.12 408.834 1243.01 408.781 1243 408.719 1243 408.666 1243Z" fill="#101C59" fill-rule="evenodd" fill-opacity="1"/><path d="M424.965 1351.01C422.739 1351.01 421 1352.93 421.449 1355.07L423.991 1370.94C424.459 1373.24 426.532 1374.88 428.959 1374.99 429.026 1375 429.083 1375 429.14 1375 431.357 1375 432.991 1373.08 432.656 1370.94L430 1355.07C429.542 1352.77 427.573 1351.13 425.147 1351.01 425.089 1351.01 425.022 1351.01 424.965 1351.01Z" fill="#101C59" fill-rule="evenodd" fill-opacity="1"/><path d="M431.635 1379C429.603 1379 428.009 1380.93 428.42 1383.06L430.75 1398.94C431.17 1401.24 433.071 1402.88 435.295 1402.99 435.357 1402.99 435.409 1402.99 435.462 1402.99 437.502 1402.99 438.991 1401.07 438.685 1398.94L436.355 1383.06C435.935 1380.76 434.025 1379.12 431.801 1379.01 431.748 1379.01 431.696 1379 431.635 1379Z" fill="#FFB127" fill-rule="evenodd" fill-opacity="1"/><path d="M429.563 1379C427.512 1379 426.009 1380.93 426.318 1383.06L428.67 1398.94C429.095 1401.24 431.022 1402.88 433.268 1402.99 433.321 1402.99 433.375 1402.99 433.428 1402.99 435.382 1402.99 436.991 1401.07 436.575 1398.94L434.329 1383.06C433.905 1380.76 431.986 1379.12 429.74 1379.01 429.678 1379.01 429.625 1379 429.563 1379Z" fill="#101C59" fill-rule="evenodd" fill-opacity="1"/><path d="M616.371 1215 418 1215.11 476.63 1598.99 675 1598.88 616.371 1215Z" fill="#FDE571" fill-rule="evenodd" fill-opacity="1"/><path d="M591.996 1189.58C601.701 1189.8 610.09 1196.89 611.84 1206.59L672.56 1604.4C673.976 1613.68 667.328 1621.31 657.84 1621.31L499.112 1621.42C489.299 1621.2 481.019 1614.11 479.16 1604.51L418.548 1206.59C417.024 1197.32 423.672 1189.69 433.268 1189.69L591.996 1189.58ZM591.23 1185 432.61 1185.11C420.397 1185.11 412.009 1194.82 413.75 1206.71L474.362 1604.51C476.22 1616.4 487.558 1626 499.77 1626L658.498 1625.88C670.603 1625.88 678.991 1616.29 677.25 1604.4L616.638 1206.48C614.78 1194.6 603.442 1185 591.23 1185Z" fill="#1226DB" fill-rule="evenodd" fill-opacity="1"/><path d="M592.268 1188.75C601.865 1188.97 609.929 1195.84 611.787 1205.35L672.618 1605.43C674.034 1614.61 667.494 1622.15 658.123 1622.15L498.732 1622.26C489.135 1622.03 480.963 1615.05 479.213 1605.54L418.274 1205.46C416.966 1196.29 423.397 1188.86 432.769 1188.86L592.268 1188.75ZM432.553 1187C422.198 1187.11 415 1195.3 416.524 1205.46L477.472 1605.54C479.321 1616.03 488.377 1623.67 498.948 1624L658.447 1623.89C668.802 1623.89 676 1615.59 674.476 1605.43L613.528 1205.35C611.679 1194.87 602.632 1187.23 591.944 1187Z" fill="#000455" fill-rule="evenodd" fill-opacity="1"/><path d="M506.083 1561.01C499.831 1561.01 495.009 1566.76 495.986 1573.05 496.855 1578.73 501.776 1582.88 507.575 1583L642.619 1583C649.07 1583 653.991 1577.31 652.896 1570.96 652.028 1565.28 647.215 1561.12 641.416 1561.01L506.263 1561.01C506.2 1561.01 506.146 1561.01 506.083 1561.01Z" fill="#FFFFFF" fill-rule="evenodd" fill-opacity="1"/><path d="M458.949 1306.01C457.317 1306.01 456.009 1307.53 456.334 1309.16L478.021 1448.49C478.237 1449.9 479.436 1450.99 480.969 1450.99L665.159 1450.99C666.801 1450.99 668 1449.58 667.774 1447.94L646.088 1308.62C645.871 1307.09 644.564 1306.01 643.148 1306.01Z" fill="#8FCEF9" fill-rule="evenodd" fill-opacity="1"/><path d="M812.945 1487C804.7 1487 798 1493.73 798 1502 798 1510.27 804.7 1516.99 812.945 1516.99 821.182 1516.99 828 1510.27 828 1502 828 1493.73 821.182 1487 812.945 1487Z" fill="#5664E1" fill-rule="evenodd" fill-opacity="1"/><path d="M366.559 1558C340.275 1558 319.009 1579.24 319.009 1605.5 319.009 1631.75 340.275 1652.99 366.559 1652.99 392.733 1652.99 414 1631.75 414 1605.5 414 1579.24 392.733 1558 366.559 1558Z" fill="#FDE571" fill-rule="evenodd" fill-opacity="1"/><path d="M791.945 1105.01C783.149 1105.01 776 1112.15 776 1120.95 776 1129.85 783.149 1137 791.945 1137 800.851 1137 808 1129.85 808 1120.95 808 1112.15 800.851 1105.01 791.945 1105.01Z" fill="#5664E1" fill-rule="evenodd" fill-opacity="1"/><path d="M769.17 1156.44C773.812 1156.44 777.589 1160.26 777.589 1164.95 777.589 1170.19 773.455 1173.63 769.107 1173.63 767.018 1173.63 764.875 1172.83 763.125 1171.06 757.732 1165.61 761.509 1156.44 769.17 1156.44ZM769.098 1155.01C766.67 1155.01 764.187 1155.92 762.161 1157.98 756.009 1164.2 760.321 1174.99 769.17 1174.99 774.571 1174.99 778.991 1170.52 778.991 1164.95 778.991 1158.99 774.161 1155.01 769.098 1155.01Z" fill="#101C59" fill-rule="evenodd" fill-opacity="1"/><path d="M376.481 1544.35C378.748 1544.35 380.593 1546.17 380.593 1548.53 380.593 1550.99 378.56 1552.68 376.409 1552.68 375.379 1552.68 374.322 1552.29 373.444 1551.43 370.845 1548.85 372.691 1544.35 376.481 1544.35ZM376.436 1543C375.056 1543 373.632 1543.51 372.467 1544.67 369.009 1548.1 371.5 1554 376.481 1554 379.509 1554 382 1551.53 382 1548.53 382 1545.21 379.294 1543 376.436 1543Z" fill="#101C59" fill-rule="evenodd" fill-opacity="1"/><path d="M828.27 1134C821.397 1134 818.009 1142.63 822.877 1147.65 824.444 1149.27 826.361 1149.99 828.243 1149.99 832.2 1149.99 836 1146.78 836 1141.97 836 1137.6 832.612 1134 828.27 1134Z" fill="#5664E1" fill-rule="evenodd" fill-opacity="1"/><path d="M724.902 1519C722.812 1519 720.688 1519.4 718.634 1520.24 710.107 1523.86 706.009 1533.72 709.571 1542.49 712.179 1549.02 718.411 1552.99 724.982 1552.99 727.107 1552.99 729.277 1552.57 731.366 1551.69 739.893 1548.19 743.991 1538.22 740.428 1529.56 737.812 1522.99 731.518 1519 724.902 1519Z" fill="#FFFFFF" fill-rule="evenodd" fill-opacity="1"/><path d="M737.941 1202C730.307 1202 724 1208.33 724 1216 724 1223.77 730.307 1229.99 737.941 1229.99 745.684 1229.99 751.991 1223.77 751.991 1216 751.991 1208.33 745.684 1202 737.941 1202Z" fill="#FFFFFF" fill-rule="evenodd" fill-opacity="1"/><path d="M756.523 1602C749.02 1602 742.209 1607.14 740.288 1614.8 738.009 1623.97 743.429 1633.14 752.439 1635.46 753.821 1635.83 755.221 1636 756.594 1636 764.007 1636 770.8 1630.94 772.721 1623.2 775 1614.14 769.571 1604.85 760.678 1602.53 759.287 1602.17 757.896 1602 756.523 1602Z" fill="#FFFFFF" fill-rule="evenodd" fill-opacity="1"/><path d="M724.054 1595.01C720.15 1595.01 717 1598.13 717 1602 717 1605.87 720.15 1609 724.054 1609 727.958 1609 730.991 1605.87 730.991 1602 730.991 1598.13 727.958 1595.01 724.054 1595.01Z" fill="#FFFFFF" fill-rule="evenodd" fill-opacity="1"/><path d="M704.582 1443 688.689 1495.83 665.511 1468.98 651.464 1513.26 600.749 1454.29 567.009 1503.29 568.098 1504.05 600.857 1456.48 652.013 1516 666.051 1471.72 689.346 1498.57 705.231 1445.74 752.901 1500.32 753.991 1499.45 704.582 1443Z" fill="#101C59" fill-rule="evenodd" fill-opacity="1"/><path d="M566.306 1485.01C563.884 1485.01 561.523 1485.67 559.434 1487.08 553.071 1491.43 552.009 1501.22 556.994 1508.84 560.294 1514.07 565.595 1517 570.642 1517 573.055 1517 575.407 1516.33 577.47 1514.92 583.938 1510.57 585 1500.89 580.015 1493.17 576.636 1487.94 571.361 1485.01 566.306 1485.01Z" fill="#1226DB" fill-rule="evenodd" fill-opacity="1"/><path d="M647.874 1499.01C644.36 1499.01 640.928 1499.95 637.925 1501.94 628.661 1507.97 627.009 1521.66 634.293 1532.52 639.139 1539.86 646.824 1543.99 654.154 1543.99 657.658 1543.99 661.081 1543.06 664.075 1541.07 673.339 1534.93 675 1521.23 667.826 1510.37 662.907 1503.12 655.203 1499.01 647.874 1499.01Z" fill="#1226DB" fill-rule="evenodd" fill-opacity="1"/><path d="M703.458 1427.01C700.679 1427.01 697.981 1427.75 695.612 1429.33 688.292 1434.21 687 1445.17 692.709 1453.84 696.565 1459.71 702.647 1463 708.445 1463 711.214 1463 713.913 1462.25 716.281 1460.67 723.709 1455.79 725 1444.83 719.292 1436.16 715.364 1430.29 709.255 1427.01 703.458 1427.01Z" fill="#5664E1" fill-rule="evenodd" fill-opacity="1"/><path d="M754.969 1488.01C754.717 1488.01 754.464 1488.01 754.22 1488.03 746.802 1488.46 742 1495.27 743.525 1503.26 745.006 1510.99 751.883 1517 759.04 1517 759.293 1517 759.536 1516.99 759.78 1516.97 767.199 1516.54 772 1509.63 770.475 1501.64 768.995 1493.92 762.126 1488.01 754.969 1488.01Z" fill="#1226DB" fill-rule="evenodd" fill-opacity="1"/><path d="M598.943 1441.01C598.693 1441.01 598.443 1441.02 598.202 1441.03 590.758 1441.45 586.009 1448.29 587.518 1456.3 588.981 1464.04 595.881 1469.99 603.066 1469.99 603.316 1469.99 603.557 1469.98 603.807 1469.97 611.251 1469.54 616 1462.71 614.492 1454.7 613.028 1446.96 606.119 1441.01 598.943 1441.01Z" fill="#5664E1" fill-rule="evenodd" fill-opacity="1"/><path d="M687.581 1486.01C687.399 1486.01 687.207 1486.01 687.026 1486.03 681.521 1486.25 678.009 1491.46 679.219 1497.57 680.293 1503.54 685.342 1507.99 690.701 1507.99 690.829 1507.99 690.956 1507.99 691.093 1507.98 696.479 1507.64 700 1502.44 698.79 1496.33 697.725 1490.53 692.776 1486.01 687.581 1486.01Z" fill="#1226DB" fill-rule="evenodd" fill-opacity="1"/><path d="M664.958 1464C661.992 1464.34 660.009 1467.29 660.782 1470.34 661.328 1473.5 663.967 1475.99 667.269 1475.99 670.126 1475.77 671.991 1472.94 671.445 1469.65 670.899 1466.49 668.143 1464.11 664.958 1464Z" fill="#5664E1" fill-rule="evenodd" fill-opacity="1"/><path d="M547.447 1349.01C545.191 1349.01 543.062 1350 541.615 1351.7 539.764 1354.04 539.009 1357.18 539.656 1360.08L543.349 1381.99 544.005 1381.88 540.312 1359.97C539.764 1357.18 540.42 1354.38 542.154 1352.14 543.493 1350.56 545.407 1349.68 547.438 1349.68 547.563 1349.68 547.68 1349.68 547.806 1349.68L611.991 1351.59 611.991 1350.8 547.806 1349.02C547.68 1349.01 547.563 1349.01 547.447 1349.01Z" fill="#1B203F" fill-rule="evenodd" fill-opacity="1"/><path d="M550.764 1389.01 550 1389.11 551.304 1395.57C551.852 1399.28 555.116 1402.25 559.028 1402.56L644.991 1405 644.991 1404.26 559.028 1401.92C555.764 1401.82 552.617 1398.96 551.96 1395.36L550.764 1389.01Z" fill="#1B203F" fill-rule="evenodd" fill-opacity="1"/><path d="M543.453 1384 542.809 1384.11 546.917 1409.84C547.239 1411.68 546.81 1413.64 545.512 1415.05 544.089 1416.58 542.102 1417.34 540.079 1417.34 539.945 1417.34 539.802 1417.34 539.667 1417.34L511 1416.57 511 1417.23 539.667 1417.98 539.999 1417.98C540.106 1417.99 540.222 1417.99 540.339 1417.99 542.487 1417.99 544.509 1417.03 546.049 1415.48 547.347 1413.86 548 1411.79 547.57 1409.74L543.453 1384Z" fill="#1B203F" fill-rule="evenodd" fill-opacity="1"/><path d="M484.661 1350.01 484 1350.12 487.285 1370.01C488.271 1376.24 493.628 1381.49 499.311 1381.59L582 1384 582 1383.23 499.311 1380.93C494.062 1380.83 488.923 1375.8 487.936 1369.89L484.661 1350.01Z" fill="#1B203F" fill-rule="evenodd" fill-opacity="1"/><path d="M645.683 1397C642.302 1397 640 1400 640.755 1403.73 641.403 1407.63 644.667 1410.78 648.138 1411 648.201 1411 648.263 1411 648.326 1411 651.806 1411 654 1408 653.362 1404.16 652.705 1400.37 649.441 1397.12 645.863 1397 645.8 1397 645.737 1397 645.683 1397Z" fill="#1226DB" fill-rule="evenodd" fill-opacity="1"/><path d="M612.387 1343C607.88 1343 605 1346.97 605.763 1351.78 606.645 1356.77 610.924 1360.88 615.54 1360.99 615.595 1360.99 615.658 1360.99 615.722 1360.99 620.12 1360.99 622.991 1357.13 622.237 1352.22 621.464 1347.34 617.076 1343.22 612.569 1343 612.514 1343 612.451 1343 612.387 1343Z" fill="#101C59" fill-rule="evenodd" fill-opacity="1"/><path d="M509.919 1408.01C505.716 1408.01 503.009 1411.7 503.748 1416.34 504.505 1421.04 508.592 1424.89 512.903 1424.99 512.965 1424.99 513.018 1424.99 513.081 1424.99 517.284 1424.99 519.991 1421.3 519.252 1416.77 518.495 1412.06 514.408 1408.11 510.097 1408.01 510.044 1408.01 509.982 1408.01 509.919 1408.01Z" fill="#0E1DA8" fill-rule="evenodd" fill-opacity="1"/><path d="M582.792 1374.01C578.063 1374.01 575.009 1377.78 575.894 1382.79 576.685 1387.76 581.405 1391.89 586.134 1392 586.199 1392 586.255 1392 586.32 1392 590.835 1392 594 1388.12 593.106 1383.21 592.213 1378.24 587.707 1374.11 582.987 1374.01 582.922 1374.01 582.857 1374.01 582.792 1374.01Z" fill="#1226DB" fill-rule="evenodd" fill-opacity="1"/><path d="M477.389 1348C476.146 1348 474.955 1348.33 473.922 1349.04 470.534 1351.44 470 1356.89 472.863 1361.25 474.771 1364.28 477.801 1365.99 480.611 1365.99 481.845 1365.99 483.045 1365.66 484.078 1364.96 487.571 1362.67 487.991 1357.21 485.242 1352.75 483.255 1349.71 480.208 1348 477.389 1348Z" fill="#07105C" fill-rule="evenodd" fill-opacity="1"/><path d="M541.118 1368C534.409 1368 530 1373.83 531.2 1381.17 532.409 1388.68 538.891 1394.77 545.7 1394.99 545.827 1394.99 545.945 1394.99 546.064 1394.99 552.673 1394.99 557 1389.19 555.809 1381.82 554.6 1374.42 548.118 1368.22 541.309 1368 541.245 1368 541.182 1368 541.118 1368Z" fill="#1226DB" fill-rule="evenodd" fill-opacity="1"/><path d="M368.38 1570.01C367.825 1570.01 367.278 1570.04 366.723 1570.09 365.631 1570.31 364.638 1570.52 363.646 1570.96L364.857 1579.79C359.686 1581.32 355.835 1583.72 353.414 1587.1 350.883 1590.69 350 1595.06 350.774 1599.3 350.992 1601.38 351.657 1603.34 352.64 1605.3 353.414 1606.83 354.515 1608.24 355.835 1609.33 357.155 1610.42 358.694 1611.41 360.342 1612.06 362.108 1612.82 363.974 1613.37 365.849 1613.81L370.583 1615.01 376.518 1616.64C378.057 1617.07 379.495 1617.62 380.815 1618.38 381.908 1619.04 382.9 1620.02 383.565 1621.11 384.329 1622.42 384.775 1623.84 384.885 1625.36 385.54 1628.41 384.557 1631.58 382.463 1633.87 380.26 1636.16 376.628 1637.68 371.566 1638.44 369.664 1638.68 367.706 1638.85 365.731 1638.85 364.966 1638.85 364.192 1638.83 363.428 1638.77 361.115 1638.56 358.912 1638.22 356.718 1637.9 356.382 1639.21 356.163 1640.73 355.945 1642.04 355.726 1643.45 355.726 1644.88 355.726 1646.29 357.155 1646.51 358.475 1646.73 359.686 1646.94 361.006 1647.05 362.326 1647.16 363.646 1647.27 365.185 1647.27 366.614 1647.27 368.052 1647.16 369.591 1647.05 371.348 1646.94 373.223 1646.62L373.769 1646.62C373.988 1646.51 374.315 1646.51 374.543 1646.4L375.972 1655.99 377.62 1655.99C378.175 1655.99 378.722 1655.99 379.268 1655.88 380.369 1655.67 381.362 1655.45 382.354 1655.02L380.925 1644.55C385.54 1643.13 389.618 1640.3 392.586 1636.37 395.117 1632.45 396 1627.65 395.226 1623.07 394.898 1620.78 394.234 1618.61 393.132 1616.53 392.258 1614.9 391.048 1613.37 389.5 1612.28 387.962 1610.97 386.314 1610.1 384.439 1609.44 382.354 1608.58 380.151 1607.92 378.057 1607.38L374.315 1606.5C372.34 1605.96 370.465 1605.41 368.926 1604.98 367.388 1604.54 365.958 1603.99 364.638 1603.34 363.537 1602.69 362.545 1601.81 361.78 1600.83 361.115 1599.75 360.569 1598.44 360.46 1597.13 359.905 1594.51 360.678 1591.78 362.654 1589.93 365.075 1587.97 368.052 1586.77 371.238 1586.44 373.059 1586.21 374.889 1586.03 376.71 1586.03 377.42 1586.03 378.121 1586.05 378.831 1586.12 380.815 1586.23 382.791 1586.44 384.775 1586.88 385.431 1584.26 385.768 1581.64 385.649 1579.03 383.455 1578.6 381.252 1578.27 379.049 1578.27 378.339 1578.23 377.647 1578.23 376.946 1578.23 375.053 1578.23 373.205 1578.32 371.348 1578.49L370.028 1570.09C369.481 1570.04 368.926 1570.01 368.38 1570.01Z" fill="#0E1DA8" fill-rule="evenodd" fill-opacity="1"/><path d="M416.6 1545.01C416.013 1545.01 415.436 1545.06 414.849 1545.19 413.96 1545.3 412.961 1545.52 412.081 1545.85L413.3 1553.79C409.194 1554.78 405.546 1557.09 402.997 1560.4 400.889 1563.49 400 1567.34 400.669 1571.2 400.889 1573.08 401.439 1574.84 402.328 1576.49 402.997 1577.93 403.987 1579.15 405.206 1580.13 406.426 1581.12 407.755 1582.01 409.194 1582.56 410.752 1583.22 412.411 1583.77 414.07 1584.1L418.167 1585.2 423.493 1586.63C424.822 1586.97 426.151 1587.52 427.37 1588.18 428.36 1588.84 429.139 1589.62 429.808 1590.61 430.468 1591.7 430.908 1593.03 431.027 1594.36 431.577 1597.11 430.798 1599.98 428.809 1601.96 426.811 1604.05 423.603 1605.37 419.166 1606.04 417.544 1606.33 415.922 1606.43 414.29 1606.43 413.483 1606.43 412.668 1606.4 411.861 1606.37 409.863 1606.15 407.865 1605.93 405.876 1605.59 405.656 1606.81 405.426 1608.02 405.206 1609.34 405.096 1610.55 404.986 1611.77 405.096 1613.09 406.316 1613.31 407.425 1613.43 408.534 1613.65 409.753 1613.87 410.862 1613.97 412.081 1613.97 412.741 1614.03 413.41 1614.06 414.061 1614.06 414.712 1614.06 415.344 1614.03 415.958 1613.97 417.397 1613.87 418.946 1613.76 420.605 1613.54L421.055 1613.43C421.275 1613.31 421.495 1613.31 421.715 1613.2L423.154 1621.91C423.383 1621.96 423.63 1621.99 423.887 1621.99 424.153 1621.99 424.428 1621.96 424.712 1621.91 425.152 1621.91 425.702 1621.91 426.151 1621.8 426.591 1621.8 427.031 1621.69 427.59 1621.58 428.03 1621.47 428.479 1621.25 428.919 1621.14L427.59 1611.66C431.687 1610.45 435.345 1607.91 437.893 1604.38 440.221 1600.86 440.991 1596.56 440.221 1592.48 440.001 1590.38 439.442 1588.4 438.443 1586.63 437.673 1585.2 436.564 1583.88 435.235 1582.78 433.905 1581.68 432.356 1580.8 430.688 1580.24 428.809 1579.58 426.921 1578.92 425.042 1578.48L421.715 1577.59C419.946 1577.16 418.286 1576.72 416.838 1576.27 415.509 1575.94 414.29 1575.4 413.071 1574.84 412.081 1574.29 411.302 1573.52 410.642 1572.52 409.863 1571.54 409.533 1570.44 409.313 1569.33 408.864 1566.91 409.533 1564.48 411.302 1562.83 413.41 1561.06 416.178 1559.96 418.946 1559.74 420.605 1559.49 422.329 1559.36 424.024 1559.36 424.593 1559.36 425.152 1559.38 425.702 1559.41 427.48 1559.52 429.249 1559.74 431.027 1560.08 431.577 1557.87 431.907 1555.44 431.797 1553.13 429.918 1552.69 427.92 1552.47 425.931 1552.47 425.308 1552.43 424.684 1552.42 424.061 1552.42 422.356 1552.42 420.651 1552.52 418.946 1552.69L417.837 1545.08C417.425 1545.04 417.012 1545.01 416.6 1545.01Z" fill="#5664E1" fill-rule="evenodd" fill-opacity="1"/><path d="M334.891 1155.45C335.29 1155.45 335.688 1155.46 336.096 1155.47 352.844 1156.03 366.096 1170.16 365.435 1187.04 364.864 1205.01 350.118 1216.56 334.846 1216.56 327.011 1216.56 319.049 1213.53 312.781 1206.77 294.448 1187.23 308.515 1155.45 334.891 1155.45ZM329.094 1141.01C326.132 1141.34 323.288 1142 320.553 1142.98 320.661 1143.09 320.879 1143.42 320.987 1143.64 322.962 1147.26 321.54 1151.75 317.926 1153.72 316.784 1154.33 315.562 1154.61 314.375 1154.61 311.685 1154.61 309.103 1153.16 307.745 1150.65 307.636 1150.43 307.527 1150.1 307.409 1149.89 305.118 1151.64 302.926 1153.72 301.06 1155.92 301.286 1156.03 301.612 1156.13 301.83 1156.24 305.335 1158.44 306.431 1163.04 304.239 1166.54 302.817 1168.83 300.371 1170.09 297.871 1170.09 296.531 1170.09 295.172 1169.72 293.949 1168.96 293.614 1168.85 293.397 1168.63 293.179 1168.4 292.083 1171.15 291.214 1174 290.553 1176.85L291.54 1176.85C295.698 1177.06 298.986 1180.46 298.768 1184.63 298.66 1188.72 295.272 1191.86 291.196 1191.86 291.132 1191.86 291.06 1191.86 290.987 1191.86 290.661 1191.86 290.335 1191.75 290.009 1191.75 290.444 1194.71 291.096 1197.57 291.975 1200.41 292.301 1200.2 292.636 1199.98 292.962 1199.86 294.067 1199.26 295.272 1198.97 296.458 1198.97 299.14 1198.97 301.748 1200.42 303.034 1202.93 305.009 1206.55 303.578 1211.15 299.973 1213.02 299.638 1213.24 299.312 1213.34 298.986 1213.45 300.734 1215.87 302.817 1218.06 305.118 1220.03 305.227 1219.7 305.444 1219.37 305.553 1219.05 307.174 1216.45 309.466 1215.38 311.721 1215.38 316.911 1215.38 321.911 1221.05 318.252 1226.94 318.034 1227.26 317.817 1227.59 317.6 1227.93 320.335 1229.02 323.288 1229.89 326.241 1230.45 326.132 1230.11 326.132 1229.68 326.241 1229.24 326.404 1224.39 330.009 1222.02 333.632 1222.02 337.455 1222.02 341.304 1224.66 341.132 1229.78 341.132 1230.22 341.023 1230.56 341.023 1230.99 343.976 1230.56 346.938 1229.89 349.783 1228.91 347.047 1225.41 347.926 1220.36 351.648 1217.95 352.88 1217.18 354.257 1216.82 355.616 1216.82 358.324 1216.82 360.951 1218.28 362.264 1220.91 362.482 1221.23 362.59 1221.57 362.699 1221.9 365.109 1220.03 367.301 1217.95 369.266 1215.76 368.94 1215.54 368.614 1215.43 368.288 1215.21 361.159 1210.82 365.543 1201.25 372.083 1201.25 373.388 1201.25 374.773 1201.62 376.168 1202.5 376.494 1202.72 376.712 1202.93 377.047 1203.15 378.143 1200.41 379.013 1197.57 379.565 1194.6L378.469 1194.6C368.614 1194.27 369.04 1179.58 378.695 1179.58 378.804 1179.58 378.904 1179.58 379.013 1179.58 379.339 1179.58 379.674 1179.69 380 1179.81 379.565 1176.85 378.904 1173.89 377.917 1171.15 377.699 1171.37 377.373 1171.48 377.156 1171.7 375.869 1172.37 374.619 1172.66 373.451 1172.66 366.585 1172.66 362.563 1162.46 370.145 1158.44 370.362 1158.32 370.589 1158.21 370.915 1158.1 369.049 1155.81 367.083 1153.61 364.891 1151.75 364.782 1151.96 364.565 1152.3 364.456 1152.52 362.844 1154.91 360.634 1155.91 358.451 1155.91 353.333 1155.91 348.379 1150.43 351.757 1144.52 351.975 1144.29 352.083 1144.18 352.301 1143.97 349.565 1142.87 346.721 1142 343.868 1141.44 343.868 1141.66 343.868 1142 343.868 1142.21 343.759 1146.3 340.371 1149.45 336.413 1149.45 336.341 1149.45 336.277 1149.45 336.205 1149.44 332.047 1149.33 328.759 1145.83 328.986 1141.66 328.986 1141.44 328.986 1141.23 329.094 1141.01Z" fill="#1226DB" fill-rule="evenodd" fill-opacity="1"/><path d="M335.318 1163.28C345.609 1163.28 355.775 1170 358.149 1181.93 360.659 1194.45 352.588 1206.64 340.039 1209.15 338.378 1209.49 336.753 1209.65 335.173 1209.65 317.452 1209.65 305.625 1189.44 316.143 1173.65 320.855 1166.56 328.123 1163.28 335.318 1163.28ZM335.228 1152C324.493 1152 313.66 1156.89 306.645 1167.44 291.009 1190.86 308.722 1220.99 335.146 1220.99 337.475 1220.99 339.877 1220.76 342.332 1220.26 360.993 1216.45 372.991 1198.26 369.28 1179.64 365.687 1161.96 350.548 1152 335.228 1152Z" fill="#1226DB" fill-rule="evenodd" fill-opacity="1"/><path d="M399.937 1119.85C400.243 1119.85 400.558 1119.86 400.873 1119.87 414.692 1120.41 425.567 1132.05 425.027 1145.98L425.027 1145.77C424.523 1160.51 412.36 1169.98 399.775 1169.98 393.329 1169.98 386.766 1167.5 381.608 1161.97 366.592 1145.88 378.223 1119.85 399.937 1119.85ZM395.103 1108C392.708 1108.33 390.421 1108.87 388.144 1109.64 388.252 1109.85 388.36 1109.96 388.468 1110.18 390.971 1115.03 386.901 1119.19 382.796 1119.19 380.834 1119.19 378.853 1118.24 377.584 1115.95 377.476 1115.84 377.368 1115.62 377.368 1115.4 375.405 1116.81 373.668 1118.45 372.038 1120.3 372.254 1120.41 372.471 1120.51 372.687 1120.62 378.493 1124.25 374.928 1132.11 369.545 1132.11 368.473 1132.11 367.321 1131.79 366.16 1131.07 365.944 1130.86 365.836 1130.75 365.62 1130.63 364.638 1132.81 363.981 1135.21 363.441 1137.6 363.603 1137.55 363.738 1137.52 363.873 1137.52 364.008 1137.52 364.143 1137.55 364.314 1137.6 364.44 1137.59 364.557 1137.59 364.683 1137.59 368.104 1137.59 370.832 1140.44 370.733 1143.91 370.625 1147.25 367.897 1149.83 364.629 1149.83 364.377 1149.83 364.125 1149.82 363.873 1149.79 363.549 1149.79 363.333 1149.79 363.009 1149.68 363.333 1152.08 363.873 1154.46 364.638 1156.86 364.854 1156.64 365.179 1156.53 365.395 1156.32 366.457 1155.76 367.483 1155.51 368.446 1155.51 374.091 1155.51 377.395 1163.94 371.165 1167.2 370.949 1167.42 370.625 1167.52 370.292 1167.63 371.822 1169.59 373.56 1171.33 375.405 1173.07 375.522 1172.75 375.63 1172.42 375.846 1172.21 377.17 1170.08 379.06 1169.2 380.933 1169.2 385.191 1169.2 389.314 1173.78 386.289 1178.62 386.073 1178.95 385.857 1179.16 385.641 1179.49 387.919 1180.36 390.313 1181.13 392.816 1181.56 392.276 1177.97 394.995 1174.82 398.587 1174.71 398.713 1174.7 398.839 1174.69 398.956 1174.69 402.377 1174.69 405.113 1177.55 405.005 1181.02 405.005 1181.34 404.897 1181.67 404.897 1181.99 407.292 1181.67 409.795 1181.13 412.081 1180.25 411.865 1180.04 411.748 1179.71 411.532 1179.38 408.966 1174.55 413.062 1170.35 417.177 1170.35 419.175 1170.35 421.174 1171.34 422.416 1173.73 422.524 1173.94 422.74 1174.27 422.74 1174.6 424.811 1173.07 426.548 1171.33 428.187 1169.48 427.961 1169.37 427.637 1169.15 427.313 1169.05 421.678 1165.41 425.225 1157.59 430.545 1157.59 431.598 1157.59 432.715 1157.9 433.84 1158.6 434.164 1158.82 434.38 1158.93 434.605 1159.14 435.469 1156.86 436.235 1154.46 436.667 1152.08L435.803 1152.08C428.295 1151.2 428.727 1140.21 436.235 1139.89 436.451 1139.89 436.775 1139.89 437 1139.99 436.667 1137.6 436.127 1135.21 435.361 1132.92 435.145 1133.03 434.929 1133.13 434.713 1133.36 433.651 1133.91 432.625 1134.15 431.661 1134.15 426.017 1134.15 422.713 1125.73 428.943 1122.48 429.159 1122.37 429.267 1122.26 429.492 1122.15 428.069 1120.3 426.44 1118.56 424.595 1116.92 424.487 1117.15 424.379 1117.36 424.261 1117.58 422.947 1119.69 421.075 1120.56 419.229 1120.56 414.953 1120.56 410.785 1115.91 413.819 1111.05 413.927 1110.84 414.143 1110.73 414.251 1110.5 411.973 1109.64 409.687 1108.87 407.292 1108.44 407.292 1108.66 407.292 1108.87 407.292 1109.09 406.815 1112.7 403.988 1114.46 401.161 1114.46 398.19 1114.46 395.22 1112.51 394.995 1108.66 394.995 1108.44 395.103 1108.22 395.103 1108Z" fill="#23295C" fill-rule="evenodd" fill-opacity="1"/><path d="M399.774 1126.35C408.315 1126.35 416.729 1131.88 418.724 1141.72 420.809 1152.05 414.118 1162.17 403.601 1164.24 402.241 1164.51 400.908 1164.65 399.611 1164.65 384.932 1164.65 375.004 1147.97 383.763 1134.97 387.698 1129.09 393.763 1126.35 399.774 1126.35ZM399.675 1117.01C390.753 1117.01 381.768 1121.05 375.983 1129.75 363.009 1149.13 377.643 1174 399.448 1174 401.406 1174 403.41 1173.8 405.459 1173.38 421.027 1170.23 431 1155.32 427.926 1139.86 424.962 1125.23 412.386 1117.01 399.675 1117.01Z" fill="#23295C" fill-rule="evenodd" fill-opacity="1"/><path d="M763.91 1396.17C764.171 1396.17 764.441 1396.18 764.711 1396.19 775.144 1396.63 783.293 1405.48 782.969 1416.22 782.61 1427.63 773.426 1434.97 763.874 1434.97 758.972 1434.97 753.98 1433.04 750.031 1428.72 738.689 1416.31 747.459 1396.17 763.91 1396.17ZM760.249 1387.01C758.405 1387.34 756.66 1387.67 754.924 1388.34 755.032 1388.45 755.14 1388.56 755.248 1388.78 757.794 1392.63 754.394 1396.19 751.12 1396.19 749.501 1396.19 747.918 1395.32 747.099 1393.21 746.982 1392.98 746.874 1392.87 746.874 1392.76 745.354 1393.87 744.05 1395.08 742.854 1396.52 742.962 1396.63 743.178 1396.63 743.286 1396.74 748.053 1399.4 745.237 1405.76 741.109 1405.76 740.245 1405.76 739.319 1405.48 738.401 1404.83 738.285 1404.72 738.069 1404.61 737.961 1404.49 737.313 1406.15 736.764 1407.92 736.333 1409.81L736.98 1409.81C742.962 1410.24 742.638 1419.21 736.657 1419.32 736.441 1419.21 736.225 1419.21 736.009 1419.21 736.225 1421.09 736.657 1422.86 737.205 1424.74 737.421 1424.52 737.637 1424.41 737.853 1424.3 738.635 1423.89 739.4 1423.7 740.11 1423.7 744.338 1423.7 746.856 1430.15 742.206 1432.71 741.981 1432.82 741.765 1432.93 741.55 1432.93 742.638 1434.48 743.942 1435.81 745.354 1437.13 745.462 1436.91 745.57 1436.69 745.678 1436.47 746.649 1434.67 748.116 1433.93 749.582 1433.93 752.892 1433.93 756.184 1437.69 753.62 1441.45 753.512 1441.67 753.287 1441.89 753.18 1442 754.924 1442.78 756.66 1443.33 758.621 1443.66 758.513 1443.44 758.513 1443.22 758.621 1442.89 758.567 1439.71 760.888 1438.16 763.217 1438.16 765.673 1438.16 768.137 1439.87 767.859 1443.22 767.859 1443.55 767.859 1443.77 767.751 1443.99 769.595 1443.77 771.447 1443.33 773.183 1442.66 773.075 1442.44 772.968 1442.22 772.752 1442 771.339 1438.43 774.263 1435.49 777.222 1435.49 778.58 1435.49 779.947 1436.12 780.91 1437.57 781.018 1437.8 781.126 1438.02 781.234 1438.24 782.754 1437.13 784.058 1435.81 785.254 1434.37 785.038 1434.26 784.822 1434.15 784.597 1434.04 780.559 1431.14 783.194 1425.31 787.251 1425.31 787.997 1425.31 788.798 1425.52 789.598 1425.96 789.823 1426.17 789.931 1426.29 790.147 1426.4 790.795 1424.63 791.343 1422.86 791.667 1420.97L791.02 1420.97C784.777 1420.97 784.912 1411.55 790.84 1411.55 791.002 1411.55 791.172 1411.55 791.343 1411.57L791.991 1411.57C791.667 1409.7 791.235 1407.92 790.687 1406.15 790.471 1406.26 790.363 1406.37 790.147 1406.48 789.203 1407.13 788.276 1407.41 787.422 1407.41 783.14 1407.41 780.541 1400.49 785.794 1398.19 785.911 1398.07 786.127 1398.07 786.234 1397.96 785.146 1396.52 783.842 1395.19 782.538 1393.98 782.43 1394.09 782.322 1394.31 782.214 1394.42 781.207 1395.87 779.857 1396.48 778.535 1396.48 775.405 1396.48 772.401 1393.1 774.38 1389.44 774.488 1389.22 774.596 1389.11 774.712 1389 772.968 1388.34 771.232 1387.78 769.487 1387.45 769.487 1387.56 769.487 1387.67 769.487 1387.89 769.28 1390.85 767.085 1392.29 764.89 1392.29 762.57 1392.29 760.249 1390.69 760.249 1387.56 760.249 1387.34 760.249 1387.23 760.249 1387.01Z" fill="#23295C" fill-rule="evenodd" fill-opacity="1"/><path d="M763.958 1401.06C770.496 1401.06 776.952 1405.25 778.504 1412.72 780.166 1420.51 774.979 1428.09 767.026 1429.72 766.013 1429.92 765.018 1430.01 764.05 1430.01 752.81 1430.01 745.195 1417.39 751.796 1407.52 754.791 1403.11 759.393 1401.06 763.958 1401.06ZM764.004 1394.01C757.183 1394.01 750.299 1397.06 745.843 1403.62 736 1418.25 747.231 1437 763.931 1437 765.401 1437 766.917 1436.85 768.46 1436.54 780.275 1434.16 788 1422.9 785.571 1411.2 783.297 1400.19 773.719 1394.01 764.004 1394.01Z" fill="#23295C" fill-rule="evenodd" fill-opacity="1"/><path d="M526.054 1085.01C508.384 1085.01 494.009 1099.16 494.009 1116.55 494.009 1133.84 508.384 1147.99 526.054 1147.99 543.725 1147.99 558 1133.84 558 1116.55 558 1099.16 543.725 1085.01 526.054 1085.01Z" fill="#5664E1" fill-rule="evenodd" fill-opacity="1"/><path d="M525.5 1098.01C520.762 1098.01 517.009 1101.84 517.009 1106.44 517.009 1111.16 520.762 1114.99 525.5 1114.99 530.138 1114.99 534 1111.16 534 1106.44 534 1101.84 530.138 1098.01 525.5 1098.01Z" fill="#FFFFFF" fill-rule="evenodd" fill-opacity="1"/><path d="M526 1117C518.607 1117 511.214 1121.67 509.009 1130.99L543 1130.99C540.786 1121.67 533.393 1117 526 1117Z" fill="#FFFFFF" fill-rule="evenodd" fill-opacity="1"/><path d="M461.541 1208.01C452.972 1208.01 444.431 1211.43 438.12 1218.19 426.009 1231.04 426.674 1251.37 439.659 1263.35 445.824 1269.14 453.71 1272 461.577 1272 470.128 1272 478.642 1268.61 484.889 1261.92 497 1248.95 496.335 1228.73 483.459 1216.65 477.249 1210.87 469.381 1208.01 461.541 1208.01Z" fill="#5664E1" fill-rule="evenodd" fill-opacity="1"/><path d="M461.19 1222.01C461.126 1222.01 461.054 1222.01 460.981 1222.01 453.524 1222.34 450.009 1231.55 455.604 1236.71 457.284 1238.29 459.301 1238.99 461.272 1238.99 465.731 1238.99 470 1235.38 469.764 1230.12 469.555 1225.59 465.822 1222.01 461.19 1222.01Z" fill="#FFFFFF" fill-rule="evenodd" fill-opacity="1"/><path d="M462.219 1241C454.56 1241 446.901 1245.73 445.009 1254.99L478.991 1253.59C476.545 1245.14 469.377 1241 462.219 1241Z" fill="#FFFFFF" fill-rule="evenodd" fill-opacity="1"/><path d="M274.597 1289C273.164 1289 271.838 1290.1 271.55 1291.61L271.216 1293.22C271 1294.92 272.091 1296.52 273.84 1296.85L340.745 1307.95C340.934 1307.98 341.132 1308 341.322 1308 342.836 1308 344.162 1306.91 344.45 1305.39L344.775 1303.78C344.991 1302.08 343.9 1300.48 342.16 1300.15L275.147 1289.05C274.958 1289.02 274.777 1289 274.597 1289Z" fill="#07105C" fill-rule="evenodd" fill-opacity="1"/><path d="M324.753 1293.01 322 1310.09 333.238 1311.99 335.991 1294.8 324.753 1293.01Z" fill="#07105C" fill-rule="evenodd" fill-opacity="1"/><path d="M361.568 1276C353.308 1276 345.075 1279.23 338.924 1285.64 327 1298 327.543 1317.66 340.009 1329.49 346.053 1335.17 353.806 1337.99 361.55 1337.99 369.8 1337.99 378.042 1334.78 384.185 1328.41 396 1315.92 395.566 1296.38 383.099 1284.55 377.02 1278.83 369.285 1276 361.568 1276Z" fill="#07105C" fill-rule="evenodd" fill-opacity="1"/><path d="M361.45 1282C348.198 1282 336.946 1292.07 335.996 1305.21 335.009 1319.05 345.604 1330.94 359.623 1331.92 360.299 1331.96 360.975 1331.99 361.642 1331.99 374.894 1331.99 385.945 1321.95 386.995 1308.78 387.991 1295.04 377.396 1283.04 363.267 1282.06 362.655 1282.03 362.053 1282 361.45 1282Z" fill="#FFB127" fill-rule="evenodd" fill-opacity="1"/><path d="M347.145 1294.01 347.145 1294.01C341.008 1301.86 341.589 1314.03 348.605 1321L349 1320.55C342.274 1313.7 341.685 1302.08 347.637 1294.45L347.145 1294.01Z" fill="#101C59" fill-rule="evenodd" fill-opacity="1"/><path d="M641.496 1250C641.415 1250 641.324 1250.01 641.234 1250.02L523.964 1250.02C522.874 1250.02 522 1250.66 522.216 1251.32L531.91 1312.9C532.108 1313.5 532.766 1314 533.451 1314 533.523 1314 533.586 1313.99 533.649 1313.98L651.036 1313.98C652.126 1313.98 653 1313.34 652.775 1312.68L643.09 1251.1C642.892 1250.42 642.252 1250 641.496 1250Z" fill="#FFB127" fill-rule="evenodd" fill-opacity="1"/><path d="M677.516 1111.01C673.758 1111.01 669.927 1111.14 666.043 1111.39 621.161 1114.34 586 1133.61 587.31 1154.51 588.512 1172.23 616.03 1185.37 651.841 1187.01L651.841 1187.01C651.832 1187.01 651.832 1187.01 651.832 1187.01 649.98 1187.01 648.02 1205.84 648.02 1208.13 647.911 1216.67 649.113 1225.09 651.624 1233.2 652.284 1235.38 653.16 1237.79 655.121 1238.99 654.353 1224.11 656.105 1208.24 663.089 1194.89 664.624 1192.04 666.476 1189.42 668.663 1186.9L670.957 1186.79C715.722 1183.83 750.991 1164.57 749.573 1143.79 748.38 1124.8 717.041 1111.01 677.516 1111.01Z" fill="#FFB127" fill-rule="evenodd" fill-opacity="1"/><path d="M679.242 1137.85C679.458 1138.07 679.566 1138.28 679.783 1138.5 681.308 1140.58 681.642 1143.41 681.966 1145.92 682.291 1147.99 682.291 1150.28 681.966 1152.35 681.524 1154.43 680.108 1156.06 678.15 1156.72 677.807 1156.82 677.464 1156.87 677.112 1156.87 676.336 1156.87 675.551 1156.62 674.875 1156.17 673.458 1155.3 672.475 1153.88 672.15 1152.25 671.491 1148.86 672.366 1145.38 674.442 1142.64 675.75 1140.79 677.383 1139.16 679.242 1137.85ZM651.758 1140.13C655.358 1143.63 655.792 1149.85 654.916 1154.43 654.808 1155.74 654.158 1157.05 653.283 1157.92 652.742 1158.38 652.038 1158.6 651.379 1158.6 651.253 1158.6 651.118 1158.59 650.991 1158.57 649.683 1158.36 648.591 1157.81 647.942 1156.83 646.742 1154.86 646.3 1152.46 646.958 1150.28 647.5 1146.46 649.25 1142.98 651.758 1140.13ZM666.835 1132.01C663.461 1132.01 660.095 1132.8 656.992 1134.36 654.916 1135.34 653.175 1136.65 651.65 1138.28 651.316 1138.07 650.991 1137.85 650.667 1137.62 648.519 1136.24 646.074 1135.56 643.647 1135.56 640.895 1135.56 638.152 1136.43 635.833 1138.17 629.833 1142.87 627 1150.5 628.525 1157.92L629.833 1157.59C628.525 1150.72 631.141 1143.63 636.708 1139.27 638.784 1137.7 641.256 1136.91 643.719 1136.91 645.921 1136.91 648.113 1137.54 650.008 1138.82 650.342 1138.93 650.558 1139.05 650.667 1139.27 648.05 1142.32 646.191 1146.03 645.542 1150.06 644.991 1152.68 645.433 1155.41 646.85 1157.59 647.725 1158.9 649.142 1159.77 650.775 1159.99L651.425 1159.99C652.408 1159.99 653.283 1159.67 654.05 1159.01 655.25 1157.92 656.008 1156.39 656.116 1154.76 657.1 1149.74 656.667 1142.98 652.625 1139.16 654.05 1137.62 655.683 1136.42 657.533 1135.56 660.402 1134.07 663.542 1133.33 666.691 1133.33 669.786 1133.33 672.89 1134.04 675.75 1135.45 676.625 1135.88 677.383 1136.31 678.15 1136.87 676.291 1138.28 674.658 1140.02 673.242 1141.88 670.95 1144.93 670.075 1148.75 670.733 1152.46 671.166 1154.43 672.366 1156.17 673.999 1157.27 674.929 1157.89 676.021 1158.18 677.121 1158.18 677.572 1158.18 678.033 1158.12 678.475 1158.03 680.875 1157.27 682.724 1155.19 683.167 1152.68 683.6 1150.4 683.6 1147.99 683.167 1145.7 682.95 1143.08 682.508 1140.02 680.766 1137.62 680.55 1137.41 680.442 1137.19 680.216 1137.08 682.724 1135.34 685.567 1134.14 688.616 1133.59 689.167 1133.48 689.708 1133.43 690.249 1133.43 690.8 1133.43 691.341 1133.48 691.891 1133.59 692.983 1133.81 694.066 1134.36 694.941 1135.01 699.741 1138.07 702.574 1143.52 702.466 1149.3L703.883 1149.3C703.991 1142.98 700.941 1137.19 695.708 1133.81 694.616 1133.05 693.416 1132.5 692.216 1132.28 691.558 1132.17 690.935 1132.12 690.303 1132.12 689.681 1132.12 689.049 1132.17 688.4 1132.28 685.124 1132.83 681.966 1134.14 679.242 1136.1 678.366 1135.34 677.383 1134.68 676.399 1134.25 673.35 1132.74 670.084 1132.01 666.835 1132.01Z" fill="#0E1DA8" fill-rule="evenodd" fill-opacity="1"/><path d="M580.098 1284C579.617 1284 579.145 1284.03 578.654 1284.07 570.162 1284.83 564.009 1292.12 564.796 1300.29L565.684 1309.44C566.526 1317.24 573.233 1323 581.023 1323 581.495 1323 581.976 1322.98 582.457 1322.94 590.848 1322.06 597 1314.77 596.214 1306.61L595.316 1297.56C594.586 1289.77 587.887 1284 580.098 1284Z" fill="#1226DB" fill-rule="evenodd" fill-opacity="1"/><path d="M600.86 1305C599.007 1305 597.2 1305.55 595.641 1306.58 593.281 1308.12 589.835 1309.65 588.757 1313.48 588 1316.43 588.214 1319.49 589.398 1322.33 607.806 1367.93 605.874 1394.93 605.01 1409.8 604.582 1415.05 603.718 1420.19 602.427 1425.33 601.777 1428.06 603.068 1431.12 605.117 1431.57 606.346 1431.86 607.628 1431.99 608.919 1431.99 615.376 1431.99 622.091 1428.61 622.99 1424.24 633 1396.57 629.874 1362.68 624.816 1338.18 623.417 1331.19 617.068 1326.92 614.156 1321.02 611.253 1315.11 610.175 1308 604.146 1305.61 603.068 1305.2 601.955 1305 600.86 1305Z" fill="#5664E1" fill-rule="evenodd" fill-opacity="1"/><path d="M792.875 1190C728.91 1223.39 671.058 1246.66 606 1265.7L613.532 1340.85C682.952 1348.46 743.865 1359.77 810.991 1380L792.875 1190Z" fill="#5664E1" fill-rule="evenodd" fill-opacity="1"/><path d="M794.259 1190C793.988 1190 793.718 1190.02 793.447 1190.05 778.291 1191.47 770.009 1235.42 775.025 1288.13 779.951 1339.88 795.811 1381 810.741 1381 811.012 1381 811.282 1380.98 811.553 1380.95 826.709 1379.53 834.991 1335.58 829.975 1282.87 825.049 1231.11 809.189 1190 794.259 1190Z" fill="#1226DB" fill-rule="evenodd" fill-opacity="1"/><path d="M618.2 1261 615.336 1261.33C592.591 1263.4 576 1283.39 578.2 1306 580.264 1327.15 598.173 1343 619.118 1343 620.445 1343 621.791 1342.94 623.145 1342.8L626 1342.58 618.2 1261Z" fill="#1226DB" fill-rule="evenodd" fill-opacity="1"/><path d="M780.382 1258C779.491 1258 778.601 1258.05 777.701 1258.14 762.324 1259.56 751.009 1273.94 752.545 1290.08 753.999 1305.45 766.459 1316.99 780.809 1316.99 781.636 1316.99 782.463 1316.95 783.299 1316.87 798.794 1315.34 809.991 1301.07 808.455 1284.82 807.01 1269.51 794.741 1258 780.382 1258Z" fill="#23295C" fill-rule="evenodd" fill-opacity="1"/><path d="M793.786 1191.69C793.895 1191.69 794.004 1191.72 794.114 1191.77 808.214 1191.77 823.965 1233.04 828.814 1283.01 831.348 1308.28 830.691 1332.34 827.164 1350.63 823.855 1368.16 818.131 1378.62 811.414 1379.27L810.748 1379.27C796.648 1379.27 780.897 1338 776.048 1287.91 771.199 1237.18 779.129 1193.08 793.448 1191.77 793.567 1191.72 793.676 1191.69 793.786 1191.69ZM794.004 1189.01C793.704 1189.01 793.412 1189.02 793.12 1189.05 776.705 1190.58 768 1234.12 773.296 1288.25 778.363 1341.38 794.661 1381.99 810.748 1381.99 811.076 1381.99 811.414 1381.99 811.632 1381.88 819.781 1381.23 826.17 1370.23 829.807 1351.18 833.335 1332.56 833.991 1308.28 831.566 1282.8 826.38 1229.66 810.028 1189.01 794.004 1189.01Z" fill="#FFFFFF" fill-rule="evenodd" fill-opacity="1"/><path d="M511.32 1443.01C505.293 1443.01 500.217 1447.67 499.896 1453.79L499.448 1460.77C499.009 1467.1 503.875 1472.53 510.177 1472.98 510.378 1472.99 510.588 1473 510.799 1473 516.826 1473 521.902 1468.34 522.222 1462.21L522.671 1455.12C523 1448.79 518.244 1443.36 511.942 1443.02 511.732 1443.01 511.53 1443.01 511.32 1443.01Z" fill="#101C59" fill-rule="evenodd" fill-opacity="1"/><path d="M496.325 1459C495.488 1459 494.652 1459.16 493.842 1459.48 489.32 1461.23 488.457 1466.54 486.196 1470.99 484.051 1475.45 479.209 1478.59 478.132 1483.81 474.261 1502.15 472 1527.45 479.53 1548.29 480.162 1551.49 485.297 1553.99 490.246 1553.99 491.172 1553.99 492.097 1553.91 492.979 1553.72 494.59 1553.28 495.56 1551 495.026 1549.05 494.055 1545.14 493.406 1541.34 493.085 1537.44 492.329 1526.26 490.825 1505.95 504.923 1471.97 505.777 1469.8 505.991 1467.52 505.457 1465.35 504.594 1462.53 502.013 1461.34 500.295 1460.25 499.084 1459.43 497.714 1459 496.325 1459Z" fill="#101C59" fill-rule="evenodd" fill-opacity="1"/><path d="M350.782 1372 337 1516C387.858 1500.6 433.802 1492.07 486.308 1486.28L491.991 1429.36C443.096 1415.16 395.74 1395.93 350.782 1372Z" fill="#5664E1" fill-rule="evenodd" fill-opacity="1"/><path d="M349.778 1372.01C338.51 1372.01 326.566 1402.88 322.819 1441.97 319.009 1481.87 325.215 1514.98 336.645 1515.96 336.835 1515.98 337.033 1515.99 337.222 1515.99 348.49 1515.99 360.551 1485.02 364.19 1446.03 368 1406.13 361.794 1373.02 350.364 1372.04 350.166 1372.02 349.976 1372.01 349.778 1372.01Z" fill="#1226DB" fill-rule="evenodd" fill-opacity="1"/><path d="M482.826 1426 477 1487.63 479.159 1487.85C480.15 1487.95 481.14 1488 482.112 1488 497.592 1488 510.85 1476.01 512.376 1460.04 513.991 1442.97 501.696 1427.87 484.878 1426.23L482.826 1426Z" fill="#FFB127" fill-rule="evenodd" fill-opacity="1"/><path d="M360.161 1424.01C349.466 1424.01 340.214 1432.59 339.094 1443.99 338.009 1456.16 346.346 1466.82 357.839 1467.91 358.476 1467.96 359.103 1468 359.731 1468 370.426 1468 379.57 1459.41 380.7 1448.01 382 1435.84 373.546 1425.19 362.062 1424.1 361.425 1424.04 360.789 1424.01 360.161 1424.01Z" fill="#23295C" fill-rule="evenodd" fill-opacity="1"/><path d="M350.602 1373.55C355.439 1373.98 359.629 1381.81 362.161 1394.88 364.694 1408.59 365.24 1426.66 363.373 1445.7 361.496 1464.76 357.643 1482.39 352.469 1495.44 347.632 1507.56 342.157 1514.28 337.393 1514.28 337.284 1514.28 337.166 1514.28 337.056 1514.27 327.583 1513.4 320.214 1484.23 324.285 1442.11 326.043 1423.06 330.006 1405.43 335.18 1392.38 339.917 1380.4 345.309 1373.66 350.155 1373.66L350.602 1373.55ZM350.01 1371C343.906 1371 337.922 1378.05 332.647 1391.4 327.255 1404.68 323.402 1422.63 321.534 1441.89 318.009 1477.81 322.855 1515.69 336.838 1516.99L337.494 1516.99C343.551 1516.99 349.718 1509.92 355.001 1496.64 360.285 1483.36 364.247 1465.51 366.124 1446.14 367.991 1426.87 367.554 1408.49 364.803 1394.44 362.052 1379.75 357.206 1371.69 350.82 1371.04 350.547 1371.02 350.274 1371 350.01 1371Z" fill="#FFFFFF" fill-rule="evenodd" fill-opacity="1"/><path d="M844.343 1244.01C838.033 1246.92 833.244 1249.19 828.671 1251.35 824.108 1253.62 819.319 1255.89 813.009 1258.8L813.549 1259.99C819.859 1257.08 824.648 1254.81 829.22 1252.64 833.901 1250.38 838.573 1248.11 844.991 1245.19L844.343 1244.01Z" fill="#23295C" fill-rule="evenodd" fill-opacity="1"/><path d="M859.78 1274 819.009 1280.61 819.229 1282 860 1275.28 859.78 1274Z" fill="#23295C" fill-rule="evenodd" fill-opacity="1"/><path d="M820.217 1304 820 1305.31 851.773 1311 852 1309.57 820.217 1304Z" fill="#23295C" fill-rule="evenodd" fill-opacity="1"/><path d="M816.803 1323 816 1324.05C817.607 1325 820.461 1326.68 823.542 1328.47 826.509 1330.26 829.486 1332.05 831.197 1332.99L832 1331.83C830.28 1330.89 827.199 1329.21 824.345 1327.42 821.377 1325.63 818.401 1323.95 816.803 1323Z" fill="#23295C" fill-rule="evenodd" fill-opacity="1"/><path d="M307.549 1396.01 307.009 1397.38C313.319 1400.45 318.108 1402.85 322.671 1405.13 327.244 1407.53 332.033 1409.92 338.451 1413L338.991 1411.75C332.681 1408.67 327.892 1406.16 323.328 1403.88 318.648 1401.48 313.859 1399.08 307.549 1396.01Z" fill="#FFB127" fill-rule="evenodd" fill-opacity="1"/><path d="M292.214 1426.01 292 1427.39 331.777 1433.99 331.991 1432.71 292.214 1426.01Z" fill="#FFB127" fill-rule="evenodd" fill-opacity="1"/><path d="M331.773 1456 300.009 1461.68 300.227 1462.99 331.991 1457.32 331.773 1456Z" fill="#FFB127" fill-rule="evenodd" fill-opacity="1"/><path d="M334.247 1475.01 327.07 1479.42C324.288 1481.21 321.506 1483 320.009 1483.84L320.753 1485 327.823 1480.58 335 1476.05 334.247 1475.01Z" fill="#FFB127" fill-rule="evenodd" fill-opacity="1"/><path d="M821.438 1442.36C825.443 1442.36 828.659 1445.38 828.659 1449.01 828.659 1453.08 825.103 1455.77 821.429 1455.77 819.665 1455.77 817.882 1455.15 816.44 1453.78 811.892 1449.52 815.108 1442.36 821.438 1442.36ZM821.438 1441.01C819.334 1441.01 817.184 1441.75 815.448 1443.4 810 1448.38 813.886 1456.99 821.438 1456.99 826.215 1456.99 829.991 1453.46 829.991 1449.01 829.991 1444.18 825.802 1441.01 821.438 1441.01Z" fill="#23295C" fill-rule="evenodd" fill-opacity="1"/></g></svg>