<svg width="793" height="757" xmlns="http://www.w3.org/2000/svg" xmlns:xlink="http://www.w3.org/1999/xlink" xml:space="preserve" overflow="hidden"><defs><clipPath id="clip0"><rect x="2245" y="847" width="793" height="757"/></clipPath></defs><g clip-path="url(#clip0)" transform="translate(-2245 -847)"><path d="M2299 1545.01C2299 1546.11 2299.88 1546.96 2300.96 1546.96 2301.01 1546.96 2301.07 1546.96 2301.11 1546.96 2308.99 1546.21 2316.87 1545.83 2324.75 1545.83 2343.86 1545.83 2362.93 1548.04 2381.6 1552.38 2384.51 1553 2386.63 1555.57 2386.81 1558.59 2386.81 1561.88 2384.07 1563.12 2381.69 1564.09L2368.47 1569.51C2363.35 1571.55 2364.33 1579.1 2369.79 1579.81L2369.88 1579.81C2377.71 1580.83 2385.57 1581.25 2393.43 1581.25 2428.7 1581.25 2464.28 1572.85 2499.41 1572.85 2505.44 1572.85 2511.46 1573.1 2517.45 1573.68 2521.95 1574.13 2523.89 1579.72 2520.54 1582.83L2520.45 1583.01C2517.72 1585.58 2518.42 1590.11 2521.78 1591.71 2533.06 1597.03 2546.37 1597.74 2558.98 1598.37 2610.33 1600.66 2661.72 1603 2713.07 1603 2737.18 1603 2761.28 1602.48 2785.36 1601.21 2790.03 1601.03 2794.62 1600.14 2798.94 1598.37 2804.05 1595.96 2804.58 1588.87 2799.91 1585.76L2799.73 1585.58C2793.82 1581.67 2796.56 1572.44 2803.61 1572.26L2874.49 1570.76C2881.28 1570.58 2889.57 1569.6 2892.3 1563.29 2893.71 1560.1 2893.26 1556.2 2894.85 1553.08 2897.59 1547.84 2904.55 1547.05 2910.37 1546.96L2998 1545.01Z" fill="#5664E1" fill-rule="evenodd" fill-opacity="1"/><path d="M2368.66 1426C2368.41 1426 2368.16 1426.02 2367.9 1426.06 2366.24 1426.68 2365.02 1427.99 2364.4 1429.58 2362.91 1433.18 2363.53 1437.4 2364.93 1440.91 2366.07 1443.64 2367.56 1446.28 2369.39 1448.65 2369.39 1451.72 2369.57 1454.89 2369.92 1457.96 2367.82 1455.94 2365.98 1453.57 2364.4 1451.11 2362.65 1448.65 2360.11 1445.57 2356.87 1445.48 2356.8 1445.48 2356.73 1445.48 2356.67 1445.48 2353.18 1445.48 2352.78 1449.84 2353.81 1452.43 2355.21 1455.68 2358.53 1457.7 2361.6 1459.28 2364.4 1460.69 2367.29 1461.65 2370.36 1462.27 2370.53 1464.03 2370.71 1465.61 2370.97 1467.28 2371.41 1470.97 2372.02 1474.66 2372.72 1478.26 2369.57 1476.25 2367.21 1472.99 2365.02 1470.09 2363.79 1468.34 2362.39 1466.66 2360.73 1465.26 2359.42 1464.38 2357.87 1463.87 2356.29 1463.87 2355.96 1463.87 2355.62 1463.89 2355.29 1463.94 2351.01 1464.64 2351.88 1470.36 2353.46 1472.99 2355.47 1476.68 2359.32 1478.7 2363.18 1480.2 2366.42 1481.61 2370.01 1482.31 2373.6 1482.39 2374.74 1488.19 2376.23 1493.91 2377.89 1499.62 2377.19 1499.18 2376.49 1498.74 2375.88 1498.3 2374.91 1497.6 2374.04 1496.81 2373.34 1496.02 2372.11 1494.52 2371.14 1492.77 2369.92 1491.36 2368.19 1489.55 2365.75 1487.75 2363.1 1487.75 2362.52 1487.75 2361.93 1487.83 2361.34 1488.02 2358.1 1489.17 2358.28 1493.2 2360.11 1495.4 2361.25 1496.72 2362.56 1497.86 2364.05 1498.74 2365.45 1499.8 2366.94 1500.58 2368.61 1501.2 2370.36 1501.82 2372.2 1502.26 2374.04 1502.44 2374.91 1502.52 2375.88 1502.61 2376.84 1502.61 2377.45 1502.7 2378.15 1502.7 2378.76 1502.7 2379.12 1503.84 2379.47 1505.07 2379.82 1506.21 2380.61 1508.67 2381.48 1511.13 2382.44 1513.5 2380.96 1512.54 2379.55 1511.4 2378.33 1510.08 2377.37 1508.85 2376.31 1507.71 2375.09 1506.74 2374.04 1505.86 2372.72 1505.34 2371.41 1505.24 2371.03 1505.2 2370.66 1505.18 2370.28 1505.18 2369.26 1505.18 2368.24 1505.34 2367.21 1505.59 2364.58 1506.57 2364.4 1510.35 2366.07 1512.28 2367.9 1514.48 2371.06 1515.61 2373.69 1516.32 2376.68 1517.03 2379.75 1517.39 2382.82 1517.39 2383.16 1517.39 2383.5 1517.38 2383.85 1517.37 2383.89 1517.42 2383.93 1517.44 2383.96 1517.44 2384 1517.44 2384.02 1517.42 2384.02 1517.37 2386.03 1521.68 2388.49 1525.72 2391.47 1529.41 2392.78 1531 2394.09 1532.4 2395.58 1533.81 2395.93 1534.16 2396.28 1534.51 2396.72 1534.86L2397.33 1535.39C2397.51 1535.56 2397.68 1535.74 2397.86 1535.92 2397.98 1535.97 2398.11 1535.99 2398.22 1535.99 2398.66 1535.99 2399 1535.63 2399 1535.21 2399 1534.68 2398.82 1534.16 2398.47 1533.72 2398.12 1533.37 2397.77 1532.93 2397.33 1532.66 2396.99 1532.31 2396.63 1531.88 2396.28 1531.53 2395.23 1530.47 2394.27 1529.33 2393.3 1528.27 2392.26 1526.69 2391.29 1525.19 2390.33 1523.62 2389.27 1521.94 2388.31 1520.1 2387.61 1518.25 2386.82 1516.41 2386.03 1514.48 2385.42 1512.54 2384.99 1511.48 2384.64 1510.43 2384.28 1509.29 2383.93 1508.5 2383.76 1507.62 2383.58 1506.74 2387.61 1505.42 2390.59 1501.91 2392.78 1498.3 2393.75 1496.63 2394.53 1494.96 2395.23 1493.12 2396.02 1491.27 2396.28 1489.25 2396.02 1487.23 2395.42 1484.62 2393.19 1481.26 2390.39 1481.26 2389.89 1481.26 2389.37 1481.37 2388.84 1481.61 2385.42 1483.18 2384.28 1487.84 2384.02 1491.27 2383.76 1493.47 2383.85 1495.67 2383.67 1497.86 2383.58 1499.97 2383.14 1502.08 2382.36 1504.01 2380.61 1497.95 2378.94 1491.89 2377.63 1485.74L2377.63 1485.47 2377.72 1485.39C2377.89 1485.56 2378.15 1485.74 2378.41 1485.74 2380.69 1485.21 2382.97 1483.36 2384.64 1481.78 2386.47 1479.93 2388.05 1477.91 2389.45 1475.72 2390.76 1473.78 2391.82 1471.67 2392.61 1469.48 2393.48 1467.46 2393.83 1465.17 2393.48 1462.88 2393.13 1461.04 2391.9 1459.37 2390.24 1458.49 2389.4 1458.07 2388.37 1457.75 2387.39 1457.75 2386.52 1457.75 2385.69 1458 2385.07 1458.67 2383.58 1460.25 2382.44 1462.18 2381.65 1464.21 2380.87 1466.58 2380.43 1468.95 2380.52 1471.41 2380.52 1473.96 2380.34 1476.5 2379.99 1479.05 2379.55 1481.08 2378.68 1483.01 2377.37 1484.59 2375.96 1478.44 2374.91 1472.12 2374.21 1465.87 2374.13 1465.26 2374.04 1464.73 2374.04 1464.21 2377.19 1462.8 2379.29 1459.9 2381.04 1457.08 2382.79 1454.27 2384.46 1450.84 2384.2 1447.42 2384.03 1445.03 2382.19 1441.74 2379.46 1441.74 2379.26 1441.74 2379.06 1441.76 2378.86 1441.79 2377.45 1442.15 2376.4 1443.28 2376.05 1444.69 2375.62 1446.36 2375.52 1448.03 2375.62 1449.7 2375.62 1451.72 2375.44 1453.74 2375.09 1455.77 2374.91 1457.35 2374.39 1458.84 2373.69 1460.25 2373.42 1457.26 2373.25 1454.27 2373.16 1451.29 2373.25 1450.76 2373.42 1450.31 2373.42 1449.79 2373.69 1448.56 2373.86 1447.42 2373.95 1446.18 2374.21 1443.81 2374.39 1441.53 2374.48 1439.15 2374.56 1437.14 2374.48 1435.11 2374.13 1433.09 2373.95 1431.16 2373.25 1429.4 2372.2 1427.82 2371.38 1426.63 2370.06 1426 2368.66 1426Z" fill="#1226DB" fill-rule="evenodd" fill-opacity="1"/><path d="M2343.18 1466.01C2343.1 1466.01 2343.02 1466.01 2342.94 1466.03 2342.15 1466.21 2341.62 1467.09 2341.27 1467.71 2340.47 1469.2 2340.21 1470.87 2340.38 1472.55 2340.47 1473.61 2340.74 1474.57 2341.09 1475.54 2341.27 1476.16 2341.53 1476.87 2341.97 1477.48 2341.88 1477.65 2341.8 1477.83 2341.8 1477.92 2341.7 1478.18 2341.97 1478.45 2342.23 1478.45 2342.23 1479.42 2342.32 1480.39 2342.5 1481.36L2342.15 1480.92C2341.53 1480.04 2340.82 1479.16 2340.29 1478.45 2339.77 1477.83 2339.15 1477.13 2338.53 1476.52 2338.09 1475.89 2337.47 1475.63 2336.76 1475.54 2335.01 1475.72 2335.36 1478.01 2335.8 1479.24 2336.86 1482.15 2339.5 1484.09 2342.68 1484.35 2342.77 1484.44 2342.85 1484.53 2342.94 1484.53 2343.3 1486.29 2343.82 1488.05 2344.35 1489.81 2344 1489.46 2343.65 1489.2 2343.3 1488.93 2342.5 1488.32 2341.8 1487.7 2341.09 1487.08 2340.29 1486.46 2339.41 1485.94 2338.53 1485.5 2338.13 1485.37 2337.65 1485.23 2337.18 1485.23 2336.72 1485.23 2336.28 1485.37 2335.97 1485.76 2335.36 1486.46 2335.97 1487.44 2336.41 1488.05 2337.56 1489.72 2338.97 1491.13 2340.65 1492.19 2342.41 1493.34 2344.35 1494.22 2346.38 1494.92 2347.53 1497.39 2348.85 1499.86 2350.35 1502.15L2349.47 1501.52C2348.41 1500.74 2347.35 1499.94 2346.11 1499.33 2344.97 1498.71 2343.82 1498.27 2342.68 1497.92 2341.44 1497.48 2340.29 1497.21 2339.06 1497.13 2337.91 1497.13 2337.03 1498.01 2337.03 1499.15 2337.21 1500.21 2337.74 1501.17 2338.62 1501.88 2340.29 1503.38 2342.32 1504.43 2344.53 1504.79 2345.9 1504.97 2347.27 1505.06 2348.64 1505.06 2349.83 1505.06 2351.01 1505 2352.2 1504.88L2352.99 1505.93C2354.76 1508.22 2356.52 1510.51 2358.46 1512.71 2357.4 1512.27 2356.35 1511.83 2355.29 1511.48 2353.97 1511.04 2352.73 1510.78 2351.41 1510.69 2351.12 1510.65 2350.82 1510.62 2350.52 1510.62 2349.56 1510.62 2348.6 1510.86 2347.79 1511.39 2345.58 1513.15 2348.85 1515.27 2350.35 1516.15 2352.85 1517.51 2355.64 1518.26 2358.47 1518.26 2360.04 1518.26 2361.6 1518.03 2363.14 1517.56 2364.46 1518.97 2365.96 1520.2 2367.37 1521.52 2366.93 1521.43 2366.4 1521.35 2365.87 1521.26 2364.77 1521.13 2363.67 1521.05 2362.58 1521.05 2362.18 1521.05 2361.77 1521.06 2361.37 1521.08 2360.05 1521.08 2358.73 1521.17 2357.4 1521.43 2356.26 1521.52 2355.2 1522.23 2354.58 1523.28 2353.52 1525.49 2355.29 1527.6 2357.32 1528.39 2358.2 1528.65 2359.12 1528.78 2360.05 1528.78 2361.37 1528.78 2362.69 1528.52 2363.93 1527.95 2366.31 1526.9 2368.6 1525.66 2370.81 1524.34 2371.69 1525.04 2372.57 1525.75 2373.54 1526.37 2375.49 1527.78 2377.51 1529.18 2379.54 1530.42 2381.57 1531.74 2383.69 1532.97 2385.89 1533.94 2385.99 1533.98 2386.09 1534 2386.19 1534 2387.03 1534 2388 1532.83 2387.21 1532.36 2386.07 1531.65 2384.83 1531.04 2383.69 1530.33 2382.45 1529.71 2381.3 1529.01 2380.25 1528.3 2378.83 1527.42 2377.42 1526.45 2376.1 1525.57 2376.81 1523.11 2377.16 1520.55 2377.07 1518.09 2376.9 1515.97 2376.54 1513.68 2375.22 1512.01 2374.83 1511.46 2374.24 1511.18 2373.64 1511.18 2373.27 1511.18 2372.9 1511.28 2372.57 1511.48 2371.69 1512.01 2371.08 1512.98 2370.98 1514.12 2370.72 1516.5 2371.08 1518.88 2371.96 1521.08 2372.22 1521.78 2372.49 1522.49 2372.84 1523.11 2370.63 1521.43 2368.43 1519.59 2366.4 1517.73 2366.58 1517.65 2366.67 1517.56 2366.75 1517.47 2368.34 1515.45 2369.05 1512.98 2368.78 1510.51 2368.78 1509.28 2368.69 1508.13 2368.52 1506.9 2368.43 1505.84 2368.08 1504.79 2367.55 1503.82 2367.14 1503.25 2366.51 1502.3 2365.57 1502.3 2365.5 1502.3 2365.42 1502.31 2365.34 1502.32 2364.28 1502.5 2363.84 1503.64 2363.58 1504.43 2362.87 1506.55 2362.69 1508.84 2363.05 1511.04 2363.22 1512.54 2363.58 1514.04 2364.11 1515.45 2362.26 1513.68 2360.49 1511.74 2358.81 1509.81 2359.96 1508.49 2360.76 1506.9 2361.11 1505.14 2361.55 1503.03 2361.64 1500.91 2361.37 1498.88 2361.29 1498.18 2361.46 1496.77 2360.49 1496.68 2359.61 1496.68 2358.81 1497.13 2358.28 1497.74 2357.14 1499.15 2356.52 1500.82 2356.52 1502.67 2356.35 1504.26 2356.43 1505.84 2356.78 1507.43 2355.64 1505.93 2354.5 1504.43 2353.44 1503.03 2352.47 1501.62 2351.49 1500.12 2350.52 1498.62 2350.61 1498.53 2350.7 1498.44 2350.7 1498.36 2351.32 1497.65 2352.2 1497.39 2352.82 1496.68 2353.35 1495.8 2353.79 1494.92 2353.97 1493.95 2354.32 1492.98 2354.58 1491.93 2354.67 1490.87 2354.76 1490.25 2355.11 1488.76 2354.32 1488.49 2354.24 1488.47 2354.16 1488.47 2354.08 1488.47 2353.36 1488.47 2352.59 1489.16 2352.12 1489.64 2351.32 1490.34 2350.7 1491.13 2350.26 1492.1 2349.64 1493.51 2349.29 1495.01 2349.29 1496.5 2347.79 1493.95 2346.56 1491.31 2345.5 1488.58 2345.68 1488.4 2345.85 1488.32 2345.94 1488.32 2346.47 1488.05 2347 1487.79 2347.35 1487.34 2348.14 1486.29 2348.76 1485.15 2349.11 1483.91 2349.38 1483.3 2349.47 1482.59 2349.56 1481.89 2349.64 1481.27 2349.56 1480.74 2349.29 1480.21 2349.17 1480.06 2349.02 1480 2348.85 1480 2348.13 1480 2347.09 1481.09 2346.73 1481.44 2345.58 1482.5 2344.79 1483.91 2344.53 1485.5 2343.73 1483.03 2343.2 1480.56 2342.85 1478.01 2342.94 1477.92 2342.94 1477.92 2342.94 1477.83 2343.38 1476.95 2344 1476.16 2344.35 1475.1 2344.7 1474.22 2344.88 1473.26 2344.97 1472.38 2345.15 1470.61 2344.97 1468.85 2344.35 1467.18 2344.2 1466.62 2343.83 1466.01 2343.18 1466.01Z" fill="#07105C" fill-rule="evenodd" fill-opacity="1"/><path d="M2731.57 1426.01C2731.34 1426.01 2731.11 1426.02 2730.88 1426.06 2729.3 1426.68 2727.99 1427.99 2727.47 1429.57 2725.98 1433.17 2726.51 1437.39 2727.9 1440.9 2729.04 1443.71 2730.52 1446.25 2732.36 1448.63 2732.45 1451.7 2732.63 1454.86 2732.89 1458.02 2730.79 1455.92 2728.95 1453.54 2727.38 1451.09 2725.63 1448.63 2723.1 1445.55 2719.86 1445.47 2719.79 1445.46 2719.72 1445.46 2719.65 1445.46 2716.18 1445.46 2715.77 1449.82 2716.81 1452.4 2718.2 1455.74 2721.53 1457.67 2724.58 1459.26 2727.38 1460.66 2730.27 1461.63 2733.32 1462.24 2733.5 1464 2733.67 1465.66 2733.93 1467.33 2734.38 1470.93 2734.99 1474.62 2735.68 1478.31 2732.53 1476.2 2730.18 1472.95 2727.99 1470.05 2726.77 1468.3 2725.37 1466.72 2723.71 1465.31 2722.4 1464.37 2720.85 1463.84 2719.27 1463.84 2718.94 1463.84 2718.62 1463.86 2718.29 1463.91 2714.01 1464.61 2714.88 1470.32 2716.45 1472.95 2718.46 1476.64 2722.31 1478.66 2726.16 1480.16 2729.39 1481.56 2732.98 1482.26 2736.56 1482.35 2737.78 1488.15 2739.18 1493.85 2740.84 1499.56 2740.14 1499.12 2739.44 1498.68 2738.83 1498.24 2737.87 1497.54 2737.08 1496.84 2736.29 1495.96 2734.99 1494.47 2734.11 1492.71 2732.8 1491.31 2731.15 1489.5 2728.73 1487.7 2726.07 1487.7 2725.5 1487.7 2724.91 1487.78 2724.32 1487.97 2721 1489.02 2721.26 1493.15 2723.1 1495.34 2724.23 1496.66 2725.54 1497.81 2727.03 1498.77 2728.43 1499.73 2730 1500.53 2731.58 1501.14 2733.32 1501.76 2735.16 1502.2 2737 1502.37 2737.96 1502.46 2738.83 1502.55 2739.79 1502.55 2740.29 1502.61 2740.74 1502.67 2741.17 1502.67 2741.36 1502.67 2741.53 1502.66 2741.72 1502.63 2742.07 1503.78 2742.41 1505 2742.85 1506.15 2743.64 1508.61 2744.43 1511.07 2745.38 1513.44 2743.9 1512.47 2742.5 1511.33 2741.28 1510.01 2740.32 1508.78 2739.27 1507.64 2738.13 1506.67 2737 1505.88 2735.77 1505.36 2734.38 1505.27 2734.02 1505.22 2733.67 1505.2 2733.3 1505.2 2732.31 1505.2 2731.29 1505.37 2730.27 1505.62 2727.64 1506.59 2727.47 1510.37 2729.04 1512.29 2730.88 1514.49 2734.02 1515.63 2736.73 1516.33 2739.72 1517.05 2742.78 1517.4 2745.79 1517.4 2746.12 1517.4 2746.45 1517.4 2746.78 1517.39 2746.83 1517.43 2746.87 1517.45 2746.91 1517.45 2746.96 1517.45 2747 1517.43 2747.05 1517.39 2748.97 1521.69 2751.5 1525.73 2754.47 1529.42 2755.7 1531 2757.1 1532.41 2758.58 1533.81 2758.94 1534.16 2759.29 1534.51 2759.63 1534.86L2760.25 1535.39C2760.42 1535.56 2760.69 1535.74 2760.86 1535.92 2760.99 1535.97 2761.1 1535.99 2761.21 1535.99 2761.63 1535.99 2761.91 1535.63 2761.91 1535.21 2761.99 1534.69 2761.82 1534.16 2761.38 1533.72 2761.12 1533.37 2760.69 1532.93 2760.33 1532.67 2759.98 1532.31 2759.63 1531.88 2759.2 1531.53 2758.23 1530.47 2757.19 1529.33 2756.22 1528.28 2755.18 1526.7 2754.21 1525.2 2753.25 1523.62 2752.21 1521.95 2751.33 1520.11 2750.54 1518.26 2749.76 1516.42 2749.06 1514.49 2748.36 1512.56 2748.01 1511.5 2747.66 1510.45 2747.31 1509.31 2746.96 1508.52 2746.7 1507.64 2746.61 1506.76 2750.63 1505.45 2753.52 1501.93 2755.7 1498.33 2756.66 1496.66 2757.54 1494.99 2758.15 1493.15 2759.02 1491.31 2759.29 1489.29 2758.94 1487.27 2758.42 1484.66 2756.2 1481.3 2753.41 1481.3 2752.9 1481.3 2752.38 1481.41 2751.85 1481.65 2748.36 1483.23 2747.31 1487.88 2747.05 1491.31 2746.78 1493.5 2746.78 1495.7 2746.7 1497.89 2746.61 1500 2746.17 1502.11 2745.38 1504.04 2743.64 1497.98 2741.98 1491.92 2740.58 1485.77 2740.58 1485.69 2740.58 1485.6 2740.58 1485.51L2740.67 1485.42C2740.84 1485.6 2741.11 1485.77 2741.37 1485.77 2743.64 1485.25 2745.91 1483.4 2747.66 1481.82 2749.41 1479.98 2750.98 1477.96 2752.38 1475.76 2753.69 1473.83 2754.74 1471.72 2755.61 1469.53 2756.49 1467.42 2756.75 1465.14 2756.4 1462.94 2756.05 1461.01 2754.83 1459.43 2753.17 1458.55 2752.34 1458.08 2751.3 1457.77 2750.32 1457.77 2749.46 1457.77 2748.62 1458.02 2748.01 1458.64 2746.52 1460.31 2745.38 1462.15 2744.6 1464.26 2743.81 1466.54 2743.47 1469 2743.47 1471.37 2743.47 1473.92 2743.29 1476.46 2742.94 1479.01 2742.5 1481.03 2741.63 1482.96 2740.32 1484.63 2739 1478.4 2737.96 1472.17 2737.17 1465.84 2737.08 1465.23 2737.08 1464.7 2737 1464.17 2740.14 1462.77 2742.24 1459.96 2743.98 1457.06 2745.73 1454.25 2747.4 1450.82 2747.13 1447.4 2746.97 1445.02 2745.13 1441.73 2742.4 1441.73 2742.21 1441.73 2742 1441.74 2741.8 1441.78 2740.4 1442.22 2739.36 1443.27 2739 1444.76 2738.65 1446.35 2738.48 1448.01 2738.57 1449.77 2738.65 1451.7 2738.39 1453.72 2738.04 1455.74 2737.87 1457.32 2737.35 1458.81 2736.64 1460.22 2736.38 1457.24 2736.21 1454.25 2736.12 1451.26 2736.21 1450.82 2736.38 1450.3 2736.38 1449.77 2736.64 1448.54 2736.82 1447.4 2736.91 1446.17 2737.17 1443.88 2737.35 1441.51 2737.43 1439.23 2737.52 1437.12 2737.43 1435.1 2737.08 1433.09 2736.91 1431.24 2736.21 1429.4 2735.16 1427.82 2734.33 1426.68 2732.99 1426.01 2731.57 1426.01Z" fill="#1226DB" fill-rule="evenodd" fill-opacity="1"/><path d="M2706.18 1466.01C2706.1 1466.01 2706.02 1466.01 2705.94 1466.03 2705.15 1466.21 2704.62 1467.09 2704.27 1467.71 2703.47 1469.29 2703.2 1470.97 2703.38 1472.56 2703.56 1473.62 2703.73 1474.59 2704.09 1475.56 2704.27 1476.26 2704.62 1476.88 2704.97 1477.5 2704.88 1477.68 2704.8 1477.85 2704.8 1477.94 2704.7 1478.21 2704.97 1478.47 2705.23 1478.47 2705.33 1479.44 2705.41 1480.41 2705.5 1481.38L2705.15 1480.94C2704.62 1480.06 2703.82 1479.17 2703.3 1478.47 2702.77 1477.85 2702.15 1477.15 2701.62 1476.53 2701.18 1476 2700.47 1475.65 2699.77 1475.56 2698.01 1475.73 2698.36 1478.03 2698.8 1479.26 2699.94 1482.09 2702.59 1484.02 2705.68 1484.29 2705.76 1484.37 2705.85 1484.37 2706.03 1484.37 2706.38 1486.23 2706.82 1487.99 2707.35 1489.67 2707 1489.41 2706.65 1489.14 2706.29 1488.88 2705.5 1488.26 2704.8 1487.64 2704.09 1487.02 2703.3 1486.32 2702.5 1485.79 2701.53 1485.43 2701.11 1485.3 2700.61 1485.16 2700.13 1485.16 2699.68 1485.16 2699.27 1485.27 2698.97 1485.61 2698.36 1486.4 2698.97 1487.29 2699.42 1487.99 2700.56 1489.67 2701.97 1491.08 2703.65 1492.14 2705.41 1493.29 2707.35 1494.17 2709.38 1494.79 2710.52 1497.34 2711.85 1499.72 2713.35 1502.11L2712.55 1501.48C2711.41 1500.6 2710.35 1499.9 2709.11 1499.28 2708.06 1498.66 2706.91 1498.22 2705.68 1497.87 2704.53 1497.43 2703.3 1497.17 2702.15 1497.08 2701 1497.08 2700.03 1497.96 2700.03 1499.1 2700.21 1500.16 2700.82 1501.22 2701.62 1501.93 2703.3 1503.43 2705.33 1504.39 2707.53 1504.75 2708.96 1504.95 2710.4 1505.06 2711.85 1505.06 2712.98 1505.06 2714.12 1504.99 2715.28 1504.84L2715.99 1505.89C2717.76 1508.27 2719.52 1510.57 2721.46 1512.78 2720.4 1512.25 2719.34 1511.8 2718.28 1511.45 2717.05 1511.01 2715.73 1510.75 2714.4 1510.66 2714.15 1510.62 2713.9 1510.61 2713.65 1510.61 2712.67 1510.61 2711.7 1510.87 2710.79 1511.36 2708.59 1513.13 2711.85 1515.33 2713.35 1516.13 2715.86 1517.55 2718.66 1518.28 2721.5 1518.28 2723.05 1518.28 2724.61 1518.06 2726.13 1517.62 2727.54 1518.95 2728.96 1520.27 2730.45 1521.5 2729.92 1521.42 2729.39 1521.33 2728.86 1521.24 2727.36 1521.15 2725.87 1521.07 2724.45 1521.07 2723.05 1521.07 2721.72 1521.24 2720.4 1521.42 2719.26 1521.6 2718.19 1522.21 2717.66 1523.27 2716.52 1525.48 2718.28 1527.59 2720.31 1528.39 2721.17 1528.67 2722.09 1528.81 2723 1528.81 2724.33 1528.81 2725.67 1528.52 2726.93 1527.94 2729.31 1526.89 2731.6 1525.74 2733.8 1524.33 2734.68 1525.03 2735.57 1525.74 2736.53 1526.36 2738.48 1527.77 2740.42 1529.18 2742.53 1530.41 2744.56 1531.74 2746.68 1532.97 2748.97 1533.94 2749.06 1533.98 2749.15 1534 2749.24 1534 2750.03 1534 2751 1532.83 2750.29 1532.35 2749.14 1531.65 2747.91 1531.12 2746.76 1530.41 2745.62 1529.71 2744.38 1529.09 2743.32 1528.39 2741.92 1527.51 2740.5 1526.53 2739.18 1525.56 2739.97 1523.18 2740.33 1520.62 2740.15 1518.07 2740.24 1515.95 2739.54 1513.83 2738.3 1512.07 2737.9 1511.56 2737.32 1511.27 2736.72 1511.27 2736.39 1511.27 2736.05 1511.35 2735.74 1511.54 2734.77 1512.07 2734.15 1513.04 2734.07 1514.18 2733.89 1516.57 2734.25 1518.95 2735.13 1521.24 2735.39 1521.86 2735.65 1522.57 2735.92 1523.18 2733.72 1521.5 2731.6 1519.65 2729.48 1517.8 2729.66 1517.71 2729.84 1517.62 2729.92 1517.54 2731.42 1515.6 2732.22 1513.13 2731.95 1510.66 2731.95 1509.42 2731.77 1508.19 2731.69 1506.95 2731.6 1505.89 2731.24 1504.84 2730.72 1503.96 2730.21 1503.28 2729.54 1502.37 2728.63 1502.37 2728.6 1502.37 2728.55 1502.37 2728.51 1502.37 2727.46 1502.54 2727.01 1503.69 2726.66 1504.49 2726.04 1506.69 2725.78 1508.9 2726.13 1511.1 2726.4 1512.6 2726.75 1514.1 2727.28 1515.51 2725.43 1513.75 2723.66 1511.89 2721.99 1509.95 2723.13 1508.54 2723.93 1506.95 2724.28 1505.19 2724.63 1503.16 2724.72 1501.05 2724.55 1498.93 2724.45 1498.22 2724.55 1496.9 2723.57 1496.72 2722.69 1496.72 2721.9 1497.17 2721.37 1497.87 2720.31 1499.2 2719.69 1500.96 2719.61 1502.72 2719.52 1504.31 2719.61 1505.89 2719.87 1507.48 2718.81 1506.07 2717.66 1504.57 2716.61 1503.07 2715.55 1501.66 2714.58 1500.16 2713.7 1498.58 2713.7 1498.58 2713.79 1498.49 2713.88 1498.4 2714.4 1497.7 2715.28 1497.43 2715.9 1496.72 2716.43 1495.84 2716.88 1494.96 2717.14 1493.99 2717.41 1493.02 2717.66 1491.96 2717.84 1490.91 2717.93 1490.28 2718.19 1488.78 2717.41 1488.52 2717.33 1488.51 2717.25 1488.49 2717.17 1488.49 2716.44 1488.49 2715.68 1489.19 2715.2 1489.67 2714.5 1490.38 2713.88 1491.16 2713.43 1492.14 2712.73 1493.46 2712.37 1494.96 2712.37 1496.55 2710.97 1493.99 2709.64 1491.26 2708.59 1488.52 2708.85 1488.43 2709.03 1488.35 2709.11 1488.35 2709.64 1488.08 2710.09 1487.73 2710.44 1487.38 2711.23 1486.32 2711.85 1485.17 2712.2 1483.94 2712.47 1483.23 2712.55 1482.61 2712.55 1481.91 2712.64 1481.29 2712.55 1480.76 2712.29 1480.23 2712.17 1480.08 2712.02 1480.01 2711.84 1480.01 2711.13 1480.01 2710.09 1481.11 2709.73 1481.47 2708.59 1482.52 2707.79 1483.94 2707.53 1485.52 2706.73 1483.05 2706.21 1480.59 2705.85 1478.03 2705.94 1478.03 2705.94 1477.94 2705.94 1477.94 2706.38 1476.97 2707 1476.18 2707.35 1475.12 2707.71 1474.23 2707.88 1473.35 2707.97 1472.38 2708.14 1470.62 2707.97 1468.86 2707.44 1467.18 2707.2 1466.63 2706.82 1466.01 2706.18 1466.01Z" fill="#07105C" fill-rule="evenodd" fill-opacity="1"/><path d="M2929.99 1156 2828.72 1175.72 2849.08 1195.98 2738.9 1305.95 2671.38 1238.51 2630.75 1279.09 2630.84 1279.09 2365 1545 2445.74 1545 2671.38 1319.6 2738.9 1387.04 2738.9 1386.95 2738.99 1387.04 2889.63 1236.57 2909.63 1256.46 2929.99 1156Z" fill="#5664E1" fill-rule="evenodd" fill-opacity="1"/><path d="M2754.83 1290.01 2738 1306.52 2776 1344 2754.83 1290.01Z" fill="#1226DB" fill-rule="evenodd" fill-opacity="1"/><path d="M2641 1286 2656 1335 2670.99 1320.07 2641 1286Z" fill="#0897A7" fill-rule="evenodd" fill-opacity="1"/><path d="M2850.58 1432.01C2849.86 1432.01 2849.14 1432.02 2848.42 1432.04 2822.8 1432.83 2799.29 1447.89 2782.95 1467.51 2766.6 1487.2 2752.11 1521.18 2743.01 1544.99L2999 1544.99C2998.86 1528.79 2985.44 1517.12 2970.67 1517.12 2966.28 1517.12 2961.78 1518.15 2957.47 1520.39 2956.5 1509.53 2951.99 1498.15 2942.62 1492.64 2938.3 1490.11 2933.32 1489.01 2928.29 1489.01 2924.06 1489.01 2919.8 1489.79 2915.85 1491.14 2907.1 1494.03 2899.41 1499.38 2891.9 1504.72 2896.5 1483.62 2898.44 1458.57 2882.89 1443.6 2874.48 1435.43 2862.38 1432.01 2850.58 1432.01Z" fill="#1226DB" fill-rule="evenodd" fill-opacity="1"/><path d="M2868.2 1364.01 2804.34 1371.22 2796.33 1471.11C2796.24 1472.96 2796.24 1474.89 2796.33 1476.74L2803.2 1565.28C2803.2 1565.28 2803.73 1565.37 2804.7 1565.46 2804.17 1567.3 2801 1569.33 2798.8 1570.56L2785.32 1578.57C2784 1579.71 2784.53 1581.92 2786.29 1582.35 2787.92 1582.82 2789.57 1582.99 2791.21 1582.99 2797.57 1582.99 2803.72 1580.23 2807.66 1580.23 2808.73 1580.23 2809.64 1580.43 2810.34 1580.94 2811.16 1581.54 2811.9 1581.71 2812.65 1581.71 2813.36 1581.71 2814.06 1581.56 2814.83 1581.47 2816.59 1581.39 2817.91 1579.71 2817.65 1577.95 2817.12 1573.9 2816.94 1569.77 2817.03 1565.63 2817.82 1565.54 2818.52 1565.46 2819.15 1565.28L2824.6 1474.89 2837.11 1409.24 2849.18 1469.71C2849.62 1471.55 2850.15 1473.31 2850.76 1475.07L2881.68 1558.33C2881.68 1558.33 2882.21 1558.24 2883.09 1558.07L2883.17 1558.5C2883.61 1560.35 2880.97 1563.61 2879.12 1565.46L2868.46 1577.07C2867.53 1578.43 2868.55 1580.34 2870.19 1580.34 2870.26 1580.34 2870.33 1580.33 2870.4 1580.33 2879.77 1580.25 2887.26 1571.88 2891.95 1571.88 2892.33 1571.88 2892.69 1571.94 2893.03 1572.06 2893.55 1572.24 2894 1572.32 2894.42 1572.32 2895.57 1572.32 2896.43 1571.74 2897.53 1571.35 2899.2 1570.65 2899.99 1568.71 2899.2 1567.13 2897.53 1563.17 2896.03 1559.12 2894.97 1554.9 2895.68 1554.63 2896.38 1554.28 2897.09 1553.93L2877.36 1465.57 2868.2 1364.01Z" fill="#07105C" fill-rule="evenodd" fill-opacity="1"/><path d="M2834.06 1345.01 2804.51 1371.02 2803.01 1389.46C2810.9 1393.51 2827.05 1404.36 2833.79 1427.99L2844 1374.55 2834.06 1345.01Z" fill="#000000" fill-rule="evenodd" fill-opacity="1"/><path d="M2840.56 1276C2833.03 1276 2825.79 1278.95 2820.38 1284.27 2814.03 1290.43 2809.97 1298.97 2807.68 1307.85 2805.3 1316.73 2804.59 1326.06 2804.06 1335.29 2803.35 1348.84 2803 1362.39 2803.27 1375.93 2803.18 1378.14 2803.35 1380.42 2803.88 1382.62 2803.88 1382.62 2817.25 1391 2839.76 1391 2848.27 1391 2858.1 1389.8 2869 1386.49 2869 1386.4 2890 1281.72 2843.76 1276.18 2842.7 1276.06 2841.62 1276 2840.56 1276Z" fill="#FFB127" fill-rule="evenodd" fill-opacity="1"/><path d="M2821.76 1234.01C2820.45 1234.01 2819.14 1234.27 2817.92 1234.79 2815.48 1235.92 2814 1238.44 2814.18 1241.14 2814.52 1243.15 2815.74 1244.89 2817.66 1245.84 2818.8 1246.28 2820.01 1246.89 2821.06 1247.68 2822.37 1248.98 2822.54 1250.98 2822.71 1252.81 2822.98 1254.64 2823.42 1256.73 2825.07 1257.6L2844.24 1262.99C2850.25 1260.21 2854 1254.2 2853.82 1247.58 2853.74 1245.23 2852.87 1242.62 2850.69 1241.75 2849.9 1241.41 2849.03 1241.37 2848.16 1241.37 2847.9 1241.37 2847.64 1241.37 2847.38 1241.37 2846.97 1241.37 2846.55 1241.37 2846.16 1241.32 2845.46 1241.23 2844.85 1240.97 2844.41 1240.53 2844.06 1240.01 2843.71 1239.58 2843.54 1238.97 2842.49 1237.05 2840.67 1235.75 2838.49 1235.49 2838.21 1235.45 2837.93 1235.44 2837.66 1235.44 2835.41 1235.44 2833.21 1236.43 2830.96 1236.43 2830.62 1236.43 2830.29 1236.41 2829.95 1236.36 2828.47 1236.01 2826.99 1235.4 2825.59 1234.79 2824.37 1234.27 2823.06 1234.01 2821.76 1234.01Z" fill="#07105C" fill-rule="evenodd" fill-opacity="1"/><path d="M2859.59 1283 2847.01 1303.42C2847.01 1303.42 2861.9 1323.21 2870.24 1339.17 2874.93 1348.06 2882.22 1351.99 2889.55 1351.99 2897.74 1351.99 2905.99 1347.1 2910.76 1338.72 2919.71 1322.94 2930 1302.44 2930 1302.44L2917.41 1296.73 2898.52 1323.39C2897.64 1324.68 2896.22 1325.33 2894.8 1325.33 2893.38 1325.33 2891.96 1324.68 2891.07 1323.39 2883.45 1312.42 2866.15 1288.08 2859.59 1283Z" fill="#FFB127" fill-rule="evenodd" fill-opacity="1"/><path d="M2842.71 1245.01C2836.32 1248.31 2829.24 1248.8 2825.63 1248.8 2824.13 1248.8 2823.23 1248.71 2823.23 1248.71L2822.61 1262.49C2822 1267.44 2824.9 1272.12 2829.46 1273.71 2829.64 1273.8 2829.72 1273.8 2829.9 1273.89L2831.04 1282.72C2831.13 1283.96 2831.65 1285.19 2832.35 1286.25 2833.94 1288.7 2836.59 1290 2839.28 1290 2841.06 1290 2842.85 1289.44 2844.38 1288.28L2845.78 1287.13C2848.77 1285.02 2850.09 1281.22 2849.21 1277.6L2845.96 1265.14C2845.96 1265.14 2849.74 1264.35 2850.52 1260.99 2851 1258.66 2849.82 1256.25 2847.85 1256.25 2846.9 1256.25 2845.78 1256.8 2844.56 1258.16 2843.5 1255.07 2843.59 1251.72 2844.73 1248.63 2844.18 1249.03 2843.52 1249.22 2842.93 1249.22 2841.16 1249.22 2839.83 1247.58 2842.71 1245.01Z" fill="#F792A4" fill-rule="evenodd" fill-opacity="1"/><path d="M2841 1269 2841 1269C2837.99 1272.98 2833.7 1273.55 2831.47 1273.55 2830.57 1273.55 2830 1273.45 2830 1273.45L2830.27 1275.92C2830.73 1275.97 2831.17 1276 2831.6 1276 2838.67 1276 2840.99 1269 2841 1269Z" fill="#E9697A" fill-rule="evenodd" fill-opacity="1"/><path d="M2828.99 1281.01 2828.99 1281.01C2823.21 1282.67 2818.21 1286.54 2814.17 1291.11 2810.14 1295.68 2806.71 1300.77 2804 1306.22 2798.83 1316.76 2793.56 1328.1 2791.89 1331.88 2791.45 1332.84 2791.02 1333.72 2790.58 1334.52 2785.84 1342.86 2777.77 1348.84 2769 1352.61 2759.7 1356.57 2749.7 1358.33 2739.79 1360.08 2739.18 1364.3 2739.01 1368.69 2739.53 1373 2739.53 1373 2759.79 1372.65 2770.67 1370.19 2776.02 1369.04 2781.28 1367.55 2786.45 1365.71 2799.96 1360.7 2812.16 1352.53 2821.98 1341.9L2828.99 1281.01Z" fill="#FFB127" fill-rule="evenodd" fill-opacity="1"/><path d="M2940.57 1267C2940.12 1267 2939.69 1267.18 2939.42 1267.53L2929.21 1280.31 2927.45 1275.15C2927.45 1275.15 2926.92 1273.31 2925.43 1273.31 2923.93 1273.31 2924.19 1274.44 2924.19 1274.44 2924.99 1278.39 2925.17 1282.33 2924.81 1286.36 2924.72 1287.06 2924.46 1287.85 2924.02 1288.46L2919.01 1295.21 2929.83 1300.99 2932.2 1295.47C2932.91 1293.98 2934.14 1292.94 2935.72 1292.5 2940.21 1291.18 2942.41 1287.42 2943.47 1285.05 2943.99 1283.82 2943.64 1282.51 2942.59 1281.72L2937.13 1277.69 2941.88 1269.37C2941.98 1269.19 2942.06 1268.93 2942.06 1268.67L2942.06 1268.57C2942.15 1267.7 2941.45 1267 2940.57 1267Z" fill="#F792A4" fill-rule="evenodd" fill-opacity="1"/><path d="M2919.65 1292 2916 1297.15 2930.33 1304.99 2933 1299 2919.65 1292Z" fill="#FFFFFF" fill-rule="evenodd" fill-opacity="1"/><path d="M2723.58 1359C2722.59 1359 2721.51 1359.36 2720.43 1360.32 2720.43 1360.32 2712.01 1360.67 2715.36 1368.39L2716.56 1374.85C2716.73 1376.12 2717.77 1376.96 2719.05 1376.96 2719.35 1376.98 2719.67 1376.99 2720 1376.99 2722.54 1376.99 2726.21 1376.33 2728.94 1373.49 2729.99 1372.44 2731.36 1371.78 2732.81 1371.78 2732.89 1371.78 2732.98 1371.78 2733.07 1371.79L2739 1372.04 2738.74 1360.32 2730.57 1361.68C2730.3 1361.74 2730.04 1361.77 2729.78 1361.77 2729.31 1361.77 2728.87 1361.68 2728.42 1361.52L2728.34 1361.52C2728.34 1361.52 2726.25 1359 2723.58 1359Z" fill="#E9697A" fill-rule="evenodd" fill-opacity="1"/><path d="M2741.87 1358.01 2735.01 1358.78 2735.76 1373.66 2742.99 1374 2741.87 1358.01Z" fill="#FFFFFF" fill-rule="evenodd" fill-opacity="1"/><path d="M2841 1290.74 2841 1290.74 2841 1290.84C2841 1290.81 2841 1290.77 2841 1290.74ZM2849.39 1276.01 2842.34 1286.32C2841.46 1287.56 2841.02 1289.15 2841 1290.74L2843.14 1288.76 2846 1294.99C2846 1294.99 2850.46 1287.22 2850.91 1281.16 2851 1279.26 2850.46 1277.45 2849.39 1276.01Z" fill="#FFFFFF" fill-rule="evenodd" fill-opacity="1"/><path d="M2830.45 1277.01C2829.49 1278.46 2829.01 1280.18 2829.08 1281.89 2829.49 1287.63 2833.5 1294.99 2833.5 1294.99L2836.07 1289.09 2837.99 1291.06C2837.99 1289.51 2837.6 1288.06 2836.79 1286.77L2830.45 1277.01Z" fill="#FFFFFF" fill-rule="evenodd" fill-opacity="1"/><path d="M2846.01 1317 2846.01 1324.87C2846.01 1327.68 2848.42 1329.99 2851.44 1329.99L2852.65 1329.99C2855.58 1329.99 2857.99 1327.68 2857.99 1324.87L2857.99 1317Z" fill="#FFFFFF" fill-rule="evenodd" fill-opacity="1"/><path d="M2863 1323 2868.18 1346.94 2869.46 1383.99C2869.46 1383.99 2873.54 1359.18 2874 1344.3L2863 1323Z" fill="#5664E1" fill-rule="evenodd" fill-opacity="1"/><path d="M2705.4 1253C2701.37 1253 2700.28 1258.2 2700.28 1258.2 2696 1261.64 2700.28 1266.39 2700.28 1266.39L2700.19 1266.39C2700.37 1267.19 2700.37 1267.89 2700.1 1268.69L2697.34 1276.71 2709.45 1279 2710.16 1272.92C2710.34 1271.33 2711.23 1269.92 2712.57 1269.04 2716.49 1266.39 2717.56 1262.17 2717.82 1259.52 2718 1258.28 2717.2 1257.05 2716.04 1256.7L2709.45 1254.41C2707.85 1253.39 2706.51 1253 2705.4 1253Z" fill="#F792A4" fill-rule="evenodd" fill-opacity="1"/><path d="M2647.58 1228C2647 1228 2646.43 1228.08 2645.88 1228.23 2644.06 1229.02 2642.32 1230.16 2640.85 1231.56 2639.37 1232.96 2637.63 1233.93 2635.63 1234.46 2635.27 1234.51 2634.91 1234.54 2634.55 1234.54 2631.14 1234.54 2627.96 1232.14 2624.43 1231.83 2624.31 1231.82 2624.2 1231.82 2624.09 1231.82 2619.88 1231.82 2616.23 1235.01 2615.56 1239.28 2615.21 1241.47 2615.74 1244.28 2614.17 1245.86 2613.56 1246.38 2612.87 1246.83 2612.17 1247.17 2608.69 1249.81 2608 1254.89 2610.78 1258.31 2611.74 1259.28 2612.95 1260.07 2613.48 1261.38 2613.74 1262.17 2613.91 1262.96 2613.91 1263.84 2614.26 1265.5 2615.3 1266.91 2616.78 1267.61 2617.32 1267.87 2617.92 1268 2618.51 1268 2619.52 1268 2620.53 1267.63 2621.3 1266.91L2628.25 1254.19 2632.68 1254.72C2633.48 1254.81 2634.31 1254.9 2635.14 1254.9 2636.57 1254.9 2637.97 1254.65 2639.02 1253.75 2639.98 1252.97 2640.59 1251.73 2641.72 1251.3 2642.24 1251.17 2642.76 1251.1 2643.27 1251.1 2643.78 1251.1 2644.28 1251.17 2644.75 1251.3 2645.05 1251.33 2645.34 1251.34 2645.62 1251.34 2651.09 1251.34 2655 1245.85 2653.1 1240.59 2652.67 1239.63 2652.31 1238.67 2651.97 1237.7 2651.36 1235.07 2652.84 1231.91 2651.36 1229.72 2650.55 1228.52 2649.06 1228 2647.58 1228Z" fill="#23295C" fill-rule="evenodd" fill-opacity="1"/><path d="M2662.56 1371 2597.92 1372.85 2589.55 1465.38 2569.91 1553.94C2570.53 1554.29 2571.23 1554.56 2572.03 1554.91 2570.88 1559.05 2569.47 1563.19 2567.71 1567.16 2567.01 1568.75 2567.71 1570.68 2569.38 1571.3 2570.55 1571.75 2571.44 1572.35 2572.56 1572.35 2572.96 1572.35 2573.39 1572.28 2573.87 1572.09 2574.24 1571.96 2574.62 1571.9 2575.02 1571.9 2579.72 1571.9 2587.18 1580.21 2596.51 1580.37 2596.55 1580.38 2596.59 1580.38 2596.63 1580.38 2598.32 1580.38 2599.31 1578.58 2598.44 1577.11L2587.88 1565.49C2585.94 1563.63 2583.38 1560.37 2583.74 1558.52L2583.83 1558.08C2584.71 1558.26 2585.24 1558.35 2585.24 1558.35L2616.15 1474.98C2616.85 1473.22 2617.29 1471.46 2617.74 1469.61L2629.8 1408.98 2642.4 1474.81 2647.77 1565.31C2648.47 1565.49 2649.18 1565.57 2649.88 1565.66 2649.97 1569.8 2649.79 1573.94 2649.27 1578 2649 1579.76 2650.32 1581.43 2652.17 1581.52 2652.94 1581.61 2653.62 1581.76 2654.31 1581.76 2655.05 1581.76 2655.8 1581.58 2656.66 1580.99 2657.35 1580.48 2658.24 1580.28 2659.3 1580.28 2663.17 1580.28 2669.26 1582.99 2675.61 1582.99 2677.31 1582.99 2679.01 1582.8 2680.71 1582.32 2682.47 1581.96 2682.99 1579.76 2681.59 1578.61L2668.11 1570.59C2665.91 1569.36 2662.83 1567.25 2662.21 1565.49 2663.18 1565.39 2663.8 1565.31 2663.8 1565.31L2670.58 1476.65C2670.76 1474.81 2670.76 1472.96 2670.58 1471.02L2662.56 1371Z" fill="#23295C" fill-rule="evenodd" fill-opacity="1"/><path d="M2633.01 1345.01 2623.01 1374.55 2633.27 1427.99C2640 1404.36 2656.03 1393.51 2663.99 1389.46L2662.49 1371.02 2633.01 1345.01Z" fill="#07105C" fill-rule="evenodd" fill-opacity="1"/><path d="M2625.44 1276C2624.39 1276 2623.32 1276.06 2622.27 1276.18 2576.01 1281.73 2591.16 1386.17 2591.16 1386.26 2604.42 1389.74 2615.98 1390.99 2625.75 1390.99 2650.83 1390.99 2664.12 1382.74 2664.12 1382.74 2664.64 1380.54 2664.91 1378.25 2664.82 1376.05 2665 1362.48 2662.62 1348.92 2661.91 1335.36 2661.38 1326.12 2660.59 1316.78 2658.3 1307.89 2655.92 1298.99 2651.87 1290.45 2645.61 1284.28 2640.21 1278.96 2632.91 1276 2625.44 1276Z" fill="#1226DB" fill-rule="evenodd" fill-opacity="1"/><path d="M2696.61 1277 2685.15 1312.44C2684.42 1314.29 2682.7 1315.35 2680.91 1315.35 2679.89 1315.35 2678.86 1315.02 2677.98 1314.28 2668.01 1305.75 2645.52 1281.58 2638 1278.41L2631 1304.7C2631 1304.7 2650.07 1319.91 2662.15 1333.01 2666.66 1337.92 2671.73 1340 2676.69 1340 2687.3 1340 2697.42 1330.48 2700.63 1318.68 2705.27 1301.36 2709.99 1279.2 2709.99 1279.2L2696.61 1277Z" fill="#1226DB" fill-rule="evenodd" fill-opacity="1"/><path d="M2619.83 1286C2625.78 1301.51 2616 1390.2 2616 1390.2 2619.15 1390.77 2622.47 1391 2625.73 1391 2636.73 1391 2646.95 1388.44 2646.95 1388.44 2657 1312.11 2634.5 1286 2634.5 1286Z" fill="#5664E1" fill-rule="evenodd" fill-opacity="1"/><path d="M2624.25 1245C2623.2 1247.04 2622.76 1249.43 2623.11 1251.73 2623.37 1253.85 2623.11 1256.06 2622.5 1258.1 2621.29 1256.74 2620.16 1256.2 2619.22 1256.2 2617.21 1256.2 2616.01 1258.65 2616.54 1260.93 2617.24 1264.29 2621.01 1265.09 2621.01 1265.09L2617.86 1277.57C2616.89 1281.19 2618.29 1285 2621.27 1287.12L2622.67 1288.27C2624.17 1289.44 2625.95 1290 2627.72 1290 2630.38 1290 2633.04 1288.73 2634.66 1286.33 2635.37 1285.18 2635.8 1283.94 2635.98 1282.7L2637.12 1273.85C2637.21 1273.76 2637.38 1273.76 2637.47 1273.67 2642.11 1272.08 2645 1267.39 2644.38 1262.43L2643.68 1248.72C2643.68 1248.72 2642.88 1248.79 2641.53 1248.79 2638 1248.79 2630.76 1248.32 2624.25 1245Z" fill="#F792A4" fill-rule="evenodd" fill-opacity="1"/><path d="M2626 1269 2626 1269C2626 1269 2628.24 1276 2635.39 1276 2635.81 1276 2636.26 1275.97 2636.73 1275.92L2637 1273.45C2637 1273.45 2636.43 1273.55 2635.52 1273.55 2633.3 1273.55 2629.01 1272.98 2626 1269Z" fill="#E9697A" fill-rule="evenodd" fill-opacity="1"/><path d="M2697.06 1272.01 2695.01 1277.8 2710.92 1282 2712 1275.53 2697.06 1272.01Z" fill="#23295C" fill-rule="evenodd" fill-opacity="1"/><path d="M2611.01 1282.01 2617.94 1342.9C2627.78 1353.53 2639.98 1361.7 2653.59 1366.71 2658.68 1368.64 2663.95 1370.13 2669.3 1371.27 2680.28 1373.56 2700.47 1373.99 2700.47 1373.99 2701 1369.69 2700.82 1365.39 2700.21 1361.08 2690.29 1359.33 2680.28 1357.65 2670.97 1353.61 2662.19 1349.83 2654.03 1343.86 2649.37 1335.6 2648.94 1334.72 2648.49 1333.84 2648.06 1332.96 2646.39 1329.19 2641.2 1317.76 2635.94 1307.31 2633.22 1301.86 2629.8 1296.77 2625.76 1292.19 2621.8 1287.63 2616.8 1283.76 2611.01 1282.01Z" fill="#1226DB" fill-rule="evenodd" fill-opacity="1"/><path d="M2715.86 1360.01C2713.12 1360.01 2710.97 1362.64 2710.97 1362.64L2710.97 1362.73C2710.51 1362.9 2710.02 1363 2709.53 1363 2709.27 1363 2709.01 1362.97 2708.76 1362.9L2700.35 1361.49 2700 1373.75 2706.02 1373.49C2707.7 1373.49 2709.2 1374.11 2710.26 1375.35 2713.54 1378.73 2717.87 1378.99 2720.53 1378.99 2724.07 1378.91 2727.34 1377.22 2729.55 1374.55 2733 1366.55 2719.11 1361.39 2719.11 1361.39 2718 1360.37 2716.89 1360.01 2715.86 1360.01Z" fill="#F792A4" fill-rule="evenodd" fill-opacity="1"/><path d="M2698.07 1359 2697 1376 2703.34 1375.63 2704 1359.83 2698.07 1359Z" fill="#23295C" fill-rule="evenodd" fill-opacity="1"/><path d="M2609.01 1334.01 2616.8 1383.99 2620 1345.52 2609.01 1334.01Z" fill="#0E1DA8" fill-rule="evenodd" fill-opacity="1"/><path d="M2653 1291 2653 1291C2660.01 1300.04 2662.31 1333 2662.31 1333 2667.45 1338.21 2671 1338.91 2671 1338.99 2670.65 1325.6 2657.7 1295.35 2657.7 1295.35L2653 1291Z" fill="#0E1DA8" fill-rule="evenodd" fill-opacity="1"/><path d="M2410.21 1378C2407.93 1378 2406.01 1379.79 2406.01 1382.07L2406.01 1397.93C2406.01 1400.22 2407.93 1402 2410.21 1402L2518.79 1402C2521.16 1402 2522.99 1400.22 2522.99 1397.93L2522.99 1382.07C2522.99 1379.79 2521.16 1378 2518.79 1378Z" fill="#FFB127" fill-rule="evenodd" fill-opacity="1"/><path d="M2403.21 1402.01C2400.93 1402.01 2399.01 1403.94 2399.01 1406.23L2399.01 1422.77C2399.01 1425.06 2400.93 1427 2403.21 1427L2511.79 1427C2514.16 1427 2515.99 1425.06 2515.99 1422.77L2515.99 1406.23C2515.99 1403.94 2514.16 1402.01 2511.79 1402.01Z" fill="#FFB127" fill-rule="evenodd" fill-opacity="1"/><path d="M2410.24 1452C2407.85 1452 2406 1453.94 2406 1456.23L2406 1472.77C2406 1475.06 2407.85 1476.99 2410.24 1476.99L2519.76 1476.99C2522.05 1476.99 2523.99 1475.06 2523.99 1472.77L2523.99 1456.23C2523.99 1453.94 2522.05 1452 2519.76 1452Z" fill="#FFB127" fill-rule="evenodd" fill-opacity="1"/><path d="M2415.21 1501.01C2412.84 1501.01 2411.01 1502.86 2411.01 1505.24L2411.01 1521.76C2411.01 1524.14 2412.84 1525.99 2415.21 1525.99L2523.79 1525.99C2526.16 1525.99 2527.99 1524.14 2527.99 1521.76L2527.99 1505.24C2527.99 1502.86 2526.16 1501.01 2523.79 1501.01Z" fill="#FFB127" fill-rule="evenodd" fill-opacity="1"/><path d="M2407.2 1526C2404.84 1526 2403 1527.85 2403 1530.24L2403 1546.76C2403 1549.14 2404.84 1551 2407.2 1551L2515.79 1551C2518.07 1551 2519.99 1549.14 2519.99 1546.76L2519.99 1530.24C2519.99 1527.85 2518.07 1526 2515.79 1526Z" fill="#FFB127" fill-rule="evenodd" fill-opacity="1"/><path d="M2396.24 1476.01C2393.85 1476.01 2392 1477.86 2392 1480.24L2392 1496.76C2392 1499.14 2393.85 1500.99 2396.24 1500.99L2505.67 1500.99C2508.05 1500.99 2510 1499.14 2510 1496.76L2510 1480.24C2510 1477.86 2508.05 1476.01 2505.67 1476.01Z" fill="#FFB127" fill-rule="evenodd" fill-opacity="1"/><path d="M2425.2 1427.01C2422.84 1427.01 2421 1428.86 2421 1431.24L2421 1447.76C2421 1450.14 2422.84 1451.99 2425.2 1451.99L2533.79 1451.99C2536.07 1451.99 2537.99 1450.14 2537.99 1447.76L2537.99 1431.24C2537.99 1428.86 2536.07 1427.01 2533.79 1427.01Z" fill="#FFB127" fill-rule="evenodd" fill-opacity="1"/><path d="M2406.01 1402.01 2515.99 1408.99 2515.99 1402.01Z" fill="#FFC844" fill-rule="evenodd" fill-opacity="1"/><path d="M2399.01 1476.01 2510 1486 2510 1476.01Z" fill="#FFC844" fill-rule="evenodd" fill-opacity="1"/><path d="M2409 1526 2519.99 1536 2519.99 1526Z" fill="#FFC844" fill-rule="evenodd" fill-opacity="1"/><path d="M2413 1452 2524 1458 2524 1452Z" fill="#FFC844" fill-rule="evenodd" fill-opacity="1"/><path d="M2421 1427.01 2421 1434 2531.99 1427.01Z" fill="#FFC844" fill-rule="evenodd" fill-opacity="1"/><path d="M2411.01 1501 2411.01 1508 2520.99 1501Z" fill="#FFC844" fill-rule="evenodd" fill-opacity="1"/><path d="M2411 1378 2411 1402 2413 1402 2413 1378Z" fill="#FFC844" fill-rule="evenodd" fill-opacity="1"/><path d="M2420 1378 2420 1402 2422.99 1402 2422.99 1378Z" fill="#FFC844" fill-rule="evenodd" fill-opacity="1"/><path d="M2430 1378 2430 1402 2432 1402 2432 1378Z" fill="#FFC844" fill-rule="evenodd" fill-opacity="1"/><path d="M2439.01 1378 2439.01 1402 2442 1402 2442 1378Z" fill="#FFC844" fill-rule="evenodd" fill-opacity="1"/><path d="M2449 1378 2449 1402 2451.99 1402 2451.99 1378Z" fill="#FFC844" fill-rule="evenodd" fill-opacity="1"/><path d="M2459 1378 2459 1402 2461 1402 2461 1378Z" fill="#FFC844" fill-rule="evenodd" fill-opacity="1"/><path d="M2468.01 1378 2468.01 1402 2470.99 1402 2470.99 1378Z" fill="#FFC844" fill-rule="evenodd" fill-opacity="1"/><path d="M2478 1378 2478 1402 2480.99 1402 2480.99 1378Z" fill="#FFC844" fill-rule="evenodd" fill-opacity="1"/><path d="M2488 1378 2488 1402 2490 1402 2490 1378Z" fill="#FFC844" fill-rule="evenodd" fill-opacity="1"/><path d="M2497.01 1378 2497.01 1402 2500 1402 2500 1378Z" fill="#FFC844" fill-rule="evenodd" fill-opacity="1"/><path d="M2507 1378 2507 1402 2509 1402 2509 1378Z" fill="#FFC844" fill-rule="evenodd" fill-opacity="1"/><path d="M2516 1378 2516 1402 2519 1402 2519 1378Z" fill="#FFC844" fill-rule="evenodd" fill-opacity="1"/><path d="M2424 1427.01 2424 1451.99 2426 1451.99 2426 1427.01Z" fill="#FFC844" fill-rule="evenodd" fill-opacity="1"/><path d="M2434 1427.01 2434 1451.99 2436 1451.99 2436 1427.01Z" fill="#FFC844" fill-rule="evenodd" fill-opacity="1"/><path d="M2443 1427.01 2443 1451.99 2445.99 1451.99 2445.99 1427.01Z" fill="#FFC844" fill-rule="evenodd" fill-opacity="1"/><path d="M2453 1427.01 2453 1451.99 2455 1451.99 2455 1427.01Z" fill="#FFC844" fill-rule="evenodd" fill-opacity="1"/><path d="M2462.01 1427.01 2462.01 1451.99 2465 1451.99 2465 1427.01Z" fill="#FFC844" fill-rule="evenodd" fill-opacity="1"/><path d="M2472 1427.01 2472 1451.99 2474.99 1451.99 2474.99 1427.01Z" fill="#FFC844" fill-rule="evenodd" fill-opacity="1"/><path d="M2482 1427.01 2482 1451.99 2484 1451.99 2484 1427.01Z" fill="#FFC844" fill-rule="evenodd" fill-opacity="1"/><path d="M2491.01 1427.01 2491.01 1451.99 2493.99 1451.99 2493.99 1427.01Z" fill="#FFC844" fill-rule="evenodd" fill-opacity="1"/><path d="M2501 1427.01 2501 1451.99 2503.99 1451.99 2503.99 1427.01Z" fill="#FFC844" fill-rule="evenodd" fill-opacity="1"/><path d="M2511 1427.01 2511 1451.99 2513 1451.99 2513 1427.01Z" fill="#FFC844" fill-rule="evenodd" fill-opacity="1"/><path d="M2520.01 1427.01 2520.01 1451.99 2523 1451.99 2523 1427.01Z" fill="#FFC844" fill-rule="evenodd" fill-opacity="1"/><path d="M2530 1427.01 2530 1451.99 2532 1451.99 2532 1427.01Z" fill="#FFC844" fill-rule="evenodd" fill-opacity="1"/><path d="M2397 1477 2397 1501.99 2399 1501.99 2399 1477Z" fill="#FFC844" fill-rule="evenodd" fill-opacity="1"/><path d="M2406 1477 2406 1501.99 2408.99 1501.99 2408.99 1477Z" fill="#FFC844" fill-rule="evenodd" fill-opacity="1"/><path d="M2416 1477 2416 1501.99 2419 1501.99 2419 1477Z" fill="#FFC844" fill-rule="evenodd" fill-opacity="1"/><path d="M2426 1477 2426 1501.99 2428 1501.99 2428 1477Z" fill="#FFC844" fill-rule="evenodd" fill-opacity="1"/><path d="M2435 1477 2435 1501.99 2437.99 1501.99 2437.99 1477Z" fill="#FFC844" fill-rule="evenodd" fill-opacity="1"/><path d="M2445 1477 2445 1501.99 2447 1501.99 2447 1477Z" fill="#FFC844" fill-rule="evenodd" fill-opacity="1"/><path d="M2455 1477 2455 1501.99 2457 1501.99 2457 1477Z" fill="#FFC844" fill-rule="evenodd" fill-opacity="1"/><path d="M2464 1477 2464 1501.99 2466.99 1501.99 2466.99 1477Z" fill="#FFC844" fill-rule="evenodd" fill-opacity="1"/><path d="M2474 1477 2474 1501.99 2476 1501.99 2476 1477Z" fill="#FFC844" fill-rule="evenodd" fill-opacity="1"/><path d="M2483.01 1477 2483.01 1501.99 2486 1501.99 2486 1477Z" fill="#FFC844" fill-rule="evenodd" fill-opacity="1"/><path d="M2493.01 1477 2493.01 1501.99 2495.99 1501.99 2495.99 1477Z" fill="#FFC844" fill-rule="evenodd" fill-opacity="1"/><path d="M2503 1477 2503 1501.99 2505 1501.99 2505 1477Z" fill="#FFC844" fill-rule="evenodd" fill-opacity="1"/><path d="M2415 1501 2415 1525.99 2417 1525.99 2417 1501Z" fill="#FFC844" fill-rule="evenodd" fill-opacity="1"/><path d="M2424 1501 2424 1525.99 2426.99 1525.99 2426.99 1501Z" fill="#FFC844" fill-rule="evenodd" fill-opacity="1"/><path d="M2434.01 1501 2434.01 1525.99 2437 1525.99 2437 1501Z" fill="#FFC844" fill-rule="evenodd" fill-opacity="1"/><path d="M2443.01 1501 2443.01 1525.99 2445.99 1525.99 2445.99 1501Z" fill="#FFC844" fill-rule="evenodd" fill-opacity="1"/><path d="M2453 1501 2453 1525.99 2455.99 1525.99 2455.99 1501Z" fill="#FFC844" fill-rule="evenodd" fill-opacity="1"/><path d="M2463 1501 2463 1525.99 2465 1525.99 2465 1501Z" fill="#FFC844" fill-rule="evenodd" fill-opacity="1"/><path d="M2472.01 1501 2472.01 1525.99 2475 1525.99 2475 1501Z" fill="#FFC844" fill-rule="evenodd" fill-opacity="1"/><path d="M2482 1501 2482 1525.99 2484.99 1525.99 2484.99 1501Z" fill="#FFC844" fill-rule="evenodd" fill-opacity="1"/><path d="M2492 1501 2492 1525.99 2494 1525.99 2494 1501Z" fill="#FFC844" fill-rule="evenodd" fill-opacity="1"/><path d="M2501.01 1501 2501.01 1525.99 2504 1525.99 2504 1501Z" fill="#FFC844" fill-rule="evenodd" fill-opacity="1"/><path d="M2511 1501 2511 1525.99 2513.99 1525.99 2513.99 1501Z" fill="#FFC844" fill-rule="evenodd" fill-opacity="1"/><path d="M2521 1501 2521 1525.99 2523 1525.99 2523 1501Z" fill="#FFC844" fill-rule="evenodd" fill-opacity="1"/><path d="M2407 1526 2407 1550.99 2410 1550.99 2410 1526Z" fill="#FFC844" fill-rule="evenodd" fill-opacity="1"/><path d="M2417 1526 2417 1550.99 2419 1550.99 2419 1526Z" fill="#FFC844" fill-rule="evenodd" fill-opacity="1"/><path d="M2426 1526 2426 1550.99 2428.99 1550.99 2428.99 1526Z" fill="#FFC844" fill-rule="evenodd" fill-opacity="1"/><path d="M2436 1526 2436 1550.99 2439 1550.99 2439 1526Z" fill="#FFC844" fill-rule="evenodd" fill-opacity="1"/><path d="M2446 1526 2446 1550.99 2448 1550.99 2448 1526Z" fill="#FFC844" fill-rule="evenodd" fill-opacity="1"/><path d="M2455 1526 2455 1550.99 2457.99 1550.99 2457.99 1526Z" fill="#FFC844" fill-rule="evenodd" fill-opacity="1"/><path d="M2465 1526 2465 1550.99 2467 1550.99 2467 1526Z" fill="#FFC844" fill-rule="evenodd" fill-opacity="1"/><path d="M2475 1526 2475 1550.99 2477 1550.99 2477 1526Z" fill="#FFC844" fill-rule="evenodd" fill-opacity="1"/><path d="M2484 1526 2484 1550.99 2486.99 1550.99 2486.99 1526Z" fill="#FFC844" fill-rule="evenodd" fill-opacity="1"/><path d="M2494 1526 2494 1550.99 2496 1550.99 2496 1526Z" fill="#FFC844" fill-rule="evenodd" fill-opacity="1"/><path d="M2503.01 1526 2503.01 1550.99 2505.99 1550.99 2505.99 1526Z" fill="#FFC844" fill-rule="evenodd" fill-opacity="1"/><path d="M2513 1526 2513 1550.99 2515.99 1550.99 2515.99 1526Z" fill="#FFC844" fill-rule="evenodd" fill-opacity="1"/><path d="M2412 1452 2412 1476.99 2414 1476.99 2414 1452Z" fill="#FFC844" fill-rule="evenodd" fill-opacity="1"/><path d="M2421 1452 2421 1476.99 2423.99 1476.99 2423.99 1452Z" fill="#FFC844" fill-rule="evenodd" fill-opacity="1"/><path d="M2431 1452 2431 1476.99 2433.99 1476.99 2433.99 1452Z" fill="#FFC844" fill-rule="evenodd" fill-opacity="1"/><path d="M2441 1452 2441 1476.99 2443 1476.99 2443 1452Z" fill="#FFC844" fill-rule="evenodd" fill-opacity="1"/><path d="M2450.01 1452 2450.01 1476.99 2452.99 1476.99 2452.99 1452Z" fill="#FFC844" fill-rule="evenodd" fill-opacity="1"/><path d="M2460 1452 2460 1476.99 2462.99 1476.99 2462.99 1452Z" fill="#FFC844" fill-rule="evenodd" fill-opacity="1"/><path d="M2470 1452 2470 1476.99 2472 1476.99 2472 1452Z" fill="#FFC844" fill-rule="evenodd" fill-opacity="1"/><path d="M2479.01 1452 2479.01 1476.99 2482 1476.99 2482 1452Z" fill="#FFC844" fill-rule="evenodd" fill-opacity="1"/><path d="M2489 1452 2489 1476.99 2491 1476.99 2491 1452Z" fill="#FFC844" fill-rule="evenodd" fill-opacity="1"/><path d="M2498.01 1452 2498.01 1476.99 2501 1476.99 2501 1452Z" fill="#FFC844" fill-rule="evenodd" fill-opacity="1"/><path d="M2508.01 1452 2508.01 1476.99 2510.99 1476.99 2510.99 1452Z" fill="#FFC844" fill-rule="evenodd" fill-opacity="1"/><path d="M2518 1452 2518 1476.99 2520 1476.99 2520 1452Z" fill="#FFC844" fill-rule="evenodd" fill-opacity="1"/><path d="M2403 1402.01 2403 1427 2405.99 1427 2405.99 1402.01Z" fill="#FFC844" fill-rule="evenodd" fill-opacity="1"/><path d="M2413 1402.01 2413 1427 2416 1427 2416 1402.01Z" fill="#FFC844" fill-rule="evenodd" fill-opacity="1"/><path d="M2423 1402.01 2423 1427 2425 1427 2425 1402.01Z" fill="#FFC844" fill-rule="evenodd" fill-opacity="1"/><path d="M2432 1402.01 2432 1427 2434.99 1427 2434.99 1402.01Z" fill="#FFC844" fill-rule="evenodd" fill-opacity="1"/><path d="M2442 1402.01 2442 1427 2444 1427 2444 1402.01Z" fill="#FFC844" fill-rule="evenodd" fill-opacity="1"/><path d="M2452 1402.01 2452 1427 2454 1427 2454 1402.01Z" fill="#FFC844" fill-rule="evenodd" fill-opacity="1"/><path d="M2461 1402.01 2461 1427 2463.99 1427 2463.99 1402.01Z" fill="#FFC844" fill-rule="evenodd" fill-opacity="1"/><path d="M2471 1402.01 2471 1427 2473 1427 2473 1402.01Z" fill="#FFC844" fill-rule="evenodd" fill-opacity="1"/><path d="M2480.01 1402.01 2480.01 1427 2482.99 1427 2482.99 1402.01Z" fill="#FFC844" fill-rule="evenodd" fill-opacity="1"/><path d="M2490 1402.01 2490 1427 2492.99 1427 2492.99 1402.01Z" fill="#FFC844" fill-rule="evenodd" fill-opacity="1"/><path d="M2500 1402.01 2500 1427 2502 1427 2502 1402.01Z" fill="#FFC844" fill-rule="evenodd" fill-opacity="1"/><path d="M2509.01 1402.01 2509.01 1427 2511.99 1427 2511.99 1402.01Z" fill="#FFC844" fill-rule="evenodd" fill-opacity="1"/><path d="M2950.04 1339C2923.51 1339 2902 1360.51 2902 1387.04 2902 1413.49 2923.51 1435 2950.04 1435 2976.49 1435 2998 1413.49 2998 1387.04 2998 1360.51 2976.49 1339 2950.04 1339Z" fill="#1226DB" fill-rule="evenodd" fill-opacity="1"/><path d="M2950.4 1332.01C2950.26 1332.01 2950.13 1332.01 2950 1332.01L2950 1389.03 2950.09 1388.85 3001.35 1403C3003.12 1397.57 3004 1391.88 3004 1386.18 3004 1369.46 2996.4 1353.71 2983.32 1343.39 2973.88 1336 2962.27 1332.01 2950.4 1332.01Z" fill="#0E1DA8" fill-rule="evenodd" fill-opacity="1"/><path d="M2949.99 1339C2944.08 1339 2938.17 1340.06 2932.7 1342.17 2910.63 1350.72 2898 1373.9 2902.95 1397L2949.99 1389.33 2949.99 1339Z" fill="#FFB127" fill-rule="evenodd" fill-opacity="1"/><path d="M2354 1153.01 2354 1325 2579 1325 2579 1153.01Z" fill="#5664E1" fill-rule="evenodd" fill-opacity="1"/><path d="M2381.56 1221.01 2381.56 1225.14 2380 1225.14 2380 1253.87 2381.56 1253.87 2381.56 1258 2382.44 1258 2382.44 1253.87 2384 1253.87 2384 1225.14 2382.44 1225.14 2382.44 1221.01Z" fill="#1226DB" fill-rule="evenodd" fill-opacity="1"/><path d="M2390.94 1242 2390.94 1246.17 2389 1246.17 2389 1281.83 2390.94 1281.83 2390.94 1286 2392.14 1286 2392.14 1281.83 2393.99 1281.83 2393.99 1246.17 2392.14 1246.17 2392.14 1242Z" fill="#1226DB" fill-rule="evenodd" fill-opacity="1"/><path d="M2403.95 1212 2403.95 1216.13 2402.01 1216.13 2402.01 1233.87 2403.95 1233.87 2403.95 1238 2405.15 1238 2405.15 1233.87 2407 1233.87 2407 1216.13 2405.15 1216.13 2405.15 1212Z" fill="#FFC844" fill-rule="evenodd" fill-opacity="1"/><path d="M2416.86 1233.01 2416.86 1237.14 2415.01 1237.14 2415.01 1265.87 2416.86 1265.87 2416.86 1270 2418.05 1270 2418.05 1265.87 2420 1265.87 2420 1237.14 2418.05 1237.14 2418.05 1233.01Z" fill="#1226DB" fill-rule="evenodd" fill-opacity="1"/><path d="M2442.91 1229.01 2442.91 1233.14 2441 1233.14 2441 1261.87 2442.91 1261.87 2442.91 1266 2444.09 1266 2444.09 1261.87 2446 1261.87 2446 1233.14 2444.09 1233.14 2444.09 1229.01Z" fill="#1226DB" fill-rule="evenodd" fill-opacity="1"/><path d="M2456.55 1207.01 2456.55 1211.17 2455 1211.17 2455 1226.84 2456.55 1226.84 2456.55 1231 2457.44 1231 2457.44 1226.84 2458.99 1226.84 2458.99 1211.17 2457.44 1211.17 2457.44 1207.01Z" fill="#1226DB" fill-rule="evenodd" fill-opacity="1"/><path d="M2469.56 1254 2469.56 1258.13 2468.01 1258.13 2468.01 1286.87 2469.56 1286.87 2469.56 1291 2470.45 1291 2470.45 1286.87 2472 1286.87 2472 1258.13 2470.45 1258.13 2470.45 1254Z" fill="#1226DB" fill-rule="evenodd" fill-opacity="1"/><path d="M2482.95 1234 2482.95 1238.05 2481 1238.05 2481 1261.86 2482.95 1261.86 2482.95 1265.99 2484.05 1265.99 2484.05 1261.86 2485.99 1261.86 2485.99 1238.05 2484.05 1238.05 2484.05 1234Z" fill="#1226DB" fill-rule="evenodd" fill-opacity="1"/><path d="M2495.95 1265 2495.95 1269.21 2494.01 1269.21 2494.01 1301.79 2495.95 1301.79 2495.95 1305.99 2497.06 1305.99 2497.06 1301.79 2499 1301.79 2499 1269.21 2497.06 1269.21 2497.06 1265Z" fill="#FFB127" fill-rule="evenodd" fill-opacity="1"/><path d="M2508.95 1252.01 2508.95 1256.14 2507 1256.14 2507 1284.78 2508.95 1284.78 2508.95 1288.99 2510.15 1288.99 2510.15 1284.78 2511.99 1284.78 2511.99 1256.14 2510.15 1256.14 2510.15 1252.01Z" fill="#1226DB" fill-rule="evenodd" fill-opacity="1"/><path d="M2521.94 1226.01 2521.94 1230.06 2520.01 1230.06 2520.01 1253.95 2521.94 1253.95 2521.94 1258 2523.15 1258 2523.15 1253.95 2524.99 1253.95 2524.99 1230.06 2523.15 1230.06 2523.15 1226.01Z" fill="#1226DB" fill-rule="evenodd" fill-opacity="1"/><path d="M2534.95 1217.01 2534.95 1221.13 2533 1221.13 2533 1227.88 2534.95 1227.88 2534.95 1232 2536.15 1232 2536.15 1227.88 2538 1227.88 2538 1221.13 2536.15 1221.13 2536.15 1217.01Z" fill="#FFC844" fill-rule="evenodd" fill-opacity="1"/><path d="M2548.86 1241 2548.86 1245.09 2547.01 1245.09 2547.01 1289.82 2548.86 1289.82 2548.86 1293.99 2550.06 1293.99 2550.06 1289.82 2552 1289.82 2552 1245.09 2550.06 1245.09 2550.06 1241Z" fill="#FFB127" fill-rule="evenodd" fill-opacity="1"/><path d="M2429.85 1258 2429.85 1262.17 2428 1262.17 2428 1297.83 2429.85 1297.83 2429.85 1302 2431.05 1302 2431.05 1297.83 2432.99 1297.83 2432.99 1262.17 2431.05 1262.17 2431.05 1258Z" fill="#FFB127" fill-rule="evenodd" fill-opacity="1"/><path d="M2561.99 1309.99 2376.79 1309.99C2373.35 1309.99 2370.62 1307.18 2370.62 1303.74L2370.01 1171.01" stroke="#FFFFFF" stroke-width="1.67815" stroke-linecap="round" stroke-linejoin="round" stroke-miterlimit="10" stroke-opacity="1" fill="none" fill-rule="evenodd"/><path d="M2382.01 1237.69 2388.26 1255.69C2389.14 1258.53 2393.2 1258.35 2393.99 1255.51L2402.18 1227.14C2402.98 1224.3 2406.77 1224.13 2407.91 1226.79L2427.48 1272.97C2428.62 1275.46 2432.15 1275.46 2433.2 1272.89L2453.29 1220.93C2454.35 1218.01 2458.49 1218.45 2459.11 1221.47L2468.19 1268.01C2468.72 1271.03 2472.94 1271.38 2474 1268.45L2480.17 1252.05C2481.23 1249.3 2485.1 1249.39 2485.9 1252.23L2494.53 1280.07C2495.33 1282.55 2498.67 1282.99 2500 1280.69L2532.25 1225.99C2533.66 1223.77 2537.01 1224.21 2537.8 1226.69L2548.99 1266.68" stroke="#FFFFFF" stroke-width="1.67815" stroke-linecap="round" stroke-linejoin="miter" stroke-miterlimit="1" stroke-opacity="1" fill="none" fill-rule="evenodd"/><path d="M2381.5 1236C2380.75 1236 2380.01 1236.32 2380.01 1236.97 2380.01 1237.66 2380.75 1238 2381.5 1238 2382.25 1238 2382.99 1237.66 2382.99 1236.97 2382.99 1236.32 2382.25 1236 2381.5 1236Z" fill="#FFFFFF" fill-rule="evenodd" fill-opacity="1"/><path d="M2417.74 1248.01C2416.55 1248.01 2416 1249.65 2416.79 1250.57 2417.04 1250.87 2417.36 1251 2417.68 1251 2418.34 1251 2418.99 1250.4 2418.99 1249.47 2418.99 1248.74 2418.37 1248.01 2417.74 1248.01Z" fill="#FFFFFF" fill-rule="evenodd" fill-opacity="1"/><path d="M2443.7 1244.01C2442.57 1244.01 2442 1245.61 2442.81 1246.56 2443.08 1246.86 2443.4 1247 2443.72 1247 2444.37 1247 2444.99 1246.41 2444.99 1245.51 2444.99 1244.67 2444.43 1244.01 2443.7 1244.01Z" fill="#FFFFFF" fill-rule="evenodd" fill-opacity="1"/><path d="M2470.32 1269C2468.85 1269 2468 1270.1 2469.15 1270.71 2469.49 1270.91 2469.91 1271 2470.32 1271 2471.18 1271 2472 1270.6 2472 1269.98 2472 1269.49 2471.26 1269 2470.32 1269Z" fill="#FFFFFF" fill-rule="evenodd" fill-opacity="1"/><path d="M2483.31 1249C2481.74 1249 2481.01 1250.07 2482.06 1250.7 2482.43 1250.9 2482.87 1251 2483.3 1251 2484.18 1251 2484.99 1250.6 2484.99 1250.01 2484.99 1249.44 2484.26 1249 2483.31 1249Z" fill="#FFFFFF" fill-rule="evenodd" fill-opacity="1"/><path d="M2509.7 1263.01C2508.57 1263.01 2508 1264.61 2508.81 1265.55 2509.08 1265.85 2509.4 1265.99 2509.72 1265.99 2510.37 1265.99 2510.99 1265.41 2510.99 1264.52 2510.99 1263.67 2510.43 1263.01 2509.7 1263.01Z" fill="#FFFFFF" fill-rule="evenodd" fill-opacity="1"/><path d="M2549.27 1266C2547.76 1266 2547.01 1267.05 2548.09 1267.67 2548.43 1267.9 2548.86 1268 2549.29 1268 2550.16 1268 2551 1267.58 2551 1266.99 2551 1266.43 2550.25 1266 2549.27 1266Z" fill="#FFFFFF" fill-rule="evenodd" fill-opacity="1"/><path d="M2535.7 1223.01C2534.57 1223.01 2534 1224.61 2534.81 1225.56 2535.08 1225.86 2535.4 1226 2535.72 1226 2536.37 1226 2536.99 1225.41 2536.99 1224.51 2536.99 1223.67 2536.43 1223.01 2535.7 1223.01Z" fill="#FFFFFF" fill-rule="evenodd" fill-opacity="1"/><path d="M2522.5 1241C2521.75 1241 2521 1241.32 2521 1241.97 2521 1242.66 2521.75 1243 2522.5 1243 2523.25 1243 2524 1242.66 2524 1241.97 2524 1241.32 2523.25 1241 2522.5 1241Z" fill="#FFFFFF" fill-rule="evenodd" fill-opacity="1"/><path d="M2496.74 1280.01C2495.63 1280.01 2495 1281.61 2495.87 1282.55 2496.12 1282.86 2496.44 1282.99 2496.75 1282.99 2497.39 1282.99 2498 1282.41 2498 1281.52 2498 1280.67 2497.44 1280.01 2496.74 1280.01Z" fill="#FFFFFF" fill-rule="evenodd" fill-opacity="1"/><path d="M2390.82 1256C2390.78 1256 2390.74 1256.01 2390.7 1256.01 2389.57 1256.01 2389 1257.62 2389.81 1258.56 2390.08 1258.86 2390.4 1259 2390.72 1259 2391.37 1259 2391.99 1258.41 2391.99 1257.52 2391.99 1256.72 2391.49 1256 2390.82 1256Z" fill="#FFFFFF" fill-rule="evenodd" fill-opacity="1"/><path d="M2404.74 1224C2403.63 1224 2403 1225.07 2403.87 1225.7 2404.13 1225.91 2404.44 1226 2404.75 1226 2405.39 1226 2406 1225.6 2406 1225.01 2406 1224.44 2405.45 1224 2404.74 1224Z" fill="#FFFFFF" fill-rule="evenodd" fill-opacity="1"/><path d="M2457 1218C2456.5 1218 2456 1218.35 2456 1219.02 2456 1219.67 2456.5 1220 2457 1220 2457.5 1220 2458 1219.67 2458 1219.02 2458 1218.35 2457.5 1218 2457 1218Z" fill="#FFFFFF" fill-rule="evenodd" fill-opacity="1"/><path d="M2430.74 1273.01C2429.56 1273.01 2429.01 1274.65 2429.79 1275.56 2430.05 1275.86 2430.36 1275.99 2430.68 1275.99 2431.34 1275.99 2432 1275.4 2432 1274.47 2432 1273.74 2431.37 1273.01 2430.74 1273.01Z" fill="#FFFFFF" fill-rule="evenodd" fill-opacity="1"/><path d="M2277 1340.01 2277 1456.99 2436.99 1456.99 2436.99 1340.01Z" fill="#1226DB" fill-rule="evenodd" fill-opacity="1"/><path d="M2386 1379.01 2386 1384 2422 1384 2422 1379.01Z" fill="#EF352E" fill-rule="evenodd" fill-opacity="1"/><path d="M2386 1387.01 2386 1393 2408.99 1393 2408.99 1387.01Z" fill="#EF352E" fill-rule="evenodd" fill-opacity="1"/><path d="M2370.01 1382 2375.5 1389.99 2380.99 1382Z" fill="#EF352E" fill-rule="evenodd" fill-opacity="1"/><path d="M2344.5 1387.5 2292.51 1387.5" stroke="#FFFFFF" stroke-width="4.89911" stroke-linecap="butt" stroke-linejoin="miter" stroke-miterlimit="1" stroke-opacity="1" fill="none" fill-rule="evenodd"/><path d="M2386 1353 2386 1359 2422 1359 2422 1353Z" fill="#3CBCAB" fill-rule="evenodd" fill-opacity="1"/><path d="M2386 1362 2386 1367 2408.99 1367 2408.99 1362Z" fill="#3CBCAB" fill-rule="evenodd" fill-opacity="1"/><path d="M2375.5 1356 2370.01 1364 2380.99 1364 2375.5 1356Z" fill="#3CBCAB" fill-rule="evenodd" fill-opacity="1"/><path d="M2344.5 1361.5 2292.51 1361.5" stroke="#FFFFFF" stroke-width="4.89911" stroke-linecap="butt" stroke-linejoin="miter" stroke-miterlimit="1" stroke-opacity="1" fill="none" fill-rule="evenodd"/><path d="M2386 1430.01 2386 1435.99 2422 1435.99 2422 1430.01Z" fill="#EF352E" fill-rule="evenodd" fill-opacity="1"/><path d="M2386 1439 2386 1444 2408.99 1444 2408.99 1439Z" fill="#EF352E" fill-rule="evenodd" fill-opacity="1"/><path d="M2370.01 1433.01 2375.5 1440.99 2380.99 1433.01Z" fill="#EF352E" fill-rule="evenodd" fill-opacity="1"/><path d="M2344.5 1437.5 2292.51 1437.5" stroke="#FFFFFF" stroke-width="4.89911" stroke-linecap="butt" stroke-linejoin="miter" stroke-miterlimit="1" stroke-opacity="1" fill="none" fill-rule="evenodd"/><path d="M2386 1404.01 2386 1410 2422 1410 2422 1404.01Z" fill="#3CBCAB" fill-rule="evenodd" fill-opacity="1"/><path d="M2386 1413 2386 1417.99 2408.99 1417.99 2408.99 1413Z" fill="#3CBCAB" fill-rule="evenodd" fill-opacity="1"/><path d="M2375.5 1407.01 2370.01 1414.99 2380.99 1414.99 2375.5 1407.01Z" fill="#3CBCAB" fill-rule="evenodd" fill-opacity="1"/><path d="M2344.5 1411.5 2292.51 1411.5" stroke="#FFFFFF" stroke-width="4.89911" stroke-linecap="butt" stroke-linejoin="miter" stroke-miterlimit="1" stroke-opacity="1" fill="none" fill-rule="evenodd"/><path d="M2470.81 1449.01C2467.64 1449.01 2465 1451.64 2465 1454.8L2465 1533.28C2465 1536.45 2467.64 1539 2470.81 1539L2605.19 1539C2608.35 1539 2610.99 1536.45 2610.99 1533.28L2610.99 1454.8C2610.99 1451.64 2608.35 1449.01 2605.19 1449.01Z" fill="#5664E1" fill-rule="evenodd" fill-opacity="1"/><path d="M2483.98 1484C2481.23 1484 2479.01 1486.11 2479.01 1488.85L2487.63 1488.85 2490.39 1487.17 2490.92 1488.05 2487.99 1489.99 2479.09 1489.99 2479.09 1493.43 2484.61 1493.43 2484.61 1494.57 2479.09 1494.57 2479.09 1498.18 2487.99 1498.18 2490.92 1500.12 2490.39 1501.01 2487.63 1499.33 2479.09 1499.33C2479.18 1501.89 2481.41 1504 2483.98 1504L2502.93 1504C2505.59 1504 2507.82 1501.89 2507.91 1499.33L2499.46 1499.33 2496.7 1501.01 2496.17 1500.12 2499.19 1498.18 2507.99 1498.18 2507.99 1494.57 2502.57 1494.57 2502.57 1493.43 2507.99 1493.43 2507.99 1489.99 2499.19 1489.99 2496.17 1488.05 2496.7 1487.17 2499.46 1488.85 2507.99 1488.85C2507.91 1486.11 2505.68 1484 2502.93 1484Z" fill="#FFC844" fill-rule="evenodd" fill-opacity="1"/><path d="M2593.46 1513C2588.82 1513 2585.01 1516.58 2585.01 1521 2585.01 1525.42 2588.82 1529 2593.46 1529 2598.18 1529 2602 1525.42 2602 1521 2602 1516.58 2598.18 1513 2593.46 1513Z" fill="#EF352E" fill-rule="evenodd" fill-opacity="1"/><path d="M2582.04 1513C2577.59 1513 2574 1516.58 2574 1521 2574 1525.42 2577.59 1529 2582.04 1529 2586.41 1529 2589.99 1525.42 2589.99 1521 2589.99 1516.58 2586.41 1513 2582.04 1513Z" fill="#FFC844" fill-rule="evenodd" fill-opacity="1"/><path d="M2523.51 1491.5 2577.5 1491.5" stroke="#CAB8C6" stroke-width="4.89911" stroke-linecap="butt" stroke-linejoin="miter" stroke-miterlimit="1" stroke-opacity="1" fill="none" fill-rule="evenodd"/><path d="M2523.51 1497.5 2557.5 1497.5" stroke="#CAB8C6" stroke-width="4.89911" stroke-linecap="butt" stroke-linejoin="miter" stroke-miterlimit="1" stroke-opacity="1" fill="none" fill-rule="evenodd"/><path d="M2714.01 1184.01 2714.01 1221.28 2758.17 1221.28 2782.23 1232 2782.23 1221.28 2801 1221.28 2801 1184.01Z" fill="#FFB127" fill-rule="evenodd" fill-opacity="1"/><path d="M2740.14 1200C2740.09 1200 2740.04 1200 2739.99 1200.01 2737.33 1200.01 2736.01 1203.18 2737.86 1205.13 2738.49 1205.73 2739.25 1205.99 2739.98 1205.99 2741.53 1205.99 2743 1204.81 2743 1203.01 2743 1201.38 2741.75 1200 2740.14 1200Z" fill="#FFFFFF" fill-rule="evenodd" fill-opacity="1"/><path d="M2752.02 1200.01C2749.4 1200.01 2748 1203.18 2749.93 1205.13 2750.51 1205.73 2751.25 1205.99 2751.98 1205.99 2753.51 1205.99 2754.99 1204.81 2754.99 1203.01 2754.99 1201.33 2753.69 1200.01 2752.02 1200.01Z" fill="#FFFFFF" fill-rule="evenodd" fill-opacity="1"/><path d="M2763.08 1200C2763.04 1200 2762.99 1200 2762.94 1200.01 2760.31 1200.01 2759.01 1203.18 2760.84 1205.13 2761.46 1205.73 2762.22 1205.99 2762.96 1205.99 2764.51 1205.99 2766 1204.81 2766 1203.01 2765.91 1201.38 2764.67 1200 2763.08 1200Z" fill="#FFFFFF" fill-rule="evenodd" fill-opacity="1"/><path d="M2774.99 1200.01C2772.33 1200.01 2771 1203.18 2772.86 1205.13 2773.46 1205.73 2774.2 1205.99 2774.94 1205.99 2776.49 1205.99 2778 1204.81 2778 1203.01 2778 1201.33 2776.67 1200.01 2774.99 1200.01Z" fill="#FFFFFF" fill-rule="evenodd" fill-opacity="1"/><path d="M2696.59 1400 2696.59 1408.38 2682.01 1408.38 2682.01 1437.99 2779 1437.99 2779 1408.38 2715.22 1408.38 2696.59 1400Z" fill="#FFB127" fill-rule="evenodd" fill-opacity="1"/><path d="M2715.02 1420C2712.31 1420 2711 1423.24 2712.93 1425.08 2713.53 1425.71 2714.28 1425.99 2715.02 1425.99 2716.53 1425.99 2717.99 1424.8 2717.99 1422.98 2717.99 1421.32 2716.59 1420 2715.02 1420Z" fill="#FFFFFF" fill-rule="evenodd" fill-opacity="1"/><path d="M2725.99 1420C2723.33 1420 2722.01 1423.24 2723.86 1425.08 2724.5 1425.71 2725.27 1425.99 2726.02 1425.99 2727.56 1425.99 2728.99 1424.8 2728.99 1422.98 2728.99 1421.32 2727.67 1420 2725.99 1420Z" fill="#FFFFFF" fill-rule="evenodd" fill-opacity="1"/><path d="M2738.03 1420C2735.31 1420 2734.01 1423.23 2735.93 1425.15 2736.52 1425.73 2737.25 1425.99 2737.97 1425.99 2739.5 1425.99 2741 1424.8 2741 1422.96 2741 1421.31 2739.6 1420 2738.03 1420Z" fill="#FFFFFF" fill-rule="evenodd" fill-opacity="1"/><path d="M2749.42 1420C2747.14 1420 2746 1423.24 2747.6 1425.08 2748.15 1425.71 2748.8 1425.99 2749.45 1425.99 2750.76 1425.99 2752 1424.8 2752 1422.98 2752 1421.32 2750.86 1420 2749.42 1420Z" fill="#FFFFFF" fill-rule="evenodd" fill-opacity="1"/><path d="M2626 1109.01C2615.98 1109.01 2605.95 1112.82 2598.33 1120.45 2583 1135.63 2583 1160.37 2598.33 1175.55 2605.95 1183.18 2615.98 1186.99 2626 1186.99 2636.02 1186.99 2646.04 1183.18 2653.66 1175.55 2668.99 1160.37 2668.99 1135.63 2653.66 1120.45 2646.04 1112.82 2636.02 1109.01 2626 1109.01Z" fill="#FFB127" fill-rule="evenodd" fill-opacity="1"/><path d="M2654.16 1120.84C2669.49 1136.07 2669.49 1160.93 2654.16 1176.16 2638.92 1191.49 2614.07 1191.49 2598.83 1176.16 2583.5 1160.93 2583.5 1136.07 2598.83 1120.84 2614.07 1105.51 2638.92 1105.51 2654.16 1120.84Z" stroke="#1226DB" stroke-width="4.7728" stroke-linecap="round" stroke-linejoin="round" stroke-miterlimit="10" stroke-opacity="1" fill="none" fill-rule="evenodd"/><path d="M2626.5 1118.51 2626.5 1148.21 2651.5 1156.49" stroke="#1226DB" stroke-width="4.89911" stroke-linecap="round" stroke-linejoin="round" stroke-miterlimit="10" stroke-opacity="1" fill="none" fill-rule="evenodd"/><path d="M2945.01 1212 2945.01 1260 2995 1260 2995 1212Z" fill="#07105C" fill-rule="evenodd" fill-opacity="1"/><path d="M2953.01 1233.01 2953.01 1253 2960.99 1253 2960.99 1233.01Z" fill="#8FCEF9" fill-rule="evenodd" fill-opacity="1"/><path d="M2966 1228 2966 1253 2974 1253 2974 1228Z" fill="#FDE571" fill-rule="evenodd" fill-opacity="1"/><path d="M2980.01 1222 2980.01 1253 2987.99 1253 2987.99 1222Z" fill="#FFB127" fill-rule="evenodd" fill-opacity="1"/><path d="M2984.01 1191.01 2984.01 1209.4 2984.01 1211.21 2984.01 1217 2991.45 1211.21 3035.99 1211.21 3035.99 1191.01Z" fill="#FFB127" fill-rule="evenodd" fill-opacity="1"/><path d="M2505.05 1583C2500.06 1583 2496.01 1584.59 2496.01 1586.45 2496.01 1588.41 2500.06 1590 2505.05 1590 2510.03 1590 2513.99 1588.41 2513.99 1586.45 2513.99 1584.59 2510.03 1583 2505.05 1583Z" fill="#F5F5F5" fill-rule="evenodd" fill-opacity="1"/><path d="M2350.96 1561.01C2344.41 1561.01 2339.01 1563.23 2339.01 1566 2339.01 1568.77 2344.41 1570.99 2350.96 1570.99 2357.6 1570.99 2363 1568.77 2363 1566 2363 1563.23 2357.6 1561.01 2350.96 1561.01Z" fill="#1226DB" fill-rule="evenodd" fill-opacity="1"/><path d="M2829.54 1590.01C2823.21 1590.01 2818.01 1591.36 2818.01 1593.04 2818.01 1594.72 2823.21 1595.99 2829.54 1595.99 2835.88 1595.99 2841 1594.64 2841 1593.04 2841 1591.36 2835.88 1590.01 2829.54 1590.01Z" fill="#1226DB" fill-rule="evenodd" fill-opacity="1"/><path d="M2928.46 1560.01C2925.44 1560.01 2923 1561.32 2923 1563 2923 1564.68 2925.44 1565.99 2928.46 1565.99 2931.56 1565.99 2933.99 1564.68 2933.99 1563 2933.99 1561.32 2931.56 1560.01 2928.46 1560.01Z" fill="#1226DB" fill-rule="evenodd" fill-opacity="1"/><path d="M2936.87 1503.01C2932.35 1503.01 2930 1508.37 2933.22 1511.52 2934.26 1512.54 2935.56 1512.99 2936.82 1512.99 2939.46 1512.99 2942 1511.02 2942 1508.02 2942 1505.22 2939.74 1503.01 2936.87 1503.01Z" fill="#E1D6DE" fill-rule="evenodd" fill-opacity="1"/><path d="M2921 1513C2919.92 1513 2919 1514.04 2919 1515.5 2919 1516.85 2919.92 1517.99 2921 1517.99 2922.17 1517.99 2923 1516.85 2923 1515.5 2923 1514.04 2922.17 1513 2921 1513Z" fill="#E1D6DE" fill-rule="evenodd" fill-opacity="1"/><path d="M2933.31 1527.01C2931.71 1527.01 2931.01 1528.63 2932.07 1529.56 2932.42 1529.86 2932.85 1530 2933.29 1530 2934.16 1530 2934.99 1529.43 2934.99 1528.55 2934.99 1527.7 2934.19 1527.01 2933.31 1527.01Z" fill="#E1D6DE" fill-rule="evenodd" fill-opacity="1"/><path d="M2788.43 1481.01C2783.53 1481.01 2781 1486.93 2784.55 1490.35 2785.67 1491.49 2787.05 1491.99 2788.41 1491.99 2791.26 1491.99 2793.99 1489.79 2793.99 1486.52 2793.99 1483.51 2791.46 1481.01 2788.43 1481.01Z" fill="#E1D6DE" fill-rule="evenodd" fill-opacity="1"/><path d="M2782.5 1500.01C2780.58 1500.01 2779.01 1501.58 2779.01 1503.5 2779.01 1505.43 2780.58 1507 2782.5 1507 2784.42 1507 2786 1505.43 2786 1503.5 2786 1501.58 2784.42 1500.01 2782.5 1500.01Z" fill="#E1D6DE" fill-rule="evenodd" fill-opacity="1"/><path d="M2349.42 1133C2348.4 1133 2347.36 1133.3 2346.43 1133.92 2345.51 1134.49 2344.46 1134.77 2343.42 1134.77 2342.38 1134.77 2341.36 1134.49 2340.48 1133.92 2339.57 1133.31 2338.56 1133.02 2337.55 1133.02 2335.78 1133.02 2334.05 1133.92 2333.05 1135.5 2331.99 1137.11 2330.28 1138.05 2328.43 1138.05 2328.14 1138.05 2327.84 1138.03 2327.54 1137.98 2327.22 1137.92 2326.91 1137.9 2326.6 1137.9 2323.99 1137.9 2321.73 1139.81 2321.33 1142.58 2320.98 1144.7 2319.49 1146.38 2317.4 1147 2314.42 1147.7 2312.76 1150.71 2313.55 1153.72 2314.16 1155.75 2313.37 1158.05 2311.72 1159.38 2309.35 1161.32 2309.01 1164.77 2310.93 1167.16 2312.33 1168.84 2312.5 1171.13 2311.54 1173.08 2310.14 1175.82 2311.19 1179.09 2313.9 1180.51 2315.82 1181.48 2316.96 1183.51 2316.87 1185.73 2316.7 1188.73 2318.97 1191.3 2322.03 1191.47 2324.13 1191.56 2326.06 1192.97 2326.84 1195.01 2327.64 1197.17 2329.66 1198.5 2331.82 1198.5 2332.5 1198.5 2333.17 1198.38 2333.83 1198.11 2334.46 1197.85 2335.12 1197.74 2335.77 1197.74 2337.19 1197.74 2338.59 1198.31 2339.61 1199.34 2340.66 1200.44 2342.06 1201 2343.45 1201 2344.85 1201 2346.26 1200.44 2347.3 1199.34 2348.32 1198.31 2349.72 1197.74 2351.14 1197.74 2351.79 1197.74 2352.44 1197.85 2353.07 1198.11 2353.73 1198.38 2354.43 1198.5 2355.1 1198.5 2357.28 1198.5 2359.35 1197.17 2360.16 1195.01 2360.86 1192.89 2362.78 1191.47 2364.97 1191.38 2367.94 1191.3 2370.3 1188.65 2370.04 1185.63 2369.95 1183.43 2371.09 1181.39 2373.01 1180.42 2375.73 1179.09 2376.77 1175.73 2375.46 1173.08 2374.41 1171.13 2374.67 1168.75 2376.07 1167.07 2377.99 1164.77 2377.56 1161.23 2375.2 1159.38 2373.54 1157.96 2372.84 1155.75 2373.36 1153.63 2374.24 1150.71 2372.49 1147.7 2369.6 1146.91 2367.51 1146.38 2365.93 1144.61 2365.58 1142.49 2365.19 1139.8 2362.91 1137.9 2360.31 1137.9 2360 1137.9 2359.69 1137.92 2359.37 1137.98 2359.09 1138.03 2358.8 1138.05 2358.51 1138.05 2356.69 1138.05 2354.93 1137.11 2353.95 1135.5 2352.9 1133.88 2351.18 1133 2349.42 1133Z" fill="#FFB127" fill-rule="evenodd" fill-opacity="1"/><path d="M2357.37 1154C2356.6 1154 2355.81 1154.33 2355.13 1155.11L2340.33 1172.15 2331.36 1164.76C2330.64 1164.18 2329.86 1163.93 2329.11 1163.93 2326.35 1163.93 2324.01 1167.27 2326.66 1169.41L2338.28 1179.07C2338.99 1179.63 2339.93 1179.99 2340.84 1179.99 2341.63 1179.99 2342.4 1179.72 2342.98 1179.07L2359.83 1159.76C2361.99 1157.28 2359.79 1154 2357.37 1154Z" fill="#FFFFFF" fill-rule="evenodd" fill-opacity="1"/></g></svg>