<svg width="1691" height="1384" xmlns="http://www.w3.org/2000/svg" xmlns:xlink="http://www.w3.org/1999/xlink" xml:space="preserve" overflow="hidden"><defs><clipPath id="clip0"><rect x="1599" y="160" width="1691" height="1384"/></clipPath></defs><g clip-path="url(#clip0)" transform="translate(-1599 -160)"><path d="M2110.72 1200C2107.66 1200 2104.46 1200.6 2101.12 1201.83 2051.42 1220.25 2122.53 1315.29 2132.2 1327.84L2132.2 1327.84C2118.76 1310.94 2092.28 1289.46 2071.26 1289.46 2061.4 1289.46 2052.73 1294.19 2047.18 1306.36 2039.61 1323.31 2055.85 1339.24 2076.92 1351.72 2069.77 1350.06 2062.65 1348.8 2056.85 1348.8 2051.67 1348.8 2047.58 1349.8 2045.47 1352.41 2033.03 1367.3 2058.25 1384.94 2106.63 1385.97 2107.38 1386 2108.09 1386 2108.81 1386 2124.68 1386 2133.09 1382.33 2137.06 1378.01L2138.09 1378.01 2256.65 1383.57 2238.69 1322.28C2238.69 1322.28 2265.97 1206.33 2208.61 1201.15 2207.26 1201 2205.98 1200.95 2204.75 1200.95 2155.05 1200.95 2168.17 1298.03 2170.17 1311.4 2168.14 1298.17 2150.64 1200 2110.72 1200Z" fill="#78E2FF" fill-rule="evenodd" fill-opacity="1"/><path d="M2256.65 1383.22 2238.69 1322C2238.69 1322 2265.97 1206.15 2208.61 1200.97 2153.65 1195.79 2168.52 1300.22 2170.23 1311.64 2168.52 1299.88 2148.47 1184.03 2101.12 1201.65 2047.9 1221.37 2133.26 1328.92 2133.26 1328.92 2114.24 1304.03 2064.83 1267.38 2047.18 1306.09 2039.61 1323.03 2055.85 1338.93 2076.92 1351.41 2063.43 1348.29 2049.96 1346.54 2045.47 1352.09 2033.03 1366.97 2058.25 1384.6 2106.63 1385.63 2123.94 1385.97 2132.91 1382.17 2137.06 1377.67L2138.09 1377.67Z" fill="#07105C" fill-rule="evenodd" fill-opacity="1"/><path d="M2189.24 1303C2188.48 1303 2187.65 1303.11 2186.77 1303.34 2170.94 1307.77 2178.51 1337.83 2178.51 1337.83 2178.51 1337.83 2170.03 1311.25 2153.98 1311.25 2151.76 1311.25 2149.39 1311.76 2146.86 1312.91 2126.9 1322.12 2149.96 1351.84 2149.96 1351.84 2149.96 1351.84 2139.51 1339.41 2130.46 1339.41 2127.79 1339.41 2125.25 1340.48 2123.12 1343.31 2109.03 1363.1 2168.55 1385.95 2168.55 1385.95L2213.61 1387C2213.61 1387 2247 1347.74 2235.98 1328.28 2232.54 1322.04 2228.41 1319.81 2224.31 1319.81 2214.01 1319.81 2203.65 1333.73 2203.65 1333.73 2203.65 1333.73 2202.42 1303 2189.24 1303Z" fill="#FFB127" fill-rule="evenodd" fill-opacity="1"/><path d="M2535.31 1200C2495.67 1200 2478.43 1296.05 2476.11 1311.01L2476.11 1311.01C2478.28 1296.17 2490.22 1200.95 2441.48 1200.95 2440.22 1200.95 2438.96 1201 2437.65 1201.15 2380 1206.33 2389.31 1383.73 2389.31 1383.73 2389.31 1383.73 2433.82 1387 2482.85 1387 2541.96 1387 2607.63 1382.24 2609.52 1361.2 2610.23 1353.46 2598.52 1351.11 2584.93 1351.11 2579.05 1351.11 2572.8 1351.57 2567.06 1352.2 2592.27 1337.64 2614 1318.92 2605.72 1300.58 2600.72 1289.23 2592.44 1284.79 2582.7 1284.79 2559.15 1284.79 2527.14 1310.87 2513.09 1328.61 2520.46 1319.15 2595.55 1220.64 2544.99 1201.83 2541.62 1200.6 2538.39 1200 2535.31 1200Z" fill="#78E2FF" fill-rule="evenodd" fill-opacity="1"/><path d="M2609.52 1360.63C2610.54 1349.56 2586.05 1349.56 2567.06 1351.65 2592.27 1337.12 2614 1318.45 2605.72 1300.15 2588.47 1261.09 2531.85 1303.95 2512.52 1328.83 2512.52 1328.83 2598.12 1221.34 2544.99 1201.64 2497.36 1184.03 2477.68 1299.81 2475.94 1311.56 2477.68 1300.49 2492.16 1195.78 2437.65 1200.96 2380 1206.13 2389.31 1383.1 2389.31 1383.1 2389.31 1383.1 2606.06 1399 2609.52 1360.63Z" fill="#07105C" fill-rule="evenodd" fill-opacity="1"/><path d="M2456.15 1307.03C2442.79 1307.03 2441.59 1338.13 2441.59 1338.13 2441.59 1338.13 2431.06 1323.91 2420.68 1323.91 2416.59 1323.91 2412.5 1326.14 2409.07 1332.28 2398.03 1352.3 2431.55 1392 2431.55 1392L2476.82 1390.94C2476.82 1390.94 2537 1367.84 2522.47 1347.81 2520.41 1344.96 2517.89 1343.87 2515.23 1343.87 2506.23 1343.87 2495.5 1356.44 2495.5 1356.44 2495.5 1356.44 2519.01 1326.39 2498.96 1317.08 2496.39 1315.91 2493.98 1315.4 2491.7 1315.4 2475.34 1315.4 2466.81 1342.27 2466.81 1342.27 2466.81 1342.27 2474.42 1311.54 2458.86 1307.4 2457.92 1307.14 2457 1307.03 2456.15 1307.03Z" fill="#FFB127" fill-rule="evenodd" fill-opacity="1"/><path d="M1732.18 894.91C1733.06 894.91 1733.95 894.91 1734.86 894.967 1765.15 896.685 1789.26 921.965 1789.26 952.742 1789.26 956.894 1788.92 961.045 1787.89 965.196 1782.36 991.794 1758.65 1010.66 1732.04 1010.66 1728.87 1010.66 1725.68 1010.4 1722.46 1009.86 1692.14 1004.99 1671.14 977.307 1674.59 946.873 1677.58 916.984 1702.66 894.91 1732.18 894.91ZM1731.55 883.029C1705.7 883.029 1680.11 897.315 1668.03 924.027 1647.03 970.407 1680.77 1023 1731.41 1023 1742.1 1023 1752.75 1020.22 1762.41 1015.38 1781.34 1006.05 1795.13 988.387 1799.6 967.63 1800.63 962.792 1800.97 957.953 1800.97 952.742 1800.97 935.794 1795.13 919.532 1783.76 907.078 1769.74 890.787 1750.56 883.029 1731.55 883.029Z" fill="#0E1DA8" fill-rule="evenodd" fill-opacity="1"/><path d="M1788.09 965C1784.6 981.904 1773.07 996.699 1757 1004.62L1762.26 1014.97C1781.45 1005.68 1795.43 988.09 1799.97 967.423L1788.09 965Z" fill="#18BDF7" fill-rule="evenodd" fill-opacity="1"/><path d="M1731.17 883C1713.07 883 1694.85 890.031 1681 904.238L1689.66 912.561C1701.22 900.851 1716.31 895.025 1731.4 895.025 1747.54 895.025 1763.64 901.712 1775.31 915L1783.97 907.366C1770.12 891.18 1750.7 883 1731.17 883Z" fill="#1226DB" fill-rule="evenodd" fill-opacity="1"/><path d="M2157.72 307.221C2158.38 307.221 2159.04 307.25 2159.72 307.278 2180.13 308.306 2196.04 325.204 2196.04 345.557 2196.04 348.326 2196.04 351.095 2195.36 353.493 2191.29 371.533 2175.44 383.979 2157.63 383.979 2155.72 383.979 2153.74 383.836 2151.77 383.522 2131.36 380.068 2117.51 361.771 2119.6 341.418 2121.6 321.75 2138.17 307.221 2157.72 307.221ZM2158.06 299C2130.39 299 2104.03 324.262 2112.67 357.289 2118.62 380.496 2138.06 391.971 2157.52 391.971 2177.7 391.971 2197.85 379.64 2202.97 355.234 2203.66 352.122 2204 348.668 2204 345.557 2204 334.196 2199.85 323.492 2192.58 315.214 2182.74 303.91 2170.29 299 2158.06 299Z" fill="#23295C" fill-rule="evenodd" fill-opacity="1"/><path d="M2195.4 353C2192.97 364.565 2185.37 374.739 2175.03 379.986L2178.46 387C2190.91 380.681 2200.23 368.768 2203 354.768L2195.4 353Z" fill="#8FCEF9" fill-rule="evenodd" fill-opacity="1"/><path d="M2158.11 299C2146.15 299 2134.19 303.595 2125.03 312.812L2130.54 318.281C2138.19 310.557 2148.18 306.724 2158.11 306.724 2168.79 306.724 2179.44 311.149 2187.12 319.972L2193 314.87C2183.72 304.299 2170.93 299 2158.11 299Z" fill="#1226DB" fill-rule="evenodd" fill-opacity="1"/><path d="M1644.7 1129.19C1656.64 1129.19 1668.02 1138.47 1668.02 1152.49 1668.02 1165.28 1657.7 1175.61 1644.99 1175.61 1624.37 1175.61 1614.05 1150.77 1628.49 1135.93 1633.24 1131.27 1639.04 1129.19 1644.7 1129.19ZM1644.99 1109.03C1641.8 1109.03 1638.65 1109.37 1635.38 1110.06L1636.74 1118.68C1633.3 1119.36 1629.86 1120.76 1626.79 1122.82L1621.61 1115.57C1616.13 1119.02 1611.66 1123.5 1608.22 1129.04L1615.44 1134.55C1613.37 1137.32 1612 1140.78 1610.98 1144.21L1602.36 1142.83C1601 1149.4 1601 1155.94 1602.36 1162.16L1610.98 1160.79C1612 1164.22 1613.37 1167.68 1615.44 1170.79L1608.22 1175.96C1611.66 1181.5 1616.13 1185.98 1621.61 1189.43L1626.79 1182.52C1629.86 1184.24 1633.3 1185.64 1636.74 1186.32L1635.38 1194.94C1638.65 1195.63 1641.8 1195.97 1644.99 1195.97 1648.17 1195.97 1651.35 1195.63 1654.62 1194.94L1653.23 1186.32C1656.67 1185.64 1660.11 1184.24 1662.87 1182.52L1668.36 1189.43C1673.85 1185.98 1678.34 1181.5 1681.75 1175.96L1674.56 1170.79C1676.6 1167.68 1678 1164.22 1679.02 1160.79L1687.61 1162.16C1688.97 1155.94 1688.97 1149.4 1687.61 1142.83L1679.02 1144.21C1678 1140.78 1676.6 1137.32 1674.56 1134.55L1681.75 1129.04C1678.34 1123.85 1673.5 1119.02 1668.36 1115.57L1662.87 1122.82C1660.11 1120.76 1656.67 1119.36 1653.23 1118.68L1654.62 1110.06C1651.35 1109.37 1648.17 1109.03 1644.99 1109.03Z" fill="#1226DB" fill-rule="evenodd" fill-opacity="1"/><path d="M2985.66 462.469C3003.58 462.469 3020.9 476.43 3020.9 497.543 3020.9 516.339 3005.69 532.131 2986.63 532.131 2986.43 532.131 2986.23 532.131 2986 532.102 2954.93 532.102 2939.38 494.768 2961.48 472.625 2968.48 465.616 2977.14 462.469 2985.66 462.469ZM2986.06 432C2981.26 432 2976.51 432.515 2971.85 433.574L2973.57 446.362C2968.39 447.735 2963.56 449.823 2959.07 452.57L2951.13 441.87C2942.84 447.048 2935.92 454.315 2930.75 462.268L2941.44 470.222C2938.69 474.713 2936.61 479.891 2935.24 485.098L2922.09 483.01C2920.03 492.679 2920.03 502.378 2922.09 511.704L2935.24 509.988C2936.61 515.166 2938.69 520.001 2941.44 524.493L2930.75 532.446C2935.92 540.771 2942.84 547.666 2951.13 552.872L2959.07 542.144C2963.56 544.919 2968.39 546.979 2973.57 548.352L2971.85 561.169C2976.51 562.371 2981.26 562.971 2986.06 562.971 2990.86 562.971 2995.69 562.371 3000.52 561.169L2998.46 548.352C3003.64 546.979 3008.81 544.919 3013.3 542.144L3021.24 552.872C3029.19 547.666 3036.11 540.771 3041.28 532.446L3030.93 524.493C3033.68 520.001 3035.76 515.166 3036.79 509.988L3049.91 511.704C3052 502.378 3052 492.679 3049.91 483.01L3036.79 485.098C3035.76 479.891 3033.68 474.713 3030.93 470.222L3041.28 462.268C3036.11 454.315 3029.19 447.048 3021.24 441.87L3013.3 452.57C3008.81 449.823 3003.64 447.735 2998.46 446.362L3000.52 433.574C2995.69 432.515 2990.86 432 2986.06 432Z" fill="#23295C" fill-rule="evenodd" fill-opacity="1"/><path d="M2031.47 262.398C2031.47 278.219 2012.05 286.5 2000.6 275.146 1989.53 263.793 1997.5 244.528 2013.45 244.528 2023.5 244.528 2031.47 252.439 2031.47 262.398Z" stroke="#1226DB" stroke-width="2.72474" stroke-linecap="butt" stroke-linejoin="miter" stroke-miterlimit="1" stroke-opacity="1" fill="none" fill-rule="evenodd"/><path d="M2727.47 327.752C2727.47 343.584 2708.21 351.5 2696.88 340.48 2685.53 329.119 2693.78 309.842 2709.6 309.842 2719.56 309.5 2727.47 317.758 2727.47 327.752Z" stroke="#1226DB" stroke-width="0.658629" stroke-linecap="butt" stroke-linejoin="miter" stroke-miterlimit="1" stroke-opacity="1" fill="none" fill-rule="evenodd"/><path d="M2277.97 459.815C2277.97 475.272 2265.27 487.972 2249.82 487.972 2234.36 487.972 2222 475.272 2222 459.815 2222 444.359 2234.36 432 2249.82 432 2265.27 432 2277.97 444.359 2277.97 459.815Z" stroke="#1226DB" stroke-width="4.24951" stroke-linecap="butt" stroke-linejoin="miter" stroke-miterlimit="1" stroke-opacity="1" fill="none" fill-rule="evenodd"/><path d="M3079.97 879.491C3079.63 904.478 3049.57 916.971 3031.63 899.279 3014 881.559 3026.46 851.029 3051.66 851.029 3067.2 851.029 3079.97 863.867 3079.97 879.491Z" stroke="#0E1DA8" stroke-width="4.24951" stroke-linecap="butt" stroke-linejoin="miter" stroke-miterlimit="1" stroke-opacity="1" fill="none" fill-rule="evenodd"/><path d="M1766.34 516C1750.13 516 1737 529.14 1737 545.022L1737 1220.01C1737 1236.23 1750.13 1249 1766.34 1249L2879.03 1249C2894.9 1249 2908 1236.23 2908 1220.01L2908 545.022C2908 529.14 2894.9 516 2879.03 516Z" fill="#5664E1" fill-rule="evenodd" fill-opacity="1"/><path d="M2246.32 1204 2234.89 1248.93 2228.99 1272.08 2203.03 1373.97 2442 1373.97 2416.01 1272.08 2410.14 1248.93 2398.7 1204Z" fill="#5664E1" fill-rule="evenodd" fill-opacity="1"/><path d="M2234.9 1249.03 2229 1272 2415.97 1272 2410.1 1249.03Z" fill="#1226DB" fill-rule="evenodd" fill-opacity="1"/><path d="M2112.32 1365C2101.94 1365 2094 1373.37 2094 1383.5 2094 1393.6 2101.94 1401.97 2112.32 1401.97L2533.68 1401.97C2544.03 1401.97 2551.97 1393.6 2551.97 1383.5 2551.97 1373.37 2544.03 1365 2533.68 1365Z" fill="#1226DB" fill-rule="evenodd" fill-opacity="1"/><path d="M1735.03 620.029 1735.03 1131.97 2908 1131.97 2908 620.029Z" fill="#FDE571" fill-rule="evenodd" fill-opacity="1"/><path d="M2323.01 1162.03C2308.13 1162.03 2296.03 1174.06 2296.03 1188.84 2296.03 1203.6 2308.13 1215.63 2323.01 1216 2337.87 1215.63 2349.97 1203.6 2349.97 1188.84 2349.97 1174.06 2337.87 1162.03 2323.01 1162.03Z" fill="#1226DB" fill-rule="evenodd" fill-opacity="1"/><path d="M2155.16 634C2147.22 634 2141.03 640.571 2141.03 648.17L2141.03 936.83C2141.03 944.429 2147.22 951 2155.16 951L2867.84 951C2875.78 951 2881.97 944.429 2881.97 936.83L2881.97 648.17C2881.97 640.571 2875.78 634 2867.84 634Z" fill="#5664E1" fill-rule="evenodd" fill-opacity="1"/><path d="M2158 659 2158 923.322C2158 928.832 2162.14 932.971 2167.68 932.971L2852.32 932.971C2857.83 932.971 2861.97 928.832 2861.97 923.322L2861.97 802.908C2853.01 797.37 2843.36 792.888 2832.99 789.777L2827.82 788.406C2821.69 787.007 2815.78 786.379 2810.07 786.379 2761.93 786.379 2728.58 832.056 2694.95 859.832 2693.92 860.86 2692.9 861.545 2691.5 862.602 2678.02 873.45 2664.32 881.043 2649.47 881.043 2644.96 881.043 2640.36 880.33 2635.59 878.817 2579.01 861.545 2578.66 765.283 2541.75 722.147 2540.69 720.777 2539.66 719.749 2538.64 718.693 2528.27 707.331 2513.45 701.108 2497.92 701.108 2497.61 701.108 2497.29 701.108 2496.98 701.108 2415.5 701.108 2422.52 838.165 2376.44 857.748 2375.07 858.12 2373.67 858.805 2372.3 859.147 2369.9 859.49 2367.48 859.832 2365.05 859.832 2296.38 859.832 2305.69 778.757 2274.29 719.749 2273.26 717.665 2272.23 715.61 2271.2 713.868 2252.9 682.809 2221.15 659 2158 659Z" fill="#1226DB" fill-rule="evenodd" fill-opacity="1"/><path d="M2573.58 705.029C2560.62 705.029 2547.87 710.14 2538.45 719.249 2519.13 736.839 2507.4 767.907 2495.67 798.262 2478.1 842.808 2461.89 884.898 2424.96 885.955 2424.08 885.955 2423.19 885.984 2422.34 885.984 2398.28 885.984 2387.01 876.646 2376.33 858.342 2371.85 850.404 2367.37 840.723 2362.21 829.672 2351.16 804.144 2338.04 779.986 2323.23 756.514 2310.81 737.182 2292.52 722.333 2271.15 714.395 2254.6 708.17 2237.33 705.971 2221.21 705.971 2193.59 705.971 2169.33 712.424 2158 716.137L2158 720.277C2168.3 717.05 2192.96 710.111 2221.15 710.111 2238.36 710.111 2256.88 712.681 2274.23 720.277 2292.86 728.216 2308.73 741.665 2319.43 758.941 2334.24 782.042 2347.37 806.2 2358.41 831.414 2363.58 842.094 2367.72 851.432 2372.2 859.37 2383.24 879.444 2395.88 890.124 2422.76 890.124 2423.59 890.124 2424.45 890.095 2425.3 890.095 2464.97 889.039 2482.23 843.493 2499.47 799.661 2511.2 769.963 2522.93 739.266 2541.22 722.333 2549.87 713.995 2561.45 709.198 2573.41 709.198 2573.84 709.198 2574.24 709.226 2574.66 709.226L2576.03 709.226C2619.84 710.254 2643.64 762.368 2666.41 812.768 2674.69 830.386 2682.62 847.976 2691.24 862.825 2705.73 886.983 2721.6 904.573 2742.97 906.658 2745.06 907 2746.77 907 2748.51 907 2781.61 907 2793 875.247 2804.04 844.179 2811.29 823.476 2818.85 802.431 2833.01 789.981 2840.94 782.756 2851.3 778.958 2861.97 778.958L2861.63 774.818C2848.87 774.818 2836.46 779.644 2827.5 788.953 2814.03 802.06 2806.78 822.791 2799.56 843.151 2788.72 874.047 2778.19 903.06 2747.68 903.06 2746.17 903.06 2744.6 903.002 2742.97 902.86 2722.97 900.775 2708.16 883.87 2694.69 860.398 2686.07 845.549 2678.48 828.644 2670.21 811.054 2646.75 759.626 2622.61 706.114 2576.03 705.086 2575.23 705.057 2574.41 705.029 2573.58 705.029Z" fill="#FFFFFF" fill-rule="evenodd" fill-opacity="1"/><path d="M2502.1 964C2495.54 964 2490.03 969.48 2490.03 976.011L2490.03 1020.96C2490.03 1027.83 2495.54 1033 2502.1 1033L2869.9 1033C2876.46 1033 2881.97 1027.83 2881.97 1020.96L2881.97 976.011C2881.97 969.48 2876.46 964 2869.9 964Z" fill="#07105C" fill-rule="evenodd" fill-opacity="1"/><path d="M2502.1 1048C2495.54 1048 2490.03 1053.51 2490.03 1060.01L2490.03 1104.99C2490.03 1111.83 2495.54 1117 2502.1 1117L2869.9 1117C2876.46 1117 2881.97 1111.83 2881.97 1104.99L2881.97 1060.01C2881.97 1053.51 2876.46 1048 2869.9 1048Z" fill="#FFFFFF" fill-rule="evenodd" fill-opacity="1"/><path d="M1779.17 634C1771.23 634 1765 640.557 1765 648.14L1765 772.86C1765 780.785 1771.23 787 1779.17 787L2114.83 787C2122.77 787 2129 780.785 2129 772.86L2129 648.14C2129 640.557 2122.77 634 2114.83 634Z" fill="#8FCEF9" fill-rule="evenodd" fill-opacity="1"/><path d="M2059.77 672.029C2057.73 672.029 2056.03 673.401 2056.03 675.489L2056.03 770.168C2056.03 772.256 2057.73 773.972 2059.77 773.972L2077.57 773.972C2079.27 773.972 2081 772.256 2081 770.168L2081 675.489C2081 673.401 2079.27 672.029 2077.57 672.029Z" fill="#FFFFFF" fill-rule="evenodd" fill-opacity="1"/><path d="M2094.11 649.028C2092.07 649.028 2090 650.733 2090 652.806L2090 769.853C2090 771.927 2092.07 773.972 2094.11 773.972L2111.23 773.972C2113.27 773.972 2115 771.927 2115 769.853L2115 652.806C2115 650.733 2113.27 649.028 2111.23 649.028Z" fill="#FFFFFF" fill-rule="evenodd" fill-opacity="1"/><path d="M1782.79 649.028C1780.72 649.028 1779.03 650.733 1779.03 652.806L1779.03 769.853C1779.03 771.927 1780.72 773.972 1782.79 773.972L1799.87 773.972C1801.94 773.972 1803.97 771.927 1803.97 769.853L1803.97 652.806C1803.97 650.733 1801.94 649.028 1799.87 649.028Z" fill="#FFFFFF" fill-rule="evenodd" fill-opacity="1"/><path d="M1817.45 678C1815.39 678 1814.03 679.399 1814.03 681.456L1814.03 770.544C1814.03 772.258 1815.39 773.972 1817.45 773.972L1835.57 773.972C1837.3 773.972 1839 772.258 1839 770.544L1839 681.456C1839 679.399 1837.3 678 1835.57 678Z" fill="#FFFFFF" fill-rule="evenodd" fill-opacity="1"/><path d="M1852.27 649.028C1849.8 649.028 1848 650.733 1848 652.806L1848 769.853C1848 771.927 1849.8 773.972 1852.27 773.972L1870.08 773.972C1872.2 773.972 1874 771.927 1874 769.853L1874 652.806C1874 650.733 1872.2 649.028 1870.08 649.028Z" fill="#FFFFFF" fill-rule="evenodd" fill-opacity="1"/><path d="M1886.09 705.028C1884.36 705.028 1883 706.391 1883 707.782L1883 770.906C1883 772.609 1884.36 773.972 1886.09 773.972L1905.25 773.972C1906.61 773.972 1907.97 772.609 1907.97 770.906L1907.97 707.782C1907.97 706.391 1906.61 705.028 1905.25 705.028Z" fill="#FFFFFF" fill-rule="evenodd" fill-opacity="1"/><path d="M1921.29 649.028C1919.15 649.028 1917.03 650.733 1917.03 652.806L1917.03 769.853C1917.03 771.927 1919.15 773.972 1921.29 773.972L1939.06 773.972C1941.21 773.972 1942.97 771.927 1942.97 769.853L1942.97 652.806C1942.97 650.733 1941.21 649.028 1939.06 649.028Z" fill="#FFFFFF" fill-rule="evenodd" fill-opacity="1"/><path d="M1955.47 672.029C1953.41 672.029 1952 673.401 1952 675.489L1952 770.168C1952 772.256 1953.41 773.972 1955.47 773.972L1973.53 773.972C1975.59 773.972 1977 772.256 1977 770.168L1977 675.489C1977 673.401 1975.59 672.029 1973.53 672.029Z" fill="#FFFFFF" fill-rule="evenodd" fill-opacity="1"/><path d="M1990.77 649.028C1988.73 649.028 1987 650.733 1987 652.806L1987 769.853C1987 771.927 1988.73 773.972 1990.77 773.972L2007.87 773.972C2009.93 773.972 2011.97 771.927 2011.97 769.853L2011.97 652.806C2011.97 650.733 2009.93 649.028 2007.87 649.028Z" fill="#FFFFFF" fill-rule="evenodd" fill-opacity="1"/><path d="M2024.45 678C2022.39 678 2021.03 679.399 2021.03 681.456L2021.03 770.544C2021.03 772.258 2022.39 773.972 2024.45 773.972L2042.55 773.972C2044.27 773.972 2045.97 772.258 2045.97 770.544L2045.97 681.456C2045.97 679.399 2044.27 678 2042.55 678Z" fill="#FFFFFF" fill-rule="evenodd" fill-opacity="1"/><path d="M1779.17 799.028C1771.23 799.028 1765 805.555 1765 813.137L1765 937.863C1765 945.786 1771.23 951.971 1779.17 951.971L2114.83 951.971C2122.77 951.971 2129 945.786 2129 937.863L2129 813.137C2129 805.555 2122.77 799.028 2114.83 799.028Z" fill="#FFFFFF" fill-rule="evenodd" fill-opacity="1"/><path d="M1779.17 964C1771.23 964 1765 970.557 1765 978.14L1765 1102.86C1765 1110.79 1771.23 1117 1779.17 1117L2114.83 1117C2122.77 1117 2129 1110.79 2129 1102.86L2129 978.14C2129 970.557 2122.77 964 2114.83 964Z" fill="#FFFFFF" fill-rule="evenodd" fill-opacity="1"/><path d="M2110.35 819.029 2110.35 819.371C2106.56 819.371 2103.44 822.111 2103.44 825.908 2103.44 827.306 2103.81 828.334 2104.5 829.361L2048.96 892.157C2048.27 891.814 2047.21 891.472 2046.53 891.472 2045.5 891.472 2044.47 891.814 2043.76 892.157L1983.73 833.158C1986.02 828.819 1980.85 825.708 1976.43 825.708 1973.46 825.708 1970.83 827.078 1970.98 830.389 1970.98 831.445 1970.98 832.473 1971.66 833.5L1894.74 916.304C1893.37 915.619 1891.97 915.277 1890.6 915.277 1889.57 915.277 1888.52 915.619 1887.49 915.962L1845.42 861.102C1846.1 860.074 1846.44 858.704 1846.44 857.305 1846.1 852.995 1842.9 850.854 1839.71 850.854 1836.51 850.854 1833.31 852.995 1832.97 857.305 1832.97 858.333 1833.31 859.731 1833.68 860.759L1786.76 921.813C1786.07 921.471 1785.02 921.471 1784.33 921.471 1778.14 921.471 1775.03 928.721 1779.51 932.859 1780.85 934.344 1782.59 935 1784.31 935 1787.79 935 1791.24 932.203 1791.24 928.035 1791.24 926.665 1790.56 925.609 1790.21 924.582L1837.11 863.528C1837.82 863.87 1838.85 864.213 1839.88 864.213 1840.56 864.213 1841.25 863.87 1841.96 863.87L1884.38 919.415C1884.03 920.1 1883.69 921.128 1884.03 922.184 1883.86 926.665 1887.23 928.892 1890.63 928.892 1894.05 928.892 1897.51 926.665 1897.51 922.184 1897.51 921.471 1897.51 920.785 1897.16 920.1L1974.43 836.611C1975.46 836.954 1976.51 837.296 1977.54 837.296 1978.57 837.296 1979.94 836.954 1980.99 836.269L2040.34 894.925C2039.99 895.953 2039.62 896.98 2039.62 898.379 2039.99 902.518 2043.16 904.573 2046.36 904.573 2049.55 904.573 2052.75 902.518 2053.09 898.379 2053.09 896.98 2052.75 895.953 2052.07 894.925L2107.61 832.13C2108.64 832.473 2109.32 832.815 2110.35 832.815 2118.97 832.13 2118.97 819.714 2110.35 819.029Z" fill="#FFFFFF" fill-rule="evenodd" fill-opacity="1"/><path d="M1784.23 976C1780.77 976 1778.03 978.598 1778.03 981.839L1778.03 982.482C1778.03 985.402 1780.77 987.973 1784.23 987.973L2079.74 987.973C2083.2 987.973 2085.97 985.402 2085.97 982.482L2085.97 981.839C2085.97 978.598 2083.2 976 2079.74 976Z" fill="#FFFFFF" fill-rule="evenodd" fill-opacity="1"/><path d="M1783.89 999.029C1780.43 999.029 1778.03 1001.46 1778.03 1004.96L1778.03 1006.04C1778.03 1009.51 1780.43 1011.97 1783.89 1011.97L2049.11 1011.97C2052.23 1011.97 2054.97 1009.51 2054.97 1006.04L2054.97 1004.96C2054.97 1001.46 2052.23 999.029 2049.11 999.029Z" fill="#FFFFFF" fill-rule="evenodd" fill-opacity="1"/><path d="M1784.23 1022.03C1780.77 1022.03 1778.03 1024.74 1778.03 1028.5 1778.03 1031.92 1780.77 1035 1784.23 1035L2110.43 1035C2113.89 1035 2117 1031.92 2117 1028.5 2117 1024.74 2113.89 1022.03 2110.43 1022.03Z" fill="#FFFFFF" fill-rule="evenodd" fill-opacity="1"/><path d="M1783.54 1045C1780.43 1045 1778.03 1047.47 1778.03 1050.63L1778.03 1052.37C1778.03 1055.53 1780.43 1058 1783.54 1058L2018.46 1058C2021.57 1058 2024 1055.53 2024 1052.37L2024 1050.63C2024 1047.47 2021.57 1045 2018.46 1045Z" fill="#FFFFFF" fill-rule="evenodd" fill-opacity="1"/><path d="M1784.22 1068C1780.77 1068 1778.03 1070.81 1778.03 1074.33L1778.03 1074.67C1778.03 1078.19 1780.77 1081 1784.22 1081L2082.77 1081C2086.23 1081 2089 1078.19 2089 1074.67L2089 1074.33C2089 1070.81 2086.23 1068 2082.77 1068Z" fill="#FFFFFF" fill-rule="evenodd" fill-opacity="1"/><path d="M1784.23 1091C1780.77 1091 1778.03 1093.81 1778.03 1097.33 1778.03 1101.19 1780.77 1103.97 1784.23 1103.97L2110.43 1103.97C2113.89 1103.97 2117 1101.19 2117 1097.33 2117 1093.81 2113.89 1091 2110.43 1091Z" fill="#FFFFFF" fill-rule="evenodd" fill-opacity="1"/><path d="M2218.42 964C2150.15 964 2116.03 1046.25 2164.3 1094.42 2179.91 1110 2199.11 1117 2217.94 1117 2257.28 1117 2295 1086.48 2295 1040.39 2295 1038.34 2295 1036.6 2294.66 1034.55 2291.89 1001.52 2268.44 973.993 2236.03 966.078 2230.15 964.683 2224.3 964 2218.42 964Z" fill="#1226DB" fill-rule="evenodd" fill-opacity="1"/><path d="M2235.78 966.029 2218 1040.97 2295 1035.08C2292.2 1001.78 2268.17 974.011 2235.78 966.029Z" fill="#07105C" fill-rule="evenodd" fill-opacity="1"/><path d="M2317.81 966.027C2315.08 966.027 2313 968.335 2313 971 2313 973.665 2315.08 975.972 2317.81 975.972L2465.19 975.972C2467.92 975.972 2470 973.665 2470 971 2470 968.335 2467.92 966.027 2465.19 966.027Z" fill="#1226DB" fill-rule="evenodd" fill-opacity="1"/><path d="M2317.47 986.028C2315.08 986.028 2313 988.074 2313 990.489L2313 991.17C2313 993.926 2315.08 995.971 2317.47 995.971L2443.16 995.971C2445.92 995.971 2447.97 993.926 2447.97 991.17L2447.97 990.489C2447.97 988.074 2445.92 986.028 2443.16 986.028Z" fill="#1226DB" fill-rule="evenodd" fill-opacity="1"/><path d="M2317.16 1006.03C2314.75 1006.03 2313 1007.73 2313 1010.15L2313 1011.85C2313 1014.27 2314.75 1015.97 2317.16 1015.97L2413.81 1015.97C2416.25 1015.97 2417.97 1014.27 2417.97 1011.85L2417.97 1010.15C2417.97 1007.73 2416.25 1006.03 2413.81 1006.03Z" fill="#1226DB" fill-rule="evenodd" fill-opacity="1"/><path d="M2317.81 1026.03C2315.08 1026.03 2313 1028.07 2313 1031.17 2313 1033.93 2315.08 1035.97 2317.81 1035.97L2465.19 1035.97C2467.92 1035.97 2470 1033.93 2470 1031.17 2470 1028.07 2467.92 1026.03 2465.19 1026.03Z" fill="#1226DB" fill-rule="evenodd" fill-opacity="1"/><path d="M2317.82 1046.03C2315.08 1046.03 2313 1048.07 2313 1050.83L2313 1051.17C2313 1053.93 2315.08 1055.97 2317.82 1055.97L2448.15 1055.97C2450.92 1055.97 2452.97 1053.93 2452.97 1051.17L2452.97 1050.83C2452.97 1048.07 2450.92 1046.03 2448.15 1046.03Z" fill="#1226DB" fill-rule="evenodd" fill-opacity="1"/><path d="M2317.81 1066.03C2315.08 1066.03 2313 1068.41 2313 1071.17 2313 1073.93 2315.08 1075.97 2317.81 1075.97L2465.19 1075.97C2467.92 1075.97 2470 1073.93 2470 1071.17 2470 1068.41 2467.92 1066.03 2465.19 1066.03Z" fill="#1226DB" fill-rule="evenodd" fill-opacity="1"/><path d="M2317.47 1086.03C2315.08 1086.03 2313 1088.21 2313 1090.77L2313 1091.86C2313 1094.79 2315.08 1097 2317.47 1097L2435.16 1097C2437.92 1097 2439.97 1094.79 2439.97 1091.86L2439.97 1090.77C2439.97 1088.21 2437.92 1086.03 2435.16 1086.03Z" fill="#1226DB" fill-rule="evenodd" fill-opacity="1"/><path d="M2317.81 1107C2315.08 1107 2313 1109.08 2313 1111.81 2313 1114.58 2315.08 1117 2317.81 1117L2465.19 1117C2467.92 1117 2470 1114.58 2470 1111.81 2470 1109.08 2467.92 1107 2465.19 1107Z" fill="#1226DB" fill-rule="evenodd" fill-opacity="1"/><path d="M1943.17 1395.03C1890.26 1395.03 1847.03 1399.63 1847.03 1405.99 1847.03 1412.02 1890.26 1416.97 1943.17 1416.97 1996.08 1416.97 2038.97 1412.02 2038.97 1405.99 2038.97 1399.98 1996.08 1395.03 1943.17 1395.03Z" fill="#FDE571" fill-rule="evenodd" fill-opacity="1"/><path d="M1886.91 1027C1880.71 1043.95 1880 1062.65 1884.85 1079.94 1889 1093.46 1884.51 1102.79 1886.91 1109.03 1889 1115.59 1904.53 1198.99 1903.47 1205.24 1902.79 1211.45 1895.88 1228.77 1893.48 1246.75 1890.71 1268.91 1893.14 1339.86 1890.71 1358.53 1889.28 1371.59 1897.11 1376.97 1902.39 1376.97 1904.82 1376.97 1906.73 1375.83 1906.93 1373.76 1913.84 1319.42 1933.17 1233.95 1935.57 1206.61 1938 1179.27 1935.57 1129.79 1932.49 1063.68L1886.91 1027Z" fill="#FFE1BD" fill-rule="evenodd" fill-opacity="1"/><path d="M1934.51 1117.03 1916 1162.44C1924.75 1176.67 1929.97 1192.62 1931.01 1208.92 1931.36 1217.58 1931.01 1226.24 1931.36 1234.91 1931.36 1235.59 1931.36 1236.31 1931.71 1237 1933.81 1223.8 1935.55 1213.42 1936.24 1206.48 1938 1187.4 1937.31 1156.56 1935.55 1117.03Z" fill="#FCCB95" fill-rule="evenodd" fill-opacity="1"/><path d="M1891.61 1352.03C1891.61 1352.03 1890.59 1370.29 1888.51 1374.43 1885.77 1378.57 1884.03 1383.42 1883.34 1388.59 1883 1392.04 1885.08 1395.15 1888.51 1396.52 1889.79 1397.21 1890.84 1397.44 1891.79 1397.44 1893.61 1397.44 1894.84 1396.52 1895.75 1396.52 1903.34 1397.55 1905.08 1403.09 1917.83 1404.8 1918.62 1404.91 1919.45 1404.97 1920.25 1404.97 1924.27 1404.97 1928.18 1403.6 1931.6 1401 1932.66 1399.98 1933 1398.24 1931.94 1397.21 1931.26 1395.84 1921.28 1392.73 1917.14 1390.3 1913.01 1386.88 1909.9 1382.74 1907.47 1377.89 1906.45 1375.49 1909.9 1355.82 1909.9 1355.82L1891.61 1352.03Z" fill="#FFE1BD" fill-rule="evenodd" fill-opacity="1"/><path d="M1886.59 1378C1884.49 1381.14 1883.1 1384.28 1882.07 1387.42 1881.03 1389.84 1881.03 1392.29 1881.03 1394.71 1882.07 1396.82 1882.07 1398.89 1882.07 1401.34 1883.45 1402.03 1885.21 1402.73 1886.94 1403.07L1892.16 1403.07 1892.51 1398.55C1894.26 1398.55 1895.65 1398.55 1897.06 1398.89 1899.14 1399.61 1901.59 1400.65 1903.66 1401.69 1904.36 1402.73 1905.42 1404.83 1906.46 1405.52 1909.95 1406.9 1913.44 1407.97 1917.28 1407.97 1917.79 1407.97 1918.28 1408 1918.77 1408 1926.88 1408 1931.32 1405.38 1932.96 1402.73 1933.65 1401 1934 1398.55 1932.96 1398.2 1930.16 1396.13 1927.37 1394.71 1924.57 1393.33 1922.7 1392.52 1919.76 1391.72 1919.18 1391.72 1919.01 1391.72 1919.03 1391.78 1919.35 1391.95 1920.68 1392.61 1918.54 1395.44 1916.27 1395.44 1916.12 1395.44 1916.01 1395.44 1915.86 1395.44 1907.5 1395.44 1901.59 1389.84 1896.69 1388.81 1891.81 1387.05 1887.98 1383.25 1886.59 1378Z" fill="#07105C" fill-rule="evenodd" fill-opacity="1"/><path d="M1900.61 1020C1900.61 1020 1885.03 1049.36 1890.9 1077.31 1894.02 1093.53 1907.52 1095.93 1909.95 1102.5 1912.36 1108.7 1947.69 1210.19 1947.69 1210.19 1943.53 1225.38 1941.12 1240.91 1941.12 1256.45 1941.12 1277.15 1950.81 1339.26 1952.9 1362.74 1953.24 1367.59 1953.93 1378.62 1952.9 1382.07 1951.15 1386.55 1947 1391.75 1947.34 1396.92 1947.69 1400.72 1950.12 1403.49 1953.93 1404.52 1954.59 1404.69 1955.22 1404.77 1955.82 1404.77 1958.57 1404.77 1960.41 1403.15 1961.55 1403.15 1961.78 1403.12 1962.01 1403.12 1962.24 1403.12 1969.09 1403.12 1971.84 1407.97 1984.21 1407.97 1984.61 1407.97 1985.02 1407.97 1985.45 1407.97 1990.29 1407.97 1995.13 1405.89 1998.94 1402.09 1999.97 1401.06 1999.97 1399.35 1998.6 1398.29 1997.91 1397.26 1987.16 1395.55 1982.32 1393.81 1977.83 1391.41 1973.67 1387.61 1970.89 1383.13 1969.86 1375.87 1969.86 1368.62 1970.2 1361.37 1970.55 1322.7 1976.79 1228.15 1977.48 1205.7 1979.2 1166.01 1973.33 1125.63 1957.74 1062.46L1900.61 1020Z" fill="#FFE1BD" fill-rule="evenodd" fill-opacity="1"/><path d="M1950.61 1386C1948.53 1388.78 1946.77 1392.26 1945.72 1396.07 1945.03 1398.14 1945.03 1400.58 1945.72 1402.99 1946.77 1405.09 1947.46 1407.18 1947.46 1409.59 1949.23 1410.28 1950.96 1410.28 1952.73 1410.28 1954.81 1410.28 1956.58 1409.94 1958.31 1409.59L1958.31 1405.09C1959.24 1405.09 1960.16 1404.94 1961.12 1404.94 1961.58 1404.94 1962.05 1404.97 1962.51 1405.09 1965.32 1405.09 1967.75 1405.78 1969.86 1407.53 1970.9 1408.22 1972.29 1409.59 1973.71 1409.94 1975.97 1410.63 1978.37 1411 1980.83 1411 1982.16 1411 1983.55 1410.89 1984.91 1410.63 1994 1409.59 1998.89 1406.47 2000.28 1403.37 2001 1401.61 2001 1398.83 1999.93 1398.49 1996.8 1397.45 1993.65 1396.07 1990.84 1395.39 1988.79 1394.87 1985.81 1394.55 1985.05 1394.55 1984.76 1394.55 1984.79 1394.58 1985.26 1394.67 1986.65 1395.39 1984.56 1398.49 1982.1 1398.83 1981.44 1398.89 1980.77 1398.92 1980.1 1398.92 1972.29 1398.92 1965.95 1395.36 1961.12 1395.01 1956.2 1394.32 1952.38 1390.51 1950.61 1386Z" fill="#07105C" fill-rule="evenodd" fill-opacity="1"/><path d="M2110.02 870C2109.33 870 2108.29 870.693 2107.36 872.368 2104.56 876.901 2099.68 879.702 2094.77 880.741 2094.43 879.702 2095.49 879.355 2096.53 877.594 2097.23 875.515 2096.88 874.1 2095.84 873.754 2095.75 873.754 2095.7 873.725 2095.61 873.725 2094.6 873.725 2093.36 875.89 2093.04 876.208L2086.4 881.781C2084.67 883.195 2082.91 885.621 2082.21 888.075 2082.21 888.393 2081 892.666 2082.56 892.666 2082.65 892.666 2082.79 892.666 2082.91 892.608L2088.85 899.942C2089.2 899.971 2089.55 899.971 2089.92 899.971 2095.09 899.971 2099.91 897.603 2103.52 893.994 2104.21 892.608 2104.56 891.222 2104.56 889.807 2105.8 888.248 2107.91 883.34 2105.31 883.34 2104.99 883.34 2104.65 883.398 2104.21 883.542 2108.05 880.395 2110.13 875.861 2110.83 871.328 2111 870.52 2110.62 870 2110.02 870Z" fill="#FFE1BD" fill-rule="evenodd" fill-opacity="1"/><path d="M2082.39 889C2069.32 899.786 2021.8 913.678 2015.25 917.503 2014 918.251 2007.02 918.51 1997.87 918.51 1977.02 918.51 1945.03 917.158 1945.03 917.158L1945.03 917.158 1952.61 944.971C1973.6 944.626 2011.46 941.146 2016.65 940.11 2036.96 935.94 2089.29 899.786 2089.29 899.786 2089.97 894.925 2086.87 890.409 2082.39 889Z" fill="#FFE1BD" fill-rule="evenodd" fill-opacity="1"/><path d="M1882.23 918.029C1877.01 932.172 1872.8 946.686 1870.03 961.543L1891.97 964.971 1891.97 933.914 1882.23 918.029Z" fill="#F9B253" fill-rule="evenodd" fill-opacity="1"/><path d="M1981.65 937C1981.42 937 1981.19 937.029 1980.99 937.057L1807.11 966.435C1805.4 966.778 1804 968.493 1804.34 970.579L1820.21 1064.17C1820.53 1065.71 1821.95 1067 1823.47 1067 1823.67 1067 1823.84 1066.97 1824.01 1066.94L1997.89 1037.59C1999.97 1037.22 2001 1035.16 2000.66 1033.45L1984.79 939.829C1984.47 938.029 1983.13 937 1981.65 937Z" fill="#1226DB" fill-rule="evenodd" fill-opacity="1"/><path d="M1978.07 943.029C1977.84 943.029 1977.64 943.029 1977.42 943.086L1813.79 971.941C1812.05 971.941 1811.03 973.696 1811.37 975.422L1825.14 1057.5C1825.45 1058.99 1826.53 1059.97 1827.96 1059.97 1828.16 1059.97 1828.36 1059.97 1828.58 1059.91L1992.24 1031.06C1993.95 1031.06 1994.97 1029.3 1994.97 1027.58L1980.86 945.531C1980.86 944.007 1979.55 943.029 1978.07 943.029Z" fill="#5664E1" fill-rule="evenodd" fill-opacity="1"/><path d="M1824.63 977.029C1824.46 977.029 1824.29 977.057 1824.1 977.086L1821.38 977.428C1820.04 977.771 1819.03 979.169 1819.36 980.539L1831.21 1050.92C1831.21 1052.29 1832.56 1052.97 1833.93 1052.97L1836.62 1052.63C1837.99 1052.29 1839 1050.92 1838.66 1049.55L1827.15 979.169C1826.84 977.97 1825.81 977.029 1824.63 977.029Z" fill="#23295C" fill-rule="evenodd" fill-opacity="1"/><path d="M1838.35 974 1835.5 974.714C1834.09 974.714 1833.03 976.084 1833.38 977.797L1845.47 1047.86C1845.76 1049.06 1846.88 1050 1848.09 1050 1848.29 1050 1848.47 1049.97 1848.65 1049.94L1851.5 1049.6C1852.91 1049.23 1854 1047.86 1853.65 1046.49L1841.56 976.427C1841.21 975.056 1839.76 974 1838.35 974Z" fill="#23295C" fill-rule="evenodd" fill-opacity="1"/><path d="M1853.73 971.029C1853.53 971.029 1853.36 971.029 1853.19 971.086L1850.42 971.43C1849.05 971.774 1848 972.805 1848 974.552L1860.05 1044.82C1860.36 1046.03 1861.45 1046.97 1862.62 1046.97 1862.79 1046.97 1862.99 1046.97 1863.16 1046.91L1865.92 1046.57C1867.29 1046.23 1867.97 1044.82 1867.97 1043.45L1855.92 973.149C1855.92 971.945 1854.89 971.029 1853.73 971.029Z" fill="#23295C" fill-rule="evenodd" fill-opacity="1"/><path d="M1868.88 968.029C1868.71 968.029 1868.53 968.057 1868.32 968.086L1865.5 968.428C1864.06 968.77 1863 970.167 1863.35 971.536L1875.44 1041.86C1875.44 1043.06 1876.53 1044 1877.74 1044 1877.91 1044 1878.09 1043.97 1878.29 1043.91L1881.12 1043.57C1882.91 1043.23 1883.97 1041.86 1883.62 1040.46L1871.53 970.167C1871.24 968.97 1870.12 968.029 1868.88 968.029Z" fill="#23295C" fill-rule="evenodd" fill-opacity="1"/><path d="M1883.63 965C1883.46 965 1883.27 965.028 1883.1 965.057L1880.38 965.428C1879.04 965.771 1878.03 967.141 1878.36 968.512L1889.88 1038.92C1890.21 1040.29 1891.56 1041 1892.93 1041L1895.62 1040.29C1896.99 1040.29 1898 1038.92 1897.66 1037.55L1886.15 967.141C1885.84 965.942 1884.78 965 1883.63 965Z" fill="#23295C" fill-rule="evenodd" fill-opacity="1"/><path d="M1897.91 962C1897.71 962 1897.53 962.029 1897.35 962.086L1894.5 962.428C1893.09 962.771 1892 963.799 1892.38 965.54L1904.44 1035.57C1904.82 1036.97 1906.24 1038 1907.65 1038L1910.5 1037.31C1911.91 1037.31 1913 1035.57 1912.62 1034.2L1900.18 964.141C1900.18 962.942 1899.12 962 1897.91 962Z" fill="#4C4199" fill-rule="evenodd" fill-opacity="1"/><path d="M1912.6 959.029C1912.43 959.029 1912.27 959.029 1912.07 959.086L1909.38 959.428C1908.01 959.771 1907 961.141 1907.34 962.539L1919.18 1032.92C1919.52 1034.29 1920.56 1034.97 1921.9 1034.97L1924.62 1034.63C1926.3 1034.29 1926.97 1032.92 1926.97 1031.52L1915.12 961.141C1914.84 959.942 1913.78 959.029 1912.6 959.029Z" fill="#4C4199" fill-rule="evenodd" fill-opacity="1"/><path d="M1927.1 957 1924.38 957.685C1923.04 957.685 1922.03 959.084 1922.36 960.455L1934.21 1030.86C1934.21 1032.06 1935.22 1033 1936.4 1033 1936.57 1033 1936.73 1032.97 1936.93 1032.91L1939.62 1032.57C1940.99 1032.23 1942 1030.86 1941.66 1029.46L1930.15 959.427C1929.81 957.685 1928.44 957 1927.1 957Z" fill="#4C4199" fill-rule="evenodd" fill-opacity="1"/><path d="M1942.1 954.028 1939.38 954.714C1938.04 954.714 1937.03 956.084 1937.36 957.454L1948.88 1027.86C1949.16 1029.06 1950.22 1030 1951.37 1030 1951.57 1030 1951.73 1029.97 1951.9 1029.94L1954.62 1029.6C1955.96 1029.23 1957 1027.86 1956.66 1026.49L1945.15 956.084C1944.82 954.714 1943.44 954.028 1942.1 954.028Z" fill="#4C4199" fill-rule="evenodd" fill-opacity="1"/><path d="M1957.38 951.029C1957.18 951.029 1956.96 951.029 1956.73 951.086L1954.04 951.428C1952.67 951.771 1952 953.141 1952 954.54L1963.85 1024.92C1964.18 1026.31 1965.56 1027 1966.9 1027L1969.62 1026.66C1970.96 1026.31 1971.97 1024.92 1971.64 1023.55L1959.79 953.141C1959.51 951.942 1958.69 951.029 1957.38 951.029Z" fill="#23295C" fill-rule="evenodd" fill-opacity="1"/><path d="M1971.88 948.029C1971.71 948.029 1971.53 948.057 1971.32 948.086L1968.5 948.428C1967.06 948.771 1966 950.169 1966 951.539L1978.44 1021.92C1978.79 1023.29 1980.21 1023.97 1981.65 1023.97L1984.5 1023.29C1985.91 1023.29 1986.97 1021.92 1986.62 1020.52L1974.18 950.169C1974.18 948.97 1973.12 948.029 1971.88 948.029Z" fill="#23295C" fill-rule="evenodd" fill-opacity="1"/><path d="M1955.04 1017.03 1897.23 1019.09C1881.83 1032.57 1876 1055.08 1879.09 1079.3 1879.77 1085.54 1886.28 1103.17 1887.3 1109.41 1889.36 1123.93 1894.15 1145.06 1893.81 1161.66 1904.51 1169.48 1920.87 1173 1936.87 1173 1952.07 1173 1966.93 1169.82 1976.27 1164.07 1977.97 1143.31 1977.97 1121.87 1976.27 1100.77 1973.87 1059.23 1955.38 1020.46 1955.04 1017.03Z" fill="#07105C" fill-rule="evenodd" fill-opacity="1"/><path d="M1929.05 881 1882.12 894.834C1879.03 917.614 1879.71 941.109 1884.5 963.917 1886.57 980.838 1887.25 997.788 1886.57 1015.05 1886.23 1020.57 1883.82 1021.97 1883.82 1024.71 1883.82 1028 1887.67 1029.97 1892.69 1029.97 1894.02 1029.97 1895.41 1029.86 1896.83 1029.57 1899.24 1029.09 1903.54 1029.03 1908.79 1029.03 1911.4 1029.03 1914.26 1029.03 1917.23 1029.03 1926.13 1029.03 1936.05 1028.86 1943.76 1027.48 1947.87 1026.8 1951.98 1025.43 1955.07 1023 1956.09 1022.31 1956.8 1020.91 1956.8 1019.88 1956.8 1017.11 1956.46 1014.02 1955.75 1011.59 1954.73 1000.87 1954.39 990.528 1954.73 979.809 1955.75 970.148 1958.16 960.459 1961.93 951.141 1963.97 946.311 1963.97 941.109 1961.93 936.278 1960.57 932.477 1958.84 928.675 1956.46 925.217 1952.35 908.296 1937.27 894.148 1934.86 893.433 1931.09 893.09 1932.82 881.686 1929.05 881Z" fill="#FFB127" fill-rule="evenodd" fill-opacity="1"/><path d="M1962.79 937C1960.98 939.76 1958.41 943.204 1958.41 943.204 1958.41 943.204 1956.96 948.355 1953.66 959.026 1950.73 971.064 1950 983.443 1951.45 995.481 1952.93 1004.42 1956.59 1019.9 1955.11 1023 1956.2 1022.32 1956.96 1020.92 1956.96 1019.9 1956.96 1017.14 1956.59 1014.06 1955.84 1011.65 1954.75 1000.97 1954.39 990.672 1954.75 980 1956.2 970.381 1958.77 960.734 1962.79 951.798 1965 946.989 1965 941.809 1962.79 937Z" fill="#F29127" fill-rule="evenodd" fill-opacity="1"/><path d="M1953.62 905C1952.45 905 1951.25 905.085 1950.07 905.255L1921.03 962C1921.03 962 1946.95 949.333 1966.33 947.298 1972.08 946.393 1977.69 945.941 1983.27 945.941 1986.04 945.941 1988.82 946.054 1991.57 946.28 1994 937.713 1992.63 916.197 1992.63 916.197 1992.63 916.197 1973.6 913.115 1964.24 907.658 1961.12 905.848 1957.37 905 1953.62 905Z" fill="#FFB127" fill-rule="evenodd" fill-opacity="1"/><path d="M1922.92 811C1921.89 811 1920.81 811.057 1919.7 811.17 1902.15 812.874 1887 824.203 1887.34 837.236 1887.68 850.269 1896.66 866.425 1900.07 875.341 1902.15 882.894 1902.84 890.447 1902.15 898L1941.06 896.609C1941.06 896.609 1940.03 884.598 1942.43 880.14 1946.21 875.682 1950.34 871.565 1955.16 868.129 1958.6 864.693 1960 859.213 1958.26 854.415 1957.24 848.225 1955.84 842.375 1953.45 836.555 1952.42 834.482 1950.69 832.778 1949.66 831.075 1945.13 822.698 1938.5 811 1922.92 811Z" fill="#FFE1BD" fill-rule="evenodd" fill-opacity="1"/><path d="M1917.53 805.029C1912.12 805.029 1906.93 806.117 1901.74 808.552 1896.15 811.33 1889.89 816.17 1890.24 821.011 1881.53 822.758 1880.46 831.751 1879.77 834.873 1878.73 839.713 1878.73 844.554 1879.08 849.394 1880.12 856.325 1882.91 862.913 1884.3 870.159 1885.71 875.715 1885.36 881.931 1883.26 887.487 1881.18 892.671 1875.94 895.449 1873.52 900.29 1870.03 906.877 1870.37 914.839 1873.52 921.055 1877 927.642 1881.53 931.795 1880.12 939.757 1878.39 948.751 1881.53 957.744 1888.48 963.644 1893.26 967.196 1898.83 968.971 1904.48 968.971 1905.43 968.971 1906.35 968.943 1907.3 968.828 1912.89 968.141 1918.11 966.422 1922.98 963.988 1932.03 959.147 1940.39 955.682 1946.33 942.535 1949.82 935.261 1944.95 933.857 1947.72 926.267 1949.47 922.086 1952.96 918.649 1953.65 913.78 1954 909.627 1952.59 905.817 1950.17 902.724L1949.82 902.724C1947.37 899.602 1943.54 898.199 1941.46 895.449 1939.36 892.327 1938.32 888.518 1938.66 884.709 1939.01 882.647 1940.05 880.556 1941.11 878.494 1945.29 869.815 1945.64 864.288 1939.36 857.356 1937.28 855.294 1935.52 852.86 1934.48 850.081 1933.45 847.332 1932.75 844.554 1935.18 842.835 1935.87 842.291 1936.76 842.033 1937.57 842.033 1938.4 842.033 1939.18 842.291 1939.7 842.835 1940.48 843.609 1942.21 848.363 1943.36 848.363 1943.74 848.363 1944.05 847.79 1944.23 846.272 1944.95 840.744 1946.68 839.713 1942.15 830.004 1941.46 828.629 1938.66 824.132 1939.01 823.101 1943.54 823.445 1947.72 825.851 1949.82 829.66 1952.56 826.939 1944.83 805.086 1920.96 805.086 1920.59 805.086 1920.22 805.086 1919.84 805.086 1919.09 805.057 1918.31 805.029 1917.53 805.029Z" fill="#23295C" fill-rule="evenodd" fill-opacity="1"/><path d="M2737.5 1392.03C2661.51 1392.03 2600 1395.03 2600 1399.01 2600 1403 2661.51 1405.97 2737.5 1405.97 2813.5 1405.97 2875 1403 2875 1399.01 2875 1395.03 2813.5 1392.03 2737.5 1392.03Z" fill="#FDE571" fill-rule="evenodd" fill-opacity="1"/><path d="M2677.38 1361.03C2677.03 1368.99 2677.03 1376.95 2677.73 1384.91 2678.4 1387.06 2682.84 1388 2686.46 1388 2688.68 1388 2690.61 1387.63 2691.14 1386.97 2692.22 1384.91 2693.97 1362.4 2693.97 1362.4L2677.38 1361.03Z" fill="#FFE1BD" fill-rule="evenodd" fill-opacity="1"/><path d="M2677.3 1381C2676.68 1381 2676.82 1381.95 2675.8 1384.16 2674.06 1388.12 2666.51 1391.72 2659.3 1391.72 2658.98 1391.72 2658.59 1391.72 2658.13 1391.72 2654.38 1391.72 2647.03 1391.99 2647.62 1397.47 2647.62 1398.9 2652.45 1400 2660.69 1400L2671.65 1400C2674.4 1400 2676.82 1398.9 2679.2 1397.83L2679.91 1400 2692.95 1400C2693.29 1396.75 2693.63 1393.15 2693.97 1389.9 2693.97 1387.76 2692.95 1385.94 2691.59 1384.87 2690.19 1385.94 2688.83 1387.05 2687.1 1387.05 2686.84 1387.08 2686.56 1387.08 2686.28 1387.08 2683.83 1387.08 2681.48 1385.68 2680.25 1383.08 2679.91 1382.34 2679.2 1381.63 2678.18 1381.27 2677.78 1381.09 2677.5 1381 2677.3 1381Z" fill="#23295C" fill-rule="evenodd" fill-opacity="1"/><path d="M2825.2 1354 2815 1362.96C2815 1362.96 2818.52 1372.56 2820.29 1375.66 2820.75 1376.6 2821.94 1376.97 2823.4 1376.97 2827.26 1376.97 2833.13 1374.41 2833.62 1372.91 2833.97 1370.49 2825.2 1354 2825.2 1354Z" fill="#FFE1BD" fill-rule="evenodd" fill-opacity="1"/><path d="M2832.4 1372.03C2830.68 1376.38 2823.42 1377.72 2823.42 1377.72 2821.79 1374.08 2819.56 1373.66 2818.64 1373.66 2818.39 1373.66 2818.22 1373.69 2818.22 1373.69 2816.84 1373.69 2817.19 1374.03 2817.19 1377.05 2816.84 1382.74 2812.7 1387.79 2807.18 1389.79 2805.09 1390.81 2793 1393.48 2795.77 1398.53 2796.17 1399.31 2798.89 1400 2802.92 1400 2805.66 1400 2809.04 1399.67 2812.7 1398.86 2816.16 1397.84 2819.62 1396.5 2822.73 1394.84 2824.79 1393.48 2826.51 1391.48 2827.91 1389.45L2829.97 1391.15 2840 1385.1C2840 1385.1 2837.91 1378.72 2836.54 1375.39 2835.85 1373.36 2834.11 1372.03 2832.4 1372.03Z" fill="#23295C" fill-rule="evenodd" fill-opacity="1"/><path d="M2745.6 1038.03C2745.6 1038.03 2718.72 1050.12 2697.72 1051.49 2692.07 1051.84 2687.91 1051.95 2684.86 1051.95 2678.74 1051.95 2677.05 1051.49 2677.05 1051.49L2677.05 1051.49C2677.05 1051.49 2676 1073.96 2682.56 1130.97L2759.36 1112.67C2759.36 1112.67 2760.42 1105.76 2761.1 1101.61 2763.87 1087.77 2768 1059.78 2745.6 1038.03Z" fill="#23295C" fill-rule="evenodd" fill-opacity="1"/><path d="M2740.3 1217C2736.69 1217 2733.51 1217.83 2731.16 1219.45 2728.41 1221.53 2727 1224.98 2727.72 1228.44 2727.72 1228.44 2727.72 1228.44 2727.72 1228.78 2728.06 1229.12 2728.06 1229.46 2728.06 1229.8 2728.06 1230.83 2728.41 1231.52 2728.75 1232.23 2729.09 1232.23 2729.09 1232.57 2729.09 1232.91 2729.44 1234.28 2730.13 1235.65 2731.16 1237.05 2741.91 1254.27 2772.42 1298.05 2795.99 1336.66 2800.49 1343.9 2804.65 1351.14 2808.46 1357.68L2808.46 1358.02 2811.93 1364.23 2813.65 1367C2819.56 1364.92 2825.44 1362.15 2830.97 1358.7 2818.5 1330.44 2805.34 1280.48 2783.86 1247.71 2777.61 1238.76 2769.64 1230.83 2760.63 1224.64L2759.95 1223.93 2758.54 1222.9C2752.46 1218.94 2745.87 1217 2740.3 1217Z" fill="#23295C" fill-rule="evenodd" fill-opacity="1"/><path d="M2701.68 1060C2694.07 1060 2688.74 1064.46 2688.37 1076.79 2688.03 1086.49 2697.36 1119.32 2707.04 1152.87 2710.16 1163.91 2713.62 1174.98 2716.4 1185.36 2721.58 1203.67 2725.73 1219.23 2727.45 1228.23 2727.45 1228.23 2727.45 1228.58 2727.45 1228.58 2727.82 1228.92 2727.82 1229.61 2727.82 1229.95 2728.16 1230.64 2728.16 1231.32 2728.51 1232.01 2728.85 1232.38 2728.85 1232.38 2728.85 1232.73 2729.54 1233.76 2729.88 1234.78 2730.57 1235.81L2730.57 1236.19C2733.69 1240.68 2737.84 1244.48 2743.02 1247.23 2744.08 1247.57 2745.46 1248.28 2746.83 1248.63 2747.8 1248.86 2748.78 1248.97 2749.72 1248.97 2755.85 1248.97 2760.97 1243.74 2760.69 1227.86 2760.69 1227.52 2760.69 1226.83 2760.69 1226.49L2760.69 1224.77C2760.34 1200.92 2759.28 1117.26 2759.28 1107.91 2759.28 1098.93 2757.22 1088.92 2748.92 1083.37 2736.47 1074.47 2715.4 1060 2701.68 1060Z" fill="#23295C" fill-rule="evenodd" fill-opacity="1"/><path d="M2759.63 1204C2759.63 1204 2743.37 1210.17 2743 1212.23 2744.75 1219.05 2747.52 1225.9 2750.96 1232.41 2752.36 1233.77 2778.97 1241.97 2778.97 1241.97 2760.66 1221.8 2759.63 1204 2759.63 1204Z" fill="#23295C" fill-rule="evenodd" fill-opacity="1"/><path d="M2746.88 1104 2717.03 1185.56C2722.17 1203.51 2726.29 1219.41 2728.02 1228.41 2728.36 1229.1 2728.36 1229.44 2728.36 1229.79 2728.36 1230.47 2728.7 1231.5 2729.04 1232.22 2729.38 1232.22 2729.38 1232.56 2729.38 1232.9 2730.06 1234.27 2730.75 1235.65 2731.43 1236.7L2731.43 1237.05C2742.08 1254.31 2772.3 1298.2 2795.99 1336.9 2800.1 1344.16 2804.22 1351.43 2808 1357.97 2805.25 1352.45 2773.66 1296.14 2766.11 1282.3 2758.55 1269.18 2732.82 1232.9 2733.84 1211.8 2734.18 1201.8 2735.55 1175.53 2740.72 1158.6 2745.52 1141.68 2757.87 1104 2757.87 1104Z" fill="#1226DB" fill-rule="evenodd" fill-opacity="1"/><path d="M2671.27 1079.05C2668.08 1079.05 2666 1083.44 2666.23 1094.51L2666.23 1123.84C2667.25 1164.75 2672.44 1293.06 2671.72 1371.63L2671.72 1376.62C2676.28 1377.95 2681.04 1378.95 2685.85 1378.95 2686.88 1378.95 2687.9 1378.91 2688.96 1378.82L2690.32 1378.82C2693.77 1328.48 2710.97 1230.05 2702.71 1168.64 2701 1158.12 2701 1148.19 2699.61 1138.76 2698.58 1131.58 2697.22 1124.94 2695.48 1118.31 2690.1 1099.45 2678.1 1079.05 2671.27 1079.05Z" fill="#23295C" fill-rule="evenodd" fill-opacity="1"/><path d="M2695.25 1067C2691.69 1067 2688.4 1067.43 2685.5 1068.34 2681.03 1069.73 2679.3 1081.78 2678.27 1090.03 2677.59 1098.29 2672.08 1184.33 2670.37 1199.79 2670.03 1202.21 2670.03 1204.28 2670.03 1206.68 2670.6 1222.65 2680.58 1227.97 2689.48 1227.97 2691.32 1227.97 2693.12 1227.74 2694.76 1227.32 2698.21 1226.97 2701.65 1224.93 2703.35 1221.48 2710.23 1202.21 2746.31 1113.09 2746.31 1112.75 2752 1085.85 2718.53 1067 2695.25 1067Z" fill="#23295C" fill-rule="evenodd" fill-opacity="1"/><path d="M2707 1205 2702.89 1213.35 2698.03 1225.19C2698.03 1225.19 2703.1 1245 2704.19 1245 2704.49 1245 2704.49 1243.53 2704 1239.82 2701.77 1222.39 2701.77 1227.98 2707 1205Z" fill="#23295C" fill-rule="evenodd" fill-opacity="1"/><path d="M2604.59 970.028C2604.13 970.028 2603.64 970.057 2603.15 970.17 2602.5 970.509 2601.85 970.848 2601.2 971.187L2601.2 972.203 2600.88 972.203C2600.88 972.203 2597.6 974.605 2597.28 974.605 2596.95 974.944 2593.03 979.718 2593.03 979.718 2593.35 979.887 2593.76 979.972 2594.16 979.972 2594.57 979.972 2594.98 979.887 2595.3 979.718 2596.6 979.379 2598.9 976.299 2600.2 975.283L2602.83 973.588C2603.42 973.333 2604.02 973.22 2604.64 973.22 2605.78 973.22 2606.89 973.588 2607.73 974.266 2608 974.661 2608.19 974.802 2608.32 974.802 2608.97 974.802 2608.08 970.509 2608.08 970.509 2606.92 970.254 2605.75 970.028 2604.59 970.028Z" fill="#F4D4B3" fill-rule="evenodd" fill-opacity="1"/><path d="M2631.46 963.029C2631.46 963.029 2622.36 965.882 2619.55 966.235 2618.82 966.412 2617.75 966.47 2616.5 966.47 2613.69 966.47 2609.92 966.147 2606.93 966.147 2606.18 966.147 2605.45 966.176 2604.85 966.235 2602.73 966.235 2598.52 970.853 2594.32 974.059 2591.16 977.971 2588 981.5 2589.07 981.882 2589.22 981.941 2589.36 982 2589.54 982 2591.54 982 2595.68 976.706 2599.22 974.412 2600.29 973.118 2601.71 972.471 2603.22 972.471 2604.21 972.471 2605.25 972.765 2606.24 973.323 2607.28 974.059 2606.93 975.471 2605.54 976.176 2604.5 976.882 2602.03 977.235 2601.69 977.971 2601.69 978.529 2601.69 979.588 2603.71 979.588 2604.21 979.588 2604.79 979.529 2605.54 979.382 2608.35 979.029 2610.79 977.971 2613.25 976.176 2614.65 975.118 2616.41 974.412 2618.5 974.412 2621.31 974.412 2634.97 971.912 2634.97 971.912L2631.46 963.029Z" fill="#FFE1BD" fill-rule="evenodd" fill-opacity="1"/><path d="M2689 950.028 2689 950.028C2689 950.028 2685.52 950.704 2679.59 951.38 2658.39 955.127 2637.54 959.887 2617.03 965.69L2618.75 975.887C2618.75 975.887 2625.72 975.972 2635.93 975.972 2646.14 975.972 2659.6 975.887 2672.66 975.549L2683.42 975.211 2685.86 975.211 2686.21 972.817 2689 950.028Z" fill="#FFB127" fill-rule="evenodd" fill-opacity="1"/><path d="M2541.58 891C2541.21 891 2540.83 891.085 2540.46 891.285L2539.09 891.626C2537.72 891.968 2537.03 893.675 2537.72 895.069L2566.42 974.179C2566.7 975.317 2567.93 975.971 2569.14 975.971 2569.39 975.971 2569.62 975.943 2569.88 975.886L2570.91 975.203C2572.28 974.862 2573 973.126 2572.63 971.76L2543.93 892.651C2543.44 891.654 2542.55 891 2541.58 891Z" fill="#1C44B5" fill-rule="evenodd" fill-opacity="1"/><path d="M2573.16 982.029C2571.41 982.029 2570.03 983.757 2570.03 985.486L2570.03 985.86C2570.03 987.589 2571.41 988.971 2573.16 988.971L2663.84 988.971C2665.59 988.971 2666.97 987.589 2666.97 985.86L2666.97 985.486C2666.97 983.757 2665.59 982.029 2663.84 982.029Z" fill="#1C44B5" fill-rule="evenodd" fill-opacity="1"/><path d="M2689 950.028C2689 950.028 2685.39 950.707 2679.23 951.724 2676.36 959.58 2673.82 967.776 2672.03 975.972L2683.2 975.293 2686.1 972.891 2689 950.028Z" fill="#F29127" fill-rule="evenodd" fill-opacity="1"/><path d="M2736.92 875.028C2736.92 875.028 2713.5 880.883 2705.24 893.307 2688.71 918.182 2679.74 954.425 2674.58 988.239 2673.55 996.522 2672.53 1004.8 2671.82 1012.74 2668.03 1049.7 2668.4 1079.37 2667 1081.8 2667 1081.8 2670.02 1084.97 2681.13 1084.97 2687.17 1084.97 2695.64 1084.03 2707.29 1081.12 2732.05 1075.23 2748.09 1070.66 2759.51 1070.66 2763.5 1070.66 2766.95 1071.23 2769.97 1072.46 2769.97 1072.46 2756.89 1025.88 2755.87 1009.66 2754.81 993.409 2762.39 965.449 2762.39 937.489 2762.39 909.529 2750 890.565 2736.92 875.028Z" fill="#FFB127" fill-rule="evenodd" fill-opacity="1"/><path d="M2727.94 904.029C2724.18 904.029 2720.59 905.942 2720.59 905.942 2720.59 905.942 2710.32 907.313 2700.41 938.391 2694.58 955.986 2691.16 969.469 2688.78 977.752 2687.39 983.608 2681.93 987.75 2676.1 988.092L2674.74 988.092C2673.73 996.376 2672.71 1004.66 2672 1012.6 2675.54 1012.89 2679.1 1013 2682.72 1013 2688.55 1013 2694.47 1012.69 2700.41 1012.26 2719.54 1009.86 2737 931.136 2736.32 914.569 2735.95 906.085 2731.88 904.029 2727.94 904.029Z" fill="#F29127" fill-rule="evenodd" fill-opacity="1"/><path d="M2755.31 1081.03 2741.01 1087.93C2740.02 1092.79 2739.33 1097.28 2739 1102.12 2739.33 1102.81 2744.67 1117 2744.67 1117 2744.67 1117 2755.66 1112.85 2761.97 1093.48L2755.31 1081.03Z" fill="#23295C" fill-rule="evenodd" fill-opacity="1"/><path d="M2566.79 981.028C2566.26 981.028 2566 981.426 2566.14 982.333 2567.84 987.128 2571.61 991.581 2576.4 993.652 2579.83 995.014 2583.6 996.035 2587.71 996.716 2588.39 996.886 2589.1 996.971 2589.78 996.971 2590.46 996.971 2591.14 996.886 2591.82 996.716 2594.91 996.035 2598.34 995.695 2601.43 995.695L2606.22 995.695C2606.93 995.723 2607.49 995.752 2607.98 995.752 2612 995.752 2608.97 994.56 2606.22 993.652L2605.2 985.397C2601.43 986.106 2597.66 986.106 2594.23 986.106 2590.46 985.766 2586.35 983.695 2581.22 982.674 2580.34 982.504 2579.58 982.418 2578.92 982.418 2575.78 982.418 2575.15 984.206 2575.72 985.057 2576.77 986.447 2582.58 987.128 2582.58 987.128 2582.58 987.128 2583.26 988.149 2580.17 988.149L2577.11 988.149C2575.72 987.468 2574.36 987.128 2573.34 986.106L2571.27 984.376C2569.34 982.22 2567.67 981.028 2566.79 981.028Z" fill="#FFE1BD" fill-rule="evenodd" fill-opacity="1"/><path d="M2724.67 899C2721.41 899 2718.7 899.832 2718.7 899.832 2718.7 899.832 2708.37 900.864 2698.35 932.418 2692.84 949.773 2689.04 963.284 2686.96 971.602 2685.24 977.483 2680.08 982.015 2673.85 982.015L2600.71 984.08 2600 998.652C2600 998.652 2628.66 1001.78 2648.67 1004.53 2659.32 1006.14 2670.26 1006.97 2681.22 1006.97 2686.96 1006.97 2692.67 1006.74 2698.35 1006.28 2717.67 1003.84 2737 917.502 2735.97 908.839 2735.14 900.692 2729.32 899 2724.67 899Z" fill="#FFB127" fill-rule="evenodd" fill-opacity="1"/><path d="M2718.47 802.029C2715.79 802.029 2687.25 807.237 2686.25 807.58 2680.75 813.446 2675.56 819.341 2670.74 825.894 2670.74 825.894 2669.03 829.7 2673.16 835.938 2673.5 836.625 2675.22 837.655 2675.22 838.37 2675.9 840.774 2675.9 843.55 2675.22 845.953 2677.98 856.684 2682.8 866.728 2690.04 875.027 2691.58 875.685 2693.46 876 2695.52 876 2703.1 876 2713.59 871.965 2722.78 867.072 2725.2 867.072 2738.97 859.803 2736.92 840.431 2734.84 825.894 2728.31 812.759 2718.64 802.029 2718.61 802.029 2718.56 802.029 2718.47 802.029Z" fill="#FFD1AB" fill-rule="evenodd" fill-opacity="1"/><path d="M2703.97 777.028C2690.53 777.028 2677.21 788.274 2673.18 790.154 2663.95 794.652 2654.23 797.072 2648.38 797.072 2647.05 797.072 2645.91 796.958 2645.03 796.702L2645.03 796.702C2646.85 820.105 2657.92 826.796 2669.54 826.796 2681.84 826.796 2694.71 819.336 2697.89 816.318 2700.62 813.87 2702.46 812.503 2703.68 812.503 2705.39 812.503 2705.93 815.123 2706.13 821.13 2705.44 826.653 2708.88 831.807 2714.36 833.173 2709.19 827.707 2714.14 819.82 2720.5 819.82 2721.75 819.82 2723.03 820.105 2724.33 820.788 2737.03 832.49 2725.02 841.43 2725.7 845.9 2726.89 853.587 2728.57 857.972 2731.83 857.972 2732.37 857.972 2732.97 857.858 2733.59 857.601 2740.13 854.868 2746.97 828.703 2743.9 810.112 2741.09 793.257 2731.49 785.456 2723.57 785.456 2722.77 785.456 2722 785.541 2721.24 785.684 2716.01 779.278 2709.99 777.028 2703.97 777.028Z" fill="#23295C" fill-rule="evenodd" fill-opacity="1"/><path d="M2714.59 854C2708.38 854 2704.03 856.012 2707.89 863.056 2716.91 879.732 2712.76 886 2712.76 886 2712.76 886 2730.04 884.591 2738 875.218 2732.82 871.049 2734.19 857.479 2734.19 857.479 2734.19 857.479 2722.77 854 2714.59 854Z" fill="#FFD1AB" fill-rule="evenodd" fill-opacity="1"/><path d="M2734.83 871.028C2726.9 872.711 2710 878.49 2710 878.49 2710 881.52 2710 884.578 2710 887.972 2720.02 885.587 2730.01 882.221 2738.97 877.452 2738.29 875.096 2736.92 872.711 2734.83 871.028Z" fill="#F9B253" fill-rule="evenodd" fill-opacity="1"/><path d="M2675.85 843.028C2675.85 843.028 2673.03 855.353 2674.09 858.442 2674.56 859.66 2676.38 860 2678.24 860 2680.56 860 2682.97 859.462 2682.97 859.462L2675.85 843.028Z" fill="#FFD1AB" fill-rule="evenodd" fill-opacity="1"/><path d="M2579.09 574.029C2572.54 574.029 2567 579.545 2567 586.12L2567 749.88C2567 756.798 2572.54 761.971 2579.09 761.971L2947.26 761.971C2953.8 761.971 2959 756.798 2959 749.88L2959 586.12C2959 579.545 2953.8 574.029 2947.26 574.029Z" fill="#23295C" fill-rule="evenodd" fill-opacity="1"/><path d="M2571.08 565.029C2564.51 565.029 2559 570.546 2559 577.12L2559 741.223C2559 747.798 2564.51 752.972 2571.08 752.972L2938.92 752.972C2945.46 752.972 2951 747.798 2951 741.223L2951 577.12C2951 570.546 2945.46 565.029 2938.92 565.029Z" fill="#FFFFFF" fill-rule="evenodd" fill-opacity="1"/><path d="M2571.08 565.029C2564.51 565.029 2559 570.552 2559 577.134L2559 601 2951 601 2951 577.134C2951 570.552 2945.46 565.029 2938.92 565.029Z" fill="#23295C" fill-rule="evenodd" fill-opacity="1"/><path d="M2917.27 618.029C2900.18 618.029 2873.45 624.792 2849.57 659.867 2838.97 675.656 2830.27 681.416 2822.21 681.416 2800.86 681.416 2783.85 641.04 2747.6 638.031 2746.29 637.916 2745.04 637.859 2743.79 637.859 2704.03 637.859 2697.71 696.374 2669.46 696.374 2664.91 696.374 2659.83 694.884 2653.93 691.388 2635.58 680.47 2621.39 676.115 2610.02 676.115 2593.24 676.115 2582.63 685.628 2574.03 697.607L2574.03 733.971 2935 733.971 2935 620.722C2935 620.722 2928.05 618.029 2917.27 618.029Z" fill="#1226DB" fill-rule="evenodd" fill-opacity="1"/><path d="M2574.03 620.03 2574.03 625 2645 625 2645 620.03Z" fill="#0E1DA8" fill-rule="evenodd" fill-opacity="1"/><path d="M2574.03 629.029 2574.03 633.971 2693.97 633.971 2693.97 629.029Z" fill="#0E1DA8" fill-rule="evenodd" fill-opacity="1"/><path d="M2574.03 638.023 2574.03 641.977 2663.97 641.977 2663.97 638.023Z" fill="#0E1DA8" fill-rule="evenodd" fill-opacity="1"/><path d="M2574.03 646 2574.03 650.971 2682.97 650.971 2682.97 646Z" fill="#0E1DA8" fill-rule="evenodd" fill-opacity="1"/><path d="M2574.03 655 2574.03 660 2645 660 2645 655Z" fill="#0E1DA8" fill-rule="evenodd" fill-opacity="1"/><path d="M1824 516C1840.92 561.6 1884.81 592 1933.5 592 1982.19 592 2026.05 561.6 2042.97 516Z" fill="#0E1DA8" fill-rule="evenodd" fill-opacity="1"/><path d="M1825.71 400C1804.56 430.6 1799.03 469.885 1811.15 505L1922 467.095 1825.71 400Z" fill="#5664E1" fill-rule="evenodd" fill-opacity="1"/><path d="M1938.03 339.029 1938.03 455.828 2024.17 534.971C2093 459.974 2040.08 339.029 1938.03 339.029Z" fill="#07105C" fill-rule="evenodd" fill-opacity="1"/><path d="M1920.97 350.029C1883.04 350.029 1847.91 369.04 1826.03 400.344L1922 467 1922 350.029C1921.66 350.029 1921.31 350.029 1920.97 350.029Z" fill="#FFB127" fill-rule="evenodd" fill-opacity="1"/><path d="M1921.68 467.029 1900 580.928C1907.29 582.319 1914.6 583 1921.86 583 1953.96 583 1984.8 569.66 2006.97 545.592L1921.68 467.029Z" fill="#8FCEF9" fill-rule="evenodd" fill-opacity="1"/><path d="M1922 467.029 1812 504.801C1825.46 544.278 1859.24 573.445 1900.26 581L1922 467.029Z" fill="#1226DB" fill-rule="evenodd" fill-opacity="1"/><path d="M1709.56 770C1705.44 770 1702 773.451 1702 777.929L1702 826.898C1702 831.034 1705.44 834.485 1709.56 834.485L1837.65 834.485C1838.34 839.647 1842.11 849.972 1860.66 849.972 1860.66 849.972 1853.11 848.603 1851.38 834.485L1864.41 834.485C1868.56 834.485 1871.97 831.034 1871.97 826.898L1871.97 777.929C1871.97 773.451 1868.56 770 1864.07 770Z" fill="#23295C" fill-rule="evenodd" fill-opacity="1"/><path d="M1706 766C1701.5 766 1698.03 769.494 1698.03 774.028L1698.03 823.61C1698.03 827.797 1701.5 831.291 1706 831.291L1835.32 831.291C1836.01 836.864 1839.48 847 1858.55 847 1858.55 847 1850.58 845.585 1849.17 831.291L1862.03 831.291C1866.53 831.291 1870 827.797 1870 823.61L1870 774.028C1870 769.494 1866.18 766 1862.03 766Z" fill="#EBFAFF" fill-rule="evenodd" fill-opacity="1"/><path d="M1706.45 773.026C1705.05 773.026 1704.03 773.961 1704.03 775.234L1704.03 776.792C1704.03 778.039 1705.05 779 1706.45 779L1860.55 779C1861.95 779 1862.97 778.039 1862.97 776.792L1862.97 775.234C1862.97 773.961 1861.95 773.026 1860.55 773.026Z" fill="#23295C" fill-rule="evenodd" fill-opacity="1"/><path d="M1706.45 784.026C1705.05 784.026 1704.03 784.961 1704.03 786.208L1704.03 787.792C1704.03 789.039 1705.05 789.974 1706.45 789.974L1860.55 789.974C1861.95 789.974 1862.97 789.039 1862.97 787.792L1862.97 786.208C1862.97 784.961 1861.95 784.026 1860.55 784.026Z" fill="#23295C" fill-rule="evenodd" fill-opacity="1"/><path d="M1706.45 795.029C1705.05 795.029 1704.03 796.412 1704.03 797.449L1704.03 799.551C1704.03 800.934 1705.05 801.971 1706.45 801.971L1860.55 801.971C1861.95 801.971 1862.97 800.934 1862.97 799.551L1862.97 797.449C1862.97 796.412 1861.95 795.029 1860.55 795.029Z" fill="#23295C" fill-rule="evenodd" fill-opacity="1"/><path d="M1706.45 806C1705.05 806 1704.03 807.121 1704.03 808.576L1704.03 810.394C1704.03 811.879 1705.05 812.97 1706.45 812.97L1860.55 812.97C1861.95 812.97 1862.97 811.879 1862.97 810.394L1862.97 808.576C1862.97 807.121 1861.95 806 1860.55 806Z" fill="#23295C" fill-rule="evenodd" fill-opacity="1"/><path d="M1706.45 817C1705.05 817 1704.03 818.096 1704.03 819.222L1704.03 821.413C1704.03 822.904 1705.05 824 1706.45 824L1860.55 824C1861.95 824 1862.97 822.904 1862.97 821.413L1862.97 819.222C1862.97 818.096 1861.95 817 1860.55 817Z" fill="#23295C" fill-rule="evenodd" fill-opacity="1"/><path d="M2767.97 795.029C2763.49 795.029 2760.03 798.451 2760.03 802.587L2760.03 851.898C2760.03 856.034 2763.49 859.485 2767.97 859.485L2780.75 859.485C2779 873.602 2771.43 875 2771.43 875 2790.06 875 2793.86 864.647 2794.55 859.485L2923.4 859.485C2927.54 859.485 2931 856.034 2931 851.898L2931 802.587C2931 798.451 2927.54 795.029 2923.4 795.029Z" fill="#23295C" fill-rule="evenodd" fill-opacity="1"/><path d="M2770.93 791.029C2766.79 791.029 2763 794.466 2763.34 798.619L2763.34 847.799C2763.34 852.296 2766.79 855.762 2770.93 855.762L2783.7 855.762C2782.31 869.596 2774.38 871 2774.38 871 2793.34 871 2796.79 860.946 2797.48 855.762L2926.04 855.762C2930.55 855.762 2933.97 852.296 2933.97 847.799L2933.97 798.619C2933.97 794.466 2930.55 791.029 2926.04 791.029Z" fill="#EBFAFF" fill-rule="evenodd" fill-opacity="1"/><path d="M2883.48 798C2881.4 798 2880.03 799.405 2880.03 801.471L2880.03 845.156C2880.03 847.25 2881.4 848.971 2883.48 848.971L2925.18 848.971C2927.26 848.971 2928.97 847.25 2928.97 845.156L2928.97 801.471C2928.97 799.405 2927.26 798 2925.18 798Z" fill="#1226DB" fill-rule="evenodd" fill-opacity="1"/><path d="M2772.08 798C2771.03 798 2770 798.66 2770 799.679L2770 802.321C2770 803.339 2771.03 804 2772.08 804L2871.26 804C2872.29 804 2872.97 803.339 2872.97 802.321L2872.97 799.679C2872.97 798.66 2872.29 798 2871.26 798Z" fill="#1226DB" fill-rule="evenodd" fill-opacity="1"/><path d="M2794.39 809C2793.71 809 2793.03 809.66 2793.03 810.321L2793.03 813.321C2793.03 814.312 2793.71 815 2794.39 815L2871.61 815C2872.29 815 2872.97 814.312 2872.97 813.321L2872.97 810.321C2872.97 809.66 2872.29 809 2871.61 809Z" fill="#1226DB" fill-rule="evenodd" fill-opacity="1"/><path d="M2772.08 820.027C2771.03 820.027 2770 820.685 2770 821.671L2770 824.329C2770 825.315 2771.03 825.973 2772.08 825.973L2871.26 825.973C2872.29 825.973 2872.97 825.315 2872.97 824.329L2872.97 821.671C2872.97 820.685 2872.29 820.027 2871.26 820.027Z" fill="#1226DB" fill-rule="evenodd" fill-opacity="1"/><path d="M2780.73 831.027C2779.68 831.027 2779 831.685 2779 832.671L2779 835.329C2779 836.315 2779.68 836.973 2780.73 836.973L2871.27 836.973C2872.29 836.973 2872.97 836.315 2872.97 835.329L2872.97 832.671C2872.97 831.685 2872.29 831.027 2871.27 831.027Z" fill="#1226DB" fill-rule="evenodd" fill-opacity="1"/><path d="M2835.02 842C2834.34 842 2834 842.757 2834 843.121L2834 847.515C2834 848.242 2834.34 848.97 2835.02 848.97L2871.95 848.97C2872.63 848.97 2872.97 848.242 2872.97 847.515L2872.97 843.121C2872.97 842.757 2872.63 842 2871.95 842Z" fill="#1226DB" fill-rule="evenodd" fill-opacity="1"/><path d="M2420.3 468 2394.45 473.234C2342.03 481.92 2327.54 501.045 2323.74 510.421 2322.71 512.146 2322.37 514.246 2322.03 515.971L2478.6 515.971C2479.97 468 2420.3 468 2420.3 468Z" fill="#FFB127" fill-rule="evenodd" fill-opacity="1"/><path d="M2329.83 510.027C2327.71 510.027 2325.63 510.27 2323.74 510.757 2322.71 512.378 2322.37 514.351 2322.03 515.973L2427 515.973C2427 515.973 2424.23 512.378 2410.77 512.378L2342.4 512.378 2336.17 510.757C2334.11 510.27 2331.94 510.027 2329.83 510.027Z" fill="#F29127" fill-rule="evenodd" fill-opacity="1"/><path d="M2415.15 442.028 2389 470.318C2390.71 473.054 2392.06 476.1 2392.74 479.174 2393.41 483.264 2397.15 486 2401.56 486 2423.97 484.646 2422.62 470.318 2422.62 470.318 2417.88 463.154 2415.15 442.028 2415.15 442.028Z" fill="#FFE1BD" fill-rule="evenodd" fill-opacity="1"/><path d="M2346.84 401.029 2335.06 404.479C2335.06 404.479 2334.03 433 2346.61 433 2346.67 433 2346.76 433 2346.84 433 2360 432.281 2346.84 401.029 2346.84 401.029Z" fill="#2C1E56" fill-rule="evenodd" fill-opacity="1"/><path d="M2376.15 400C2375.47 400 2345.43 403.824 2343.4 407.304 2341 410.783 2342.02 422.256 2342.02 423.291 2342.72 433.383 2344.75 443.102 2348.17 452.85L2348.85 454.23C2353.96 467.773 2362.51 480.281 2377.87 481L2381.96 481C2392.86 479.591 2408.22 462.224 2411.29 449.716 2411.29 449.371 2411.63 449.026 2411.63 448.307 2411.63 447.962 2411.63 447.617 2411.63 447.272 2411.97 443.447 2411.97 439.968 2411.63 436.144 2409.94 424.671 2407.88 413.227 2405.51 402.099 2405.51 402.099 2376.82 400 2376.15 400Z" fill="#FFE1BD" fill-rule="evenodd" fill-opacity="1"/><path d="M2413.5 436C2411.12 436 2408.65 436.452 2408.65 438.288 2406.59 445.463 2402.43 452.271 2396.87 457.751L2395.49 457.751C2393.4 457.412 2386.83 455.689 2383.36 455.011 2381.5 454.785 2379.6 454.672 2377.68 454.672 2373.55 454.672 2369.37 455.209 2365.32 456.367 2357.01 459.644 2360.53 463.571 2358.04 463.571 2357.95 463.571 2357.84 463.571 2357.69 463.542 2354.25 463.203 2348 452.977 2348 452.977L2348.34 454.333C2353.42 467.667 2359.5 480.972 2377.17 480.972 2377.6 480.972 2378.05 480.972 2378.51 480.972 2379.55 480.972 2380.92 480.633 2382.33 480.633 2398.96 479.249 2414.22 460.124 2416.28 447.836L2416.28 446.819C2416.97 443.401 2416.97 439.644 2416.63 436.226 2415.82 436.113 2414.68 436 2413.5 436Z" fill="#23295C" fill-rule="evenodd" fill-opacity="1"/><path d="M2379.26 374.029C2375.06 374.029 2369.94 374.66 2363.75 376.467 2357.69 378.245 2352.44 378.876 2348 378.876 2337.58 378.876 2331.84 375.377 2331.18 375.377 2331.13 375.377 2331.13 375.406 2331.13 375.434 2328.71 382.032 2328.03 389.289 2329.39 396.231 2329.39 396.231 2329.88 411.578 2350.93 411.578 2355.22 411.578 2360.34 410.947 2366.5 409.398 2373.32 407.762 2379.49 406.242 2384.26 406.242 2386.45 406.242 2388.33 406.558 2389.86 407.332 2397.19 430.223 2397.39 441.353 2399.92 441.353 2400.01 441.353 2400.06 441.324 2400.15 441.295 2403.42 440.32 2395.52 422.421 2404.44 422.421 2404.92 422.421 2405.43 422.478 2406 422.593 2414.58 424.314 2405.66 445.828 2405.66 445.828 2405.66 445.828 2407 446 2408.76 446 2411.83 446 2416.09 445.426 2416.29 442.357 2416.29 439.23 2416.97 397.264 2409.78 387.224 2406.34 381.688 2400.49 378.217 2393.98 377.872 2393.98 377.872 2389.46 374.029 2379.26 374.029Z" fill="#23295C" fill-rule="evenodd" fill-opacity="1"/><path d="M2361.08 659C2358.67 663.111 2355.9 667.223 2352.43 670.654 2349.65 673.064 2346.22 674.425 2342.41 674.766 2338.25 676.495 2334.45 679.217 2332.01 682.989 2330.72 684.265 2331.35 684.974 2332.9 684.974 2333.41 684.974 2334.07 684.888 2334.79 684.718 2337.91 684.038 2342.06 681.628 2343.09 681.628 2344.47 681.628 2344.47 683.357 2343.09 686.079 2341.35 689.51 2338.94 692.601 2336.16 694.983 2334.1 696.713 2328.55 699.803 2327.52 701.845 2327 703.093 2327.23 703.972 2328.57 703.972 2329.09 703.972 2329.78 703.858 2330.64 703.575 2334.1 701.845 2337.54 700.144 2340.66 698.074 2342.06 697.393 2343.44 696.372 2344.47 695.352 2346.5 695.834 2348.71 696.146 2350.83 696.146 2351.63 696.146 2352.37 696.117 2353.12 696.032 2354.86 695.692 2355.9 695.352 2357.27 694.302 2357.61 694.302 2358.33 694.302 2358.67 693.962 2361.08 692.941 2362.83 683.698 2364.2 681.287 2367.67 676.836 2371.82 673.064 2375.97 669.293L2361.08 659Z" fill="#FFE1BD" fill-rule="evenodd" fill-opacity="1"/><path d="M2431.77 501 2426.95 516.533C2428.66 517.246 2430.4 518.617 2431.08 520.673 2430.74 541.402 2425.58 561.418 2415.92 579.691 2415.58 580.377 2414.89 581.091 2414.21 582.118 2389.75 617.667 2357 663.551 2357 663.551L2370.8 676C2370.8 676 2392.15 657.013 2410.42 640.081 2426.95 624.919 2452.78 586.601 2457.28 579.691L2457.62 579.006 2457.96 578.321C2473.47 554.508 2478.97 516.533 2478.97 516.533L2458.99 503.084 2448.98 507.91C2442.46 505.169 2431.77 501 2431.77 501Z" fill="#FFB127" fill-rule="evenodd" fill-opacity="1"/><path d="M2306.03 516C2315.02 516 2318.48 519.641 2326.1 519.641 2327.13 519.641 2328.16 520.002 2328.84 520.755L2330.93 522.199C2331.62 522.921 2332.31 524.005 2332.99 524.366 2334.4 526.201 2335.77 527.285 2336.8 527.285 2337 527.375 2337.2 527.435 2337.43 527.435 2338.03 527.435 2338.72 527.104 2339.23 526.562 2339.23 526.562 2339.23 526.201 2339.23 525.84 2340.61 527.285 2341.64 528.368 2342.7 528.368 2342.9 528.488 2343.13 528.518 2343.36 528.518 2343.93 528.518 2344.53 528.278 2344.76 528.007 2345.45 528.368 2346.16 528.759 2346.85 528.759 2347.14 528.91 2347.42 528.97 2347.74 528.97 2348.17 528.97 2348.65 528.819 2349.25 528.368 2349.25 528.368 2349.6 527.646 2348.91 527.285L2347.88 525.84 2348.22 525.84C2349.25 525.84 2349.97 525.479 2350.66 525.118 2350.66 525.118 2351 524.366 2350.66 524.005 2349.97 523.643 2347.88 520.755 2346.16 518.558 2345.82 518.197 2345.1 517.474 2344.76 516.752L2344.76 516.391C2345.45 516.391 2346.51 516.391 2347.19 516Z" fill="#5FB0E7" fill-rule="evenodd" fill-opacity="1"/><path d="M2327.07 511.029C2315.77 511.029 2304 516.677 2304 516.677 2312.99 516.677 2316.45 520.128 2324.07 520.128 2325.1 520.128 2326.16 520.471 2326.84 521.184L2328.9 522.553 2330.99 524.607C2331.68 526.005 2333.06 527.032 2334.8 527.374 2334.97 527.46 2335.2 527.517 2335.4 527.517 2336 527.517 2336.72 527.203 2337.21 526.689 2337.21 526.689 2337.21 526.347 2337.21 526.005 2338.61 527.374 2339.64 528.401 2340.67 528.401 2340.87 528.515 2341.1 528.544 2341.36 528.544 2341.93 528.544 2342.5 528.315 2342.76 528.059 2343.45 528.401 2344.13 528.772 2344.82 528.772 2345.11 528.914 2345.39 528.971 2345.71 528.971 2346.17 528.971 2346.65 528.829 2347.25 528.401 2347.25 528.401 2347.25 527.374 2347.25 527.374 2346.91 527.032 2346.57 526.689 2345.88 526.005L2346.57 526.005C2347.25 526.005 2347.94 525.662 2348.63 525.32 2348.63 525.32 2348.97 524.607 2348.63 524.265 2347.94 523.922 2345.88 521.184 2344.13 519.444L2342.76 517.39C2343.45 517.048 2344.48 517.048 2345.16 516.677 2346.22 516.335 2347.25 514.281 2343.79 514.281 2341.7 514.281 2339.98 513.938 2338.27 513.596 2334.94 511.713 2331.02 511.029 2327.07 511.029Z" fill="#FFE1BD" fill-rule="evenodd" fill-opacity="1"/><path d="M2345.91 516.254C2344.89 516.612 2344.2 516.612 2343.17 517 2341.77 515.537 2340.4 514.463 2339.03 513.03 2340.74 513.388 2342.49 513.746 2344.2 513.746 2348 513.746 2346.97 515.896 2345.91 516.254Z" fill="#FBC98E" fill-rule="evenodd" fill-opacity="1"/><path d="M2927.5 1392.03C2905.14 1393.32 2890 1395.92 2890 1398.5 2890 1402.75 2921.64 1405.97 2960.5 1405.97 2999.7 1405.97 3031 1402.75 3031 1398.5 3031 1395.6 3014.16 1392.99 2989.38 1392.03L2988.35 1396.25C2987.67 1397.86 2986.3 1398.85 2984.23 1399.17L2932.31 1399.17C2930.6 1398.85 2928.86 1397.86 2928.52 1396.25L2927.5 1392.03Z" fill="#FDE571" fill-rule="evenodd" fill-opacity="1"/><path d="M2867.87 1240.03C2842.99 1240.03 2840.03 1269.24 2840.03 1269.24 2840.03 1269.24 2851.64 1262.09 2869.97 1262.09 2877.8 1262.09 2886.88 1263.41 2896.79 1267.14 2929.8 1279.64 2932.22 1305 2932.22 1305L2943.92 1304.66C2944.61 1302.56 2944.61 1300.84 2944.95 1299.08 2945.97 1283.46 2936.35 1282.08 2936.35 1282.08 2936.35 1282.08 2938.06 1263.67 2927.75 1254.65 2924.4 1251.63 2920.87 1250.54 2917.54 1250.54 2908.6 1250.54 2900.91 1258.47 2900.91 1258.47 2900.91 1258.47 2895.76 1241.46 2869.6 1240.09 2869 1240.03 2868.44 1240.03 2867.87 1240.03Z" fill="#61C5F2" fill-rule="evenodd" fill-opacity="1"/><path d="M2932.22 1305C2932.22 1305 2929.8 1279.76 2896.79 1267.33 2863.77 1254.89 2840.03 1269.41 2840.03 1269.41 2840.03 1269.41 2843.1 1239 2869.6 1240.4 2895.76 1241.77 2900.91 1258.69 2900.91 1258.69 2900.91 1258.69 2915.37 1243.83 2927.75 1254.89 2938.06 1263.87 2936.35 1282.19 2936.35 1282.19 2936.35 1282.19 2945.97 1283.56 2944.95 1299.11 2944.61 1300.86 2944.61 1302.57 2943.92 1304.66" fill="#07105C" fill-rule="evenodd" fill-opacity="1"/><path d="M2911.42 1188.03 2910 1189.4C2910.72 1189.74 2950.89 1224.95 2951.24 1304L2952.97 1304C2952.62 1223.93 2911.76 1188.37 2911.42 1188.03Z" fill="#1226DB" fill-rule="evenodd" fill-opacity="1"/><path d="M2903.01 1177.03C2897.92 1177.03 2894.03 1183.96 2899.27 1187.93 2902.44 1189.92 2906.27 1190.97 2910.1 1190.97 2911.05 1190.97 2912.04 1190.91 2913 1190.77 2912.64 1186.18 2910.1 1181.59 2906.87 1178.4 2905.58 1177.44 2904.26 1177.03 2903.01 1177.03Z" fill="#1226DB" fill-rule="evenodd" fill-opacity="1"/><path d="M2914.21 1194.03C2909.99 1194.03 2906.09 1195.12 2902.74 1197.56 2898 1201.69 2901.87 1208 2906.64 1208 2907.88 1208 2909.18 1207.57 2910.4 1206.57 2913.54 1203.09 2915.31 1198.59 2916 1194.09 2915.39 1194.03 2914.79 1194.03 2914.21 1194.03Z" fill="#1226DB" fill-rule="evenodd" fill-opacity="1"/><path d="M2925.56 1180C2924.46 1180 2923.31 1180.38 2922.15 1181.24 2918.74 1184.82 2916.71 1189.12 2916.03 1193.76 2916.96 1193.91 2917.89 1193.97 2918.82 1193.97 2922.4 1193.97 2926.02 1192.96 2928.98 1191.25 2933.97 1187.16 2930.39 1180 2925.56 1180Z" fill="#1226DB" fill-rule="evenodd" fill-opacity="1"/><path d="M2924.49 1209.03C2920.98 1209.03 2917.39 1209.85 2914.2 1211.48 2909 1215.39 2912.33 1222.97 2917.39 1222.97 2918.5 1222.97 2919.73 1222.61 2920.93 1221.76 2924.46 1218.45 2926.95 1214.06 2928 1209.3 2926.86 1209.12 2925.69 1209.03 2924.49 1209.03Z" fill="#1226DB" fill-rule="evenodd" fill-opacity="1"/><path d="M2938.35 1197.03C2937.27 1197.03 2936.1 1197.39 2934.94 1198.27 2931.15 1201.21 2928.39 1205.61 2927.03 1210.36 2928.71 1210.79 2930.41 1210.97 2932.15 1210.97 2934.99 1210.97 2937.84 1210.42 2940.43 1209.27 2947 1205.91 2943.61 1197.03 2938.35 1197.03Z" fill="#1226DB" fill-rule="evenodd" fill-opacity="1"/><path d="M3001.27 1145.03C3000.93 1145.37 2952.03 1197.9 2961.25 1304L2963.66 1304C2954.77 1198.92 3002.66 1147.09 3003 1146.74L3001.27 1145.03Z" fill="#5664E1" fill-rule="evenodd" fill-opacity="1"/><path d="M3012.85 1129.03C3011.1 1129.03 3009.22 1129.74 3007.52 1131.43 3003.41 1136.08 3001.34 1142.54 3001 1149 3007.18 1149 3013.34 1146.84 3018.13 1142.9 3023.97 1137.36 3018.92 1129.03 3012.85 1129.03Z" fill="#5664E1" fill-rule="evenodd" fill-opacity="1"/><path d="M3001.08 1153.03C2999.72 1153.03 2998.36 1153.14 2997 1153.35 2998 1159.28 3001.03 1164.57 3005.39 1168.53 3006.86 1169.54 3008.39 1169.97 3009.81 1169.97 3016.19 1169.97 3021 1161.16 3014.14 1156.3 3010.22 1154.28 3005.72 1153.03 3001.08 1153.03Z" fill="#5664E1" fill-rule="evenodd" fill-opacity="1"/><path d="M2983.07 1137C2976.46 1137 2972 1147 2979.37 1151.26 2982.99 1153.1 2987.05 1154 2991.06 1154 2993.08 1154 2995.07 1153.77 2996.97 1153.32 2996.97 1153.32 2994.28 1142.39 2987.16 1138.3 2985.76 1137.4 2984.36 1137 2983.07 1137Z" fill="#5664E1" fill-rule="evenodd" fill-opacity="1"/><path d="M2990.59 1175.03C2988.04 1175.03 2985.49 1175.37 2983.03 1176.09 2984.77 1181.97 2988.62 1187.14 2993.52 1190.94 2994.94 1191.66 2996.28 1191.97 2997.55 1191.97 3004.8 1191.97 3009 1181.54 3001.23 1177.14 2997.75 1175.71 2994.16 1175.03 2990.59 1175.03Z" fill="#5664E1" fill-rule="evenodd" fill-opacity="1"/><path d="M2968.69 1161.03C2961.67 1161.03 2958 1172.22 2965.15 1176.36 2968.02 1177.46 2971.06 1178 2974.09 1178 2977.1 1178 2980.13 1177.46 2983 1176.36 2980.63 1170.26 2976.93 1165.23 2971.56 1161.63 2970.56 1161.21 2969.61 1161.03 2968.69 1161.03Z" fill="#5664E1" fill-rule="evenodd" fill-opacity="1"/><path d="M2983.24 1200.03C2979.76 1200.03 2976.28 1200.64 2973 1201.78 2975.38 1207.5 2979.45 1212.24 2984.86 1215.25 2985.99 1215.75 2987.08 1215.97 2988.09 1215.97 2995.3 1215.97 2999 1204.66 2990.98 1201.11 2988.48 1200.39 2985.87 1200.03 2983.24 1200.03Z" fill="#5664E1" fill-rule="evenodd" fill-opacity="1"/><path d="M2956.97 1188C2949.26 1188 2946.03 1199.94 2954.69 1203.03 2956.94 1203.66 2959.23 1203.97 2961.49 1203.97 2965.4 1203.97 2969.26 1203.06 2972.97 1201.31 2970.23 1195.77 2965.71 1191.29 2959.86 1188.54 2958.83 1188.17 2957.89 1188 2956.97 1188Z" fill="#5664E1" fill-rule="evenodd" fill-opacity="1"/><path d="M2979.77 1222C2974.97 1222 2970.29 1223.41 2966 1225.91 2969.44 1231.24 2974.23 1235.5 2980.08 1237.65 2980.91 1237.88 2981.67 1238 2982.41 1238 2990.56 1238 2992.97 1224.65 2983.86 1222.35 2982.5 1222.12 2981.13 1222 2979.77 1222Z" fill="#5664E1" fill-rule="evenodd" fill-opacity="1"/><path d="M2949.5 1216.03C2940.81 1216.03 2939 1229.39 2948.59 1230.94 2949.1 1230.97 2949.64 1231 2950.14 1231 2955.76 1231 2961.29 1229.34 2966 1226.26 2962.25 1221.24 2957.11 1217.89 2951.33 1216.19 2950.68 1216.08 2950.09 1216.03 2949.5 1216.03Z" fill="#5664E1" fill-rule="evenodd" fill-opacity="1"/><path d="M2978.02 1247.03C2972.1 1247.03 2966.78 1248.68 2962.03 1251.97 2965.8 1256.54 2971.01 1260.14 2977.22 1261.76 2977.93 1261.92 2978.59 1261.97 2979.22 1261.97 2988.26 1261.97 2989.97 1247.68 2979.65 1247.05 2979.1 1247.03 2978.56 1247.03 2978.02 1247.03Z" fill="#5664E1" fill-rule="evenodd" fill-opacity="1"/><path d="M2946.48 1243C2936.8 1243 2936.03 1257.01 2946.11 1257.97 2952.32 1257.64 2958.16 1255.66 2963 1251.68 2963 1251.68 2955.42 1243.36 2947.16 1243.03 2946.94 1243.03 2946.71 1243 2946.48 1243Z" fill="#5664E1" fill-rule="evenodd" fill-opacity="1"/><path d="M2976.88 1278.03C2971.19 1278.03 2965.79 1279.71 2961 1283.13 2964.84 1287.9 2970.1 1291.26 2976.36 1292.97 2976.59 1292.97 2976.82 1293 2977.06 1293 2986.24 1293 2988 1280.05 2978.47 1278.06 2977.92 1278.03 2977.4 1278.03 2976.88 1278.03Z" fill="#5664E1" fill-rule="evenodd" fill-opacity="1"/><path d="M2945.44 1274C2935.97 1274 2935 1288.35 2945.04 1289 2951.27 1289 2957.48 1286.61 2961.97 1282.88 2961.97 1282.88 2954.74 1274.39 2946.41 1274.06 2946.1 1274.03 2945.75 1274 2945.44 1274Z" fill="#5664E1" fill-rule="evenodd" fill-opacity="1"/><path d="M2976.5 1305C2976.5 1305 2962 1258.17 2992.03 1250.93 2992.03 1250.93 2993.74 1188.6 3038.24 1204.44 3038.24 1204.44 3044.81 1180 3070.67 1181.05 3096.56 1182.08 3095.54 1206.86 3095.54 1206.86 3095.54 1206.86 3119 1210.65 3119 1230.28 3119 1230.28 3003.05 1197.58 2993.06 1304.66" fill="#0E1DA8" fill-rule="evenodd" fill-opacity="1"/><path d="M2906.9 1314.87 2928.64 1396.39C2928.98 1398.1 2930.72 1399.16 2932.78 1399.5L2984.56 1399.5C2986.65 1399.16 2988.02 1398.1 2988.71 1396.39L3010.1 1314.87C3011.5 1309.7 3007.7 1304.53 3002.53 1304.53L2914.84 1304.53C2909.64 1304.53 2905.5 1309.7 2906.9 1314.87Z" stroke="#5664E1" stroke-width="0.766896" stroke-linecap="butt" stroke-linejoin="miter" stroke-miterlimit="1" stroke-opacity="1" fill="none" fill-rule="evenodd"/><path d="M2989.47 1314.5 2974.53 1391.5" stroke="#23295C" stroke-width="0.766896" stroke-linecap="round" stroke-linejoin="miter" stroke-miterlimit="1" stroke-opacity="1" fill="none" fill-rule="evenodd"/></g></svg>